<?xml version="1.0" encoding="UTF-8" standalone="no"?>
<!-- Created with Inkscape (http://www.inkscape.org/) -->

<svg
   xmlns:dc="http://purl.org/dc/elements/1.1/"
   xmlns:cc="http://creativecommons.org/ns#"
   xmlns:rdf="http://www.w3.org/1999/02/22-rdf-syntax-ns#"
   xmlns:svg="http://www.w3.org/2000/svg"
   xmlns="http://www.w3.org/2000/svg"
   xmlns:sodipodi="http://sodipodi.sourceforge.net/DTD/sodipodi-0.dtd"
   xmlns:inkscape="http://www.inkscape.org/namespaces/inkscape"
   width="16.933331mm"
   height="16.933332mm"
   viewBox="0 0 16.933331 16.933334"
   version="1.1"
   id="svg8"
   inkscape:version="0.92.4 (5da689c313, 2019-01-14)"
   sodipodi:docname="IdlePulleyHolder_cmd.svg">
  <defs
     id="defs2" />
  <sodipodi:namedview
     id="base"
     pagecolor="#ffffff"
     bordercolor="#666666"
     borderopacity="1.0"
     inkscape:pageopacity="0.0"
     inkscape:pageshadow="2"
     inkscape:zoom="11.2"
     inkscape:cx="-26.271671"
     inkscape:cy="35.447788"
     inkscape:document-units="mm"
     inkscape:current-layer="layer1"
     showgrid="false"
     units="mm"
     inkscape:window-width="3840"
     inkscape:window-height="2055"
     inkscape:window-x="-13"
     inkscape:window-y="-13"
     inkscape:window-maximized="1" />
  <metadata
     id="metadata5">
    <rdf:RDF>
      <cc:Work
         rdf:about="">
        <dc:format>image/svg+xml</dc:format>
        <dc:type
           rdf:resource="http://purl.org/dc/dcmitype/StillImage" />
        <dc:title />
      </cc:Work>
    </rdf:RDF>
  </metadata>
  <g
     inkscape:label="Capa 1"
     inkscape:groupmode="layer"
     id="layer1"
     transform="translate(0,-280.06665)">
    <path
       style="opacity:1;fill:#fce94f;fill-opacity:1;fill-rule:nonzero;stroke:none;stroke-width:0.74834646;stroke-miterlimit:4;stroke-dasharray:none;stroke-opacity:1"
       d="M 27.514286,59.1486 C 9.5401868,56.367068 4.6088117,55.576814 4.5944679,55.475693 4.5844161,55.40483 4.2040736,45.307885 3.7492623,33.038038 L 2.9223329,10.729224 3.1204082,9.9630051 C 3.310042,9.229441 3.3460525,9.1680206 3.9653705,8.5218187 4.4761894,7.9888256 4.8748238,7.6907956 5.8605356,7.104941 L 7.1088139,6.363031 8.7623214,6.019099 C 11.614602,5.4258204 8.5545084,5.2136874 35.169683,7.8497201 l 4.932426,0.4885197 2.105138,0.5825526 c 2.379582,0.6584993 2.969873,0.9185199 5.289576,2.3300326 1.150649,0.700157 1.557389,1.006835 2.275066,1.715376 0.785961,0.775957 0.932703,0.975119 1.458015,1.978864 0.321254,0.61384 0.744498,1.492466 0.940542,1.952504 l 0.356444,0.836432 -0.906736,22.288568 c -0.498705,12.258712 -0.924237,22.37897 -0.945625,22.489461 -0.02139,0.110491 -0.08835,0.196334 -0.148794,0.190763 -0.06045,-0.0056 -10.4156,-1.604958 -23.011449,-3.554193 z m 14.732865,-2.294433 1.126753,-0.491025 0.187796,-0.577615 0.187797,-0.577616 -0.220914,-0.543672 c -0.363516,-0.894617 -1.076635,-1.647475 -2.25946,-2.385367 L 40.247417,51.641494 H 38.39469 36.541964 l -0.832568,0.487435 c -0.759614,0.444725 -0.862158,0.538021 -1.170276,1.06474 l -0.33771,0.577305 0.129309,0.495175 c 0.108086,0.413908 0.256496,0.637758 0.90429,1.363953 l 0.774983,0.868778 1.220775,0.469609 1.220776,0.46961 1.334428,-0.04645 1.334428,-0.04646 z M 18.21064,53.048271 c 0.574461,-0.249988 1.088191,-0.487495 1.141622,-0.527796 0.05343,-0.0403 0.169375,-0.311826 0.257653,-0.60339 l 0.160507,-0.530115 -0.216626,-0.541439 c -0.363612,-0.908814 -1.103431,-1.698855 -2.266851,-2.420733 l -1.003403,-0.62259 H 14.43262 12.581698 l -0.784812,0.452942 c -0.861072,0.496954 -0.917172,0.548496 -1.304854,1.198844 -0.262629,0.440568 -0.264515,0.452929 -0.143657,0.941635 0.103369,0.417983 0.243686,0.63269 0.899798,1.376837 l 0.777331,0.881631 1.248734,0.475728 1.248734,0.475729 1.321597,-0.05138 1.321597,-0.05138 z"
       id="path828"
       inkscape:connector-curvature="0"
       transform="matrix(0.26458333,0,0,0.26458333,0,280.06665)" />
    <path
       style="opacity:1;fill:#fce94f;fill-opacity:1;fill-rule:nonzero;stroke:none;stroke-width:0.74834646;stroke-miterlimit:4;stroke-dasharray:none;stroke-opacity:1"
       d="m 51.537342,61.931179 c 0.003,-0.183881 0.415395,-10.234063 0.916449,-22.333738 l 0.911008,-21.99941 -0.371026,-0.902376 C 52.789709,16.199348 52.318124,15.209232 51.945806,14.495397 51.310849,13.27801 51.214723,13.144731 50.395918,12.346482 49.679085,11.647646 49.255551,11.333019 48.027618,10.587167 45.560207,9.0884506 44.914883,8.802387 42.4694,8.1232833 L 40.326543,7.528218 26.353329,6.1420044 C 15.778665,5.0929441 12.158835,4.7630215 11.47032,4.7855199 c -0.500387,0.016351 -0.902172,0.023234 -0.892857,0.015295 0.106128,-0.090444 7.406091,-3.3229046 7.849616,-3.4758502 0.492425,-0.1698086 0.981617,-0.2320352 2.717388,-0.34565957 L 23.261321,0.84073516 36.392146,2.1785377 c 7.221954,0.7357914 13.501206,1.3805615 13.953894,1.4328225 0.588111,0.067895 1.309773,0.257736 2.528022,0.6650236 1.539852,0.5148066 1.827608,0.6449243 2.971574,1.343687 0.696642,0.4255259 1.699323,1.0953695 2.22818,1.4885414 0.827054,0.6148615 1.05382,0.842949 1.621115,1.6305604 0.584186,0.8110638 0.700126,1.0419632 1.014605,2.0206194 0.671263,2.088971 0.704884,0.37374 -0.464453,23.694202 -0.568799,11.34375 -1.064411,20.832554 -1.10136,21.086233 l -0.06718,0.461233 -3.772321,3.132023 -3.772322,3.132022 0.0054,-0.334326 z"
       id="path830"
       inkscape:connector-curvature="0"
       transform="matrix(0.26458333,0,0,0.26458333,0,280.06665)" />
    <path
       style="opacity:1;fill:#fce94f;fill-opacity:1;fill-rule:nonzero;stroke:none;stroke-width:0.74834646;stroke-miterlimit:4;stroke-dasharray:none;stroke-opacity:1"
       d="M 37.647972,56.224411 36.576543,55.831837 35.88921,55.098273 c -0.378033,-0.403461 -0.71272,-0.844157 -0.74375,-0.979325 -0.09025,-0.393154 0.234501,-0.808058 0.992862,-1.26847 l 0.667769,-0.405413 h 1.57236 1.57236 l 0.871424,0.53857 c 0.947664,0.585689 1.572187,1.221878 1.877889,1.912969 0.274682,0.620963 0.151937,0.783739 -0.945009,1.253217 -0.848687,0.363226 -0.945863,0.384234 -1.964286,0.424647 l -1.071429,0.04252 z"
       id="path832"
       inkscape:connector-curvature="0"
       transform="matrix(0.26458333,0,0,0.26458333,0,280.06665)" />
    <path
       style="opacity:1;fill:#fce94f;fill-opacity:1;fill-rule:nonzero;stroke:none;stroke-width:0.74834646;stroke-miterlimit:4;stroke-dasharray:none;stroke-opacity:1"
       d="m 13.655547,52.36506 -1.128762,-0.411896 -0.653692,-0.74389 c -0.359531,-0.40914 -0.677209,-0.830828 -0.70595,-0.937085 -0.101302,-0.374509 0.267343,-0.838118 1.007919,-1.267565 l 0.687804,-0.398844 h 1.568874 1.568875 l 0.881257,0.558035 c 1.275922,0.807949 2.070799,1.822119 1.930123,2.462613 -0.05209,0.237164 -0.157059,0.306501 -1.012854,0.669039 -0.90975,0.385394 -1.00328,0.406268 -1.984787,0.442971 l -1.030046,0.03852 z"
       id="path834"
       inkscape:connector-curvature="0"
       transform="matrix(0.26458333,0,0,0.26458333,0,280.06665)" />
    <path
       style="fill:none;stroke:#000000;stroke-width:0.198;stroke-linecap:butt;stroke-linejoin:miter;stroke-opacity:1;stroke-miterlimit:4;stroke-dasharray:none"
       d="m 1.1103051,294.87387 12.4023439,1.9135 2.244233,-1.86626 0.566965,-11.22116 -0.07087,-0.56697 -0.188988,-0.56696 -0.354353,-0.4961 -0.496094,-0.37797 -0.732328,-0.44885 -0.921317,-0.3071 -7.3941596,-0.75596 -1.1339285,0.0709 -0.3543527,0.11812 -2.8348213,1.27567 -0.6850818,0.4016 -0.37797621,0.4016 -0.11811757,0.42522 z"
       id="path1519"
       inkscape:connector-curvature="0" />
    <path
       style="fill:none;stroke:#000000;stroke-width:0.198;stroke-linecap:butt;stroke-linejoin:miter;stroke-opacity:1;stroke-miterlimit:4;stroke-dasharray:none"
       d="m 13.512649,296.78737 0.496093,-12.04799 -0.188988,-0.44885 -0.330729,-0.63783 -0.448847,-0.44885 -0.732328,-0.44884 -0.566965,-0.28349 -1.110305,-0.3071 -7.4177825,-0.73233 -0.4724701,0.0236 -0.8976925,0.18902"
       id="path1521"
       inkscape:connector-curvature="0" />
    <path
       style="fill:none;stroke:#000000;stroke-width:0.198;stroke-linecap:butt;stroke-linejoin:miter;stroke-opacity:1;stroke-miterlimit:4;stroke-dasharray:none"
       d="M 10.606957,293.83443 H 9.7092634 l -0.4015997,0.23624 -0.1417412,0.23623 0.047247,0.18899 0.3779761,0.42522 0.6378344,0.23624 0.614212,-0.0236 0.543341,-0.23624 0.07087,-0.21261 -0.09449,-0.23624 -0.259858,-0.3071 z"
       id="path1523"
       inkscape:connector-curvature="0" />
    <path
       style="fill:none;stroke:#000000;stroke-width:0.198;stroke-linecap:butt;stroke-linejoin:miter;stroke-opacity:1;stroke-miterlimit:4;stroke-dasharray:none"
       d="M 4.2644471,292.81816 H 3.3667535 l -0.4015998,0.23624 -0.1417412,0.23623 0.047247,0.18899 0.3779761,0.42522 0.6378345,0.23624 0.614212,-0.0236 0.543341,-0.23624 0.07087,-0.21261 -0.09449,-0.23624 -0.259858,-0.3071 z"
       id="path1523-0"
       inkscape:connector-curvature="0" />
  </g>
</svg>
