<?xml version="1.0" encoding="UTF-8" standalone="no"?>
<!-- Created with Inkscape (http://www.inkscape.org/) -->

<svg
   xmlns:dc="http://purl.org/dc/elements/1.1/"
   xmlns:cc="http://creativecommons.org/ns#"
   xmlns:rdf="http://www.w3.org/1999/02/22-rdf-syntax-ns#"
   xmlns:svg="http://www.w3.org/2000/svg"
   xmlns="http://www.w3.org/2000/svg"
   xmlns:sodipodi="http://sodipodi.sourceforge.net/DTD/sodipodi-0.dtd"
   xmlns:inkscape="http://www.inkscape.org/namespaces/inkscape"
   width="16.933331mm"
   height="16.933332mm"
   viewBox="0 0 16.933331 16.933334"
   version="1.1"
   id="svg8"
   inkscape:version="0.92.4 (5da689c313, 2019-01-14)"
   sodipodi:docname="Thin_Linear_Bear_House_1Rail_cmd.svg">
  <defs
     id="defs2">
    <inkscape:path-effect
       effect="bspline"
       id="path-effect69"
       is_visible="true"
       weight="33.333333"
       steps="2"
       helper_size="0"
       apply_no_weight="true"
       apply_with_weight="true"
       only_selected="false" />
    <inkscape:path-effect
       effect="bspline"
       id="path-effect31"
       is_visible="true"
       weight="33.333333"
       steps="2"
       helper_size="0"
       apply_no_weight="true"
       apply_with_weight="true"
       only_selected="false" />
    <inkscape:path-effect
       effect="bspline"
       id="path-effect31-4"
       is_visible="true"
       weight="33.333333"
       steps="2"
       helper_size="0"
       apply_no_weight="true"
       apply_with_weight="true"
       only_selected="false" />
    <inkscape:path-effect
       effect="bspline"
       id="path-effect31-7"
       is_visible="true"
       weight="33.333333"
       steps="2"
       helper_size="0"
       apply_no_weight="true"
       apply_with_weight="true"
       only_selected="false" />
    <inkscape:path-effect
       effect="bspline"
       id="path-effect31-5"
       is_visible="true"
       weight="33.333333"
       steps="2"
       helper_size="0"
       apply_no_weight="true"
       apply_with_weight="true"
       only_selected="false" />
  </defs>
  <sodipodi:namedview
     id="base"
     pagecolor="#ffffff"
     bordercolor="#666666"
     borderopacity="1.0"
     inkscape:pageopacity="0.0"
     inkscape:pageshadow="2"
     inkscape:zoom="22.4"
     inkscape:cx="36.220557"
     inkscape:cy="29.95142"
     inkscape:document-units="mm"
     inkscape:current-layer="layer1"
     showgrid="false"
     units="mm"
     inkscape:window-width="3840"
     inkscape:window-height="2055"
     inkscape:window-x="-13"
     inkscape:window-y="-13"
     inkscape:window-maximized="1" />
  <metadata
     id="metadata5">
    <rdf:RDF>
      <cc:Work
         rdf:about="">
        <dc:format>image/svg+xml</dc:format>
        <dc:type
           rdf:resource="http://purl.org/dc/dcmitype/StillImage" />
        <dc:title />
      </cc:Work>
    </rdf:RDF>
  </metadata>
  <g
     inkscape:label="Capa 1"
     inkscape:groupmode="layer"
     id="layer1"
     transform="translate(0,-280.06665)">
    <path
       style="opacity:1;fill:#fce94f;fill-opacity:1;fill-rule:nonzero;stroke:none;stroke-width:0.74834646;stroke-miterlimit:4;stroke-dasharray:none;stroke-opacity:1"
       d="M 43.706903,61.14588 C 43.460283,61.105657 43.187182,61.016536 42.871187,60.873157 42.407045,60.662563 42.195184,60.496961 23.896002,46.041136 L 5.3901997,31.422088 v -0.838541 c 0,-0.461198 0.00848,-0.838542 0.018847,-0.838542 0.010366,0 1.1198857,0.84499 2.4656,1.877754 1.3457143,1.032765 2.4527603,1.859731 2.4601033,1.837704 0.0073,-0.02203 -0.208985,-4.146593 -0.4807271,-9.1657 -0.2717422,-5.019108 -0.4882742,-9.207179 -0.481182,-9.306824 l 0.012895,-0.181174 13.3035711,9.076532 c 7.316964,4.992093 13.326618,9.091478 13.354788,9.109745 0.03845,0.02493 0.01939,2.548333 -0.07645,10.121941 -0.07022,5.548801 -0.113353,10.101429 -0.09586,10.116953 0.136895,0.121478 6.535121,4.894428 6.7952,5.069086 l 0.334822,0.224852 0.758928,0.03074 c 0.651907,0.02641 0.865951,0.01657 1.517857,-0.06976 l 0.758929,-0.100508 6.964286,-4.520175 6.964286,-4.520175 0.01303,0.969592 c 0.0072,0.533276 0.0018,1.029861 -0.01199,1.103521 -0.02272,0.121624 -0.639152,0.536415 -6.709464,4.514746 -4.392844,2.878963 -6.927932,4.512942 -7.394695,4.766223 -0.698845,0.379214 -0.717137,0.386121 -1.138393,0.429674 -0.235475,0.02434 -0.478359,0.05138 -0.539743,0.06007 -0.06138,0.0087 -0.276456,-0.01108 -0.477939,-0.04394 z"
       id="path843"
       inkscape:connector-curvature="0"
       transform="matrix(0.26458333,0,0,0.26458333,0,280.06665)" />
    <path
       style="opacity:1;fill:#fce94f;fill-opacity:1;fill-rule:nonzero;stroke:none;stroke-width:0.74834646;stroke-miterlimit:4;stroke-dasharray:none;stroke-opacity:1"
       d="M 23.140134,23.227782 C 15.801036,18.220889 9.7810513,14.108297 9.76239,14.08869 9.7230271,14.047333 26.725348,6.2851841 26.855302,6.2851841 c 0.08131,0 27.062634,16.6704649 27.059475,16.7187499 -0.0017,0.02658 -17.306001,9.303705 -17.379874,9.317663 -0.02802,0.0053 -6.05567,-4.086922 -13.394769,-9.093815 z m 15.352744,6.78953 c 0.520836,-0.136964 0.879759,-0.333722 1.159031,-0.63537 0.698149,-0.754084 0.403657,-1.597971 -0.754193,-2.161192 -0.667859,-0.324871 -0.991827,-0.393248 -1.878052,-0.396386 -0.900496,-0.0032 -1.097242,0.03942 -1.830357,0.396393 -0.830374,0.40433 -1.227679,0.847325 -1.227679,1.368864 0,0.340237 0.158121,0.637827 0.517554,0.974059 0.412539,0.38591 0.53068,0.435001 1.182646,0.491429 0.304845,0.02638 0.624577,0.05587 0.710514,0.06551 0.08594,0.0096 0.517858,0.01148 0.959822,0.0041 0.642223,-0.01076 0.875282,-0.03233 1.160714,-0.107385 z m 10.795266,-5.802384 c 0.916567,-0.243648 1.503841,-0.809794 1.503841,-1.449737 0,-0.457483 -0.212087,-0.789003 -0.721346,-1.127558 -0.622298,-0.413703 -1.436749,-0.641027 -2.300289,-0.642041 -0.785066,-9.24e-4 -1.443146,0.179143 -2.11633,0.579075 -0.663545,0.394204 -0.986858,0.872954 -0.914661,1.354396 0.03989,0.265981 0.301048,0.6576 0.624363,0.936247 0.382559,0.329707 0.399602,0.334054 1.767549,0.450817 0.110491,0.0094 0.5625,0.01138 1.004464,0.0043 0.641937,-0.01023 0.873739,-0.03146 1.152409,-0.105539 z M 16.881732,15.507351 c 0.507643,-0.133274 0.796169,-0.278964 1.075336,-0.542988 0.337075,-0.318793 0.485571,-0.630924 0.460214,-0.967351 -0.02435,-0.322998 -0.129882,-0.544186 -0.378074,-0.792378 -0.746556,-0.746556 -2.342791,-1.118283 -3.564187,-0.83002 -0.524202,0.123717 -1.300403,0.506155 -1.6379,0.807 -0.338714,0.301929 -0.501127,0.627631 -0.473752,0.950058 0.01092,0.128628 0.05803,0.314226 0.104683,0.412441 0.111268,0.234229 0.658266,0.772284 0.888315,0.873792 0.111104,0.04902 0.39694,0.09861 0.73919,0.128237 0.306919,0.02657 0.638393,0.05608 0.736607,0.06558 0.09821,0.0095 0.520089,0.01076 0.9375,0.0028 0.58987,-0.01124 0.837593,-0.03512 1.112068,-0.107175 z m 10.370498,-4.35542 c 1.167533,-0.07896 2.066541,-0.753734 2.066541,-1.5511035 0,-0.1882317 -0.03045,-0.3206667 -0.109679,-0.4770166 -0.23885,-0.4713487 -0.946961,-0.925767 -1.789984,-1.148692 -0.583214,-0.1542225 -1.556549,-0.1740501 -2.05123,-0.041785 -1.27417,0.3406797 -2.175343,1.0916464 -2.11119,1.7592996 0.03055,0.3178995 0.19757,0.6065385 0.535387,0.9252185 0.38309,0.361388 0.490787,0.41518 0.941623,0.470327 0.465219,0.05691 1.686229,0.1211 1.951144,0.102581 0.110492,-0.0077 0.365816,-0.0252 0.567388,-0.03883 z"
       id="path847"
       inkscape:connector-curvature="0"
       transform="matrix(0.26458333,0,0,0.26458333,0,280.06665)" />
    <path
       style="opacity:1;fill:#fce94f;fill-opacity:1;fill-rule:nonzero;stroke:none;stroke-width:0.74834646;stroke-miterlimit:4;stroke-dasharray:none;stroke-opacity:1"
       d="m 35.903592,29.293035 c -0.245535,-0.02085 -0.492816,-0.04891 -0.549513,-0.06234 -0.129757,-0.03075 -0.485375,-0.355484 -0.571341,-0.521723 -0.08405,-0.162533 -0.03778,-0.249889 0.254914,-0.481249 0.564264,-0.446025 1.483533,-0.719315 2.182905,-0.648959 1.001804,0.100782 2.008928,0.593687 2.008928,0.983207 0,0.268343 -0.476424,0.592197 -1.049886,0.71367 -0.346549,0.07341 -1.51159,0.08231 -2.276007,0.0174 z"
       id="path849"
       inkscape:connector-curvature="0"
       transform="matrix(0.26458333,0,0,0.26458333,0,280.06665)" />
    <path
       style="opacity:1;fill:#fce94f;fill-opacity:1;fill-rule:nonzero;stroke:none;stroke-width:0.74834646;stroke-miterlimit:4;stroke-dasharray:none;stroke-opacity:1"
       d="m 46.684842,23.488691 c -0.257812,-0.02121 -0.509143,-0.04773 -0.558512,-0.05893 -0.127209,-0.02887 -0.552506,-0.457109 -0.585828,-0.589875 -0.04271,-0.170152 0.270354,-0.460121 0.762059,-0.705852 0.559379,-0.279552 0.873747,-0.352737 1.498353,-0.348816 0.599484,0.0038 1.051258,0.105366 1.545025,0.34747 0.308767,0.151395 0.687118,0.489679 0.687118,0.614355 0,0.03168 -0.04838,0.128791 -0.107504,0.215805 -0.137334,0.202105 -0.557144,0.427566 -0.95188,0.511212 -0.338156,0.07166 -1.504979,0.07912 -2.288831,0.01464 z"
       id="path851"
       inkscape:connector-curvature="0"
       transform="matrix(0.26458333,0,0,0.26458333,0,280.06665)" />
    <path
       style="opacity:1;fill:#fce94f;fill-opacity:1;fill-rule:nonzero;stroke:none;stroke-width:0.74834646;stroke-miterlimit:4;stroke-dasharray:none;stroke-opacity:1"
       d="m 25.54645,10.365948 c -0.976916,-0.07185 -0.944223,-0.06249 -1.235431,-0.353695 -0.163006,-0.1630052 -0.260105,-0.2976258 -0.260105,-0.3606143 0,-0.2719724 0.883238,-0.8072675 1.581583,-0.9585342 0.417934,-0.090528 1.175701,-0.067352 1.610381,0.049253 0.580999,0.1558547 1.316964,0.6208857 1.316964,0.8321437 0,0.1134936 -0.191677,0.3608268 -0.377358,0.4869288 -0.46002,0.312414 -1.264702,0.405372 -2.636034,0.304518 z"
       id="path853"
       inkscape:connector-curvature="0"
       transform="matrix(0.26458333,0,0,0.26458333,0,280.06665)" />
    <path
       style="opacity:1;fill:#fce94f;fill-opacity:1;fill-rule:nonzero;stroke:none;stroke-width:0.74834646;stroke-miterlimit:4;stroke-dasharray:none;stroke-opacity:1"
       d="m 14.273939,14.772575 c -0.530611,-0.04742 -0.56725,-0.05716 -0.740692,-0.196766 -0.232098,-0.186824 -0.37519,-0.380064 -0.37519,-0.506679 0,-0.217623 0.64177,-0.655168 1.261838,-0.860294 0.967712,-0.320131 2.358101,-0.07897 3.010209,0.522127 0.262678,0.242128 0.261698,0.382436 -0.0044,0.637449 -0.219053,0.209891 -0.543969,0.349949 -0.973554,0.419661 -0.354089,0.05746 -1.449009,0.04967 -2.178162,-0.0155 z"
       id="path855"
       inkscape:connector-curvature="0"
       transform="matrix(0.26458333,0,0,0.26458333,0,280.06665)" />
    <path
       style="opacity:1;fill:#fce94f;fill-opacity:1;fill-rule:nonzero;stroke:none;stroke-width:0.74834646;stroke-miterlimit:4;stroke-dasharray:none;stroke-opacity:1"
       d="M 7.5126785,30.348624 C 5.7896266,29.02182 5.6307893,28.888273 5.5293367,28.681069 l -0.1102849,-0.225242 0.082095,-0.27114 c 0.066814,-0.220671 0.1199047,-0.302123 0.2852233,-0.437589 0.1133294,-0.09286 0.8946264,-0.507166 1.7673186,-0.937162 1.35221,-0.666266 1.5681578,-0.760098 1.5934681,-0.692376 0.024457,0.06544 0.3107114,5.272074 0.3068127,5.58057 -6.981e-4,0.05525 -0.016336,0.09873 -0.034752,0.09663 -0.018415,-0.0021 -0.8763578,-0.65286 -1.9065391,-1.446132 z"
       id="path857"
       inkscape:connector-curvature="0"
       transform="matrix(0.26458333,0,0,0.26458333,0,280.06665)" />
    <path
       style="opacity:1;fill:#fce94f;fill-opacity:1;fill-rule:nonzero;stroke:none;stroke-width:0.74834646;stroke-miterlimit:4;stroke-dasharray:none;stroke-opacity:1"
       d="M 43.872342,41.744216 C 43.437754,41.57257 43.384071,41.537495 43.135735,41.262923 l -0.267857,-0.296155 -0.116356,-0.551133 c -0.114504,-0.542361 -0.115389,-0.560433 -0.05556,-1.135435 0.07986,-0.76758 0.277105,-1.373492 0.698841,-2.146802 0.697031,-1.278098 1.402311,-2.187606 2.381474,-3.071077 l 0.554546,-0.500351 0.678646,-0.188282 0.678646,-0.188282 0.243777,0.192358 c 0.169748,0.133943 0.327421,0.325241 0.519217,0.629943 l 0.275439,0.437585 0.0299,0.652089 c 0.02611,0.569293 0.01802,0.705937 -0.06367,1.076196 -0.395707,1.793435 -1.139211,3.262518 -2.269718,4.484714 -0.529476,0.572419 -1.21405,0.994741 -2.03732,1.256849 -0.02455,0.0078 -0.25558,-0.0691 -0.513393,-0.170924 z"
       id="path859"
       inkscape:connector-curvature="0"
       transform="matrix(0.26458333,0,0,0.26458333,0,280.06665)" />
    <path
       style="opacity:1;fill:#fce94f;fill-opacity:1;fill-rule:nonzero;stroke:none;stroke-width:0.74834646;stroke-miterlimit:4;stroke-dasharray:none;stroke-opacity:1"
       d="m 43.473786,57.747532 c -0.150099,-0.01033 -0.294502,-0.05234 -0.379465,-0.110391 -0.518887,-0.354555 -6.097477,-4.564493 -6.087349,-4.593879 0.01125,-0.03263 16.620535,-10.124691 16.693827,-10.143431 0.03227,-0.0082 5.335799,3.547825 5.530219,3.708071 0.0664,0.05473 0.235718,0.240061 0.376266,0.411853 0.322125,0.393733 0.438703,0.768152 0.361918,1.162389 l -0.04775,0.245175 -7.089328,4.601741 -7.089328,4.601741 -0.589243,0.07553 c -0.544401,0.06978 -1.075111,0.0828 -1.679764,0.0412 z m 6.43177,-5.834801 c 0.533106,-0.112995 0.940635,-0.379513 1.155456,-0.755652 0.174856,-0.306159 0.204652,-0.536559 0.111035,-0.858588 -0.155369,-0.534453 -0.962401,-1.14395 -1.76399,-1.332224 -0.758049,-0.178048 -1.539598,-0.01943 -2.013411,0.408634 -0.302596,0.273377 -0.419625,0.519776 -0.419625,0.883497 0,0.25952 0.02054,0.347443 0.121167,0.518611 0.378615,0.644041 1.404444,1.173897 2.311869,1.194113 0.110491,0.0025 0.334365,-0.02381 0.497499,-0.05839 z"
       id="path861"
       inkscape:connector-curvature="0"
       transform="matrix(0.26458333,0,0,0.26458333,0,280.06665)" />
    <path
       style="opacity:1;fill:#fce94f;fill-opacity:1;fill-rule:nonzero;stroke:none;stroke-width:0.74834646;stroke-miterlimit:4;stroke-dasharray:none;stroke-opacity:1"
       d="m 48.926337,51.106743 c -0.578515,-0.162129 -1.170066,-0.583834 -1.170066,-0.834117 0,-0.375816 0.659038,-0.667983 1.289241,-0.571551 0.599105,0.09167 1.38933,0.60753 1.38933,0.90695 0,0.136742 -0.160629,0.308386 -0.407308,0.435235 -0.249537,0.12832 -0.764012,0.157979 -1.101197,0.06348 z"
       id="path863"
       inkscape:connector-curvature="0"
       transform="matrix(0.26458333,0,0,0.26458333,0,280.06665)" />
    <path
       style="fill:none;stroke:#000000;stroke-width:0.198;stroke-linecap:butt;stroke-linejoin:miter;stroke-opacity:1;stroke-miterlimit:4;stroke-dasharray:none"
       d="m 15.95265,292.94083 -3.808591,2.47224 -0.367495,0.0501 -0.367496,-0.0167 -0.150339,-0.10023 -1.6704347,-1.25282 0.066817,-5.34539 -7.2997989,-4.9779 4.7607388,-2.17155 7.3666168,4.56028 -0.26727,5.12824 1.5368,1.03567 0.183748,0.21715 0.05011,0.20045 z"
       id="path1114"
       inkscape:connector-curvature="0" />
    <path
       style="fill:none;stroke:#000000;stroke-width:0.198;stroke-linecap:butt;stroke-linejoin:miter;stroke-opacity:1;stroke-miterlimit:4;stroke-dasharray:none"
       d="m 2.3553124,283.77013 0.2672698,4.9445 -1.2194172,-0.93545 -0.083522,-0.18374 0.066817,-0.20046 0.1336348,-0.11693 0.9521477,-0.46772"
       id="path1116"
       inkscape:connector-curvature="0" />
    <path
       style="fill:none;stroke:#000000;stroke-width:0.198;stroke-linecap:butt;stroke-linejoin:miter;stroke-opacity:1;stroke-miterlimit:4;stroke-dasharray:none"
       d="m 1.319643,287.59544 3e-7,0.83521 9.8555637,7.78423 0.26727,0.11693 0.217156,0.0334 0.317383,-0.0334 0.400904,-0.21716 3.591434,-2.35531 0.0167,-1.01897"
       id="path1118"
       inkscape:connector-curvature="0" />
    <path
       style="fill:none;stroke:#000000;stroke-width:0.198;stroke-linecap:butt;stroke-linejoin:miter;stroke-opacity:1;stroke-miterlimit:4;stroke-dasharray:none"
       d="m 9.6551111,288.74803 4.8275569,-2.58917"
       id="path1120"
       inkscape:connector-curvature="0" />
    <path
       style="fill:#ffff00;stroke:#000000;stroke-width:0.198;stroke-linecap:butt;stroke-linejoin:miter;stroke-opacity:1;stroke-miterlimit:4;stroke-dasharray:none"
       d="M 9.5882943,294.09342 14.215398,291.2871"
       id="path1122"
       inkscape:connector-curvature="0" />
    <path
       style="fill:none;stroke:#000000;stroke-width:0.198;stroke-linecap:butt;stroke-linejoin:miter;stroke-opacity:1;fill-opacity:1;stroke-miterlimit:4;stroke-dasharray:none"
       d="m 11.943607,291.20358 0.300678,-0.18375 0.217157,-0.23386 0.217156,-0.30068 0.183748,-0.3842 0.100226,-0.33409 0.05011,-0.23386 -0.0167,-0.3842 -0.167044,-0.26727 -0.183748,-0.15034 -0.434312,0.11693 -0.334087,0.30068 -0.250566,0.30068 -0.150339,0.23386 -0.167043,0.30068 -0.100226,0.30068 -0.03341,0.33408 0.06682,0.33409 0.183747,0.20045 0.300678,0.11693 z"
       id="path1163"
       inkscape:connector-curvature="0" />
    <path
       style="fill:none;stroke:#000000;stroke-width:0.198;stroke-linecap:butt;stroke-linejoin:miter;stroke-opacity:1;stroke-miterlimit:4;stroke-dasharray:none"
       d="m 3.5661775,284.05628 c -0.060031,-0.0512 -0.1801193,-0.15354 -0.1445212,-0.2639 0.035598,-0.11036 0.2265152,-0.22846 0.3996076,-0.28546 0.1730923,-0.057 0.3288675,-0.0531 0.4606222,-0.0324 0.1317547,0.0207 0.2401875,0.0581 0.3335892,0.11024 0.093402,0.0521 0.1722451,0.11913 0.1949488,0.19276 0.022704,0.0736 -0.010781,0.15439 -0.087758,0.22214 -0.076977,0.0678 -0.1967418,0.12195 -0.3870972,0.13775 -0.1903554,0.0158 -0.4493978,-0.007 -0.579379,-0.0185 -0.1299812,-0.0115 -0.1299812,-0.0115 -0.1900127,-0.0626 z"
       id="path29"
       inkscape:connector-curvature="0"
       inkscape:path-effect="#path-effect31"
       inkscape:original-d="m 3.626209,284.10745 c -0.1198216,-0.10263 -0.2399078,-0.205 -0.3602585,-0.3071 0.1912572,-0.11841 0.3821779,-0.2365 0.5728702,-0.35436 0.1555338,0.004 0.3113075,0.008 0.4665642,0.0118 0.1083596,0.0371 0.2168136,0.0745 0.3248234,0.11222 0.078897,0.0666 0.1577546,0.1336 0.2362351,0.2008 -0.033192,0.0804 -0.066669,0.16116 -0.1003999,0.24214 -0.1204299,0.0543 -0.2401729,0.10855 -0.3606559,0.16322 -0.2601508,-0.0232 -0.5191879,-0.0461 -0.7791786,-0.0687 z"
       transform="translate(-0.04429406,-0.04429409)" />
    <path
       style="fill:none;stroke:#000000;stroke-width:0.198;stroke-linecap:butt;stroke-linejoin:miter;stroke-opacity:1;stroke-miterlimit:4;stroke-dasharray:none"
       d="m 3.5661775,284.05628 c -0.060031,-0.0512 -0.1801193,-0.15354 -0.1445212,-0.2639 0.035598,-0.11036 0.2265152,-0.22846 0.3996076,-0.28546 0.1730923,-0.057 0.3288675,-0.0531 0.4606222,-0.0324 0.1317547,0.0207 0.2401875,0.0581 0.3335892,0.11024 0.093402,0.0521 0.1722451,0.11913 0.1949488,0.19276 0.022704,0.0736 -0.010781,0.15439 -0.087758,0.22214 -0.076977,0.0678 -0.1967418,0.12195 -0.3870972,0.13775 -0.1903554,0.0158 -0.4493978,-0.007 -0.579379,-0.0185 -0.1299812,-0.0115 -0.1299812,-0.0115 -0.1900127,-0.0626 z"
       id="path29-3"
       inkscape:connector-curvature="0"
       inkscape:path-effect="#path-effect31-4"
       inkscape:original-d="m 3.626209,284.10745 c -0.1198216,-0.10263 -0.2399078,-0.205 -0.3602585,-0.3071 0.1912572,-0.11841 0.3821779,-0.2365 0.5728702,-0.35436 0.1555338,0.004 0.3113075,0.008 0.4665642,0.0118 0.1083596,0.0371 0.2168136,0.0745 0.3248234,0.11222 0.078897,0.0666 0.1577546,0.1336 0.2362351,0.2008 -0.033192,0.0804 -0.066669,0.16116 -0.1003999,0.24214 -0.1204299,0.0543 -0.2401729,0.10855 -0.3606559,0.16322 -0.2601508,-0.0232 -0.5191879,-0.0461 -0.7791786,-0.0687 z"
       transform="translate(5.6697365,3.7959043)" />
    <path
       style="fill:none;stroke:#000000;stroke-width:0.198;stroke-linecap:butt;stroke-linejoin:miter;stroke-opacity:1;stroke-miterlimit:4;stroke-dasharray:none"
       d="m 3.5661775,284.05628 c -0.060031,-0.0512 -0.1801193,-0.15354 -0.1445212,-0.2639 0.035598,-0.11036 0.2265152,-0.22846 0.3996076,-0.28546 0.1730923,-0.057 0.3288675,-0.0531 0.4606222,-0.0324 0.1317547,0.0207 0.2401875,0.0581 0.3335892,0.11024 0.093402,0.0521 0.1722451,0.11913 0.1949488,0.19276 0.022704,0.0736 -0.010781,0.15439 -0.087758,0.22214 -0.076977,0.0678 -0.1967418,0.12195 -0.3870972,0.13775 -0.1903554,0.0158 -0.4493978,-0.007 -0.579379,-0.0185 -0.1299812,-0.0115 -0.1299812,-0.0115 -0.1900127,-0.0626 z"
       id="path29-1"
       inkscape:connector-curvature="0"
       inkscape:path-effect="#path-effect31-7"
       inkscape:original-d="m 3.626209,284.10745 c -0.1198216,-0.10263 -0.2399078,-0.205 -0.3602585,-0.3071 0.1912572,-0.11841 0.3821779,-0.2365 0.5728702,-0.35436 0.1555338,0.004 0.3113075,0.008 0.4665642,0.0118 0.1083596,0.0371 0.2168136,0.0745 0.3248234,0.11222 0.078897,0.0666 0.1577546,0.1336 0.2362351,0.2008 -0.033192,0.0804 -0.066669,0.16116 -0.1003999,0.24214 -0.1204299,0.0543 -0.2401729,0.10855 -0.3606559,0.16322 -0.2601508,-0.0232 -0.5191879,-0.0461 -0.7791786,-0.0687 z"
       transform="translate(2.840821,-1.218186)" />
    <path
       style="fill:none;stroke:#000000;stroke-width:0.198;stroke-linecap:butt;stroke-linejoin:miter;stroke-opacity:1;stroke-miterlimit:4;stroke-dasharray:none"
       d="m 3.5661775,284.05628 c -0.060031,-0.0512 -0.1801193,-0.15354 -0.1445212,-0.2639 0.035598,-0.11036 0.2265152,-0.22846 0.3996076,-0.28546 0.1730923,-0.057 0.3288675,-0.0531 0.4606222,-0.0324 0.1317547,0.0207 0.2401875,0.0581 0.3335892,0.11024 0.093402,0.0521 0.1722451,0.11913 0.1949488,0.19276 0.022704,0.0736 -0.010781,0.15439 -0.087758,0.22214 -0.076977,0.0678 -0.1967418,0.12195 -0.3870972,0.13775 -0.1903554,0.0158 -0.4493978,-0.007 -0.579379,-0.0185 -0.1299812,-0.0115 -0.1299812,-0.0115 -0.1900127,-0.0626 z"
       id="path29-7"
       inkscape:connector-curvature="0"
       inkscape:path-effect="#path-effect31-5"
       inkscape:original-d="m 3.626209,284.10745 c -0.1198216,-0.10263 -0.2399078,-0.205 -0.3602585,-0.3071 0.1912572,-0.11841 0.3821779,-0.2365 0.5728702,-0.35436 0.1555338,0.004 0.3113075,0.008 0.4665642,0.0118 0.1083596,0.0371 0.2168136,0.0745 0.3248234,0.11222 0.078897,0.0666 0.1577546,0.1336 0.2362351,0.2008 -0.033192,0.0804 -0.066669,0.16116 -0.1003999,0.24214 -0.1204299,0.0543 -0.2401729,0.10855 -0.3606559,0.16322 -0.2601508,-0.0232 -0.5191879,-0.0461 -0.7791786,-0.0687 z"
       transform="translate(8.5222751,2.260376)" />
    <path
       style="fill:none;stroke:#000000;stroke-width:0.198;stroke-linecap:butt;stroke-linejoin:miter;stroke-opacity:1;fill-opacity:1;stroke-miterlimit:4;stroke-dasharray:none"
       d="m 12.908221,293.12563 c -0.22801,-0.003 -0.419949,0.1485 -0.379111,0.30079 0.04084,0.1523 0.312324,0.30422 0.540511,0.30656 0.228187,0.002 0.411817,-0.14535 0.371566,-0.29692 -0.04025,-0.15157 -0.304957,-0.30783 -0.532966,-0.31043 z"
       id="path67"
       inkscape:connector-curvature="0"
       inkscape:path-effect="#path-effect69"
       inkscape:original-d="m 12.871861,292.97217 c -0.191677,0.15083 -0.383618,0.30192 -0.575823,0.45328 0.27432,0.15254 0.545574,0.30487 0.817964,0.45771 0.183779,-0.14787 0.367413,-0.29556 0.550723,-0.44295 -0.263606,-0.15603 -0.528311,-0.31229 -0.792864,-0.46804 z"
       transform="translate(0.00295294,-0.02067057)" />
    <path
       style="opacity:1;fill:#fce94f;fill-opacity:1;fill-rule:nonzero;stroke:none;stroke-width:0.74834646;stroke-miterlimit:4;stroke-dasharray:none;stroke-opacity:1"
       d="m 36.660838,50.65567 c 0.04255,-2.430224 0.202576,-15.599156 0.202576,-16.670832 v -0.921746 l 8.712395,-4.672838 c 4.791818,-2.570061 8.716539,-4.667635 8.721601,-4.661275 0.01556,0.01954 -0.952395,18.433235 -0.969901,18.45074 -0.01826,0.01826 -16.136895,9.796074 -16.479358,9.996633 l -0.216156,0.126588 z m 8.468052,-8.143241 c 0.08954,-0.02484 0.443136,-0.216621 0.785772,-0.426176 0.545465,-0.333605 0.675673,-0.437693 1.046514,-0.836576 1.275258,-1.371689 2.070973,-2.934312 2.512136,-4.933325 0.106642,-0.483223 0.109685,-0.538546 0.072,-1.309098 l -0.03935,-0.804553 -0.169109,-0.275722 c -0.486944,-0.793937 -0.553207,-0.877011 -0.984339,-1.23407 -0.238158,-0.19724 -0.454675,-0.359027 -0.481148,-0.359527 -0.02647,-5e-4 -0.47001,0.112199 -0.985635,0.250443 l -0.9375,0.251352 -0.675123,0.608932 c -1.07815,0.972445 -1.753498,1.833759 -2.538837,3.237937 -0.50239,0.898268 -0.722946,1.571231 -0.82096,2.504924 l -0.07498,0.714285 0.123525,0.625 c 0.06794,0.34375 0.133662,0.667922 0.146049,0.720381 0.01239,0.05246 0.202601,0.293531 0.422696,0.535714 l 0.400174,0.440334 0.682836,0.270786 0.682836,0.270787 0.334822,-0.103331 c 0.184152,-0.05683 0.40808,-0.123655 0.497619,-0.148497 z"
       id="path845"
       inkscape:connector-curvature="0"
       transform="matrix(0.26458333,0,0,0.26458333,0,280.06665)" />
  </g>
</svg>
