<?xml version="1.0" encoding="UTF-8" standalone="no"?>
<!-- Created with Inkscape (http://www.inkscape.org/) -->

<svg
   xmlns:dc="http://purl.org/dc/elements/1.1/"
   xmlns:cc="http://creativecommons.org/ns#"
   xmlns:rdf="http://www.w3.org/1999/02/22-rdf-syntax-ns#"
   xmlns:svg="http://www.w3.org/2000/svg"
   xmlns="http://www.w3.org/2000/svg"
   xmlns:sodipodi="http://sodipodi.sourceforge.net/DTD/sodipodi-0.dtd"
   xmlns:inkscape="http://www.inkscape.org/namespaces/inkscape"
   width="64"
   height="64"
   viewBox="0 0 16.933333 16.933334"
   version="1.1"
   id="svg8"
   inkscape:version="0.92.4 (5da689c313, 2019-01-14)"
   sodipodi:docname="Aluproft_cmd.svg">
  <defs
     id="defs2" />
  <sodipodi:namedview
     id="base"
     pagecolor="#ffffff"
     bordercolor="#666666"
     borderopacity="1.0"
     inkscape:pageopacity="0.0"
     inkscape:pageshadow="2"
     inkscape:zoom="16"
     inkscape:cx="35.101948"
     inkscape:cy="20.522272"
     inkscape:document-units="mm"
     inkscape:current-layer="layer1"
     showgrid="false"
     units="px"
     inkscape:window-width="1004"
     inkscape:window-height="513"
     inkscape:window-x="49"
     inkscape:window-y="49"
     inkscape:window-maximized="0" />
  <metadata
     id="metadata5">
    <rdf:RDF>
      <cc:Work
         rdf:about="">
        <dc:format>image/svg+xml</dc:format>
        <dc:type
           rdf:resource="http://purl.org/dc/dcmitype/StillImage" />
        <dc:title />
      </cc:Work>
    </rdf:RDF>
  </metadata>
  <g
     inkscape:label="Capa 1"
     inkscape:groupmode="layer"
     id="layer1"
     transform="translate(0,-280.06665)">
    <path
       style="opacity:1;fill:#fce94f;fill-opacity:1;fill-rule:nonzero;stroke:none;stroke-width:0.74834647;stroke-miterlimit:4;stroke-dasharray:none;stroke-opacity:1"
       d="M 18.862801,24.798651 C 12.375332,20.977355 7.0667382,17.834906 7.0659254,17.815434 c -0.00259,-0.06216 8.7674306,-5.340459 8.8375046,-5.318911 0.0832,0.02558 23.735733,13.94341 23.804002,14.006956 0.04729,0.04402 -8.894314,5.259179 -8.998416,5.248297 -0.02795,-0.0029 -5.358747,-3.131827 -11.846215,-6.953125 z"
       id="path866"
       inkscape:connector-curvature="0"
       transform="matrix(0.26458333,0,0,0.26458333,0,280.06665)" />
    <path
       style="opacity:1;fill:#fce94f;fill-opacity:1;fill-rule:nonzero;stroke:none;stroke-width:0.74834647;stroke-miterlimit:4;stroke-dasharray:none;stroke-opacity:1"
       d="M 36.142573,14.583205 C 29.568354,10.710282 24.189448,7.5263514 24.189448,7.5078035 c 0,-0.052509 9.06951,-4.8465322 9.134128,-4.8281788 0.06503,0.01847 23.747477,13.9489553 23.817453,14.0098973 0.04603,0.04009 -8.880123,4.945578 -8.987075,4.938964 -0.03204,-0.002 -5.437163,-3.172358 -12.011381,-7.045281 z"
       id="path868"
       inkscape:connector-curvature="0"
       transform="matrix(0.26458333,0,0,0.26458333,0,280.06665)" />
    <path
       style="opacity:1;fill:#fce94f;fill-opacity:1;fill-rule:nonzero;stroke:none;stroke-width:0.74834647;stroke-miterlimit:4;stroke-dasharray:none;stroke-opacity:1"
       d="m 35.845698,18.030402 -11.9375,-7.027952 -0.01686,-1.3457439 -0.01686,-1.3457439 0.36506,0.207438 c 0.200783,0.114091 5.569268,3.2720448 11.929966,7.0176748 l 11.564906,6.810236 0.0444,1.336419 c 0.02442,0.73503 0.0354,1.34524 0.02439,1.356021 -0.01101,0.01078 -5.391886,-3.142976 -11.957511,-7.008349 z m 11.78125,5.577624 v -1.149061 l -0.160062,-0.104877 c -0.08803,-0.05768 -0.193502,-0.09273 -0.234375,-0.07788 -0.04087,0.01485 -1.87e-4,0.06185 0.09041,0.10446 0.215562,0.101378 0.2646,0.452247 0.20628,1.47593 l -0.04325,0.759149 -1.538877,-0.904282 c -2.304172,-1.353989 -2.511417,-1.471418 -2.542315,-1.44052 -0.0291,0.0291 4.090547,2.4799 4.175314,2.483922 0.02578,0.0012 0.04687,-0.514855 0.04687,-1.146839 z"
       id="path870"
       inkscape:connector-curvature="0"
       transform="matrix(0.26458333,0,0,0.26458333,0,280.06665)" />
    <path
       style="opacity:1;fill:#fce94f;fill-opacity:1;fill-rule:nonzero;stroke:none;stroke-width:0.74834647;stroke-miterlimit:4;stroke-dasharray:none;stroke-opacity:1"
       d="m 43.985344,28.954756 -3.547854,-2.291418 0.0166,-0.333085 0.0166,-0.333085 -8.21875,-4.840175 c -4.520313,-2.662096 -8.215766,-4.876208 -8.212118,-4.92025 0.0036,-0.04404 0.412456,-0.770264 0.908464,-1.613828 l 0.901832,-1.533753 10.810286,6.369076 c 5.945657,3.502992 10.873845,6.400104 10.951529,6.438027 0.115728,0.0565 0.166535,0.04627 0.28125,-0.05663 0.146492,-0.131392 3.863615,-2.223526 3.894932,-2.19221 0.02074,0.02074 -4.14103,7.490701 -4.209534,7.555684 -0.02497,0.02368 -1.641926,-0.988079 -3.593245,-2.248358 z m 5.512413,-1.446244 c 1.063766,-1.90703 1.926083,-3.475365 1.916259,-3.485189 -0.0098,-0.0098 -0.802653,0.421931 -1.76184,0.959456 -0.959188,0.537525 -1.803937,1.004954 -1.87722,1.038731 -0.113671,0.05239 -0.58906,-0.206964 -3.236702,-1.765844 -1.706903,-1.004991 -3.117076,-1.813641 -3.133718,-1.797 -0.03601,0.036 6.160882,3.693774 6.258369,3.694059 0.03696,1.25e-4 0.782276,-0.396872 1.65625,-0.882178 0.873973,-0.485306 1.64341,-0.902791 1.709859,-0.927744 0.144929,-0.05442 -0.05069,0.321733 -1.840588,3.539285 -1.580452,2.84105 -1.63691,2.9375 -1.719505,2.9375 -0.09849,0 -1.878019,-1.110377 -4.548551,-2.83816 -1.26518,-0.818548 -2.3142,-1.474395 -2.331156,-1.45744 -0.04562,0.04562 6.80568,4.481919 6.896702,4.465699 0.04275,-0.0076 0.948074,-1.574146 2.011841,-3.481175 z"
       id="path872"
       inkscape:connector-curvature="0"
       transform="matrix(0.26458333,0,0,0.26458333,0,280.06665)" />
    <path
       style="opacity:1;fill:#fce94f;fill-opacity:1;fill-rule:nonzero;stroke:none;stroke-width:0.74834647;stroke-miterlimit:4;stroke-dasharray:none;stroke-opacity:1"
       d="m 38.39398,34.029582 c -1.210944,-0.743318 -2.188739,-1.372484 -2.172878,-1.398148 0.01586,-0.02566 0.957415,-0.544169 2.092342,-1.152235 l 2.063504,-1.105574 0.0076,-0.292643 c 0.0042,-0.160954 0.02528,-0.776315 0.04687,-1.367469 l 0.03926,-1.074826 3.1875,2.062553 c 1.753125,1.134403 3.194681,2.08259 3.20346,2.107081 0.01873,0.05224 -6.017787,3.535334 -6.1657,3.557632 -0.05514,0.0083 -1.091033,-0.593054 -2.301978,-1.336371 z"
       id="path874"
       inkscape:connector-curvature="0"
       transform="matrix(0.26458333,0,0,0.26458333,0,280.06665)" />
    <path
       style="opacity:1;fill:#fce94f;fill-opacity:1;fill-rule:nonzero;stroke:none;stroke-width:0.74834647;stroke-miterlimit:4;stroke-dasharray:none;stroke-opacity:1"
       d="m 31.228452,61.678963 c -0.07098,-1.619222 -0.169453,-9.013832 -0.120273,-9.031567 0.02751,-0.0099 0.457831,-0.241101 0.956269,-0.513734 l 0.90625,-0.495696 0.03125,3.08899 0.03125,3.08899 3.078125,-5.243096 3.078125,-5.243097 v -4.245527 -4.245528 l -3.078125,-1.726374 -3.078125,-1.726374 -0.03125,3.00494 -0.03125,3.004939 -0.5625,0.324233 c -0.309375,0.178329 -0.724219,0.416364 -0.921875,0.528967 l -0.359375,0.204733 8.69e-4,-4.988962 8.7e-4,-4.988962 3.947288,-2.28125 c 2.171008,-1.254687 4.083116,-2.359162 4.24913,-2.454389 l 0.301843,-0.173139 v 1.14221 1.14221 l -2.515625,1.35176 c -1.383594,0.743468 -2.512275,1.375105 -2.508181,1.40364 0.0041,0.02853 1.368158,0.887062 3.031251,1.907841 l 3.023805,1.855961 0.1875,-0.111977 c 0.103125,-0.06159 1.720312,-0.991031 3.59375,-2.06543 1.873437,-1.074399 3.465541,-2.012849 3.538008,-2.085444 0.145777,-0.146035 5.913745,-10.47138 5.885762,-10.536209 -0.0096,-0.02233 -1.184708,0.614102 -2.61127,1.414283 -2.439217,1.368193 -2.596172,1.446608 -2.634395,1.316153 -0.02235,-0.0763 -0.04232,-0.546532 -0.04437,-1.04497 l -0.0037,-0.90625 4.186377,-2.28125 c 2.302507,-1.254687 4.214055,-2.290683 4.247885,-2.302213 0.04008,-0.01366 0.05593,1.649423 0.04549,4.774553 l -0.01601,4.795517 -0.863264,0.491071 c -0.474796,0.27009 -0.878145,0.491072 -0.896331,0.491072 -0.01819,0 -0.01321,-1.357031 0.01105,-3.015625 0.0287,-1.96193 0.0228,-2.993786 -0.0169,-2.953125 -0.03356,0.03438 -1.412685,2.374193 -3.064721,5.199595 l -3.003701,5.137095 -0.04447,4.300405 -0.04447,4.300405 3.117651,1.786107 3.117651,1.786106 0.03125,-3.058748 0.03125,-3.058748 0.86771,-0.492984 c 0.477241,-0.27114 0.878023,-0.492983 0.890625,-0.492983 0.0394,0 0.02473,6.765383 -0.01817,8.37884 l -0.04081,1.535089 -4.202211,2.386786 c -2.311216,1.312732 -4.220033,2.386785 -4.241816,2.386785 -0.02178,0 -0.03189,-0.469948 -0.02247,-1.044329 l 0.01714,-1.044329 2.38134,-1.440046 c 1.309736,-0.792025 2.44203,-1.482233 2.516207,-1.533796 0.128516,-0.08933 -0.0075,-0.173968 -2.887009,-1.796875 -1.662033,-0.936718 -3.036636,-1.703125 -3.054673,-1.703125 -0.01804,0 -1.640549,0.908732 -3.605581,2.019405 l -3.572787,2.019405 -2.973295,5.29709 c -1.635312,2.9134 -2.958487,5.3119 -2.940387,5.329999 0.0181,0.0181 1.068645,-0.579191 2.334546,-1.327311 1.265901,-0.748121 2.435232,-1.438998 2.598514,-1.535282 l 0.296875,-0.175063 -0.0012,1.139004 -0.0012,1.139003 -4.212654,2.359375 c -2.316962,1.297657 -4.226034,2.359375 -4.242386,2.359375 -0.01635,0 -0.04606,-0.372656 -0.06603,-0.828125 z M 43.701126,44.71789 c 1.053783,-0.335372 2.597628,-1.966254 3.424017,-3.617052 0.471253,-0.941377 0.565065,-1.297887 0.608511,-2.3125 0.0395,-0.922549 -0.04555,-1.718723 -0.22757,-2.130205 -0.176957,-0.400041 -0.698421,-0.924183 -1.084848,-1.09042 -0.282827,-0.121668 -0.397263,-0.135335 -0.887613,-0.106002 -0.311092,0.01861 -0.688747,0.08312 -0.844175,0.14421 -0.870683,0.342186 -2.492582,1.835634 -3.122788,2.875468 -0.279644,0.46141 -0.641911,1.371615 -0.820589,2.061749 -0.121571,0.469561 -0.144863,0.72068 -0.147382,1.58895 l -0.003,1.03125 0.197217,0.375 c 0.58993,1.121729 1.689095,1.567543 2.908212,1.179552 z"
       id="path876"
       inkscape:connector-curvature="0"
       transform="matrix(0.26458333,0,0,0.26458333,0,280.06665)" />
    <path
       style="opacity:1;fill:#fce94f;fill-opacity:1;fill-rule:nonzero;stroke:none;stroke-width:0.74834647;stroke-miterlimit:4;stroke-dasharray:none;stroke-opacity:1"
       d="M 18.345698,36.068758 C 11.814448,32.220751 6.4508328,29.064722 6.4265537,29.05536 6.379003,29.037025 6.6418878,18.658154 6.6911076,18.610592 6.707382,18.594865 12.029291,21.70755 18.517573,25.527669 l 11.796875,6.945671 v 5.298124 c 0,2.913969 -0.02109,5.297122 -0.04687,5.295897 -0.02578,-0.0012 -5.390625,-3.150597 -11.921875,-6.998603 z"
       id="path878"
       inkscape:connector-curvature="0"
       transform="matrix(0.26458333,0,0,0.26458333,0,280.06665)" />
    <path
       style="opacity:1;fill:#fce94f;fill-opacity:1;fill-rule:nonzero;stroke:none;stroke-width:0.74834647;stroke-miterlimit:4;stroke-dasharray:none;stroke-opacity:1"
       d="m 33.814448,52.607146 c 0,-1.267122 0.0253,-2.280552 0.05849,-2.342556 0.05096,-0.09522 -1.360113,-0.94439 -10.970924,-6.602151 -6.253042,-3.681086 -11.021701,-6.525863 -11.01161,-6.569054 0.03279,-0.140357 1.57969,-2.896884 1.626204,-2.897847 0.02525,-5.22e-4 3.774331,2.19423 8.331295,4.877228 4.556964,2.682998 8.32615,4.89382 8.37597,4.912937 0.04982,0.01912 0.09058,0.0032 0.09058,-0.03535 0,-0.03856 0.09049,-0.125133 0.201082,-0.19239 l 0.201082,-0.122286 3.720793,1.878676 c 2.046436,1.033272 3.728129,1.885893 3.737095,1.894714 0.01526,0.01501 -4.27536,7.346659 -4.333334,7.404633 -0.0147,0.0147 -0.02672,-0.978255 -0.02672,-2.206557 z"
       id="path880"
       inkscape:connector-curvature="0"
       transform="matrix(0.26458333,0,0,0.26458333,0,280.06665)" />
    <path
       style="opacity:1;fill:#fce94f;fill-opacity:1;fill-rule:nonzero;stroke:none;stroke-width:0.74834647;stroke-miterlimit:4;stroke-dasharray:none;stroke-opacity:1"
       d="m 34.918067,44.853478 -3.365131,-1.704662 0.958881,-0.548107 c 0.527384,-0.301458 1.03591,-0.602226 1.130058,-0.668372 l 0.171177,-0.120267 0.01632,-2.520922 0.01632,-2.520922 2.25,1.265064 2.25,1.265064 0.01613,3.634617 c 0.0089,1.99904 -0.0052,3.632042 -0.03125,3.628894 -0.02606,-0.0031 -1.561687,-0.772822 -3.412509,-1.710387 z"
       id="path882"
       inkscape:connector-curvature="0"
       transform="matrix(0.26458333,0,0,0.26458333,0,280.06665)" />
    <path
       style="opacity:1;fill:#fce94f;fill-opacity:1;fill-rule:nonzero;stroke:none;stroke-width:0.74834647;stroke-miterlimit:4;stroke-dasharray:none;stroke-opacity:1"
       d="M 18.876948,45.031829 C 12.431635,41.23356 7.1241332,38.10568 7.082499,38.080985 7.0081742,38.0369 9.1516431,36.608336 9.2831975,36.614279 c 0.086946,0.0039 23.7462505,13.94489 23.7660625,14.003868 0.01673,0.04979 -2.302637,1.329017 -2.398794,1.323033 -0.03012,-0.0019 -5.328206,-3.111082 -11.773518,-6.909351 z"
       id="path884"
       inkscape:connector-curvature="0"
       transform="matrix(0.26458333,0,0,0.26458333,0,280.06665)" />
    <path
       style="opacity:1;fill:#fce94f;fill-opacity:1;fill-rule:nonzero;stroke:none;stroke-width:0.74834647;stroke-miterlimit:4;stroke-dasharray:none;stroke-opacity:1"
       d="M 18.356773,56.071165 C 11.762864,52.194668 6.339963,48.995104 6.3058809,48.961021 6.2502385,48.90538 6.5317765,38.831426 6.5906184,38.772584 6.6053076,38.757895 30.126316,52.572377 30.23482,52.659421 c 0.01091,0.0088 0.20264,9.706675 0.204263,10.332042 1.87e-4,0.07734 -0.02073,0.137757 -0.04651,0.134252 -0.02578,-0.0035 -5.441892,-3.178053 -12.0358,-7.05455 z"
       id="path886"
       inkscape:connector-curvature="0"
       transform="matrix(0.26458333,0,0,0.26458333,0,280.06665)" />
    <path
       style="opacity:1;fill:#fce94f;fill-opacity:1;fill-rule:nonzero;stroke:none;stroke-width:0.74834647;stroke-miterlimit:4;stroke-dasharray:none;stroke-opacity:1"
       d="m 36.855198,55.964246 c 0.132275,-0.237788 0.493625,-0.887459 0.803,-1.443713 0.309375,-0.556255 0.584203,-1.011838 0.610729,-1.012408 0.07323,-0.0016 1.60428,0.899362 1.606278,0.9452 0.0015,0.03381 -3.033187,1.853514 -3.202568,1.920388 -0.03187,0.01258 0.05029,-0.171679 0.182561,-0.409467 z"
       id="path888"
       inkscape:connector-curvature="0"
       transform="matrix(0.26458333,0,0,0.26458333,0,280.06665)" />
    <path
       style="opacity:1;fill:#fce94f;fill-opacity:1;fill-rule:nonzero;stroke:none;stroke-width:0.74834647;stroke-miterlimit:4;stroke-dasharray:none;stroke-opacity:1"
       d="m 42.42621,43.997609 c -0.339597,-0.09414 -0.757358,-0.491424 -0.924086,-0.878791 -0.132696,-0.308301 -0.139806,-0.389202 -0.10595,-1.20548 0.02593,-0.625228 0.07515,-1.008806 0.172412,-1.34375 0.205245,-0.706797 0.56841,-1.504669 0.886462,-1.947555 0.367285,-0.511443 1.260638,-1.393157 1.886137,-1.861566 0.528635,-0.395871 0.82146,-0.503379 1.37108,-0.503379 0.290275,0 0.383166,0.03104 0.609536,0.203702 0.148212,0.113045 0.338129,0.341819 0.426734,0.514044 0.154177,0.299679 0.159577,0.349047 0.157179,1.436923 -0.0022,1.010522 -0.01723,1.168433 -0.145647,1.532831 -0.519674,1.47467 -2.045151,3.399525 -3.091067,3.900328 -0.374343,0.179242 -0.909726,0.245021 -1.24279,0.152693 z"
       id="path890"
       inkscape:connector-curvature="0"
       transform="matrix(0.26458333,0,0,0.26458333,0,280.06665)" />
    <path
       style="opacity:1;fill:#fce94f;fill-opacity:1;fill-rule:nonzero;stroke:none;stroke-width:0.74834647;stroke-miterlimit:4;stroke-dasharray:none;stroke-opacity:1"
       d="m 46.001948,48.439223 c -1.185938,-0.656016 -2.222454,-1.22784 -2.303369,-1.27072 -0.137981,-0.07312 -0.03122,-0.143187 1.71875,-1.128015 1.026228,-0.577529 1.940376,-1.092882 2.03144,-1.145228 0.162354,-0.09333 0.208218,-0.07116 2.360438,1.141015 1.207176,0.679904 2.206193,1.254516 2.220036,1.276915 0.02749,0.04447 -3.708969,2.318932 -3.809375,2.318844 -0.03392,-3e-5 -1.031983,-0.536795 -2.21792,-1.192811 z"
       id="path892"
       inkscape:connector-curvature="0"
       transform="matrix(0.26458333,0,0,0.26458333,0,280.06665)" />
    <path
       style="opacity:1;fill:#fce94f;fill-opacity:1;fill-rule:nonzero;stroke:none;stroke-width:0.74834647;stroke-miterlimit:4;stroke-dasharray:none;stroke-opacity:1"
       d="M 45.064448,51.531322 C 43.569135,50.65716 41.989036,49.732335 41.553116,49.476154 l -0.792582,-0.465783 0.136332,-0.249592 c 0.114777,-0.21013 0.264275,-0.321556 0.94557,-0.704766 0.445082,-0.250346 0.828304,-0.463384 0.851605,-0.473418 0.04714,-0.0203 4.91788,2.650012 5.043534,2.765045 0.06052,0.0554 0.07537,0.393474 0.0625,1.422867 l -0.01688,1.350199 z"
       id="path894"
       inkscape:connector-curvature="0"
       transform="matrix(0.26458333,0,0,0.26458333,0,280.06665)" />
    <path
       style="opacity:1;fill:#fce94f;fill-opacity:1;fill-rule:nonzero;stroke:none;stroke-width:0.74834647;stroke-miterlimit:4;stroke-dasharray:none;stroke-opacity:1"
       d="m 52.220698,42.138361 -2.25,-1.295508 -0.01636,-2.416569 -0.01636,-2.416569 0.610108,0.365478 c 0.335559,0.201013 1.376514,0.820062 2.313233,1.375664 l 1.703125,1.010185 v 2.341773 c 0,1.287975 -0.02109,2.339361 -0.04687,2.336413 -0.02578,-0.0029 -1.059375,-0.588338 -2.296876,-1.300867 z"
       id="path896"
       inkscape:connector-curvature="0"
       transform="matrix(0.26458333,0,0,0.26458333,0,280.06665)" />
    <path
       style="opacity:1;fill:#fce94f;fill-opacity:1;fill-rule:nonzero;stroke:none;stroke-width:0.74834647;stroke-miterlimit:4;stroke-dasharray:none;stroke-opacity:1"
       d="M 52.486323,36.581744 50.001948,35.106298 V 34.02234 c 0,-0.849387 0.02063,-1.123863 0.09535,-1.268355 0.05245,-0.101418 0.125018,-0.184397 0.161273,-0.184397 0.08055,0 7.05596,4.075999 7.055654,4.122889 -1.87e-4,0.02896 -0.411365,0.269508 -1.996115,1.167787 l -0.347417,0.196926 z"
       id="path898"
       inkscape:connector-curvature="0"
       transform="matrix(0.26458333,0,0,0.26458333,0,280.06665)" />
    <path
       style="fill:none;stroke:#000000;stroke-width:0.198;stroke-linecap:butt;stroke-linejoin:miter;stroke-miterlimit:4;stroke-dasharray:none;stroke-opacity:1"
       d="m 8.1105578,293.94023 0.0502,2.85922 2.4601332,-1.37944 v -0.85275 l -1.2300682,0.72734 1.3869652,-2.47047 1.819996,-1.02832 1.399515,0.79004 -1.236342,0.74617 -0.0063,0.80883 2.472686,-1.40451 0.01261,-2.87179 -0.696619,0.39503 0.0063,1.49863 -1.443445,-0.82771 0.01261,-2.17579 1.405788,-2.40148 -0.01261,1.39827 0.696621,-0.39504 v -2.78401 l -2.46641,1.3481 0.01261,0.80263 1.242619,-0.696 -1.374412,2.4642 -1.863929,1.07221 -1.4120652,-0.86528 1.2363422,-0.66466 0.0063,-0.859 -2.4601342,1.4233 -0.0063,2.89062 0.709174,-0.40757 0.0063,-1.4735 1.4183422,0.79631 v 2.16322 l -1.4246182,2.42661 0.0063,-1.44843 z"
       id="path1168"
       inkscape:connector-curvature="0" />
    <path
       style="fill:none;stroke:#000000;stroke-width:0.198;stroke-linecap:butt;stroke-linejoin:miter;stroke-miterlimit:4;stroke-dasharray:none;stroke-opacity:1"
       d="m 10.695111,294.42629 -0.565595,-0.33177"
       id="path1179"
       inkscape:connector-curvature="0" />
    <path
       style="fill:none;stroke:#000000;stroke-width:0.198;stroke-linecap:butt;stroke-linejoin:miter;stroke-miterlimit:4;stroke-dasharray:none;stroke-opacity:1"
       d="m 12.67867,294.26771 -2.00195,-1.17126"
       id="path1235"
       inkscape:connector-curvature="0"
       sodipodi:nodetypes="cc" />
    <path
       style="fill:none;stroke:#000000;stroke-width:0.198;stroke-linecap:butt;stroke-linejoin:miter;stroke-miterlimit:4;stroke-dasharray:none;stroke-opacity:1"
       d="M 12.76095,293.33202 11.358938,292.557"
       id="path1237"
       inkscape:connector-curvature="0" />
    <path
       style="fill:none;stroke:#000000;stroke-width:0.198;stroke-linecap:butt;stroke-linejoin:miter;stroke-miterlimit:4;stroke-dasharray:none;stroke-opacity:1"
       d="m 15.317607,289.73114 -2.001949,-1.17127"
       id="path1235-1"
       inkscape:connector-curvature="0"
       sodipodi:nodetypes="cc" />
    <path
       style="fill:none;stroke:#000000;stroke-width:0.198;stroke-linecap:butt;stroke-linejoin:miter;stroke-miterlimit:4;stroke-dasharray:none;stroke-opacity:1"
       d="m 14.543328,290.25958 -1.457206,-0.86405"
       id="path1235-1-7"
       inkscape:connector-curvature="0"
       sodipodi:nodetypes="cc" />
    <path
       style="fill:none;stroke:#000000;stroke-width:0.198;stroke-linecap:butt;stroke-linejoin:miter;stroke-miterlimit:4;stroke-dasharray:none;stroke-opacity:1"
       d="M 14.442225,287.87523 13.89985,287.527"
       id="path1235-1-8"
       inkscape:connector-curvature="0"
       sodipodi:nodetypes="cc" />
    <path
       style="fill:none;stroke:#000000;stroke-width:0.198;stroke-linecap:butt;stroke-linejoin:miter;stroke-miterlimit:4;stroke-dasharray:none;stroke-opacity:1"
       d="m 12.037163,291.40187 -0.07145,0.0774 -0.118033,0.11143 -0.09008,0.0774 -0.139794,0.0931 -0.118033,0.0495 -0.170839,0.0211 -0.08077,-0.009 -0.111836,-0.0309 -0.118034,-0.0774 -0.04037,-0.0465 -0.05596,-0.0634 v 0 l -0.0525,-0.10224 c -0.01351,-0.0307 -0.01471,-0.061 -0.02825,-0.0916 v -0.13326 l 0.0063,-0.2391 0.02164,-0.17049 0.0559,-0.19557 0.08077,-0.20769 0.06522,-0.13356 0.06213,-0.0962 0.07767,-0.0995 0.06834,-0.0807 0.08388,-0.0867 0.09939,-0.0962 0.108713,-0.0931 0.118033,-0.0931 0.118034,-0.0774 0.09008,-0.034 0.102516,-0.0181 0.105623,-0.003 0.08077,0.003 0.06213,0.0181 0.04972,0.0309 0.03726,0.0307 0.04972,0.0465 0.02796,0.0307 0.03726,0.053 0.02795,0.056 0.01864,0.056 0.01563,0.0714 0.0063,0.0682 0.0063,0.0774 0.003,0.0807 v 0.056 0.0995 l -0.0063,0.0867 -0.0093,0.0807 -0.01864,0.11173 -0.03105,0.0932 -0.0404,0.0995 -0.0528,0.10556 -0.05281,0.0962 -0.05903,0.10254 -0.05281,0.0717 -0.04972,0.0679 -0.06213,0.0774 z"
       id="path2406"
       inkscape:connector-curvature="0"
       sodipodi:nodetypes="ccccccccccccccccccccccccccccccccccccccccccccccccccccccccccc" />
    <path
       style="fill:none;stroke:#000000;stroke-width:0.198;stroke-linecap:butt;stroke-linejoin:miter;stroke-miterlimit:4;stroke-dasharray:none;stroke-opacity:1"
       d="M 8.0885468,296.92231 1.466211,293.03386"
       id="path1237-3"
       inkscape:connector-curvature="0"
       sodipodi:nodetypes="cc" />
    <path
       style="fill:none;stroke:#000000;stroke-width:0.198;stroke-linecap:butt;stroke-linejoin:miter;stroke-miterlimit:4;stroke-dasharray:none;stroke-opacity:1"
       d="M 8.1105578,293.94023 1.5643684,290.08645"
       id="path1237-3-0"
       inkscape:connector-curvature="0"
       sodipodi:nodetypes="cc" />
    <path
       style="fill:none;stroke:#000000;stroke-width:0.198;stroke-linecap:butt;stroke-linejoin:miter;stroke-miterlimit:4;stroke-dasharray:none;stroke-opacity:1"
       d="M 8.9178358,293.42672 2.3716434,289.5729"
       id="path1237-3-4"
       inkscape:connector-curvature="0"
       sodipodi:nodetypes="cc" />
    <path
       style="fill:none;stroke:#000000;stroke-width:0.198;stroke-linecap:butt;stroke-linejoin:miter;stroke-miterlimit:4;stroke-dasharray:none;stroke-opacity:1"
       d="M 8.0548978,291.6189 1.5087057,287.76511"
       id="path1237-3-4-6"
       inkscape:connector-curvature="0"
       sodipodi:nodetypes="cc" />
    <path
       style="fill:none;stroke:#000000;stroke-width:0.198;stroke-linecap:butt;stroke-linejoin:miter;stroke-miterlimit:4;stroke-dasharray:none;stroke-opacity:1"
       d="m 8.1295508,288.59795 -6.546193,-3.85381"
       id="path1237-3-4-1"
       inkscape:connector-curvature="0"
       sodipodi:nodetypes="cc" />
    <path
       style="fill:none;stroke:#000000;stroke-width:0.198;stroke-linecap:butt;stroke-linejoin:miter;stroke-miterlimit:4;stroke-dasharray:none;stroke-opacity:1"
       d="M 10.664238,287.04425 4.1180463,283.19047"
       id="path1237-3-4-8"
       inkscape:connector-curvature="0"
       sodipodi:nodetypes="cc" />
    <path
       style="fill:none;stroke:#000000;stroke-width:0.198;stroke-linecap:butt;stroke-linejoin:miter;stroke-miterlimit:4;stroke-dasharray:none;stroke-opacity:1"
       d="M 12.742192,285.92055 6.1960006,282.06677"
       id="path1237-3-4-8-6"
       inkscape:connector-curvature="0"
       sodipodi:nodetypes="cc" />
    <path
       style="fill:none;stroke:#000000;stroke-width:0.198;stroke-linecap:butt;stroke-linejoin:miter;stroke-miterlimit:4;stroke-dasharray:none;stroke-opacity:1"
       d="M 15.280048,284.45143 8.7338528,280.59762"
       id="path1237-3-4-8-2"
       inkscape:connector-curvature="0"
       sodipodi:nodetypes="cc" />
    <path
       style="fill:none;stroke:#000000;stroke-width:0.198;stroke-linecap:butt;stroke-linejoin:miter;stroke-miterlimit:4;stroke-dasharray:none;stroke-opacity:1"
       d="M 12.688479,286.84845 6.1422832,282.99466"
       id="path1237-3-4-8-2-9"
       inkscape:connector-curvature="0"
       sodipodi:nodetypes="cc" />
    <path
       style="fill:none;stroke:#000000;stroke-width:0.198;stroke-linecap:butt;stroke-linejoin:miter;stroke-miterlimit:4;stroke-dasharray:none;stroke-opacity:1"
       d="m 12.623023,288.49138 -2.033339,-1.31673"
       id="path1237-3-4-8-2-9-7"
       inkscape:connector-curvature="0"
       sodipodi:nodetypes="cc" />
    <path
       style="fill:none;stroke:#000000;stroke-width:0.198;stroke-linecap:butt;stroke-linejoin:miter;stroke-miterlimit:4;stroke-dasharray:none;stroke-opacity:1"
       d="M 10.257067,292.56703 8.1232388,291.48857"
       id="path1237-3-4-8-2-9-8"
       inkscape:connector-curvature="0"
       sodipodi:nodetypes="cc" />
    <path
       style="fill:none;stroke:#000000;stroke-width:0.198;stroke-linecap:butt;stroke-linejoin:miter;stroke-miterlimit:4;stroke-dasharray:none;stroke-opacity:1"
       d="m 1.5408041,293.16834 0.098076,-3.09758"
       id="path3821"
       inkscape:connector-curvature="0" />
    <path
       style="fill:none;stroke:#000000;stroke-width:0.198;stroke-linecap:butt;stroke-linejoin:miter;stroke-miterlimit:4;stroke-dasharray:none;stroke-opacity:1"
       d="m 2.5269641,289.56983 -0.9595313,0.61579"
       id="path4147"
       inkscape:connector-curvature="0"
       sodipodi:nodetypes="cc" />
    <path
       style="fill:none;stroke:#000000;stroke-width:0.198;stroke-linecap:butt;stroke-linejoin:miter;stroke-miterlimit:4;stroke-dasharray:none;stroke-opacity:1"
       d="m 1.5784736,287.89444 0.085651,-3.20306"
       id="path3821-3"
       inkscape:connector-curvature="0"
       sodipodi:nodetypes="cc" />
    <path
       style="fill:none;stroke:#000000;stroke-width:0.198;stroke-linecap:butt;stroke-linejoin:miter;stroke-miterlimit:4;stroke-dasharray:none;stroke-opacity:1"
       d="m 4.273364,283.19047 -2.6874688,1.62615"
       id="path4147-0"
       inkscape:connector-curvature="0"
       sodipodi:nodetypes="cc" />
    <path
       style="fill:none;stroke:#000000;stroke-width:0.198;stroke-linecap:butt;stroke-linejoin:miter;stroke-miterlimit:4;stroke-dasharray:none;stroke-opacity:1"
       d="m 6.2037881,283.11315 0.0099,-1.18243"
       id="path5430"
       inkscape:connector-curvature="0"
       sodipodi:nodetypes="cc" />
    <path
       style="fill:none;stroke:#000000;stroke-width:0.198;stroke-linecap:butt;stroke-linejoin:miter;stroke-miterlimit:4;stroke-dasharray:none;stroke-opacity:1"
       d="m 6.1338714,282.06366 2.7521934,-1.45982"
       id="path5432"
       inkscape:connector-curvature="0"
       sodipodi:nodetypes="cc" />
    <path
       style="fill:none;stroke:#000000;stroke-width:0.198;stroke-linecap:butt;stroke-linejoin:miter;stroke-opacity:1;stroke-miterlimit:4;stroke-dasharray:none"
       d="m 2.9827635,289.94098 0.5436362,-0.97772"
       id="path5811"
       inkscape:connector-curvature="0" />
    <path
       style="fill:none;stroke:#000000;stroke-width:0.198;stroke-linecap:butt;stroke-linejoin:miter;stroke-opacity:1;stroke-miterlimit:4;stroke-dasharray:none"
       d="m 6.1846353,284.43227 0.611849,-1.04179"
       id="path5822"
       inkscape:connector-curvature="0" />
    <path
       style="fill:#ffff00;fill-opacity:1;stroke-width:0.74834647;stroke-linecap:round;stroke-linejoin:miter;stroke-miterlimit:4;stroke-dasharray:none;paint-order:markers fill stroke"
       d="m 44.052114,28.792502 -3.453125,-2.236503 -5.44e-4,-0.103769 -5.44e-4,-0.103769 0.0044,0.08141 0.0044,0.08141 1.65625,1.073334 c 2.27161,1.472119 2.647915,1.714489 3.367188,2.168733 1.05814,0.668248 1.82812,1.130275 1.883636,1.130275 0.03615,0 1.73622,-3.028037 2.904814,-5.173828 0.08384,-0.153945 0.08409,-0.154297 0.11068,-0.154297 0.01466,0 0.02665,0.0018 0.02665,0.0041 0,0.0046 -3.018058,5.418289 -3.038003,5.449446 l -0.01278,0.01996 z"
       id="path5949"
       inkscape:connector-curvature="0"
       transform="matrix(0.26458333,0,0,0.26458333,0,280.06665)" />
    <path
       style="fill:#ffff00;fill-opacity:1;stroke-width:0.74834647;stroke-linecap:round;stroke-linejoin:miter;stroke-miterlimit:4;stroke-dasharray:none;paint-order:markers fill stroke"
       d="m 45.487965,23.516752 -2.137309,-1.258213 0.03634,-0.0016 0.03634,-0.0016 0.764092,0.449739 c 0.42025,0.247356 1.345506,0.791967 2.056124,1.210246 0.710617,0.418279 1.292645,0.759802 1.293394,0.75894 0.003,-0.0035 0.0258,-1.032502 0.02868,-1.29701 0.0051,-0.468092 -0.01428,-0.857511 -0.04464,-0.897351 -0.0034,-0.0045 -0.08689,-0.05673 -0.185494,-0.116109 l -0.179288,-0.107967 h 0.05061 0.05062 l 0.164581,0.09705 c 0.09052,0.05338 0.166288,0.09875 0.168375,0.100818 0.0043,0.0043 0.03901,2.142878 0.03651,2.250823 l -0.0016,0.07049 z"
       id="path6473"
       inkscape:connector-curvature="0"
       transform="matrix(0.26458333,0,0,0.26458333,0,280.06665)" />
    <path
       style="fill:#ffff00;fill-opacity:1;stroke-width:0.00626374;stroke-linecap:round;stroke-linejoin:miter;stroke-miterlimit:4;stroke-dasharray:none;paint-order:markers fill stroke"
       d=""
       id="path6475"
       inkscape:connector-curvature="0"
       transform="matrix(0.26458333,0,0,0.26458333,0,280.06665)" />
    <path
       style="fill:#ffff00;fill-opacity:1;stroke-width:0.74834647;stroke-linecap:round;stroke-linejoin:miter;stroke-miterlimit:4;stroke-dasharray:none;paint-order:markers fill stroke"
       d="m 44.527482,24.320236 -3.136302,-1.84625 -2.3e-5,-0.02072 c -1.3e-5,-0.01139 0.0014,-0.02072 0.003,-0.02072 0.0053,0 6.247347,3.674987 6.253165,3.681531 0.0071,0.008 0.02407,0.0078 0.02919,-3.87e-4 0.0048,-0.0077 3.735406,-2.097719 3.738615,-2.094509 0.0013,0.0013 -0.1903,0.347582 -0.425686,0.769609 l -0.427974,0.767322 -0.02242,-0.0016 c -0.01278,-9.23e-4 -0.02631,0.0015 -0.03146,0.0057 -0.0079,0.0064 -0.0085,0.006 -0.0052,-0.0028 0.0021,-0.0056 0.03581,-0.06895 0.07495,-0.140869 0.350534,-0.644147 0.608336,-1.135193 0.608336,-1.158724 0,-0.01029 -3.81e-4,-0.01023 -0.04325,0.0068 -0.152854,0.06076 -0.757736,0.379816 -1.462112,0.771231 -0.193949,0.107775 -1.950255,1.092053 -1.994343,1.117679 l -0.02218,0.01289 z"
       id="path6477"
       inkscape:connector-curvature="0"
       transform="matrix(0.26458333,0,0,0.26458333,0,280.06665)" />
    <path
       style="fill:#ffff00;fill-opacity:1;stroke-width:0.00626374;stroke-linecap:round;stroke-linejoin:miter;stroke-miterlimit:4;stroke-dasharray:none;paint-order:markers fill stroke"
       d=""
       id="path6708"
       inkscape:connector-curvature="0"
       transform="matrix(0.26458333,0,0,0.26458333,0,280.06665)" />
    <path
       style="opacity:1;fill:#fce94f;fill-opacity:1;fill-rule:nonzero;stroke:none;stroke-width:0.74834647;stroke-miterlimit:4;stroke-dasharray:none;stroke-opacity:1"
       d="m 53.674151,28.447367 c -0.524408,-0.336863 -0.72416,-0.498303 -0.699427,-0.565279 0.05133,-0.139008 1.47912,-2.569245 1.497433,-2.548781 0.0086,0.0096 -0.0022,0.820344 -0.02414,1.80156 l -0.03982,1.784029 z"
       id="path900"
       inkscape:connector-curvature="0"
       transform="matrix(0.26458333,0,0,0.26458333,0,280.06665)" />
  </g>
</svg>
