<?xml version="1.0" encoding="UTF-8" standalone="no"?>
<!-- Created with Inkscape (http://www.inkscape.org/) -->

<svg
   xmlns:dc="http://purl.org/dc/elements/1.1/"
   xmlns:cc="http://creativecommons.org/ns#"
   xmlns:rdf="http://www.w3.org/1999/02/22-rdf-syntax-ns#"
   xmlns:svg="http://www.w3.org/2000/svg"
   xmlns="http://www.w3.org/2000/svg"
   xmlns:sodipodi="http://sodipodi.sourceforge.net/DTD/sodipodi-0.dtd"
   xmlns:inkscape="http://www.inkscape.org/namespaces/inkscape"
   width="64"
   height="64"
   viewBox="0 0 16.933333 16.933334"
   version="1.1"
   id="svg8"
   inkscape:version="0.92.4 (5da689c313, 2019-01-14)"
   sodipodi:docname="TubeLense_cmd.svg">
  <defs
     id="defs2" />
  <sodipodi:namedview
     id="base"
     pagecolor="#ffffff"
     bordercolor="#666666"
     borderopacity="1.0"
     inkscape:pageopacity="0.0"
     inkscape:pageshadow="2"
     inkscape:zoom="22.4"
     inkscape:cx="35.625163"
     inkscape:cy="26.071318"
     inkscape:document-units="mm"
     inkscape:current-layer="layer1"
     showgrid="false"
     units="px"
     inkscape:window-width="3840"
     inkscape:window-height="2055"
     inkscape:window-x="-13"
     inkscape:window-y="-13"
     inkscape:window-maximized="1" />
  <metadata
     id="metadata5">
    <rdf:RDF>
      <cc:Work
         rdf:about="">
        <dc:format>image/svg+xml</dc:format>
        <dc:type
           rdf:resource="http://purl.org/dc/dcmitype/StillImage" />
        <dc:title />
      </cc:Work>
    </rdf:RDF>
  </metadata>
  <g
     inkscape:label="Capa 1"
     inkscape:groupmode="layer"
     id="layer1"
     transform="translate(0,-280.06665)">
    <path
       style="opacity:1;fill:#fce94f;fill-opacity:1;fill-rule:nonzero;stroke:none;stroke-width:0.75000001;stroke-miterlimit:4;stroke-dasharray:none;stroke-opacity:1"
       d="M 18.665328,40.211802 C 18.419793,40.080574 15.095016,38.209991 11.276935,36.054952 7.458855,33.899912 4.1461411,32.030644 3.9153489,31.901023 3.5119831,31.67448 3.4695798,31.635069 2.8208007,30.883723 L 2.1458746,30.102097 1.9515225,29.573799 C 1.2862189,27.765338 1.2818954,27.748439 1.1253546,26.344609 L 1.0183252,25.384787 1.1647342,23.755323 1.3111431,22.125859 1.7596888,20.518716 2.2082345,18.911573 2.7491452,17.732547 C 3.5413195,16.00584 3.8417895,15.437279 4.6081405,14.214884 5.4047411,12.944239 5.5379219,12.75816 6.4065358,11.702188 7.5756085,10.280947 7.7797617,10.067653 8.9742706,9.0194806 L 10.131428,8.0040843 11.384985,7.3110846 12.638542,6.618085 13.807206,6.2581326 14.975869,5.8981801 h 1.1421 1.142101 l 0.769593,0.3850729 c 0.912639,0.456647 1.769282,0.9312727 4.14013,2.2938525 2.988151,1.7173585 11.458951,6.6316955 11.514312,6.6800325 0.03136,0.02738 -0.161225,0.217355 -1.023241,1.009389 -0.896361,0.823591 -1.52989,1.472133 -3.216331,3.292553 l -1.095796,1.18285 -1.496189,2.120536 -1.49619,2.120536 -1.258519,2.325717 -1.258521,2.325719 -0.936465,2.261754 c -0.515056,1.243965 -1.025611,2.507684 -1.134567,2.808264 -0.395152,1.090113 -1.296821,4.2698 -1.477857,5.211581 -0.08905,0.463254 -0.109174,0.535905 -0.148199,0.535038 -0.01676,-3.73e-4 -0.231366,-0.108046 -0.476902,-0.239273 z"
       id="path872"
       inkscape:connector-curvature="0"
       transform="matrix(0.26458333,0,0,0.26458333,0,280.06665)" />
    <path
       style="opacity:1;fill:#fce94f;fill-opacity:1;fill-rule:nonzero;stroke:none;stroke-width:0.75000001;stroke-miterlimit:4;stroke-dasharray:none;stroke-opacity:1"
       d="m 33.37515,62.431091 c -2.59288,-0.253875 -4.649752,-1.227241 -6.361607,-3.010469 -1.548807,-1.613384 -2.686429,-3.946005 -3.231077,-6.62512 -0.3169,-1.558823 -0.404986,-2.558956 -0.404986,-4.598215 0,-1.48517 0.046,-2.367047 0.178091,-3.414058 0.447973,-3.550885 1.422383,-7.080526 2.951986,-10.693085 0.431007,-1.017937 1.475986,-3.163027 2.022539,-4.151785 2.715634,-4.912804 6.114145,-9.101434 10.001587,-12.32685 2.154964,-1.787977 4.776518,-3.371517 7.07561,-4.273996 2.903299,-1.139654 5.697452,-1.430733 8.14448,-0.848448 2.898151,0.689633 5.238882,2.64392 6.676564,5.574294 0.835939,1.703864 1.327527,3.499984 1.59035,5.810687 0.09499,0.835135 0.133043,3.346473 0.06559,4.32861 -0.506232,7.370756 -3.717208,15.469469 -8.780429,22.145972 -2.050325,2.703614 -4.443179,5.182254 -6.848339,7.093856 -3.586182,2.850268 -7.37967,4.574995 -10.892857,4.952482 -0.535272,0.05751 -1.762125,0.07778 -2.1875,0.03613 z m 3.393031,-1.885875 c 3.470608,-0.531938 7.08203,-2.37979 10.69179,-5.470649 0.772605,-0.661543 2.68408,-2.562956 3.390664,-3.372815 5.127684,-5.877149 8.671024,-13.31687 9.714262,-20.396404 0.207221,-1.406228 0.266761,-2.268979 0.266406,-3.860334 -4.01e-4,-1.715483 -0.04251,-2.429328 -0.200636,-3.399512 -0.286342,-1.756884 -0.702099,-3.119242 -1.363064,-4.466504 -0.966287,-1.969611 -2.356927,-3.452796 -4.121222,-4.395482 -0.713242,-0.381094 -2.348104,-1.032607 -3.021231,-1.203998 -0.99312,-0.252867 -2.555768,-0.291868 -3.675987,-0.09175 -2.823547,0.50441 -5.732788,1.981929 -8.801692,4.470124 -1.757903,1.425268 -4.20502,3.841534 -5.599027,5.528442 -3.736759,4.521908 -6.500621,9.715631 -8.078895,15.181486 -0.557904,1.932126 -0.941858,3.908153 -1.145019,5.892857 -0.09826,0.959901 -0.134301,3.045248 -0.07022,4.0625 0.235548,3.73887 1.490404,6.928119 3.531276,8.974831 1.46444,1.468629 3.168312,2.295276 5.379737,2.610031 0.651226,0.09269 2.306926,0.05917 3.102853,-0.06283 z"
       id="path886"
       inkscape:connector-curvature="0"
       transform="matrix(0.26458333,0,0,0.26458333,0,280.06665)" />
    <path
       style="opacity:1;fill:#fce94f;fill-opacity:1;fill-rule:nonzero;stroke:none;stroke-width:0.75000001;stroke-miterlimit:4;stroke-dasharray:none;stroke-opacity:1"
       d="m 33.793314,59.803264 c -0.994205,-0.140894 -2.199693,-0.52889 -3.00745,-0.967969 -0.388608,-0.21124 -1.26303,-0.796109 -1.233856,-0.825283 0.01092,-0.01092 0.09713,0.01946 0.191583,0.06751 0.274024,0.139385 0.960812,0.356119 1.432941,0.452202 2.218021,0.451388 4.774157,-0.0239 7.542594,-1.402471 3.166516,-1.576798 6.393323,-4.252195 9.378098,-7.775529 3.944576,-4.656317 7.163895,-10.605047 8.826977,-16.310686 0.717342,-2.461029 1.109919,-4.581843 1.276741,-6.897321 0.06417,-0.890687 0.02547,-2.958187 -0.06977,-3.727679 -0.249586,-2.016448 -0.789156,-3.750954 -1.560554,-5.016569 -0.08787,-0.144158 -0.159755,-0.271061 -0.159755,-0.282007 0,-0.06899 0.478958,0.395019 0.837035,0.810912 1.365879,1.586418 2.299887,3.703032 2.729078,6.184538 0.216211,1.25009 0.249879,1.724695 0.250157,3.526341 2.68e-4,1.837406 -0.0378,2.388519 -0.271482,3.928571 -1.393836,9.1859 -7.137734,18.863368 -14.415324,24.287304 -2.800917,2.087505 -5.597188,3.380402 -8.366136,3.868209 -0.561716,0.09896 -0.808937,0.116832 -1.790114,0.129425 -0.819613,0.01052 -1.265068,-0.0033 -1.590764,-0.0495 z"
       id="path880"
       inkscape:connector-curvature="0"
       transform="matrix(0.26458333,0,0,0.26458333,0,280.06665)" />
    <path
       style="opacity:1;fill:#fce94f;fill-opacity:1;fill-rule:nonzero;stroke:#fce94f;stroke-width:0.75000001;stroke-miterlimit:4;stroke-dasharray:none;stroke-opacity:1;stroke-linejoin:round"
       d="m 24.633433,58.833417 -1.219395,-0.6775 -1.035069,-1.2655 -1.035069,-1.265505 -0.67471,-1.553275 -0.67471,-1.553276 -0.324773,-1.781073 -0.324774,-1.781072 -0.03172,-2.5 -0.03172,-2.5 0.369982,-2.321429 0.369983,-2.321428 0.624845,-2.120536 0.624845,-2.120536 1.071359,-2.589285 1.071359,-2.589286 1.244878,-2.299107 1.244878,-2.299107 1.502055,-2.120536 1.502054,-2.120536 1.709156,-1.837137 1.709157,-1.837138 1.830357,-1.56562 1.830357,-1.565621 1.785714,-1.148154 1.785714,-1.148153 2.008929,-0.796535 2.008929,-0.796534 1.67044,-0.311036 c 0.918742,-0.1710699 1.792626,-0.3108746 1.941964,-0.3106772 0.149338,1.973e-4 0.914381,0.049598 1.700096,0.1097784 l 1.428571,0.1094194 1.106305,0.4906994 c 1.171689,0.5197 1.96276,0.914029 2.053248,1.023494 0.04773,0.05774 0.02332,0.06196 -0.190803,0.03299 -0.991869,-0.134192 -2.510361,-0.155076 -3.39419,-0.04668 -3.964856,0.486257 -7.999129,2.482831 -12.163846,6.019925 -0.861781,0.731911 -3.296107,3.183246 -4.131662,4.160532 -2.597071,3.037596 -4.7199,6.259198 -6.512439,9.88327 -2.98147,6.027797 -4.49357,12.186656 -4.362771,17.769784 0.09166,3.912503 1.113383,7.3775 2.879194,9.7643 0.309015,0.417687 0.335357,0.459397 0.288795,0.45725 -0.01986,-9.38e-4 -0.584844,-0.306541 -1.255513,-0.67917 z"
       id="path884"
       inkscape:connector-curvature="0"
       transform="matrix(0.26458333,0,0,0.26458333,0,280.06665)" />
    <path
       style="opacity:1;fill:#fce94f;fill-opacity:1;fill-rule:nonzero;stroke:none;stroke-width:0.75000001;stroke-miterlimit:4;stroke-dasharray:none;stroke-opacity:1"
       d="M 32.063057,57.840786 C 30.454953,57.610873 29.16183,56.96092 28.054208,55.825845 27.473,55.230231 27.08412,54.678862 26.667686,53.859979 c -1.88986,-3.716254 -1.748951,-9.483065 0.388164,-15.885906 1.834235,-5.495404 4.91245,-10.827053 8.750426,-15.15625 2.373562,-2.677354 5.258152,-4.900379 8.170049,-6.296292 2.276408,-1.091271 4.312988,-1.606898 6.36311,-1.611032 1.332558,-0.0027 2.433381,0.179096 3.013393,0.497609 1.316753,0.723095 2.461088,2.018233 3.151192,3.56646 1.103933,2.476639 1.407743,5.599724 0.907419,9.328023 -0.873978,6.512671 -4.187037,13.879049 -8.875399,19.733883 -4.40874,5.505641 -9.479811,9.058089 -13.933212,9.760661 -0.631378,0.09961 -1.985598,0.122882 -2.539771,0.04365 z m 4.776116,-10.310078 c 1.538245,-0.270982 3.022477,-0.95953 4.594918,-2.131622 1.933614,-1.441308 3.817123,-3.631994 5.213199,-6.063406 0.380257,-0.662257 1.077791,-2.105036 1.348956,-2.790178 0.61377,-1.550793 1.04873,-3.235921 1.232968,-4.776786 0.08748,-0.731651 0.07574,-2.419453 -0.0214,-3.075621 -0.240505,-1.624608 -0.780876,-2.874223 -1.641325,-3.795583 -1.304865,-1.397237 -3.166172,-1.850238 -5.332446,-1.2978 -5.131464,1.308615 -10.335918,7.80994 -11.578468,14.463647 -0.329864,1.766386 -0.3301,3.649305 -6.33e-4,5.066964 0.504981,2.172886 1.726467,3.668931 3.456815,4.233822 0.348932,0.113912 0.593061,0.164392 1.205357,0.249235 0.232186,0.03217 1.154513,-0.01792 1.522059,-0.08267 z"
       id="path876"
       inkscape:connector-curvature="0"
       transform="matrix(0.26458333,0,0,0.26458333,0,280.06665)" />
    <path
       style="opacity:1;fill:#decb4f;fill-opacity:1;fill-rule:nonzero;stroke:none;stroke-width:0.75000001;stroke-miterlimit:4;stroke-dasharray:none;stroke-opacity:1"
       d="m 35.518007,46.833549 c -1.085615,-0.0984 -1.957465,-0.493737 -2.73085,-1.23828 -1.201503,-1.156696 -1.79188,-2.871038 -1.786674,-5.18816 0.0028,-1.241745 0.131957,-2.23678 0.455639,-3.509976 1.129653,-4.443477 4.113457,-8.825302 7.566349,-11.11146 2.922243,-1.934814 5.709817,-2.179648 7.59978,-0.667491 1.768785,1.415203 2.476901,4.264514 1.904968,7.665195 -0.513196,3.051429 -1.989093,6.259818 -4.102561,8.918375 -2.702037,3.398925 -6.144165,5.382196 -8.906651,5.131797 z"
       id="path882"
       inkscape:connector-curvature="0"
       transform="matrix(0.26458333,0,0,0.26458333,0,280.06665)" />
    <ellipse
       style="opacity:1;fill:none;fill-opacity:1;fill-rule:nonzero;stroke:#000000;stroke-width:0.21228465;stroke-miterlimit:4;stroke-dasharray:none;stroke-opacity:1"
       id="path826-1"
       transform="matrix(0.05332009,0.99857747,-0.84662442,0.53219084,0,0)"
       ry="5.5436435"
       rx="5.2950468"
       cy="4.7553878"
       cx="287.83887" />
    <ellipse
       style="opacity:1;fill:none;fill-opacity:1;fill-rule:nonzero;stroke:#000000;stroke-width:0.21904736;stroke-miterlimit:4;stroke-dasharray:none;stroke-opacity:1"
       id="path826-8"
       transform="matrix(-0.04855002,0.99882075,-0.84744888,0.530877,0,0)"
       ry="5.1285515"
       rx="5.1730776"
       cy="-30.497734"
       cx="306.20465" />
    <path
       style="fill:none;stroke:#000000;stroke-width:0.1984375;stroke-linecap:butt;stroke-linejoin:miter;stroke-opacity:1;stroke-miterlimit:4;stroke-dasharray:none"
       d="m 5.1676432,290.94055 -4.29947915,-2.42731 -0.37329781,-0.4292 -0.2317728,-0.62015 -0.0814337,-0.65773 0.0730815,-0.86654 0.23386082,-0.86028 0.39255213,-0.87697 0.49486631,-0.79764 0.6055325,-0.72663 0.6514694,-0.56795 0.6702618,-0.37167 0.6869663,-0.2109 0.5762998,0.006 0.5303631,0.25265 3.9902505,2.31564"
       id="path866"
       inkscape:connector-curvature="0" />
    <path
       style="opacity:1;fill:none;fill-opacity:1;fill-rule:nonzero;stroke:#000000;stroke-width:0.75000001;stroke-miterlimit:4;stroke-dasharray:none;stroke-opacity:1"
       d="M 11.308318,36.146378 3.4602365,31.712487 2.7815323,30.930813 2.1028282,30.149139 1.6691092,28.97232 1.2353903,27.795502 1.0967989,26.612466 0.95820758,25.42943 1.0950306,23.836674 l 0.136823,-1.592756 0.4415123,-1.621529 0.4415123,-1.62153 0.733588,-1.629465 C 3.5733965,15.76116 3.5928758,15.724493 4.4990315,14.264367 5.4115956,12.793916 5.4215009,12.780221 6.5570358,11.418877 L 7.6980621,10.05095 8.8959809,9.0045647 10.0939,7.9581789 l 1.250616,-0.6946634 1.250616,-0.6946633 1.237977,-0.3799789 1.237978,-0.3799789 1.060513,5.102e-4 1.060514,5.102e-4 1.004464,0.4825719 c 0.806348,0.3873912 2.444112,1.3176272 8.303572,4.7163583 4.014509,2.328582 7.315,4.247512 7.334424,4.264289 0.01942,0.01678 -0.40245,0.405152 -0.9375,0.863057 -0.881023,0.753995 -1.137909,1.010572 -2.722429,2.719147 l -1.749611,1.886592 -1.513725,2.142857 -1.513726,2.142857 -1.259858,2.332559 -1.259858,2.332558 -1.050996,2.533513 -1.050997,2.533513 -0.660586,2.232143 c -0.550041,1.858607 -0.677916,2.346072 -0.764142,2.912947 -0.05696,0.374442 -0.124074,0.679586 -0.149151,0.678097 -0.02508,-0.0015 -3.577232,-1.997956 -7.893677,-4.436596 z"
       id="path868"
       inkscape:connector-curvature="0"
       transform="matrix(0.26458333,0,0,0.26458333,0,280.06665)" />
    <path
       style="opacity:1;fill:none;fill-opacity:1;fill-rule:nonzero;stroke:#fce94f;stroke-width:0.75000001;stroke-miterlimit:4;stroke-dasharray:none;stroke-opacity:1"
       d="M 18.285864,40.038861 C 16.351653,38.950803 7.1138782,33.738986 5.3559325,32.743983 L 3.4751082,31.67943 2.8021103,30.901622 2.1291125,30.123814 1.7887407,29.205194 C 1.2457552,27.739744 1.2549438,27.776475 1.1178087,26.52318 L 0.99324622,25.384787 1.130861,23.799966 1.2684758,22.215144 1.7167539,20.58568 2.165032,18.956216 2.7637593,17.639252 C 3.639716,15.712492 3.6910766,15.616963 4.8085535,13.836001 5.3939934,12.902965 5.6252358,12.594465 6.7767652,11.21022 7.7152835,10.082034 7.7354143,10.061558 8.926038,9.024019 L 10.127919,7.9766708 11.360909,7.291158 12.5939,6.6056453 13.817109,6.2295913 15.040318,5.8535372 h 1.084924 1.084924 l 0.772224,0.3763583 c 1.168729,0.5696025 2.260503,1.1893923 9.857045,5.5957535 5.123885,2.972101 5.861995,3.402683 5.907813,3.446366 0.0205,0.01955 -0.371238,0.396695 -0.870536,0.838106 -1.017523,0.899556 -1.385226,1.271118 -3.214607,3.24835 l -1.28001,1.383459 -1.484072,2.098214 -1.484072,2.098215 -1.270561,2.34375 -1.270561,2.34375 -1.064262,2.562243 c -1.053876,2.537235 -1.068909,2.577974 -1.540309,4.174107 -0.677418,2.293701 -0.808553,2.781892 -0.936617,3.486864 -0.06244,0.34375 -0.12742,0.637261 -0.144389,0.652246 -0.01697,0.01499 -0.422593,-0.19312 -0.901388,-0.462458 z"
       id="path870"
       inkscape:connector-curvature="0"
       transform="matrix(0.26458333,0,0,0.26458333,0,280.06665)" />
    <path
       style="opacity:1;fill:none;fill-opacity:1;fill-rule:nonzero;stroke:#fce94f;stroke-width:0.75000001;stroke-miterlimit:4;stroke-dasharray:none;stroke-opacity:1"
       d="m 24.714435,58.907524 -1.316964,-0.731902 -1.039798,-1.2715 -1.039799,-1.2715 -0.674396,-1.55249 -0.674395,-1.552487 -0.327512,-1.808036 -0.327511,-1.808036 -0.02863,-2.5 -0.02863,-2.5 0.363956,-2.276786 0.363956,-2.276785 0.629153,-2.142858 0.629152,-2.142857 1.060924,-2.566964 1.060924,-2.566964 1.240393,-2.299107 1.240394,-2.299108 1.514392,-2.142857 1.514393,-2.142857 1.699957,-1.830357 1.699956,-1.830357 1.833881,-1.573259 1.83388,-1.573259 1.820892,-1.168545 1.820891,-1.168545 2.015658,-0.795157 2.015659,-0.795156 1.713929,-0.316116 1.713929,-0.3161156 0.9897,0.06994 c 0.544334,0.038467 1.274996,0.091568 1.623692,0.1180012 l 0.633994,0.048061 1.367055,0.6003314 c 0.95319,0.418586 1.477562,0.675604 1.732077,0.848969 0.245836,0.167452 0.324211,0.239414 0.24003,0.220388 -0.736752,-0.166513 -2.306835,-0.245828 -3.245542,-0.163955 -4.234897,0.369367 -8.692847,2.57054 -13.102678,6.469624 -0.847554,0.749389 -2.616532,2.541967 -3.427071,3.472788 -2.596877,2.982252 -4.770101,6.22169 -6.570666,9.794326 -2.557467,5.074461 -4.050298,10.130903 -4.471235,15.144741 -0.08682,1.034136 -0.09884,3.259937 -0.02248,4.163295 0.28422,3.362487 1.118873,6.033496 2.555484,8.177902 0.167536,0.25008 0.397069,0.568205 0.510075,0.706942 0.113005,0.138741 0.19881,0.258611 0.19068,0.266384 -0.0081,0.0078 -0.607418,-0.315232 -1.331749,-0.717777 z"
       id="path874"
       inkscape:connector-curvature="0"
       transform="matrix(0.26458333,0,0,0.26458333,0,280.06665)" />
    <path
       style="opacity:1;fill:none;fill-opacity:1;fill-rule:nonzero;stroke:#fce94f;stroke-width:0.75000001;stroke-miterlimit:4;stroke-dasharray:none;stroke-opacity:1"
       d="m 33.620685,62.474917 c -3.822752,-0.245094 -6.841466,-2.312522 -8.592518,-5.884772 -0.834409,-1.702245 -1.316989,-3.458501 -1.594691,-5.803572 -0.112755,-0.952171 -0.113292,-4.131163 -8.78e-4,-5.194072 0.234212,-2.21453 0.632091,-4.276241 1.235471,-6.401907 2.377376,-8.375333 7.623551,-16.52515 13.970781,-21.703298 2.985225,-2.435383 6.239897,-4.169847 9.183332,-4.893934 3.649492,-0.897778 6.909649,-0.381895 9.427232,1.491753 3.794942,2.824291 5.520059,8.490546 4.738244,15.563065 C 61.445023,34.557011 59.6144,40.016798 56.84778,44.977738 53.339895,51.26787 48.455962,56.572604 43.352828,59.635421 40.012544,61.640203 36.5155,62.66052 33.620685,62.474917 Z m 2.142858,-1.845514 c 7.469924,-0.535196 16.024051,-7.807446 21.082495,-17.923187 2.287701,-4.574883 3.607685,-9.138702 3.943717,-13.635329 0.06867,-0.918884 0.02775,-3.489694 -0.06755,-4.244135 -0.456541,-3.614259 -1.635682,-6.304114 -3.581475,-8.170065 -0.920112,-0.882356 -2.038516,-1.57852 -3.185228,-1.982682 -0.184152,-0.0649 -0.458564,-0.176327 -0.609805,-0.247604 -1.256295,-0.592069 -2.92089,-0.794943 -4.594698,-0.559982 -2.839675,0.398619 -5.990549,1.96657 -9.148176,4.552353 -1.604579,1.313992 -3.848848,3.499783 -5.135545,5.00173 -3.459022,4.03768 -6.219632,8.867308 -7.898783,13.818753 -0.949564,2.800053 -1.500158,5.330643 -1.747985,8.033925 -0.102641,1.119609 -0.102561,3.355069 1.56e-4,4.375 0.442473,4.393477 2.195452,7.758295 4.983049,9.564889 1.219036,0.790035 2.726063,1.284352 4.308035,1.413076 0.648806,0.05279 0.952044,0.05339 1.651786,0.0033 z"
       id="path878"
       inkscape:connector-curvature="0"
       transform="matrix(0.26458333,0,0,0.26458333,0,280.06665)" />
    <ellipse
       style="opacity:1;fill:none;fill-opacity:1;fill-rule:nonzero;stroke:#000000;stroke-width:0.21214458;stroke-miterlimit:4;stroke-dasharray:none;stroke-opacity:1"
       id="path826"
       transform="matrix(0.05357187,0.998564,-0.84775418,0.53038933,0,0)"
       ry="2.8551111"
       rx="2.7178833"
       cy="5.68859"
       cx="286.853" />
    <ellipse
       style="opacity:1;fill:none;fill-opacity:1;fill-rule:nonzero;stroke:#000000;stroke-width:0.21245566;stroke-miterlimit:4;stroke-dasharray:none;stroke-opacity:1"
       id="path826-0"
       transform="matrix(0.05301683,0.99859362,-0.84524833,0.53437371,0,0)"
       ry="6.1648412"
       rx="5.9124455"
       cy="4.6744871"
       cx="287.84937" />
    <path
       style="fill:none;stroke:#000000;stroke-width:0.1984375;stroke-linecap:butt;stroke-linejoin:miter;stroke-opacity:1;stroke-miterlimit:4;stroke-dasharray:none"
       d="m 7.4768415,296.25584 -1.3338185,-0.74046 -0.5637718,-0.68905 -0.3674954,-0.84775 -0.1774838,-0.99182 -0.00627,-1.33008 0.1920999,-1.2048 0.3382629,-1.14634 0.5575075,-1.34678 0.6660859,-1.23404 0.8038965,-1.13589 0.914563,-0.98347 0.968852,-0.82895 0.9688513,-0.62224 1.079519,-0.42596 0.916651,-0.16913 0.883242,0.0605 0.739167,0.32365 0.686966,0.4531"
       id="path864"
       inkscape:connector-curvature="0" />
  </g>
</svg>
