<?xml version="1.0" encoding="UTF-8" standalone="no"?>
<!-- Created with Inkscape (http://www.inkscape.org/) -->

<svg
   xmlns:dc="http://purl.org/dc/elements/1.1/"
   xmlns:cc="http://creativecommons.org/ns#"
   xmlns:rdf="http://www.w3.org/1999/02/22-rdf-syntax-ns#"
   xmlns:svg="http://www.w3.org/2000/svg"
   xmlns="http://www.w3.org/2000/svg"
   xmlns:sodipodi="http://sodipodi.sourceforge.net/DTD/sodipodi-0.dtd"
   xmlns:inkscape="http://www.inkscape.org/namespaces/inkscape"
   width="64"
   height="64"
   viewBox="0 0 16.933333 16.933334"
   version="1.1"
   id="svg8"
   inkscape:version="0.92.4 (5da689c313, 2019-01-14)"
   sodipodi:docname="ThLed30_cmd.svg">
  <defs
     id="defs2" />
  <sodipodi:namedview
     id="base"
     pagecolor="#ffffff"
     bordercolor="#666666"
     borderopacity="1.0"
     inkscape:pageopacity="0.0"
     inkscape:pageshadow="2"
     inkscape:zoom="15.839192"
     inkscape:cx="11.699236"
     inkscape:cy="37.75119"
     inkscape:document-units="px"
     inkscape:current-layer="layer1"
     showgrid="false"
     units="px"
     inkscape:window-width="3840"
     inkscape:window-height="2055"
     inkscape:window-x="-13"
     inkscape:window-y="-13"
     inkscape:window-maximized="1" />
  <metadata
     id="metadata5">
    <rdf:RDF>
      <cc:Work
         rdf:about="">
        <dc:format>image/svg+xml</dc:format>
        <dc:type
           rdf:resource="http://purl.org/dc/dcmitype/StillImage" />
        <dc:title />
      </cc:Work>
    </rdf:RDF>
  </metadata>
  <g
     inkscape:label="Capa 1"
     inkscape:groupmode="layer"
     id="layer1"
     transform="translate(0,-280.06665)">
    <path
       style="opacity:1;fill:#fce94f;fill-opacity:1;fill-rule:nonzero;stroke:none;stroke-width:0.74999999;stroke-miterlimit:4;stroke-dasharray:none;stroke-opacity:1"
       d="M 15.433322,56.068375 C 12.197655,55.652217 8.5320786,53.102561 5.6513309,49.26434 3.9680036,47.021525 2.6065959,44.391422 1.815359,41.853626 0.88685237,38.875554 0.69915131,36.041153 1.2822189,33.802885 1.8911451,31.46535 3.3432126,29.903083 5.3560152,29.419921 c 1.4197666,-0.340806 3.060209,-0.120379 4.8485048,0.651498 1.078253,0.465404 2.270439,1.202314 3.398445,2.100639 0.678028,0.539969 2.326082,2.161182 2.898415,2.851211 3.026946,3.64941 4.972134,7.947615 5.475146,12.098214 0.104454,0.86189 0.104755,2.436801 6.17e-4,3.207188 -0.345979,2.559414 -1.481641,4.39121 -3.256229,5.252222 -0.512206,0.248517 -0.930721,0.375826 -1.546519,0.470439 -0.45457,0.06984 -1.268608,0.07781 -1.741071,0.01704 z"
       id="path956"
       inkscape:connector-curvature="0"
       transform="matrix(0.26458334,0,0,0.26458334,0,280.06665)" />
    <path
       style="opacity:1;fill:#fce94f;fill-opacity:1;fill-rule:nonzero;stroke:none;stroke-width:0.74999999;stroke-miterlimit:4;stroke-dasharray:none;stroke-opacity:1"
       d="m 21.01368,54.632283 c 0,-0.0107 0.112085,-0.186912 0.249079,-0.391583 0.770224,-1.150723 1.212633,-2.657285 1.309123,-4.458029 0.252382,-4.710078 -1.954945,-10.481896 -5.755858,-15.050679 -0.691114,-0.830735 -2.27052,-2.388815 -3.056809,-3.015534 -2.075886,-1.654607 -4.0565264,-2.629892 -6.0267855,-2.967645 -0.5362469,-0.09193 -1.8147914,-0.133531 -2.0276239,-0.06598 -0.1569402,0.04981 -0.105691,-0.0029 0.2171825,-0.223551 0.2043079,-0.139597 0.5964696,-0.325317 1.1495536,-0.544407 l 0.8394593,-0.332529 1.1383928,-0.05967 1.1383932,-0.05967 1.246491,0.380117 1.246491,0.380116 1.275831,0.729924 1.27583,0.729923 1.306271,1.129914 1.306271,1.129914 1.08379,1.316964 c 0.976347,1.186404 1.165974,1.445311 1.912787,2.611607 0.776709,1.212984 0.864276,1.372078 1.388328,2.522321 0.307632,0.675224 0.761306,1.649554 1.008164,2.165179 0.433005,0.90444 0.457476,0.972135 0.69394,1.919643 0.319418,1.279906 0.541957,2.800353 0.637473,4.355395 l 0.07009,1.14111 -0.140215,1.224962 -0.140215,1.224961 -0.341337,0.833287 -0.341337,0.833287 -0.829148,1.015548 -0.829149,1.015549 -0.502232,0.264506 c -0.276228,0.145479 -0.502232,0.255752 -0.502232,0.245052 z"
       id="path958"
       inkscape:connector-curvature="0"
       transform="matrix(0.26458334,0,0,0.26458334,0,280.06665)" />
    <path
       style="opacity:1;fill:#decb4f;fill-opacity:1;fill-rule:nonzero;stroke:none;stroke-width:0.74999999;stroke-miterlimit:4;stroke-dasharray:none;stroke-opacity:1"
       d="m 23.693204,52.932562 c 0.436366,-0.540071 0.451894,-0.567435 0.817457,-1.440528 l 0.372641,-0.89 0.148839,-1.313959 0.148839,-1.313958 -0.07249,-1.185246 C 25.008606,45.155623 24.7929,43.691779 24.450329,42.322376 24.194508,41.29975 24.176981,41.250732 23.75595,40.380412 23.518386,39.88934 23.058071,38.903069 22.733027,38.188698 22.170014,36.951325 22.102243,36.827702 21.301347,35.577091 20.530894,34.374019 20.365951,34.14953 19.327153,32.890183 l -1.133502,-1.374157 -1.31485,-1.134667 -1.314849,-1.134667 -1.333921,-0.762421 -1.333921,-0.762421 -1.318195,-0.40132 -1.318194,-0.401319 -0.7056099,0.02779 c -0.8573645,0.03377 -0.8686054,0.05052 0.3478195,-0.518354 l 0.8572754,-0.400914 h 1.112684 1.112683 l 1.257857,0.382848 1.257857,0.382849 1.316964,0.755984 1.316964,0.755984 1.25,1.084643 1.25,1.084642 1.099778,1.32904 c 1.01383,1.225175 1.165886,1.432568 1.945672,2.653757 0.77935,1.220506 0.885688,1.412515 1.351749,2.440789 0.27822,0.613839 0.721792,1.56808 0.985715,2.120535 0.457917,0.958529 0.491264,1.048511 0.729187,1.967608 0.320146,1.23672 0.57536,2.967364 0.664431,4.505607 l 0.06075,1.049107 -0.144087,1.25 -0.144088,1.25 -0.341113,0.815987 -0.341113,0.815988 -0.812903,1.006439 -0.812903,1.006439 -0.791941,0.398556 c -0.435568,0.219205 -0.80162,0.398555 -0.813449,0.398555 -0.01183,0 0.178658,-0.247738 0.423307,-0.550528 z"
       id="path960"
       inkscape:connector-curvature="0"
       transform="matrix(0.26458334,0,0,0.26458334,0,280.06665)" />
    <path
       style="opacity:1;fill:#fce94f;fill-opacity:1;fill-rule:nonzero;stroke:none;stroke-width:0.74999999;stroke-miterlimit:4;stroke-dasharray:none;stroke-opacity:1"
       d="m 26.370822,51.715079 c 0,-0.01482 0.133377,-0.18685 0.296392,-0.382295 0.267601,-0.320837 0.332878,-0.44277 0.672007,-1.255259 l 0.375616,-0.899905 0.151299,-1.317918 0.151299,-1.317918 -0.06649,-1.094079 C 27.851958,43.818846 27.601606,42.129951 27.265975,40.82684 27.011185,39.8376 26.985303,39.76659 26.558162,38.884876 26.314318,38.381528 25.859006,37.407197 25.546357,36.719697 25.007969,35.535808 24.93305,35.399673 24.129791,34.145694 23.351057,32.929999 23.189332,32.709812 22.152832,31.454071 L 21.023987,30.086452 19.735351,28.972175 18.446715,27.857898 17.096909,27.079213 15.747102,26.300529 14.417085,25.896274 13.087068,25.492019 H 12.218799 11.35053 l 0.110593,-0.106161 c 0.0609,-0.05846 0.481719,-0.251388 0.936485,-0.429345 l 0.825893,-0.323184 1.116071,-0.05746 1.116072,-0.05746 1.25,0.378578 1.25,0.378579 1.316964,0.755984 1.316964,0.755984 1.25,1.084642 1.25,1.084642 1.099779,1.329041 c 1.013829,1.225175 1.165885,1.432567 1.945671,2.653757 0.77935,1.220506 0.885688,1.412515 1.351749,2.440789 0.27822,0.613839 0.721792,1.56808 0.985715,2.120535 0.457917,0.958529 0.491264,1.048511 0.729187,1.967608 0.320146,1.23672 0.57536,2.967364 0.664431,4.505607 l 0.06075,1.049107 -0.144087,1.25 -0.144088,1.25 -0.341402,0.816683 -0.341402,0.816684 -0.843072,1.035995 c -0.83234,1.022806 -0.848434,1.039263 -1.264225,1.292691 -0.414764,0.252803 -0.477753,0.283095 -0.477753,0.229757 z"
       id="path962"
       inkscape:connector-curvature="0"
       transform="matrix(0.26458334,0,0,0.26458334,0,280.06665)" />
    <path
       style="opacity:1;fill:#decb4f;fill-opacity:1;fill-rule:nonzero;stroke:none;stroke-width:0.74999999;stroke-miterlimit:4;stroke-dasharray:none;stroke-opacity:1"
       d="m 28.9651,50.012108 c 0.03331,-0.04297 0.148359,-0.183191 0.25566,-0.311604 0.147631,-0.17668 0.286848,-0.45331 0.572263,-1.137111 l 0.377171,-0.90363 0.151299,-1.317918 0.151299,-1.317918 -0.06649,-1.094079 c -0.09899,-1.62886 -0.34934,-3.317754 -0.684971,-4.620865 -0.25479,-0.989241 -0.280672,-1.06025 -0.707813,-1.941964 C 28.769675,36.86367 28.314363,35.88934 28.001714,35.20184 27.463326,34.01795 27.388407,33.881816 26.585148,32.627837 25.806414,31.412142 25.644689,31.191955 24.608189,29.936214 l -1.128845,-1.367619 -1.288635,-1.114277 -1.288637,-1.114277 -1.349806,-0.778685 -1.349807,-0.778685 -1.335971,-0.406064 -1.335972,-0.406065 -0.77325,0.04353 c -0.425288,0.02394 -0.779199,0.03758 -0.78647,0.03031 -0.0073,-0.0073 0.112908,-0.128562 0.267064,-0.269535 0.23467,-0.214602 0.406316,-0.313631 1.054709,-0.608504 l 0.774426,-0.35219 1.126933,-0.09493 1.126933,-0.09493 1.250282,0.382639 1.250283,0.382638 1.276325,0.734132 1.276326,0.734133 1.271627,1.097068 1.271626,1.097067 1.100159,1.329138 c 1.001192,1.209576 1.174898,1.445623 1.931023,2.624051 0.76161,1.186977 0.873311,1.387941 1.340079,2.410984 0.280067,0.613839 0.737923,1.598214 1.017459,2.1875 0.499231,1.052424 0.512572,1.088849 0.752142,2.053571 0.313383,1.261957 0.538484,2.798786 0.635289,4.337301 l 0.07066,1.123015 -0.142036,1.243057 -0.142036,1.243056 -0.344834,0.827965 -0.344834,0.827965 -0.834221,1.028544 -0.834222,1.028545 -0.580642,0.386794 c -0.319354,0.212736 -0.593275,0.386794 -0.608714,0.386794 -0.01544,0 -8.17e-4,-0.03516 0.0325,-0.07813 z"
       id="path964"
       inkscape:connector-curvature="0"
       transform="matrix(0.26458334,0,0,0.26458334,0,280.06665)" />
    <path
       style="opacity:1;fill:#fce94f;fill-opacity:1;fill-rule:nonzero;stroke:none;stroke-width:0.74999999;stroke-miterlimit:4;stroke-dasharray:none;stroke-opacity:1"
       d="m 31.444115,48.561215 c 0.01865,-0.03069 0.208876,-0.269064 0.422712,-0.529716 0.376131,-0.458478 0.40109,-0.503552 0.766314,-1.383929 l 0.37752,-0.910016 0.146554,-1.291108 0.146554,-1.291109 -0.07161,-1.18657 c -0.09865,-1.634556 -0.313275,-3.094276 -0.657288,-4.47034 -0.262064,-1.048265 -0.264549,-1.055078 -0.77733,-2.131016 -0.282933,-0.593665 -0.707981,-1.506593 -0.94455,-2.02873 -0.591204,-1.30486 -0.556877,-1.242629 -1.473836,-2.671908 -0.745662,-1.162275 -0.919383,-1.397845 -1.947004,-2.640194 L 26.303858,26.662523 24.986894,25.528079 23.66993,24.393634 22.330644,23.63146 20.991358,22.869287 19.69821,22.476635 l -1.293148,-0.392652 -0.671138,0.05243 c -0.369125,0.02884 -0.721361,0.05189 -0.782744,0.05124 l -0.111608,-0.0012 0.111608,-0.08746 c 0.06138,-0.0481 0.502502,-0.241673 0.980262,-0.430159 l 0.868656,-0.342702 1.09563,-0.05735 1.09563,-0.05735 1.260417,0.379604 1.260417,0.379603 1.283538,0.733271 1.283538,0.733271 1.262169,1.083213 1.26217,1.083213 1.118671,1.351099 c 1.025675,1.238781 1.188228,1.459598 1.955378,2.65625 0.776568,1.211343 0.874693,1.388577 1.36522,2.465865 0.290682,0.638393 0.739655,1.602524 0.997716,2.142514 0.437468,0.915393 0.485465,1.043721 0.709643,1.897321 0.320203,1.219234 0.563604,2.843595 0.664204,4.432639 l 0.07287,1.151046 -0.143052,1.251994 -0.143053,1.251994 -0.344907,0.824969 -0.344906,0.824969 -0.822517,1.015713 -0.822517,1.015713 -0.700245,0.365654 C 31.780977,48.452456 31.45334,48.617 31.43803,48.617 c -0.01531,0 -0.01257,-0.02511 0.0061,-0.0558 z"
       id="path966"
       inkscape:connector-curvature="0"
       transform="matrix(0.26458334,0,0,0.26458334,0,280.06665)" />
    <path
       style="opacity:1;fill:#decb4f;fill-opacity:1;fill-rule:nonzero;stroke:none;stroke-width:0.74999999;stroke-miterlimit:4;stroke-dasharray:none;stroke-opacity:1"
       d="m 34.562323,46.657868 c 0.412594,-0.514005 0.437491,-0.558281 0.797041,-1.41741 l 0.371145,-0.886832 0.148814,-1.311904 0.148816,-1.311904 -0.07448,-1.188096 C 35.850172,38.89092 35.615143,37.308007 35.278244,35.99283 35.033142,35.036009 35.006356,34.962864 34.575247,34.073187 34.328744,33.564482 33.870614,32.584086 33.557179,31.894529 33.011563,30.694173 32.950116,30.582974 32.114032,29.282922 31.307806,28.029298 31.155432,27.822238 30.12922,26.585769 l -1.111545,-1.339286 -1.30039,-1.120161 -1.30039,-1.120161 -1.32884,-0.762692 -1.32884,-0.762691 -1.335429,-0.407715 -1.335429,-0.407715 -0.761807,0.04452 c -0.418994,0.02449 -0.767023,0.03931 -0.773397,0.03293 -0.04693,-0.04694 0.370087,-0.248454 1.107355,-0.535112 l 0.866564,-0.336929 1.103726,-0.0518 1.103725,-0.0518 1.217703,0.36643 1.217704,0.366429 1.305973,0.743767 1.305974,0.743766 1.293239,1.116072 1.293239,1.116071 1.086496,1.316965 c 0.980709,1.188736 1.167669,1.443445 1.920178,2.615985 0.798547,1.244277 0.859818,1.356218 1.453919,2.65625 0.341132,0.746476 0.794514,1.718836 1.007515,2.1608 0.362485,0.752134 0.403131,0.86644 0.634976,1.785715 0.325737,1.291559 0.528145,2.651037 0.634763,4.263392 l 0.08118,1.227679 -0.147108,1.272321 -0.147108,1.272322 -0.337317,0.799327 -0.337318,0.799327 -0.777357,0.964066 c -0.427547,0.530236 -0.824196,1.006082 -0.881444,1.057435 -0.08901,0.07984 -1.348686,0.777166 -1.403908,0.777166 -0.01067,0 0.172256,-0.23876 0.4065,-0.530579 z"
       id="path970"
       inkscape:connector-curvature="0"
       transform="matrix(0.26458334,0,0,0.26458334,0,280.06665)" />
    <path
       style="opacity:1;fill:#fce94f;fill-opacity:1;fill-rule:nonzero;stroke:none;stroke-width:0.74999999;stroke-miterlimit:4;stroke-dasharray:none;stroke-opacity:1"
       d="m 36.995822,45.561771 c 0,-0.01639 0.157928,-0.224617 0.35095,-0.462724 0.327995,-0.404606 0.37488,-0.490731 0.716847,-1.316802 l 0.365899,-0.88388 0.150658,-1.311758 0.150659,-1.311758 -0.0652,-1.085612 C 38.570588,37.606616 38.317038,35.895203 37.982298,34.57684 37.723282,33.556713 37.718129,33.542817 37.187654,32.433983 36.893989,31.820144 36.435552,30.837932 36.168907,30.25129 35.727189,29.279474 35.608847,29.067186 34.837483,27.862897 34.06164,26.651617 33.89722,26.427664 32.870578,25.183814 l -1.120291,-1.357311 -1.327091,-1.144186 -1.327092,-1.144185 -1.327222,-0.757215 -1.327221,-0.757214 -1.274259,-0.392664 -1.274258,-0.392664 -0.892857,0.02786 -0.892857,0.02786 0.153032,-0.159132 c 0.123467,-0.128387 0.321482,-0.225344 1.024906,-0.501838 l 0.871873,-0.342706 1.09563,-0.05735 1.09563,-0.05735 1.260417,0.379603 1.260417,0.379604 1.283538,0.733271 1.283537,0.733271 1.26217,1.083213 1.26217,1.083213 1.118671,1.351099 c 1.025675,1.23878 1.188228,1.459598 1.955378,2.65625 0.776568,1.211343 0.874693,1.388576 1.365219,2.465865 0.290683,0.638393 0.739655,1.602523 0.997717,2.142513 0.437467,0.915394 0.485465,1.043722 0.709643,1.897322 0.320203,1.219234 0.563604,2.843594 0.664204,4.432639 l 0.07287,1.151045 -0.143052,1.251995 -0.143054,1.251994 -0.344906,0.824969 -0.344906,0.824968 -0.822517,1.018779 -0.822517,1.018779 -0.513393,0.304788 c -0.282366,0.167634 -0.558594,0.333109 -0.613839,0.367723 -0.05525,0.03461 -0.100447,0.04952 -0.100447,0.03313 z"
       id="path972"
       inkscape:connector-curvature="0"
       transform="matrix(0.26458334,0,0,0.26458334,0,280.06665)" />
    <path
       style="opacity:1;fill:#decb4f;fill-opacity:1;fill-rule:nonzero;stroke:none;stroke-width:0.74999999;stroke-miterlimit:4;stroke-dasharray:none;stroke-opacity:1"
       d="m 39.682775,43.918358 c 0.669031,-0.829298 0.651432,-0.800127 1.0335,-1.713059 l 0.371377,-0.887387 0.148814,-1.311904 0.148815,-1.311904 -0.07448,-1.188096 c -0.103487,-1.650802 -0.338516,-3.233716 -0.675414,-4.548892 -0.245102,-0.956821 -0.271889,-1.029967 -0.702998,-1.919643 -0.246502,-0.508705 -0.704633,-1.489101 -1.018067,-2.178658 -0.545616,-1.200357 -0.607063,-1.311555 -1.443147,-2.611607 -0.806226,-1.253625 -0.9586,-1.460684 -1.984812,-2.697154 l -1.111545,-1.339285 -1.30039,-1.120161 -1.30039,-1.120162 -1.32884,-0.762691 -1.32884,-0.762692 -1.337233,-0.408266 -1.337232,-0.408266 -0.493125,0.02674 c -0.271218,0.01471 -0.623704,0.0378 -0.783303,0.05131 l -0.290178,0.02457 0.111607,-0.112762 c 0.06918,-0.06989 0.442576,-0.242935 0.982143,-0.455149 l 0.870535,-0.342386 1.116072,-0.05747 1.116071,-0.05747 1.25,0.378578 1.25,0.378579 1.316965,0.755984 1.316964,0.755984 1.25,1.084642 1.25,1.084642 1.099778,1.329041 c 1.01383,1.225175 1.165886,1.432567 1.945672,2.653757 0.779349,1.220505 0.885688,1.412515 1.351748,2.440789 0.27822,0.613839 0.721793,1.56808 0.985716,2.120535 0.457916,0.958529 0.491263,1.048511 0.729187,1.967608 0.320146,1.23672 0.575359,2.967364 0.66443,4.505607 l 0.06075,1.049107 -0.144088,1.25 -0.144087,1.25 -0.341164,0.81611 -0.341164,0.816109 -0.831368,1.024734 -0.831367,1.024734 -0.659091,0.357817 c -0.3625,0.196799 -0.672994,0.357817 -0.689987,0.357817 -0.01699,0 0.03798,-0.08538 0.122168,-0.189732 z"
       id="path974"
       inkscape:connector-curvature="0"
       transform="matrix(0.26458334,0,0,0.26458334,0,280.06665)" />
    <path
       style="opacity:1;fill:#fce94f;fill-opacity:1;fill-rule:nonzero;stroke:none;stroke-width:0.74999999;stroke-miterlimit:4;stroke-dasharray:none;stroke-opacity:1"
       d="m 42.360022,42.467465 c 0.660595,-0.787477 0.662738,-0.790986 1.050628,-1.720298 l 0.375615,-0.899904 0.151299,-1.317918 0.1513,-1.317918 -0.06649,-1.094079 c -0.09899,-1.62886 -0.34934,-3.317754 -0.684972,-4.620865 -0.254788,-0.989241 -0.28067,-1.06025 -0.707812,-1.941964 C 42.385747,29.05117 41.930435,28.07684 41.617786,27.38934 41.079398,26.20545 41.004479,26.069316 40.20122,24.815337 39.422485,23.599642 39.260761,23.379455 38.224261,22.123714 l -1.128845,-1.367619 -1.288636,-1.114277 -1.288636,-1.114277 -1.349806,-0.778685 -1.349807,-0.778685 -1.33571,-0.405985 -1.335709,-0.405985 -0.87932,0.04925 c -0.483626,0.02709 -0.886278,0.04229 -0.894783,0.03378 -0.02615,-0.02615 10.387269,-5.906305 10.435558,-5.892662 0.02491,0.007 0.148555,-0.06557 0.274759,-0.161352 0.126203,-0.09578 0.363028,-0.2477803 0.526277,-0.3377721 0.215789,-0.1189548 0.292232,-0.1845904 0.280022,-0.2404337 -0.03556,-0.1626391 0.405129,-0.4222697 1.321989,-0.7788453 l 0.872042,-0.3391452 1.117197,-0.054337 1.117197,-0.054337 1.251688,0.3830683 1.251688,0.3830683 1.276326,0.7341327 1.276325,0.734133 1.273079,1.09832 1.273079,1.098321 1.09756,1.326098 c 0.998528,1.206446 1.172632,1.4431 1.929572,2.622798 0.762866,1.188936 0.87433,1.389451 1.341224,2.41277 0.280067,0.61384 0.737924,1.598215 1.017459,2.1875 0.499231,1.052425 0.512573,1.088849 0.752142,2.053572 0.313383,1.261957 0.538484,2.798786 0.635289,4.337301 l 0.07066,1.123015 -0.142037,1.243056 -0.142036,1.243056 -0.344834,0.827966 -0.344834,0.827965 -0.833127,1.027195 -0.833128,1.027195 -1.53068,0.752534 c -0.841875,0.413894 -1.538967,0.759232 -1.549094,0.767419 -0.01013,0.0082 0.0039,0.06375 0.03107,0.123477 0.04887,0.107255 -0.0107,0.143831 -4.835211,2.968939 -2.686579,1.57319 -4.898426,2.860346 -4.915217,2.860346 -0.01679,0 -10e-4,-0.03516 0.03501,-0.07813 z"
       id="path976"
       inkscape:connector-curvature="0"
       transform="matrix(0.26458334,0,0,0.26458334,0,280.06665)" />
    <path
       style="opacity:1;fill:#fce94f;fill-opacity:1;fill-rule:nonzero;stroke:none;stroke-width:0.74999999;stroke-miterlimit:4;stroke-dasharray:none;stroke-opacity:1"
       d="m 58.282466,29.007737 c 0.0079,-0.153511 -0.01655,-0.771299 -0.05427,-1.372861 -0.09698,-1.54621 -0.321354,-3.049642 -0.653321,-4.37752 -0.262064,-1.048265 -0.264549,-1.055079 -0.77733,-2.131017 -0.282933,-0.593664 -0.707981,-1.506592 -0.94455,-2.02873 -0.591204,-1.30486 -0.556877,-1.242629 -1.473836,-2.671907 -0.744676,-1.160738 -0.920743,-1.399583 -1.947004,-2.641228 L 51.303858,12.419385 49.986894,11.285858 48.66993,10.152332 47.585268,9.5340688 c -0.645322,-0.3678371 -1.068335,-0.6345893 -1.044354,-0.65857 0.02217,-0.022169 0.761451,-0.436619 1.642849,-0.9210005 l 1.602543,-0.8806934 1.026633,0.053917 c 1.004594,0.052759 1.04514,0.058686 1.888686,0.2760659 0.708793,0.1826545 0.923087,0.2574016 1.205357,0.4204354 1.704705,0.9846049 1.564381,0.8873992 2.633163,1.8240584 0.830046,0.7274354 1.170359,1.0643214 1.878287,1.8593714 0.779097,0.874977 0.947124,1.094554 1.699554,2.220973 l 0.834979,1.25 0.584521,1.342593 c 0.548767,1.260472 0.605318,1.417996 0.924556,2.575351 l 0.340037,1.232758 0.109602,1.397863 0.109601,1.397863 -0.133709,1.071429 c -0.133301,1.068161 -0.134558,1.073724 -0.412283,1.823951 l -0.278575,0.752523 -0.629661,0.676049 -0.629662,0.676048 -1.319842,0.680804 c -0.725914,0.374442 -1.326494,0.680845 -1.334624,0.680897 -0.0081,4.5e-5 -0.0083,-0.125506 -4.6e-4,-0.279018 z"
       id="path978"
       inkscape:connector-curvature="0"
       transform="matrix(0.26458334,0,0,0.26458334,0,280.06665)" />
    <path
       style="opacity:1;fill:#fce94f;fill-opacity:1;fill-rule:nonzero;stroke:none;stroke-width:0.74999999;stroke-miterlimit:4;stroke-dasharray:none;stroke-opacity:1"
       d="m 36.415465,54.637214 c -0.801345,-0.05157 -1.177561,-0.169341 -1.730468,-0.541723 -0.452664,-0.304869 -0.42817,-0.07435 -0.369048,-3.473214 0.02792,-1.604793 0.05469,-2.920747 0.05951,-2.924342 0.0048,-0.0036 0.34023,-0.184396 0.745363,-0.401781 0.405134,-0.217384 1.389509,-0.783474 2.1875,-1.257978 l 1.450893,-0.862734 0.01139,4.243726 0.01139,4.243727 -0.110627,0.166794 c -0.370462,0.558557 -1.247293,0.872429 -2.255896,0.807525 z"
       id="path980"
       inkscape:connector-curvature="0"
       transform="matrix(0.26458334,0,0,0.26458334,0,280.06665)" />
    <ellipse
       style="opacity:1;fill:none;fill-opacity:1;fill-rule:nonzero;stroke:#000000;stroke-width:0.21284188;stroke-miterlimit:4;stroke-dasharray:none;stroke-opacity:1"
       id="path826"
       cx="-23.584282"
       cy="302.3161"
       rx="3.1465871"
       ry="3.3941014"
       transform="matrix(0.90632323,0.42258515,0.08077529,0.99673234,0,0)" />
    <path
       style="fill:none;stroke:#000000;stroke-width:0.1984375;stroke-linecap:butt;stroke-linejoin:miter;stroke-miterlimit:4;stroke-dasharray:none;stroke-opacity:1"
       d="m 0.91664924,287.96322 0.68974966,-0.48351 0.484282,-0.18899 0.6142114,-0.0295 0.6791759,0.20671 0.6909877,0.39569 0.6850819,0.59059 0.5905879,0.71461 0.4429408,0.69099 c 0,0 0.2598587,0.56696 0.2716705,0.59649 0.011811,0.0295 0.2657644,0.55516 0.2657644,0.55516 l 0.1358352,0.53743 0.088588,0.62012 0.035435,0.59058 -0.076777,0.67328 -0.188988,0.45475 -0.4547526,0.56106 -0.8327289,0.41341"
       id="path889"
       inkscape:connector-curvature="0"
       sodipodi:nodetypes="cccccccccccccccccc" />
    <path
       style="fill:none;stroke:#000000;stroke-width:0.1984375;stroke-linecap:butt;stroke-linejoin:miter;stroke-miterlimit:4;stroke-dasharray:none;stroke-opacity:1"
       d="m 2.8255357,286.88421 0.1799808,-0.18337 0.484282,-0.18899 0.6142114,-0.0295 0.6791759,0.20671 0.6909876,0.39569 0.6850819,0.59059 0.5905881,0.71461 0.4429408,0.69099 c 0,0 0.2598587,0.56696 0.2716705,0.59649 0.011811,0.0295 0.2657642,0.55516 0.2657642,0.55516 l 0.1358352,0.53743 0.088588,0.62012 0.035435,0.59058 -0.076777,0.67328 -0.1889879,0.45475 -0.4547526,0.56106 -0.6496465,0.40159"
       id="path889-6"
       inkscape:connector-curvature="0"
       sodipodi:nodetypes="cccccccccccccccccc" />
    <path
       style="fill:none;stroke:#000000;stroke-width:0.1984375;stroke-linecap:butt;stroke-linejoin:miter;stroke-miterlimit:4;stroke-dasharray:none;stroke-opacity:1"
       d="m 4.2335809,286.03177 0.2424993,-0.20501 0.484282,-0.18899 0.6142114,-0.0295 0.6791759,0.20671 0.6909876,0.39569 0.6850821,0.59059 0.590588,0.71461 0.442941,0.69099 c 0,0 0.259858,0.56696 0.27167,0.59649 0.01181,0.0295 0.265764,0.55516 0.265764,0.55516 l 0.135836,0.53743 0.08859,0.62012 0.03543,0.59058 -0.07678,0.67328 -0.188988,0.45475 -0.454753,0.56106 -0.7205111,0.37208"
       id="path889-3"
       inkscape:connector-curvature="0"
       sodipodi:nodetypes="cccccccccccccccccc" />
    <path
       style="fill:none;stroke:#000000;stroke-width:0.1984375;stroke-linecap:butt;stroke-linejoin:miter;stroke-miterlimit:4;stroke-dasharray:none;stroke-opacity:1"
       d="m 5.6749734,285.25389 0.2185175,-0.23032 0.484282,-0.18899 0.6142114,-0.0295 0.6791759,0.20671 0.6909876,0.39569 0.6850817,0.59059 0.590588,0.71461 0.4429415,0.69099 c 0,0 0.259859,0.56696 0.271671,0.59649 0.01181,0.0295 0.265764,0.55516 0.265764,0.55516 l 0.135835,0.53743 0.08859,0.62012 0.03543,0.59058 -0.07678,0.67328 -0.188988,0.45475 -0.454753,0.56106 -0.7027995,0.41931"
       id="path889-0"
       inkscape:connector-curvature="0"
       sodipodi:nodetypes="cccccccccccccccccc" />
    <path
       style="fill:none;stroke:#000000;stroke-width:0.1984375;stroke-linecap:butt;stroke-linejoin:miter;stroke-miterlimit:4;stroke-dasharray:none;stroke-opacity:1"
       d="m 9.9685464,282.75571 0.4015996,-0.32482 0.484282,-0.18899 0.614212,-0.0295 0.679175,0.20671 0.690988,0.39569 0.685082,0.59059 0.590588,0.71461 0.442941,0.69099 c 0,0 0.259859,0.56696 0.27167,0.59649 0.01181,0.0295 0.265765,0.55516 0.265765,0.55516 l 0.135835,0.53743 0.08859,0.62012 0.03543,0.59058 -0.07678,0.67328 -0.188988,0.45475 -0.454753,0.56106 -0.832729,0.41341"
       id="path889-5"
       inkscape:connector-curvature="0" />
    <path
       style="fill:none;stroke:#000000;stroke-width:0.1984375;stroke-linecap:butt;stroke-linejoin:miter;stroke-miterlimit:4;stroke-dasharray:none;stroke-opacity:1"
       d="m 6.3777729,284.83458 0.2303292,-0.2008 0.484282,-0.18899 0.6142114,-0.0295 0.6791759,0.20671 0.6909877,0.39569 0.685082,0.59059 0.5905879,0.71461 0.442941,0.69099 c 0,0 0.259858,0.56696 0.27167,0.59649 0.01181,0.0295 0.265764,0.55516 0.265764,0.55516 l 0.135836,0.53743 0.08859,0.62012 0.03543,0.59058 -0.07678,0.67328 -0.188988,0.45475 -0.454753,0.56106 -0.714611,0.38979"
       id="path889-62"
       inkscape:connector-curvature="0"
       sodipodi:nodetypes="cccccccccccccccccc" />
    <path
       style="fill:none;stroke:#000000;stroke-width:0.1984375;stroke-linecap:butt;stroke-linejoin:miter;stroke-miterlimit:4;stroke-dasharray:none;stroke-opacity:1"
       d="m 4.9603622,285.63777 0.2303292,-0.19489 0.484282,-0.18899 0.6142114,-0.0295 0.6791759,0.20671 0.6909876,0.39569 0.6850819,0.59059 0.5905881,0.71461 0.4429408,0.69099 c 0,0 0.259859,0.56696 0.27167,0.59649 0.01181,0.0295 0.265765,0.55516 0.265765,0.55516 l 0.1358349,0.53743 0.08859,0.62012 0.03543,0.59058 -0.07678,0.67328 -0.1889879,0.45475 -0.4547526,0.56106 -0.7146113,0.38388"
       id="path889-2"
       inkscape:connector-curvature="0"
       sodipodi:nodetypes="cccccccccccccccccc" />
    <path
       style="fill:none;stroke:#000000;stroke-width:0.1984375;stroke-linecap:butt;stroke-linejoin:miter;stroke-miterlimit:4;stroke-dasharray:none;stroke-opacity:1"
       d="m 3.4897985,286.51185 0.3033494,-0.27856 0.440433,-0.20152 0.6204755,-0.0514 0.6791759,0.20671 0.6909876,0.39569 0.6850819,0.59059 0.5905881,0.71461 0.4429408,0.69099 c 0,0 0.2598587,0.56696 0.2716705,0.59649 0.011811,0.0295 0.2657642,0.55516 0.2657642,0.55516 l 0.1358352,0.53743 0.088588,0.62012 0.035435,0.59058 -0.076777,0.67328 -0.1889879,0.45475 -0.4547526,0.56106 -0.7500465,0.502"
       id="path889-36"
       inkscape:connector-curvature="0"
       sodipodi:nodetypes="cccccccccccccccccc" />
    <path
       style="fill:none;stroke:#000000;stroke-width:0.1984375;stroke-linecap:butt;stroke-linejoin:miter;stroke-miterlimit:4;stroke-dasharray:none;stroke-opacity:1"
       d="m 2.0906809,287.29072 0.2651891,-0.18829 0.4696657,-0.21822 0.6288277,-2.7e-4 0.6791759,0.20671 0.6909876,0.39569 0.6850819,0.59059 0.5905881,0.71461 0.4429408,0.69099 c 0,0 0.2598587,0.56696 0.2716705,0.59649 0.011811,0.0295 0.2657642,0.55516 0.2657642,0.55516 l 0.1358352,0.53743 0.088588,0.62012 0.035435,0.59058 -0.076777,0.67328 -0.1889879,0.45475 -0.4547526,0.56106 -0.832729,0.41341"
       id="path889-8"
       inkscape:connector-curvature="0"
       sodipodi:nodetypes="cccccccccccccccccc" />
    <path
       style="fill:none;stroke:#000000;stroke-width:0.1984375;stroke-linecap:butt;stroke-linejoin:miter;stroke-opacity:1;stroke-miterlimit:4;stroke-dasharray:none"
       d="m 10.256468,282.56743 -3.6483657,2.06635"
       id="path948"
       inkscape:connector-curvature="0" />
    <path
       style="fill:none;stroke:#000000;stroke-width:0.1984375;stroke-linecap:butt;stroke-linejoin:miter;stroke-opacity:1;stroke-miterlimit:4;stroke-dasharray:none"
       d="m 10.872139,291.60275 3.762044,-2.20289"
       id="path950"
       inkscape:connector-curvature="0" />
    <path
       style="fill:none;stroke:#000000;stroke-width:0.1984375;stroke-linecap:butt;stroke-linejoin:miter;stroke-opacity:1;stroke-miterlimit:4;stroke-dasharray:none"
       d="m 15.37635,287.92117 0.793457,-0.40925 0.342439,-0.3675 0.158691,-0.41761 0.07517,-0.593 -0.05846,-0.7517 -0.183748,-0.66817 -0.317383,-0.72664 -0.434313,-0.65147 -0.467721,-0.52619 -0.551244,-0.48442 -0.534539,-0.30903 -0.50113,-0.12529 -0.542891,-0.025 -1.006858,0.55326"
       id="path952"
       inkscape:connector-curvature="0" />
    <path
       style="fill:none;stroke:#000000;stroke-width:0.1984375;stroke-linecap:butt;stroke-linejoin:miter;stroke-opacity:1;stroke-miterlimit:4;stroke-dasharray:none"
       d="m 9.0203469,292.66938 -0.025056,1.58692 0.050113,0.11693 0.1044022,0.0793 0.09605,0.0543 0.1315466,0.0543 0.1837478,0.0313 0.2088044,0.0104 0.1962762,-0.0355 0.1524269,-0.0564 0.144075,-0.11693 0.0689,-0.10232 0.0021,-0.10231 -0.0043,-2.28036"
       id="path954"
       inkscape:connector-curvature="0" />
  </g>
</svg>
