<?xml version="1.0" encoding="UTF-8" standalone="no"?>
<!-- Created with Inkscape (http://www.inkscape.org/) -->

<svg
   xmlns:dc="http://purl.org/dc/elements/1.1/"
   xmlns:cc="http://creativecommons.org/ns#"
   xmlns:rdf="http://www.w3.org/1999/02/22-rdf-syntax-ns#"
   xmlns:svg="http://www.w3.org/2000/svg"
   xmlns="http://www.w3.org/2000/svg"
   xmlns:sodipodi="http://sodipodi.sourceforge.net/DTD/sodipodi-0.dtd"
   xmlns:inkscape="http://www.inkscape.org/namespaces/inkscape"
   width="64"
   height="64"
   viewBox="0 0 16.933333 16.933333"
   version="1.1"
   id="svg8"
   inkscape:version="0.92.4 (5da689c313, 2019-01-14)"
   sodipodi:docname="Bolt_cmd.svg">
  <defs
     id="defs2" />
  <sodipodi:namedview
     id="base"
     pagecolor="#ffffff"
     bordercolor="#666666"
     borderopacity="1.0"
     inkscape:pageopacity="0.0"
     inkscape:pageshadow="2"
     inkscape:zoom="32"
     inkscape:cx="42.200499"
     inkscape:cy="48.191686"
     inkscape:document-units="mm"
     inkscape:current-layer="layer1"
     showgrid="false"
     units="px"
     inkscape:window-width="3840"
     inkscape:window-height="2055"
     inkscape:window-x="-13"
     inkscape:window-y="-13"
     inkscape:window-maximized="1" />
  <metadata
     id="metadata5">
    <rdf:RDF>
      <cc:Work
         rdf:about="">
        <dc:format>image/svg+xml</dc:format>
        <dc:type
           rdf:resource="http://purl.org/dc/dcmitype/StillImage" />
        <dc:title />
      </cc:Work>
    </rdf:RDF>
  </metadata>
  <g
     inkscape:label="Capa 1"
     inkscape:groupmode="layer"
     id="layer1"
     transform="translate(0,-280.06667)">
    <path
       style="opacity:1;fill:#fce94f;fill-opacity:1;fill-rule:nonzero;stroke:none;stroke-width:0.06629126;stroke-miterlimit:4;stroke-dasharray:none;stroke-opacity:1"
       d="M 48.949682,11.041896 C 47.4683,10.744553 45.899189,9.6002411 45.283584,8.3683066 44.732063,7.2646167 45.016581,6.4299274 46.046357,6.1305636 c 0.437251,-0.1271123 0.542608,-0.1272518 1.161762,-0.00154 1.273798,0.2586322 2.853601,1.2377258 3.416204,2.1172162 0.576241,0.9008085 0.722353,1.7221302 0.400329,2.2503122 -0.325184,0.533364 -1.108711,0.73929 -2.07497,0.545343 z"
       id="path845"
       inkscape:connector-curvature="0"
       transform="matrix(0.26458333,0,0,0.26458333,0,280.06667)" />
    <path
       style="opacity:1;fill:#fce94f;fill-opacity:1;fill-rule:nonzero;stroke:none;stroke-width:0.06629126;stroke-miterlimit:4;stroke-dasharray:none;stroke-opacity:1"
       d="M 12.180129,19.568576 C 10.285349,19.267669 8.3287638,18.621246 6.9114406,17.827891 6.187549,17.422689 5.0811997,16.478259 4.6293657,15.879809 4.026371,15.081148 3.7966526,14.471515 3.756326,13.562909 3.727608,12.91586 3.7566419,12.662019 3.9119135,12.202618 4.2561847,11.184027 5.2175769,9.9634393 6.2139159,9.2799852 7.3721838,8.4854535 9.392175,7.7058386 11.403432,7.2770929 c 1.027595,-0.2190553 1.342991,-0.2444067 3.472542,-0.2791211 2.454062,-0.040004 4.115362,0.079705 5.259107,0.3789575 0.808683,0.2115864 2.379204,0.9238272 3.307178,1.4998249 1.199539,0.7445606 2.439077,1.9898078 2.880479,2.8937448 0.293713,0.601491 0.338212,0.779772 0.375046,1.502602 0.05095,0.999764 -0.111588,1.541187 -0.717601,2.390438 -1.28789,1.804817 -3.834275,3.13731 -7.241092,3.789178 -1.293046,0.247414 -5.28639,0.317953 -6.558962,0.115859 z m 5.170719,-3.128969 c 1.638452,-0.40766 2.987899,-1.300719 3.449591,-2.282926 0.270705,-0.575902 0.217039,-1.50359 -0.120281,-2.079182 -0.564456,-0.963171 -2.202156,-1.986947 -3.567906,-2.2304077 -0.932196,-0.1661741 -3.006278,-0.163741 -3.893528,0.00457 -1.995983,0.3786317 -3.2258212,1.1018037 -3.877143,2.2798437 -0.2122893,0.383966 -0.2536194,0.560432 -0.252444,1.077854 0.00177,0.777114 0.1768429,1.157842 0.8390623,1.824646 0.7449387,0.750096 1.8380737,1.25505 3.3125897,1.530191 1.010889,0.188629 3.106508,0.125106 4.110059,-0.124586 z"
       id="path847"
       inkscape:connector-curvature="0"
       transform="matrix(0.26458333,0,0,0.26458333,0,280.06667)" />
    <path
       style="opacity:1;fill:#fce94f;fill-opacity:1;fill-rule:nonzero;stroke:none;stroke-width:0.01657281;stroke-miterlimit:4;stroke-dasharray:none;stroke-opacity:1"
       d="M 13.234251,21.460262 C 12.627335,21.425937 11.197406,21.17084 10.372678,20.949763 9.2429127,20.646916 8.8768007,20.519818 8.1850666,20.190318 8.0149191,20.10927 7.7166084,19.970217 7.522154,19.88131 7.1367015,19.705077 6.6963602,19.456539 6.2259868,19.149725 6.0064945,19.006555 5.7955749,18.83845 5.4525888,18.533318 4.7393395,17.898788 4.5726827,17.729608 4.342156,17.406073 3.8264299,16.68227 3.5898605,16.272212 3.437035,15.837179 3.3414859,15.56519 3.2354414,15.166779 3.253728,15.148492 c 0.00464,-0.0046 0.031066,0.05396 0.058732,0.130207 0.098474,0.271398 0.5031675,0.880188 1.010979,1.520841 0.2368193,0.29877 1.3616386,1.235887 1.8201204,1.51639 0.4016592,0.245739 1.0121421,0.569919 1.2902061,0.685129 0.1336873,0.05539 0.4419417,0.185372 0.6850097,0.288847 0.8549908,0.363972 1.1705845,0.46578 2.2759998,0.734222 0.674781,0.163865 1.113482,0.24286 2.220758,0.399882 l 0.497184,0.07051 1.690427,0.01057 c 1.150562,0.0072 1.810397,0.0024 2.066078,-0.01486 0.598024,-0.04049 1.155796,-0.107149 1.679378,-0.2007 0.267375,-0.04777 0.615404,-0.108034 0.773398,-0.133914 0.303559,-0.04972 1.097551,-0.252771 1.72104,-0.440119 0.5404,-0.162383 1.265071,-0.430826 1.753558,-0.64958 0.376742,-0.168712 0.603207,-0.283079 1.221033,-0.616631 0.214815,-0.115974 0.975503,-0.629257 1.246418,-0.841034 0.549742,-0.429738 0.977458,-0.900761 1.465869,-1.614287 0.14895,-0.217604 0.27082,-0.386115 0.27082,-0.374468 0,0.01165 -0.03334,0.120081 -0.07408,0.240964 -0.05952,0.176572 -0.132019,0.313203 -0.368734,0.694876 -0.674409,1.087398 -1.059621,1.510329 -2.043105,2.243162 -0.552965,0.412035 -0.945577,0.646969 -1.744865,1.044104 -1.185816,0.589187 -2.493082,1.022037 -3.957829,1.310482 -1.448749,0.285295 -1.732702,0.311421 -3.467597,0.319053 -0.753511,0.0033 -1.335217,0.0018 -1.29268,-0.0035 0.04254,-0.0052 0.09188,-0.01458 0.10965,-0.02079 0.01777,-0.0062 0.36755,-0.01056 0.777287,-0.0097 0.425936,9.39e-4 0.750302,-0.007 0.757411,-0.01848 0.02371,-0.03837 -0.22318,-0.049 -1.031986,-0.04444 -0.613434,0.0035 -0.822185,0.01143 -0.850738,0.03246 -0.04331,0.0319 -0.02352,0.04441 0.09475,0.05991 0.111408,0.0146 -0.380364,0.0092 -0.673961,-0.0074 z"
       id="path853"
       inkscape:connector-curvature="0"
       transform="matrix(0.26458333,0,0,0.26458333,0,280.06667)" />
    <path
       style="opacity:1;fill:#fce94f;fill-opacity:1;fill-rule:nonzero;stroke:none;stroke-width:0.01657281;stroke-miterlimit:4;stroke-dasharray:none;stroke-opacity:1"
       d="m 20.169053,13.197418 c -0.0041,-0.01169 -0.110459,-0.131504 -0.236463,-0.266251 -0.203581,-0.217706 -0.250916,-0.255951 -0.424986,-0.343374 -0.107738,-0.05411 -0.248264,-0.131617 -0.31228,-0.172239 -0.06402,-0.04062 -0.166112,-0.0922 -0.226879,-0.114619 -0.06077,-0.02242 -0.274556,-0.109444 -0.475087,-0.193392 -0.200531,-0.08395 -0.478371,-0.192149 -0.617422,-0.240446 -0.139051,-0.0483 -0.313066,-0.112594 -0.386699,-0.142884 -0.161684,-0.06651 -1.082746,-0.255625 -1.482693,-0.304432 -0.461333,-0.0563 -1.54672,-0.04013 -2.164623,0.03225 -0.109381,0.01281 -0.354428,0.03758 -0.54455,0.05505 -0.307428,0.02824 -0.373442,0.04196 -0.596621,0.123974 -0.13802,0.05072 -0.340439,0.119367 -0.449819,0.152548 -0.303595,0.0921 -0.519149,0.18339 -0.905981,0.383708 -0.538412,0.278813 -0.884,0.507806 -1.157335,0.766869 -0.3266726,0.309615 -0.3204834,0.307735 -0.3077681,0.09352 0.014371,-0.242108 0.1157739,-0.48189 0.3387601,-0.801046 0.402999,-0.576804 0.963086,-0.945655 1.932887,-1.272922 1.053941,-0.355662 1.699417,-0.455549 2.961009,-0.458216 0.807274,-0.0017 1.247094,0.02917 1.834059,0.128776 0.785709,0.133326 1.708722,0.568645 2.364388,1.115112 0.464347,0.387012 0.740039,0.752711 0.824665,1.093902 0.04355,0.175585 0.07075,0.471808 0.03344,0.364117 z"
       id="path855"
       inkscape:connector-curvature="0"
       transform="matrix(0.26458333,0,0,0.26458333,0,280.06667)" />
    <path
       style="opacity:1;fill:#fce94f;fill-opacity:1;fill-rule:nonzero;stroke:none;stroke-width:0.06629126;stroke-miterlimit:4;stroke-dasharray:none;stroke-opacity:1"
       d="m 22.990498,50.02551 c -0.983332,-0.347744 -2.368844,-1.286016 -2.910052,-1.970696 -0.700074,-0.88566 -1.022108,-1.823643 -0.783883,-2.283203 0.06048,-0.116667 5.696732,-8.632696 12.525013,-18.924511 L 44.236631,8.1347084 44.545946,8.7529923 c 0.830304,1.6596807 2.844516,2.9997757 4.756124,3.1643447 l 0.634011,0.05458 -12.48982,18.822921 C 30.57686,41.147446 24.838907,49.735294 24.695254,49.878947 c -0.347128,0.347129 -0.983015,0.401798 -1.704756,0.146563 z"
       id="path843"
       inkscape:connector-curvature="0"
       transform="matrix(0.26458333,0,0,0.26458333,0,280.06667)" />
    <path
       style="opacity:1;fill:#fce94f;fill-opacity:1;fill-rule:nonzero;stroke:none;stroke-width:0.06629126;stroke-miterlimit:4;stroke-dasharray:none;stroke-opacity:1"
       d="M 24.421915,52.747392 C 22.979002,52.43829 21.81421,51.91612 20.223469,50.865248 18.423056,49.675863 17.338914,48.54495 16.604064,47.089696 c -1.116491,-2.211035 -0.761805,-3.826912 0.979347,-4.461715 0.668662,-0.243786 1.955142,-0.363732 2.530076,-0.235894 l 0.33196,0.07381 -0.763688,1.143217 c -1.25379,1.876882 -1.30341,1.973213 -1.300588,2.524899 0.0031,0.59881 0.207745,1.191205 0.657793,1.903806 0.438995,0.695099 1.096072,1.314851 2.060646,1.943592 0.911852,0.594376 1.598284,0.886809 2.371597,1.010346 0.646219,0.103235 1.177227,-0.0077 1.650841,-0.344971 0.149045,-0.10613 0.775574,-0.94616 1.392283,-1.866732 0.61671,-0.920573 1.151904,-1.673769 1.189318,-1.673769 0.273071,0 1.062495,1.611962 1.226294,2.504029 0.293157,1.596556 -0.336523,2.649095 -1.854503,3.099886 -0.532479,0.15813 -1.993392,0.178605 -2.653525,0.03719 z"
       id="path849"
       inkscape:connector-curvature="0"
       transform="matrix(0.26458333,0,0,0.26458333,0,280.06667)" />
    <path
       style="opacity:1;fill:#fce94f;fill-opacity:1;fill-rule:nonzero;stroke:none;stroke-width:0.06629126;stroke-miterlimit:4;stroke-dasharray:none;stroke-opacity:1"
       d="m 20.985247,58.936216 c -0.657583,-0.09406 -1.93022,-0.566635 -2.750516,-1.021368 -1.140126,-0.63203 -2.973991,-1.929769 -3.59083,-2.541059 -0.690891,-0.684676 -1.708832,-2.176913 -2.03858,-2.988429 -0.115605,-0.284505 -0.289908,-0.852934 -0.38734,-1.263176 -0.205056,-0.863392 -0.15933,-1.174656 0.291301,-1.982965 0.319842,-0.573709 2.55591,-3.81772 2.600669,-3.772961 0.01693,0.01693 0.106877,0.325868 0.199885,0.686531 0.23166,0.898332 0.465055,1.408749 1.047131,2.289998 0.958917,1.451778 2.628533,2.864453 4.838774,4.094125 1.755076,0.97644 4.050301,1.481892 5.511352,1.213704 0.308883,-0.0567 0.576078,-0.08861 0.593768,-0.07092 0.01769,0.01769 -0.579619,0.925158 -1.327351,2.016597 -2.262346,3.302268 -2.78852,3.65457 -4.988263,3.339927 z"
       id="path851"
       inkscape:connector-curvature="0"
       transform="matrix(0.26458333,0,0,0.26458333,0,280.06667)" />
    <path
       style="opacity:1;fill:#fce94f;fill-opacity:1;fill-rule:nonzero;stroke:none;stroke-width:0.01657281;stroke-miterlimit:4;stroke-dasharray:none;stroke-opacity:1"
       d="m 49.259973,52.249637 c -0.49218,-0.01303 -0.639744,-0.02509 -0.925219,-0.07559 -0.413055,-0.07307 -1.070532,-0.234339 -1.251344,-0.306937 -0.508337,-0.204103 -0.846097,-0.364596 -1.091631,-0.518708 -0.06677,-0.04191 -0.366123,-0.283256 -0.510408,-0.411507 C 45.24274,50.724784 44.9684,50.28709 44.90529,50.017792 c -0.03715,-0.158537 -0.03797,-0.603619 -0.0013,-0.718156 0.07232,-0.226002 0.133864,-0.349847 0.291049,-0.58565 0.374652,-0.562042 0.886882,-0.92028 1.752813,-1.225862 0.830499,-0.293079 1.402781,-0.412229 2.17956,-0.453791 1.169619,-0.06258 2.33505,0.03543 2.933658,0.246711 0.372052,0.131317 0.867496,0.376339 1.220594,0.603645 0.368377,0.23714 0.803589,0.642066 0.990521,0.92159 0.220473,0.329679 0.275649,0.515663 0.273584,0.922187 -0.0012,0.23548 -0.0095,0.300954 -0.05377,0.422856 -0.07074,0.194887 -0.299161,0.523957 -0.514233,0.740823 -0.565195,0.569906 -1.587961,1.027712 -2.783607,1.245986 -0.637439,0.11637 -0.987813,0.136569 -1.934165,0.111507 z"
       id="path857"
       inkscape:connector-curvature="0"
       transform="matrix(0.26458333,0,0,0.26458333,0,280.06667)" />
    <path
       style="opacity:1;fill:#fce94f;fill-opacity:1;fill-rule:nonzero;stroke:none;stroke-width:0.01657281;stroke-miterlimit:4;stroke-dasharray:none;stroke-opacity:1"
       d="m 43.868283,52.854598 c -1.91416,-1.026752 -3.501249,-1.878736 -3.526864,-1.8933 -0.04511,-0.02564 -0.0061,-0.113129 1.237862,-2.777566 l 1.284436,-2.751087 4.78259,-0.71108 4.78259,-0.71108 3.337664,2.039484 c 1.835715,1.121716 3.368532,2.058216 3.406259,2.08111 l 0.0686,0.04163 -1.348006,2.757009 c -1.072829,2.194203 -1.357482,2.759114 -1.394421,2.767318 -0.02553,0.0057 -0.449133,0.05497 -0.941346,0.109548 -0.492212,0.05458 -2.528747,0.283437 -4.525633,0.508566 -1.996886,0.225128 -3.642567,0.408638 -3.657068,0.407799 -0.0145,-8.39e-4 -1.592497,-0.841595 -3.506658,-1.868347 z m 6.98268,0.125866 c 1.380123,-0.217617 2.337549,-0.554628 3.148835,-1.108379 0.240808,-0.164367 0.567202,-0.453201 0.709766,-0.628092 0.219888,-0.269748 0.423049,-0.598494 0.503438,-0.814641 0.06953,-0.186959 0.08357,-0.256576 0.09804,-0.486154 0.03067,-0.486583 -0.02242,-0.84684 -0.173206,-1.17534 -0.406788,-0.886216 -1.539071,-1.769968 -2.844393,-2.220062 -0.596238,-0.205592 -1.389392,-0.298699 -2.514193,-0.295136 -0.865714,0.0027 -1.244341,0.03483 -1.834058,0.155454 -0.447071,0.09144 -0.635053,0.143001 -1.104854,0.303025 -0.647998,0.220722 -0.920585,0.347305 -1.336874,0.620812 -0.398894,0.262079 -0.659735,0.524381 -0.953044,0.958383 -0.212331,0.314179 -0.250152,0.38851 -0.356148,0.699942 -0.06345,0.186422 -0.06832,0.224114 -0.07773,0.601985 -0.01112,0.446469 0.0066,0.565333 0.1339,0.900617 0.12098,0.318527 0.449603,0.78689 0.714376,1.018149 0.248636,0.217165 0.499464,0.418867 0.596146,0.479387 0.334602,0.209451 0.974723,0.507519 1.383851,0.644382 0.357917,0.119731 0.937614,0.249314 1.49254,0.333637 0.332931,0.05059 0.387416,0.0525 1.297697,0.04548 0.585677,-0.0045 1.01375,-0.01735 1.115903,-0.03345 z"
       id="path859"
       inkscape:connector-curvature="0"
       transform="matrix(0.26458333,0,0,0.26458333,0,280.06667)" />
    <path
       style="opacity:1;fill:#fce94f;fill-opacity:1;fill-rule:nonzero;stroke:none;stroke-width:0.01657281;stroke-miterlimit:4;stroke-dasharray:none;stroke-opacity:1"
       d="m 43.282711,59.507854 c -1.835163,-1.050147 -3.343628,-1.91216 -3.352144,-1.915584 -0.01586,-0.0064 0.2105,-5.821825 0.22721,-5.837292 0.0069,-0.0064 6.488889,3.45613 6.698589,3.578209 0.03595,0.02093 0.03178,0.190953 -0.07316,2.982631 -0.0612,1.628241 -0.116097,2.992755 -0.121987,3.032254 -0.0059,0.0395 -0.01772,0.07121 -0.02628,0.07048 -0.0086,-7.36e-4 -1.517068,-0.860549 -3.352231,-1.910696 z"
       id="path861"
       inkscape:connector-curvature="0"
       transform="matrix(0.26458333,0,0,0.26458333,0,280.06667)" />
    <path
       style="opacity:1;fill:#fce94f;fill-opacity:1;fill-rule:nonzero;stroke:none;stroke-width:0.01657281;stroke-miterlimit:4;stroke-dasharray:none;stroke-opacity:1"
       d="m 47.427079,61.549341 c 0.0052,-0.429212 0.236026,-6.052962 0.248985,-6.06592 0.0092,-0.0092 0.878973,-0.113888 1.932804,-0.232615 1.053831,-0.118727 2.537537,-0.286021 3.297124,-0.371765 0.759587,-0.08574 1.858157,-0.209676 2.441265,-0.275407 0.583109,-0.06573 1.065426,-0.111049 1.071817,-0.100709 0.01247,0.02017 0.250342,5.769146 0.239094,5.778443 -0.0037,0.0031 -2.060092,0.305987 -4.569768,0.673183 -2.509677,0.367196 -4.585422,0.672909 -4.612767,0.679364 -0.04587,0.01083 -0.04963,0.0043 -0.04855,-0.08457 z"
       id="path863"
       inkscape:connector-curvature="0"
       transform="matrix(0.26458333,0,0,0.26458333,0,280.06667)" />
    <path
       style="opacity:1;fill:#fce94f;fill-opacity:1;fill-rule:nonzero;stroke:none;stroke-width:0.01657281;stroke-miterlimit:4;stroke-dasharray:none;stroke-opacity:1"
       d="m 57.383568,58.922807 c -0.007,-0.06678 -0.05434,-1.1712 -0.105275,-2.454259 l -0.09261,-2.332835 1.091853,-2.235006 1.091853,-2.235006 0.01547,0.104229 c 0.0085,0.05733 0.03559,1.205344 0.06018,2.551151 l 0.0447,2.446921 -1.001238,2.049836 c -0.55068,1.12741 -1.021719,2.089561 -1.046752,2.138115 l -0.04551,0.08828 z"
       id="path865"
       inkscape:connector-curvature="0"
       transform="matrix(0.26458333,0,0,0.26458333,0,280.06667)" />
    <path
       style="fill:none;stroke:#000000;stroke-width:0.1984375;stroke-linecap:butt;stroke-linejoin:miter;stroke-miterlimit:4;stroke-dasharray:none;stroke-opacity:1"
       d="m 10.527604,293.58866 0.744056,-1.59425 2.621914,-0.38971 1.913288,1.16912 0.03543,1.80681 -0.744058,1.5234 -2.657345,0.38972 -1.984151,-1.1337 z"
       id="path4988"
       inkscape:connector-curvature="0" />
    <path
       style="fill:none;stroke:#000000;stroke-width:0.1984375;stroke-linecap:butt;stroke-linejoin:miter;stroke-miterlimit:4;stroke-dasharray:none;stroke-opacity:1"
       d="m 10.527604,293.58866 1.984151,1.06284 2.515619,-0.28344 0.779488,-1.59424"
       id="path4990"
       inkscape:connector-curvature="0" />
    <path
       style="fill:none;stroke:#000000;stroke-width:0.1984375;stroke-linecap:butt;stroke-linejoin:miter;stroke-miterlimit:4;stroke-dasharray:none;stroke-opacity:1"
       d="m 12.511755,294.6515 -0.07086,1.84225"
       id="path4992"
       inkscape:connector-curvature="0" />
    <path
       style="fill:none;stroke:#000000;stroke-width:0.1984375;stroke-linecap:butt;stroke-linejoin:miter;stroke-miterlimit:4;stroke-dasharray:none;stroke-opacity:1"
       d="m 15.027374,294.36806 0.07086,1.73597"
       id="path4994"
       inkscape:connector-curvature="0" />
    <path
       style="fill:none;stroke:#000000;stroke-width:0.1984375;stroke-linecap:butt;stroke-linejoin:miter;stroke-miterlimit:4;stroke-dasharray:none;stroke-opacity:1"
       d="m 6.2336056,284.89731 0.118499,-0.0644 0.121815,-0.0818 0.09966,-0.0688 0.110729,-0.0864 0.130665,-0.12632 0.110728,-0.13725 0.161675,-0.23695 0.07751,-0.2104 0.01616,-0.26402 -0.01566,-0.20984 -0.04384,-0.17069 -0.08001,-0.16665 -0.114719,-0.17207 -0.0899,-0.11008 -0.117825,-0.11933 -0.148829,-0.12875 -0.141074,-0.1163 -0.137969,-0.0884 -0.151929,-0.0961 -0.173633,-0.09 -0.179832,-0.0852 -0.189133,-0.0791 -0.223242,-0.0744 -0.2682,-0.0527 -0.257347,-0.034 -0.27595,-0.0232 -0.111621,-0.005 -0.196885,-0.005 -0.195336,-0.002 -0.21549,0.005 -0.2604472,0.006 -0.2108387,0.0185 -0.189135,0.0232 -0.234093,0.0465 -0.186034,0.0419 -0.1550285,0.0419 -0.1844835,0.0589 -0.1348747,0.0464 -0.1550285,0.0544 -0.1720816,0.0697 -0.1612296,0.0821 -0.1410756,0.0821 -0.1565788,0.10552 -0.1891346,0.16741 -0.1178214,0.13027 -0.1131713,0.16897 -0.091467,0.13482 -0.063562,0.15656 -0.041858,0.14104 -0.015502,0.13649 v 0.13649 l 0.00804,0.15274 0.039463,0.15785 0.057003,0.14681 0.076735,0.12723 0.08989,0.12283 0.1008519,0.12935 0.1161984,0.10309 0.098659,0.079 0.1468927,0.12055 0.1623255,0.0978 0.1751822,0.0931 0.1596793,0.0666 0.1999865,0.0852 0.1488277,0.0559 0.1937854,0.0512 0.2139395,0.0527 0.186034,0.0372 0.2154892,0.0325 0.199987,0.0264 0.2123887,0.008 h 0.15968 0.199987 l 0.193785,0.002 0.195336,-0.006 0.161229,-0.0121 0.190685,-0.0217 0.193786,-0.0357 0.195335,-0.0325 0.223241,-0.0589 0.165881,-0.048 0.14883,-0.0496 0.176732,-0.0651 0.210839,-0.0944 z"
       id="path6273"
       inkscape:connector-curvature="0" />
    <path
       style="fill:none;stroke:#000000;stroke-width:0.1984375;stroke-linecap:butt;stroke-linejoin:miter;stroke-miterlimit:4;stroke-dasharray:none;stroke-opacity:1"
       d="m 5.0027826,284.14669 0.0552,-0.0293 0.05673,-0.0371 0.04641,-0.0313 0.05157,-0.0393 0.06086,-0.0572 0.05157,-0.0622 0.0753,-0.10719 0.0361,-0.0952 0.0075,-0.11934 -0.0074,-0.0949 -0.02042,-0.0774 -0.03726,-0.0754 -0.05343,-0.078 -0.04188,-0.0498 -0.05487,-0.0541 -0.06932,-0.0582 -0.06571,-0.0525 -0.06425,-0.0401 -0.07076,-0.0434 -0.08087,-0.0408 -0.08376,-0.0387 -0.08809,-0.0358 -0.103975,-0.0337 -0.124912,-0.0238 -0.119858,-0.0155 -0.12852,-0.0106 -0.05199,-0.003 -0.09169,-0.003 -0.09098,-6.7e-4 -0.100368,0.003 -0.1212999,0.003 -0.098203,0.009 -0.088088,0.0106 -0.1090253,0.021 -0.086645,0.019 -0.072204,0.019 -0.085924,0.0269 -0.062823,0.0211 -0.072202,0.0246 -0.08014,0.0316 -0.075089,0.0374 -0.065708,0.0371 -0.072925,0.0478 -0.088087,0.0758 -0.054875,0.0589 -0.052708,0.0765 -0.0426,0.061 -0.029604,0.0709 -0.019495,0.0639 -0.00721,0.0619 v 0.0618 l 0.00375,0.0691 0.018379,0.0717 0.026548,0.0665 0.035739,0.0574 0.041867,0.0557 0.046971,0.0584 0.054121,0.0468 0.045947,0.0357 0.068415,0.0548 0.075598,0.0442 0.081595,0.0421 0.074368,0.0301 0.09314,0.0387 0.069316,0.0252 0.090253,0.0232 0.099634,0.0238 0.086646,0.0169 0.1003554,0.0153 0.09314,0.0122 0.098912,0.005 h 0.074369 0.09314 l 0.09025,6.7e-4 0.09098,-0.003 0.07509,-0.006 0.08881,-0.0106 0.09025,-0.0162 0.09098,-0.0153 0.103974,-0.0267 0.07726,-0.0219 0.06932,-0.0225 0.08231,-0.0298 0.09819,-0.0427 z"
       id="path6273-2"
       inkscape:connector-curvature="0" />
    <path
       style="fill:none;stroke:#000000;stroke-width:0.1984375;stroke-linecap:butt;stroke-linejoin:miter;stroke-miterlimit:4;stroke-dasharray:none;stroke-opacity:1"
       d="m 14.120829,293.77352 0.05202,-0.0285 0.05347,-0.0359 0.04375,-0.0303 0.04861,-0.0382 0.05736,-0.0558 0.04861,-0.0606 0.07097,-0.10429 0.03402,-0.0926 0.0071,-0.11627 -0.0069,-0.0923 -0.01924,-0.0753 -0.03512,-0.0735 -0.05036,-0.0759 -0.03948,-0.0485 -0.05172,-0.0525 -0.06533,-0.0567 -0.06193,-0.0511 -0.06056,-0.039 -0.06669,-0.0423 -0.07622,-0.0397 -0.07894,-0.0376 -0.08302,-0.035 -0.09799,-0.0329 -0.117726,-0.0232 -0.112963,-0.0152 -0.121128,-0.0106 -0.049,-0.003 -0.08642,-0.003 -0.08574,-6.6e-4 -0.09459,0.003 -0.114321,0.003 -0.09255,0.009 -0.08302,0.0106 -0.102754,0.0205 -0.08166,0.0185 -0.06805,0.0185 -0.08098,0.0261 -0.05921,0.0206 -0.06805,0.024 -0.07553,0.0308 -0.07077,0.0364 -0.06193,0.0359 -0.06873,0.0467 -0.08302,0.0737 -0.05172,0.0574 -0.04968,0.0746 -0.04015,0.0594 -0.0279,0.069 -0.01838,0.0623 -0.0068,0.0603 v 0.0602 l 0.0035,0.0673 0.01732,0.0697 0.02502,0.0646 0.03368,0.0559 0.03946,0.0541 0.04427,0.057 0.05101,0.0456 0.0433,0.0349 0.06448,0.0532 0.07125,0.043 0.0769,0.0409 0.07009,0.0294 0.08778,0.0376 0.06533,0.0244 0.08506,0.0226 0.0939,0.0232 0.08166,0.0164 0.09458,0.0152 0.08778,0.0121 0.09322,0.005 h 0.07009 0.08778 l 0.08506,6.7e-4 0.08574,-0.003 0.07077,-0.006 0.0837,-0.0106 0.08506,-0.0158 0.08574,-0.0152 0.09799,-0.0259 0.07281,-0.0212 0.06533,-0.0218 0.07758,-0.029 0.09254,-0.0415 z"
       id="path6273-2-4"
       inkscape:connector-curvature="0" />
    <path
       style="fill:none;stroke:#000000;stroke-width:0.1984375;stroke-linecap:butt;stroke-linejoin:miter;stroke-miterlimit:4;stroke-dasharray:none;stroke-opacity:1"
       d="m 6.3087736,285.282 0.123358,-0.0739 0.126794,-0.0935 0.103741,-0.0785 0.115258,-0.0988 0.136019,-0.14423 0.11526,-0.15705 0.168296,-0.27034 0.08069,-0.24035 0.01695,-0.30118 -0.01638,-0.23954 -0.04563,-0.19521 -0.08328,-0.19017 -0.119414,-0.19673 -0.09361,-0.12572 -0.122638,-0.13649 -0.154914,-0.14666 -0.146848,-0.13239 -0.143595,-0.10096 -0.158138,-0.10962 -0.180746,-0.10294 -0.187194,-0.0978 -0.19687,-0.0906 -0.232375,-0.085 -0.279167,-0.0601 -0.26787,-0.0389 -0.287232,-0.027 -0.11619,-0.009 -0.204938,-0.009 -0.203324,-0.002 -0.224313,0.009 -0.2710944,0.009 -0.2194736,0.0231 -0.1968713,0.027 -0.2436627,0.0531 -0.1936437,0.0478 -0.1613672,0.0478 -0.1920318,0.0677 -0.1404021,0.0531 -0.1613653,0.0621 -0.1791075,0.0797 -0.1678204,0.0943 -0.1468521,0.0935 -0.1629799,0.12055 -0.1968643,0.19104 -0.1226408,0.14864 -0.1177989,0.19301 -0.095206,0.15398 -0.066161,0.17899 -0.043571,0.16142 -0.016126,0.15639 v 0.15594 l 0.00839,0.17459 0.041075,0.18096 0.059334,0.16756 0.07987,0.14469 0.093569,0.14059 0.1049755,0.14758 0.1209548,0.11827 0.1026909,0.0902 0.1529013,0.13816 0.1689563,0.11159 0.1823556,0.10582 0.1662062,0.0759 0.2081612,0.0978 0.1549147,0.0636 0.2017065,0.0584 0.2226744,0.0601 0.193644,0.0424 0.2242851,0.0386 0.2081612,0.0307 0.2210614,0.0106 h 0.1662059 0.208161 l 0.201706,10e-4 0.203319,-0.009 0.167821,-0.0153 0.198483,-0.027 0.201707,-0.0408 0.203319,-0.0386 0.232376,-0.0674 0.172653,-0.0551 0.154914,-0.0565 0.183969,-0.075 0.219446,-0.10795 z"
       id="path6273-2-43"
       inkscape:connector-curvature="0" />
    <path
       style="fill:none;stroke:#000000;stroke-width:0.1984375;stroke-linecap:butt;stroke-linejoin:miter;stroke-miterlimit:4;stroke-dasharray:none;stroke-opacity:1"
       d="m 2.5576688,283.78798 0.076215,-0.0929 0.052618,-0.0613 0.076735,-0.0659 0.050427,-0.0527 0.08989,-0.0571 0.06358,-0.0395 0.1096209,-0.0569 0.070158,-0.0351 0.078928,-0.0308 0.094275,-0.0285 0.1315462,-0.0483 0.1293532,-0.0106 0.1556627,-0.0176 0.1819728,-0.009 h 0.105235 l 0.12497,-10e-4 0.149085,0.0176 0.131546,0.0263 0.120585,0.0241 0.09646,0.0372 0.114006,0.0395 0.17101,0.0723 0.06577,0.0241 0.07235,0.0437 0.07674,0.0395 0.06358,0.0636 0.05043,0.0569 0.05701,0.0613 0.08301,0.0964"
       id="path7399"
       inkscape:connector-curvature="0"
       sodipodi:nodetypes="cccccccccccccccccccccccccccccc" />
    <path
       style="fill:none;stroke:#000000;stroke-width:0.1984375;stroke-linecap:butt;stroke-linejoin:miter;stroke-miterlimit:4;stroke-dasharray:none;stroke-opacity:1"
       d="m 13.087747,283.11765 0.045,0.002 0.04914,-10e-4 0.04058,-0.002 0.04706,-0.005 0.06022,-0.0134 0.05679,-0.0202 0.08987,-0.0399 0.06165,-0.0475 0.05503,-0.0741 0.03589,-0.0641 0.02064,-0.0577 0.01,-0.0631 0.0014,-0.071 -0.0037,-0.0483 -0.0096,-0.056 -0.01633,-0.0643 -0.0166,-0.0593 -0.02102,-0.0507 -0.02342,-0.0553 -0.03049,-0.0577 -0.03308,-0.0573 -0.0368,-0.0573 -0.04716,-0.062 -0.0637,-0.0637 -0.06394,-0.0568 -0.07112,-0.0571 -0.02933,-0.0223 -0.05279,-0.0377 -0.05345,-0.0357 -0.06066,-0.0368 -0.07301,-0.0448 -0.06212,-0.0318 -0.05682,-0.0269 -0.07325,-0.0288 -0.0592,-0.0214 -0.05067,-0.0158 -0.06206,-0.016 -0.04602,-0.0113 -0.05308,-0.0125 -0.0607,-0.0113 -0.06013,-0.005 -0.05445,-0.001 -0.06338,0.002 -0.08405,0.0147 -0.05737,0.0168 -0.06357,0.029 -0.05094,0.0228 -0.04745,0.0343 -0.03854,0.0337 -0.03048,0.0372 -0.02612,0.0398 -0.02709,0.0461 -0.01944,0.0532 -0.01243,0.0531 -0.0032,0.051 0.0012,0.0521 0.003,0.0558 0.01215,0.0512 0.01199,0.0408 0.01731,0.0617 0.02594,0.0578 0.03037,0.0587 0.03117,0.0482 0.03863,0.0611 0.03032,0.0431 0.04344,0.0499 0.04877,0.054 0.04405,0.0444 0.05242,0.0493 0.04953,0.0444 0.05636,0.0416 0.04393,0.0289 0.05502,0.0362 0.05302,0.0353 0.05512,0.0332 0.04709,0.0249 0.05726,0.0272 0.06015,0.0245 0.06059,0.0249 0.07273,0.023 0.0549,0.0159 0.05049,0.0125 0.06117,0.0128 0.07603,0.01 z"
       id="path6273-2-4-9"
       inkscape:connector-curvature="0" />
    <path
       style="fill:none;stroke:#000000;stroke-width:0.1984375;stroke-linecap:butt;stroke-linejoin:miter;stroke-miterlimit:4;stroke-dasharray:none;stroke-opacity:1"
       d="M 11.827408,281.83204 5.0454545,292.05196"
       id="path7551"
       inkscape:connector-curvature="0" />
    <path
       style="fill:none;stroke:#000000;stroke-width:0.1984375;stroke-linecap:butt;stroke-linejoin:miter;stroke-miterlimit:4;stroke-dasharray:none;stroke-opacity:1"
       d="M 13.476423,283.03731 6.6944699,293.25723"
       id="path7551-4"
       inkscape:connector-curvature="0" />
    <path
       style="fill:none;stroke:#000000;stroke-width:0.1984375;stroke-linecap:butt;stroke-linejoin:miter;stroke-miterlimit:4;stroke-dasharray:none;stroke-opacity:1"
       d="m 5.5683135,291.21501 -0.1593523,-0.0265 -0.1642801,-0.0275 -0.1490205,0.001 -0.1347549,-0.001 -0.1127227,0.0188 -0.1195664,0.0174 -0.1189977,0.0423 -0.098649,0.0327 -0.071023,0.0399 -0.1025604,0.0856 -0.077554,0.0711 -0.075122,0.11455 -0.050005,0.11869 -0.01443,0.0833 -0.011475,0.0976 0.00275,0.0806 0.0098,0.10992 0.018953,0.0913 0.022982,0.1063 0.027923,0.0894 0.050743,0.12282 0.045171,0.096 0.060321,0.11068 0.050434,0.0809 0.074951,0.1048 0.088989,0.11393 0.074485,0.0938 0.097494,0.10103 0.08803,0.0778 0.1089104,0.0978 0.084752,0.071 0.088385,0.0655 0.1116515,0.0747 0.1044842,0.0715 0.1604482,0.0993 0.1029054,0.0645 0.117994,0.0603 0.1385171,0.0739 0.1434193,0.0616 0.1393887,0.0466 0.1967547,0.0581 0.234249,0.0411 0.2287427,0.0235 0.1476113,-0.004 0.1256828,-0.01 0.090499,-0.0225 0.090473,-0.0273 0.091121,-0.0329 0.1152526,-0.0602 0.092677,-0.0611 0.075497,-0.068 0.0505,-0.0581 0.045718,-0.072 0.038158,-0.0722 0.022775,-0.0654 0.00455,-0.0587 0.00705,-0.11443 0.00148,-0.0918 -0.00739,-0.12536 -0.022335,-0.11192 -0.013551,-0.0876 -0.029219,-0.0779 -0.035441,-0.0897 -0.056365,-0.1143 -0.049782,-0.096 -0.056262,-0.10028 -0.077364,-0.0894 -0.093602,-0.10467"
       id="path7901"
       inkscape:connector-curvature="0" />
    <path
       style="fill:none;stroke:#000000;stroke-width:0.1984375;stroke-linecap:butt;stroke-linejoin:miter;stroke-miterlimit:4;stroke-dasharray:none;stroke-opacity:1"
       d="m 5.0460052,292.05324 -0.063536,0.1153 -0.016219,0.068 -0.00525,0.0488 0.00672,0.0475 0.014782,0.0543 0.017145,0.0652 0.020026,0.0608 0.028436,0.0649 0.031247,0.0606 0.042604,0.0648 0.039634,0.0597 0.039908,0.057 0.036447,0.0502 0.039601,0.0431 0.037042,0.0397 0.037785,0.0338 0.028278,0.029 0.047566,0.0357 0.051554,0.0368 0.058591,0.0428 0.063541,0.0403 0.068099,0.0476 0.06463,0.0409 0.066693,0.0378 0.086393,0.0462 0.06682,0.0304 0.063632,0.0233 0.05248,0.021 0.054047,0.0138 0.051086,0.0135 0.049761,0.004 0.055338,0.008 0.044392,0.005 0.037776,1.3e-4 0.044575,-0.008 0.040097,-0.01 0.044417,-0.0125 0.030933,-0.0135 0.029756,-0.0189 0.03043,-0.0248 0.031047,-0.0305 0.036807,-0.0346 0.025972,-0.0323 0.032708,-0.0354"
       id="path7981"
       inkscape:connector-curvature="0" />
    <path
       style="fill:none;stroke:#000000;stroke-width:0.1984375;stroke-linecap:butt;stroke-linejoin:miter;stroke-miterlimit:4;stroke-dasharray:none;stroke-opacity:1"
       d="m 3.2691754,292.90873 -0.1364792,0.24523 -0.036764,0.14368 -0.013182,0.10291 0.011499,0.0994 0.027641,0.11368 0.031988,0.13625 0.038229,0.12675 0.055371,0.1347 0.061406,0.1255 0.084312,0.1344 0.0786,0.12357 0.079385,0.11756 0.072539,0.10366 0.079286,0.0885 0.074232,0.0816 0.076009,0.0691 0.05657,0.0598 0.096374,0.0722 0.1044392,0.0745 0.1187013,0.0869 0.129339,0.0804 0.1379367,0.0965 0.1315713,0.0819 0.1356865,0.0756 0.1756652,0.0925 0.1361855,0.0602 0.1298172,0.0456 0.1072292,0.0409 0.1104352,0.0264 0.1046117,0.0257 0.1020893,0.005 0.1134464,0.0125 0.091128,0.008 0.07772,-0.001 0.092182,-0.0188 0.083051,-0.0243 0.092018,-0.0283 0.064309,-0.0299 0.062008,-0.0411 0.063865,-0.0535 0.065299,-0.0654 0.077441,-0.0741 0.05496,-0.0691 0.069012,-0.0761"
       id="path7981-0"
       inkscape:connector-curvature="0" />
    <path
       style="fill:none;stroke:#000000;stroke-width:0.1984375;stroke-linecap:butt;stroke-linejoin:miter;stroke-miterlimit:4;stroke-dasharray:none;stroke-opacity:1"
       d="m 3.2691754,292.90873 0.9155462,-1.32611"
       id="path8106"
       inkscape:connector-curvature="0" />
    <path
       style="fill:none;stroke:#000000;stroke-width:0.1984375;stroke-linecap:butt;stroke-linejoin:miter;stroke-miterlimit:4;stroke-dasharray:none;stroke-opacity:1"
       d="m 6.6363296,295.31634 1.0711377,-1.56203"
       id="path8108"
       inkscape:connector-curvature="0" />
    <path
       style="fill:#ffff00;fill-opacity:1;stroke-width:0.75000001;stroke-linecap:round;stroke-linejoin:miter;stroke-miterlimit:4;stroke-dasharray:none;paint-order:markers fill stroke"
       d="m 14.332633,21.391273 c 0.363242,-0.02533 0.925742,-0.02506 1.25,5.92e-4 0.324258,0.02566 0.02706,0.04638 -0.66044,0.04605 -0.6875,-3.25e-4 -0.952802,-0.02132 -0.58956,-0.04665 z"
       id="path8207"
       inkscape:connector-curvature="0"
       transform="matrix(0.26458333,0,0,0.26458333,0,280.06667)" />
    <path
       style="fill:#ffff00;fill-opacity:1;stroke-width:0.75000001;stroke-linecap:round;stroke-linejoin:miter;stroke-miterlimit:4;stroke-dasharray:none;paint-order:markers fill stroke"
       d="m 13.828443,21.400789 c 0.08594,-0.03468 0.226562,-0.03468 0.3125,0 0.08594,0.03468 0.01563,0.06305 -0.15625,0.06305 -0.171875,0 -0.242188,-0.02837 -0.15625,-0.06305 z"
       id="path8209"
       inkscape:connector-curvature="0"
       transform="matrix(0.26458333,0,0,0.26458333,0,280.06667)" />
  </g>
</svg>
