<?xml version="1.0" encoding="UTF-8" standalone="no"?>
<!-- Created with Inkscape (http://www.inkscape.org/) -->

<svg
   xmlns:dc="http://purl.org/dc/elements/1.1/"
   xmlns:cc="http://creativecommons.org/ns#"
   xmlns:rdf="http://www.w3.org/1999/02/22-rdf-syntax-ns#"
   xmlns:svg="http://www.w3.org/2000/svg"
   xmlns="http://www.w3.org/2000/svg"
   xmlns:sodipodi="http://sodipodi.sourceforge.net/DTD/sodipodi-0.dtd"
   xmlns:inkscape="http://www.inkscape.org/namespaces/inkscape"
   width="64"
   height="64"
   viewBox="0 0 16.933333 16.933334"
   version="1.1"
   id="svg8"
   inkscape:version="0.92.4 (5da689c313, 2019-01-14)"
   sodipodi:docname="BreadBoard_cmd.svg">
  <defs
     id="defs2" />
  <sodipodi:namedview
     id="base"
     pagecolor="#ffffff"
     bordercolor="#666666"
     borderopacity="1.0"
     inkscape:pageopacity="0.0"
     inkscape:pageshadow="2"
     inkscape:zoom="22.627417"
     inkscape:cx="2.6356685"
     inkscape:cy="20.62809"
     inkscape:document-units="px"
     inkscape:current-layer="layer1"
     showgrid="false"
     units="px"
     inkscape:window-width="3840"
     inkscape:window-height="2055"
     inkscape:window-x="-13"
     inkscape:window-y="-13"
     inkscape:window-maximized="1" />
  <metadata
     id="metadata5">
    <rdf:RDF>
      <cc:Work
         rdf:about="">
        <dc:format>image/svg+xml</dc:format>
        <dc:type
           rdf:resource="http://purl.org/dc/dcmitype/StillImage" />
        <dc:title />
      </cc:Work>
    </rdf:RDF>
  </metadata>
  <g
     inkscape:label="Capa 1"
     inkscape:groupmode="layer"
     id="layer1"
     transform="translate(0,-280.06666)">
    <path
       style="opacity:1;fill:#fce94f;fill-opacity:1;fill-rule:nonzero;stroke:none;stroke-width:0.74999999;stroke-miterlimit:4;stroke-dasharray:none;stroke-opacity:1"
       d="M 16.684996,39.53064 C 8.2748452,34.680293 1.3685856,30.697173 1.3377529,30.679261 c -0.034673,-0.02014 5.7702989,-3.403614 15.2167361,-8.869187 8.400038,-4.860141 15.31711,-8.853933 15.371273,-8.875092 0.08317,-0.03249 2.470992,1.331273 15.365631,8.77584 8.396937,4.84787 15.300527,8.832714 15.341318,8.855208 0.05777,0.03186 -3.313653,1.998787 -15.258259,8.90183 -8.432834,4.873513 -15.347239,8.865581 -15.365347,8.871263 -0.01811,0.0057 -6.913957,-3.958136 -15.324109,-8.808483 z m 16.064268,1.659675 c 0.908077,-0.256481 1.475295,-0.844067 1.475295,-1.528268 0,-0.912639 -1.051806,-1.623013 -2.403058,-1.622989 -0.598041,1.1e-5 -0.979088,0.08051 -1.447487,0.305804 -1.064995,0.512241 -1.301834,1.616998 -0.498546,2.325502 0.660143,0.58225 1.875007,0.802053 2.873796,0.519951 z m -7.774353,-0.610601 c 0.449202,-0.175063 0.788402,-0.564363 0.791018,-0.907853 0.0055,-0.720231 -0.895268,-1.244989 -1.88834,-1.100104 -0.434234,0.06335 -0.707321,0.180656 -0.957551,0.41131 -0.618975,0.570551 -0.300991,1.392068 0.640307,1.65424 0.352859,0.09828 1.091805,0.06819 1.414566,-0.05759 z m 7.597891,-4.456001 c 1.10256,-0.299334 1.275846,-1.391248 0.296456,-1.868034 -0.862061,-0.419667 -2.092892,-0.165621 -2.414298,0.498317 -0.44852,0.926519 0.792916,1.72942 2.117842,1.369717 z M 17.03855,36.090147 c 0.48575,-0.145826 0.843622,-0.490018 0.893108,-0.858968 0.03789,-0.282508 -0.01936,-0.466066 -0.214542,-0.687801 -0.311157,-0.353492 -0.732721,-0.510007 -1.376019,-0.510876 -0.804302,-0.0011 -1.420664,0.371516 -1.551961,0.938192 -0.04387,0.189341 0.05616,0.497185 0.226034,0.695648 0.389413,0.454941 1.290782,0.643737 2.02338,0.423805 z m 0.242753,-3.961271 c 0.634452,-0.176069 1.114869,-0.507701 1.349726,-0.931716 0.114681,-0.207046 0.131094,-0.280943 0.131094,-0.590232 0,-0.309288 -0.01641,-0.383185 -0.131094,-0.590231 -0.359184,-0.648478 -1.212436,-1.041993 -2.255392,-1.040174 -0.851789,0.0015 -1.46201,0.202718 -1.940304,0.639852 -1.05075,0.960326 -0.306517,2.332015 1.411553,2.601622 0.378298,0.05936 1.049671,0.01765 1.434417,-0.08912 z m 31.488664,-0.01431 c 0.39929,-0.134586 0.885708,-0.44251 1.060006,-0.671022 0.225271,-0.295346 0.300626,-0.532988 0.278145,-0.877156 -0.02567,-0.392958 -0.127311,-0.596506 -0.450458,-0.902125 -0.94991,-0.898386 -3.011307,-0.887017 -3.933052,0.02169 -0.730779,0.72044 -0.49935,1.750802 0.507216,2.258231 0.501768,0.252949 0.859975,0.322732 1.565871,0.305051 0.529318,-0.01326 0.669802,-0.03272 0.972272,-0.134669 z m -8.352699,-0.440765 c 0.121534,-0.03247 0.301877,-0.100395 0.400762,-0.150955 0.200215,-0.102371 0.486598,-0.397152 0.551385,-0.567556 0.115036,-0.302568 -0.01335,-0.746189 -0.281629,-0.973116 -0.371372,-0.314133 -1.059104,-0.473044 -1.616289,-0.37347 -1.441739,0.257653 -1.65745,1.576528 -0.332383,2.032217 0.312342,0.107414 0.938798,0.123529 1.278154,0.03288 z M 9.1946903,31.605614 c 0.2694413,-0.08138 0.631815,-0.328706 0.7695492,-0.52524 0.1690535,-0.241224 0.1868225,-0.596723 0.043544,-0.871193 -0.191942,-0.367693 -0.7140802,-0.633519 -1.3219335,-0.67301 -0.4290591,-0.02787 -0.76901,0.03708 -1.1249662,0.214955 -0.9757022,0.487565 -0.734197,1.586613 0.4128818,1.878953 0.2543185,0.06482 0.9729949,0.05041 1.2209237,-0.02446 z M 24.92721,31.577763 c 0.315031,-0.127921 0.52058,-0.27313 0.660981,-0.466948 0.269447,-0.371962 0.210142,-0.805483 -0.156411,-1.14336 -0.858674,-0.791499 -2.695305,-0.443415 -2.829586,0.536272 -0.06661,0.485958 0.266918,0.893409 0.903571,1.10384 0.32963,0.108952 1.120571,0.09237 1.421445,-0.0298 z m -7.891275,-4.535297 c 0.658263,-0.221079 0.993655,-0.727152 0.823532,-1.242627 -0.173131,-0.524593 -1.047784,-0.896094 -1.847776,-0.784825 -1.351968,0.188042 -1.736106,1.397121 -0.617519,1.943649 0.484496,0.236719 1.093843,0.267823 1.641763,0.0838 z m 15.534999,0.09185 c 0.793818,-0.182932 1.233544,-0.783317 0.993892,-1.357025 -0.206679,-0.494776 -0.915631,-0.807185 -1.695309,-0.747061 -0.482938,0.03724 -0.806884,0.169518 -1.089488,0.444868 -0.355119,0.346003 -0.406635,0.661869 -0.173854,1.065962 0.153701,0.266816 0.443307,0.456898 0.871944,0.572297 0.275945,0.07429 0.816404,0.08466 1.092815,0.02096 z m 0.3246,-3.824423 c 0.69063,-0.154773 1.254961,-0.526781 1.511037,-0.996078 0.107235,-0.196524 0.129143,-0.288513 0.129967,-0.545725 0.0022,-0.685084 -0.455063,-1.189734 -1.367539,-1.509269 -0.328855,-0.115159 -0.400217,-0.123592 -1.038139,-0.122664 -0.624246,9.06e-4 -0.716679,0.01155 -1.042028,0.119933 -0.59967,0.199774 -1.033756,0.533049 -1.265822,0.97185 -0.07635,0.14436 -0.09891,0.261623 -0.0997,0.518053 -8.8e-4,0.285785 0.01702,0.364025 0.129899,0.567822 0.255303,0.460942 0.846926,0.856351 1.493172,0.997956 0.390796,0.08563 1.162848,0.08469 1.549154,-0.0019 z m -8.00374,-0.727168 c 0.651176,-0.219366 0.975829,-0.654026 0.867582,-1.16156 -0.146723,-0.687939 -1.263165,-1.090088 -2.229412,-0.803047 -0.863652,0.256564 -1.178765,1.057681 -0.632004,1.606753 0.166001,0.166703 0.489732,0.343086 0.73639,0.401219 0.32625,0.07689 0.965956,0.05483 1.257444,-0.04336 z"
       id="path926"
       inkscape:connector-curvature="0"
       transform="matrix(0.26458334,0,0,0.26458334,0,280.06666)" />
    <path
       style="opacity:1;fill:#fce94f;fill-opacity:1;fill-rule:nonzero;stroke:none;stroke-width:0.74999999;stroke-miterlimit:4;stroke-dasharray:none;stroke-opacity:1"
       d="m 32.274034,50.797563 0.01151,-1.980416 15.335378,-8.862823 15.335378,-8.862824 0.02698,1.08354 c 0.01484,0.595946 0.02971,1.481286 0.03305,1.967422 l 0.0061,0.883884 -15.337404,8.860932 c -8.435572,4.873512 -15.356545,8.867629 -15.379939,8.875816 -0.02695,0.0094 -0.03832,-0.71075 -0.03103,-1.965531 z"
       id="path928"
       inkscape:connector-curvature="0"
       transform="matrix(0.26458334,0,0,0.26458334,0,280.06666)" />
    <path
       style="opacity:1;fill:#fce94f;fill-opacity:1;fill-rule:nonzero;stroke:none;stroke-width:0.74999999;stroke-miterlimit:4;stroke-dasharray:none;stroke-opacity:1"
       d="M 16.35354,43.909046 0.99606477,35.046372 1.0083765,33.116332 c 0.00677,-1.061522 0.020698,-1.938426 0.030948,-1.948676 0.016799,-0.0168 30.4567835,17.516721 30.6245005,17.639802 0.06288,0.04614 0.06916,0.260759 0.05879,2.007963 l -0.0116,1.956299 z"
       id="path930"
       inkscape:connector-curvature="0"
       transform="matrix(0.26458334,0,0,0.26458334,0,280.06666)" />
    <path
       style="opacity:1;fill:#decb4f;fill-opacity:1;fill-rule:nonzero;stroke:none;stroke-width:0.74999999;stroke-miterlimit:4;stroke-dasharray:none;stroke-opacity:1"
       d="m 16.154666,31.702683 c -0.709244,-0.04791 -1.369599,-0.373651 -1.575439,-0.777129 -0.319471,-0.626216 0.331819,-1.26332 1.431093,-1.399921 1.214688,-0.150943 2.362806,0.476047 2.224241,1.214661 -0.04036,0.215149 -0.348739,0.544271 -0.653281,0.697229 -0.382423,0.192075 -0.949166,0.297413 -1.426614,0.26516 z"
       id="path932"
       inkscape:connector-curvature="0"
       transform="matrix(0.26458334,0,0,0.26458334,0,280.06666)" />
    <path
       style="opacity:1;fill:#decb4f;fill-opacity:1;fill-rule:nonzero;stroke:none;stroke-width:0.74999999;stroke-miterlimit:4;stroke-dasharray:none;stroke-opacity:1"
       d="M 8.1209391,31.113935 C 7.877294,31.052452 7.7172653,30.959689 7.5862609,30.803999 7.4384581,30.628345 7.440777,30.577578 7.6051544,30.390363 7.8537852,30.107188 8.5202968,29.99007 9.0342747,30.139242 c 0.2306432,0.06694 0.5575569,0.336245 0.5575569,0.459306 0,0.118072 -0.2534853,0.369728 -0.4535529,0.45028 -0.2212177,0.08907 -0.7805412,0.124862 -1.0173396,0.06511 z"
       id="path934"
       inkscape:connector-curvature="0"
       transform="matrix(0.26458334,0,0,0.26458334,0,280.06666)" />
    <path
       style="opacity:1;fill:#decb4f;fill-opacity:1;fill-rule:nonzero;stroke:none;stroke-width:0.74999999;stroke-miterlimit:4;stroke-dasharray:none;stroke-opacity:1"
       d="m 15.816905,26.545963 c -0.612784,-0.218921 -0.70206,-0.564267 -0.21662,-0.837946 0.209315,-0.118007 0.293828,-0.138162 0.640816,-0.15282 0.475865,-0.0201 0.831983,0.08735 1.016586,0.306738 0.141454,0.168108 0.141454,0.262073 0,0.430182 -0.231655,0.275305 -1.001203,0.410889 -1.440782,0.253846 z"
       id="path936"
       inkscape:connector-curvature="0"
       transform="matrix(0.26458334,0,0,0.26458334,0,280.06666)" />
    <path
       style="opacity:1;fill:#decb4f;fill-opacity:1;fill-rule:nonzero;stroke:none;stroke-width:0.74999999;stroke-miterlimit:4;stroke-dasharray:none;stroke-opacity:1"
       d="m 23.681227,22.073767 c -0.254444,-0.07829 -0.521784,-0.318253 -0.521784,-0.468351 0,-0.267965 0.501851,-0.533166 1.014053,-0.535871 0.824523,-0.0044 1.324892,0.437415 0.909016,0.802559 -0.28901,0.253754 -0.931486,0.346215 -1.401285,0.201663 z"
       id="path938"
       inkscape:connector-curvature="0"
       transform="matrix(0.26458334,0,0,0.26458334,0,280.06666)" />
    <path
       style="opacity:1;fill:#decb4f;fill-opacity:1;fill-rule:nonzero;stroke:none;stroke-width:0.74999999;stroke-miterlimit:4;stroke-dasharray:none;stroke-opacity:1"
       d="m 31.455801,22.781653 c -0.816364,-0.197791 -1.316723,-0.708754 -1.182428,-1.207487 0.13461,-0.499904 0.995236,-0.931489 1.857487,-0.931489 1.101027,0 2.028883,0.638634 1.856729,1.277967 -0.09717,0.360865 -0.598282,0.720783 -1.201552,0.863003 -0.345378,0.08142 -0.989932,0.08046 -1.330236,-0.002 z"
       id="path942"
       inkscape:connector-curvature="0"
       transform="matrix(0.26458334,0,0,0.26458334,0,280.06666)" />
    <path
       style="opacity:1;fill:#decb4f;fill-opacity:1;fill-rule:nonzero;stroke:none;stroke-width:0.74999999;stroke-miterlimit:4;stroke-dasharray:none;stroke-opacity:1"
       d="m 31.56635,26.574397 c -0.338601,-0.112638 -0.540344,-0.287913 -0.540344,-0.469455 0,-0.176057 0.11453,-0.294086 0.420395,-0.433236 0.309251,-0.140692 0.921957,-0.143086 1.225511,-0.0048 0.248355,0.113149 0.43122,0.296431 0.43122,0.432206 0,0.388291 -0.931892,0.676493 -1.536782,0.475274 z"
       id="path944"
       inkscape:connector-curvature="0"
       transform="matrix(0.26458334,0,0,0.26458334,0,280.06666)" />
    <path
       style="opacity:1;fill:#decb4f;fill-opacity:1;fill-rule:nonzero;stroke:none;stroke-width:0.74999999;stroke-miterlimit:4;stroke-dasharray:none;stroke-opacity:1"
       d="m 23.7041,31.095738 c -0.277514,-0.08677 -0.483521,-0.230729 -0.545985,-0.38153 -0.04892,-0.118112 -0.04518,-0.149862 0.02992,-0.253725 0.04721,-0.0653 0.203073,-0.177721 0.346356,-0.249834 0.230447,-0.115981 0.30418,-0.130778 0.638841,-0.128208 0.548985,0.0042 0.948875,0.193849 1.039673,0.493028 0.04625,0.152397 -0.242122,0.421816 -0.549052,0.512964 -0.283743,0.08426 -0.703418,0.08746 -0.959754,0.0073 z"
       id="path946"
       inkscape:connector-curvature="0"
       transform="matrix(0.26458334,0,0,0.26458334,0,280.06666)" />
    <path
       style="opacity:1;fill:#decb4f;fill-opacity:1;fill-rule:nonzero;stroke:none;stroke-width:0.74999999;stroke-miterlimit:4;stroke-dasharray:none;stroke-opacity:1"
       d="m 16.132569,35.63812 c -0.69746,-0.126162 -0.992445,-0.495985 -0.641438,-0.804173 0.41747,-0.366543 1.372475,-0.360636 1.766446,0.01093 0.184877,0.174361 0.195986,0.282591 0.04716,0.459462 -0.194262,0.230867 -0.795164,0.401979 -1.172166,0.333784 z"
       id="path948"
       inkscape:connector-curvature="0"
       transform="matrix(0.26458334,0,0,0.26458334,0,280.06666)" />
    <path
       style="opacity:1;fill:#decb4f;fill-opacity:1;fill-rule:nonzero;stroke:none;stroke-width:0.74999999;stroke-miterlimit:4;stroke-dasharray:none;stroke-opacity:1"
       d="m 23.708146,40.115122 c -0.535913,-0.175431 -0.716413,-0.487707 -0.430626,-0.745011 0.193487,-0.174203 0.51013,-0.269964 0.901065,-0.272505 0.334169,-0.0022 0.408733,0.01284 0.638841,0.128655 0.143283,0.07211 0.299967,0.185641 0.348187,0.252285 0.08294,0.114629 0.0838,0.12929 0.01598,0.271518 -0.110866,0.232489 -0.477269,0.393491 -0.934606,0.410678 -0.216363,0.0081 -0.429852,-0.0099 -0.538838,-0.04562 z"
       id="path950"
       inkscape:connector-curvature="0"
       transform="matrix(0.26458334,0,0,0.26458334,0,280.06666)" />
    <path
       style="opacity:1;fill:#decb4f;fill-opacity:1;fill-rule:nonzero;stroke:none;stroke-width:0.74999999;stroke-miterlimit:4;stroke-dasharray:none;stroke-opacity:1"
       d="m 31.512142,40.768101 c -0.682113,-0.115548 -1.046424,-0.275379 -1.337863,-0.586952 -0.247562,-0.264663 -0.296511,-0.454356 -0.18953,-0.734482 0.13069,-0.342207 0.563917,-0.649804 1.117083,-0.793144 0.314855,-0.08159 1.009261,-0.09169 1.347261,-0.0196 0.991936,0.21157 1.505824,0.904391 1.083123,1.460264 -0.17359,0.22828 -0.526308,0.449903 -0.900362,0.565724 -0.268676,0.08319 -0.904563,0.144631 -1.119712,0.108185 z"
       id="path952"
       inkscape:connector-curvature="0"
       transform="matrix(0.26458334,0,0,0.26458334,0,280.06666)" />
    <path
       style="opacity:1;fill:#decb4f;fill-opacity:1;fill-rule:nonzero;stroke:none;stroke-width:0.74999999;stroke-miterlimit:4;stroke-dasharray:none;stroke-opacity:1"
       d="m 31.379957,35.580516 c -0.268454,-0.09266 -0.486534,-0.298044 -0.486534,-0.458211 0,-0.114926 0.168588,-0.289267 0.397748,-0.411322 0.123947,-0.06602 0.251267,-0.08239 0.640815,-0.08239 0.527008,0 0.703253,0.05239 0.926192,0.275332 0.465815,0.465815 -0.632474,0.968504 -1.478221,0.676586 z"
       id="path954"
       inkscape:connector-curvature="0"
       transform="matrix(0.26458334,0,0,0.26458334,0,280.06666)" />
    <path
       style="opacity:1;fill:#decb4f;fill-opacity:1;fill-rule:nonzero;stroke:none;stroke-width:0.74999999;stroke-miterlimit:4;stroke-dasharray:none;stroke-opacity:1"
       d="m 39.29898,31.119703 c -0.473289,-0.163472 -0.626026,-0.465213 -0.360865,-0.712912 0.416859,-0.389404 1.398655,-0.371081 1.821658,0.034 0.166184,0.159143 0.155886,0.30008 -0.03509,0.480193 -0.290989,0.274438 -0.943258,0.365353 -1.425704,0.19872 z"
       id="path956"
       inkscape:connector-curvature="0"
       transform="matrix(0.26458334,0,0,0.26458334,0,280.06666)" />
    <path
       style="opacity:1;fill:#decb4f;fill-opacity:1;fill-rule:nonzero;stroke:none;stroke-width:0.74999999;stroke-miterlimit:4;stroke-dasharray:none;stroke-opacity:1"
       d="m 47.134782,31.690558 c -1.112888,-0.244505 -1.610758,-0.959436 -1.084491,-1.557306 0.607801,-0.690499 2.157651,-0.809285 3.036224,-0.232707 0.35225,0.23117 0.478947,0.424804 0.478947,0.731987 0,0.216618 -0.01973,0.278137 -0.135766,0.423285 -0.335793,0.420046 -0.872082,0.636656 -1.632001,0.659174 -0.267375,0.0079 -0.565686,-0.0031 -0.662913,-0.02443 z"
       id="path958"
       inkscape:connector-curvature="0"
       transform="matrix(0.26458334,0,0,0.26458334,0,280.06666)" />
    <path
       style="fill:none;stroke:#000000;stroke-width:0.1984375;stroke-linecap:butt;stroke-linejoin:miter;stroke-opacity:1;stroke-miterlimit:4;stroke-dasharray:none"
       d="m 8.4687338,294.15779 -8.27959805,-4.778 0.005168,-1.20406 8.27133005,-4.78421 8.2682292,4.77387 0.0124,1.21026 z"
       id="path828"
       inkscape:connector-curvature="0" />
    <path
       style="fill:none;stroke:#000000;stroke-width:0.1984375;stroke-linecap:butt;stroke-linejoin:miter;stroke-opacity:1;stroke-miterlimit:4;stroke-dasharray:none"
       d="m 0.19430375,288.17573 8.27029595,4.7687 8.2692633,-4.77904"
       id="path830"
       inkscape:connector-curvature="0" />
    <path
       style="fill:none;stroke:#000000;stroke-width:0.1984375;stroke-linecap:butt;stroke-linejoin:miter;stroke-opacity:1;stroke-miterlimit:4;stroke-dasharray:none"
       d="m 8.4687338,294.15779 -0.00413,-1.21336"
       id="path832"
       inkscape:connector-curvature="0" />
    <ellipse
       style="opacity:1;fill:none;fill-opacity:1;fill-rule:nonzero;stroke:#000000;stroke-width:0.1984375;stroke-miterlimit:4;stroke-dasharray:none;stroke-opacity:1"
       id="path834"
       cx="4.3304849"
       cy="288.16434"
       rx="0.57050782"
       ry="0.36483562" />
    <ellipse
       style="opacity:1;fill:none;fill-opacity:1;fill-rule:nonzero;stroke:#000000;stroke-width:0.1984375;stroke-miterlimit:4;stroke-dasharray:none;stroke-opacity:1"
       id="path834-1"
       cx="8.417058"
       cy="290.56317"
       rx="0.57050782"
       ry="0.36483562" />
    <ellipse
       style="opacity:1;fill:none;fill-opacity:1;fill-rule:nonzero;stroke:#000000;stroke-width:0.1984375;stroke-miterlimit:4;stroke-dasharray:none;stroke-opacity:1"
       id="path834-8"
       cx="12.622639"
       cy="288.17175"
       rx="0.57050782"
       ry="0.36483562" />
    <ellipse
       style="opacity:1;fill:none;fill-opacity:1;fill-rule:nonzero;stroke:#000000;stroke-width:0.1984375;stroke-miterlimit:4;stroke-dasharray:none;stroke-opacity:1"
       id="path834-5"
       cx="8.5008411"
       cy="285.82144"
       rx="0.57050782"
       ry="0.36483562" />
    <ellipse
       style="opacity:1;fill:none;fill-opacity:1;fill-rule:nonzero;stroke:#000000;stroke-width:0.1984375;stroke-miterlimit:4;stroke-dasharray:none;stroke-opacity:1"
       id="path834-3"
       cx="6.4037437"
       cy="285.78311"
       rx="0.34876877"
       ry="0.2164771" />
    <ellipse
       style="opacity:1;fill:none;fill-opacity:1;fill-rule:nonzero;stroke:#000000;stroke-width:0.1984375;stroke-miterlimit:4;stroke-dasharray:none;stroke-opacity:1"
       id="path834-3-0"
       cx="8.4811363"
       cy="286.97269"
       rx="0.34876877"
       ry="0.2164771" />
    <ellipse
       style="opacity:1;fill:none;fill-opacity:1;fill-rule:nonzero;stroke:#000000;stroke-width:0.1984375;stroke-miterlimit:4;stroke-dasharray:none;stroke-opacity:1"
       id="path834-3-8"
       cx="4.3180828"
       cy="286.96649"
       rx="0.34876877"
       ry="0.2164771" />
    <ellipse
       style="opacity:1;fill:none;fill-opacity:1;fill-rule:nonzero;stroke:#000000;stroke-width:0.1984375;stroke-miterlimit:4;stroke-dasharray:none;stroke-opacity:1"
       id="path834-3-3"
       cx="6.3954754"
       cy="288.16745"
       rx="0.34876877"
       ry="0.2164771" />
    <ellipse
       style="opacity:1;fill:none;fill-opacity:1;fill-rule:nonzero;stroke:#000000;stroke-width:0.1984375;stroke-miterlimit:4;stroke-dasharray:none;stroke-opacity:1"
       id="path834-3-9"
       cx="2.2572267"
       cy="288.16537"
       rx="0.34876877"
       ry="0.2164771" />
    <ellipse
       style="opacity:1;fill:none;fill-opacity:1;fill-rule:nonzero;stroke:#000000;stroke-width:0.1984375;stroke-miterlimit:4;stroke-dasharray:none;stroke-opacity:1"
       id="path834-3-1"
       cx="4.3304849"
       cy="289.35397"
       rx="0.34876877"
       ry="0.2164771" />
    <ellipse
       style="opacity:1;fill:none;fill-opacity:1;fill-rule:nonzero;stroke:#000000;stroke-width:0.1984375;stroke-miterlimit:4;stroke-dasharray:none;stroke-opacity:1"
       id="path834-3-6"
       cx="6.3975425"
       cy="290.55286"
       rx="0.34876877"
       ry="0.2164771" />
    <ellipse
       style="opacity:1;fill:none;fill-opacity:1;fill-rule:nonzero;stroke:#000000;stroke-width:0.1984375;stroke-miterlimit:4;stroke-dasharray:none;stroke-opacity:1"
       id="path834-3-89"
       cx="8.4501305"
       cy="289.36221"
       rx="0.34876877"
       ry="0.2164771" />
    <ellipse
       style="opacity:1;fill:none;fill-opacity:1;fill-rule:nonzero;stroke:#000000;stroke-width:0.1984375;stroke-miterlimit:4;stroke-dasharray:none;stroke-opacity:1"
       id="path834-3-2"
       cx="10.539926"
       cy="288.17987"
       rx="0.34876877"
       ry="0.2164771" />
  </g>
</svg>
