<?xml version="1.0" encoding="UTF-8" standalone="no"?>
<!-- Created with Inkscape (http://www.inkscape.org/) -->

<svg
   xmlns:dc="http://purl.org/dc/elements/1.1/"
   xmlns:cc="http://creativecommons.org/ns#"
   xmlns:rdf="http://www.w3.org/1999/02/22-rdf-syntax-ns#"
   xmlns:svg="http://www.w3.org/2000/svg"
   xmlns="http://www.w3.org/2000/svg"
   xmlns:sodipodi="http://sodipodi.sourceforge.net/DTD/sodipodi-0.dtd"
   xmlns:inkscape="http://www.inkscape.org/namespaces/inkscape"
   width="64"
   height="64"
   viewBox="0 0 16.933333 16.933334"
   version="1.1"
   id="svg8"
   inkscape:version="0.92.4 (5da689c313, 2019-01-14)"
   sodipodi:docname="CageCube_cmd.svg">
  <defs
     id="defs2" />
  <sodipodi:namedview
     id="base"
     pagecolor="#ffffff"
     bordercolor="#666666"
     borderopacity="1.0"
     inkscape:pageopacity="0.0"
     inkscape:pageshadow="2"
     inkscape:zoom="22.627417"
     inkscape:cx="24.289799"
     inkscape:cy="30.564633"
     inkscape:document-units="mm"
     inkscape:current-layer="layer1"
     showgrid="false"
     units="px"
     inkscape:window-width="3840"
     inkscape:window-height="2055"
     inkscape:window-x="-13"
     inkscape:window-y="-13"
     inkscape:window-maximized="1" />
  <metadata
     id="metadata5">
    <rdf:RDF>
      <cc:Work
         rdf:about="">
        <dc:format>image/svg+xml</dc:format>
        <dc:type
           rdf:resource="http://purl.org/dc/dcmitype/StillImage" />
        <dc:title />
      </cc:Work>
    </rdf:RDF>
  </metadata>
  <g
     inkscape:label="Capa 1"
     inkscape:groupmode="layer"
     id="layer1"
     transform="translate(0,-280.06666)">
    <path
       style="opacity:1;fill:#fce94f;fill-opacity:1;fill-rule:nonzero;stroke:none;stroke-width:0.75000001;stroke-miterlimit:4;stroke-dasharray:none;stroke-opacity:1"
       d="M 18.48174,23.938407 C 11.151271,19.703819 5.1536147,16.220892 5.1536147,16.198568 c 0,-0.02232 6.0178793,-3.519221 13.3730643,-7.7708827 L 31.899743,0.69739179 45.272329,8.4363228 C 56.764092,15.086791 58.630462,16.186387 58.542156,16.254412 58.360596,16.394273 31.918332,31.644123 31.863091,31.64083 31.833821,31.63913 25.812208,28.172995 18.48174,23.938407 Z m 14.484375,-0.232413 c 6.07044,-0.451146 10.637517,-2.938484 11.761772,-6.405741 0.159065,-0.490561 0.220364,-1.636197 0.11608,-2.169441 -0.210963,-1.078735 -0.753747,-2.008558 -1.744242,-2.987996 -1.885877,-1.864822 -4.798603,-3.0874213 -8.587757,-3.6046588 -1.198159,-0.1635544 -4.602371,-0.1623675 -5.764603,0.00201 -3.34275,0.4727744 -6.007449,1.4676228 -7.940362,2.9644828 -3.16012,2.447216 -3.538489,5.767295 -0.956321,8.391439 0.887069,0.90149 2.083331,1.689567 3.48914,2.298587 2.046193,0.886444 3.899321,1.301636 6.845043,1.533626 0.594958,0.04686 2.002518,0.03557 2.78125,-0.02231 z"
       id="path910"
       inkscape:connector-curvature="0"
       transform="matrix(0.26458333,0,0,0.26458333,0,280.06666)" />
    <path
       style="opacity:1;fill:#fce94f;fill-opacity:1;fill-rule:nonzero;stroke:none;stroke-width:0.75000001;stroke-miterlimit:4;stroke-dasharray:none;stroke-opacity:1"
       d="M 32.153615,47.647048 V 32.156986 L 45.53813,24.430843 c 7.361483,-4.249378 13.390427,-7.718705 13.397652,-7.709616 0.0072,0.0091 0.02404,6.976783 0.03736,15.483763 l 0.02422,15.467236 -11.90625,6.860022 C 40.542677,58.305261 34.502833,61.78486 33.66924,62.264691 l -1.515625,0.87242 z m 10.661492,4.223477 c 3.718383,-0.926676 7.650068,-4.61022 10.065275,-9.430021 0.947072,-1.889983 1.561219,-3.746841 1.909416,-5.773066 0.202055,-1.175796 0.20052,-3.264822 -0.0031,-4.209192 -0.259573,-1.203916 -0.626245,-2.06651 -1.20596,-2.837012 -0.611731,-0.813056 -1.588925,-1.458473 -2.583382,-1.706273 -0.587523,-0.1464 -2.000483,-0.145457 -2.650945,0.0018 -2.799303,0.633597 -5.679236,2.72343 -8.064826,5.852273 -4.454582,5.842449 -5.696155,13.352754 -2.763874,16.71875 0.683565,0.784672 1.672915,1.342025 2.713244,1.528513 0.577726,0.103564 1.878056,0.03023 2.584145,-0.145741 z"
       id="path912"
       inkscape:connector-curvature="0"
       transform="matrix(0.26458333,0,0,0.26458333,0,280.06666)" />
    <path
       style="opacity:1;fill:#fce94f;fill-opacity:1;fill-rule:nonzero;stroke:none;stroke-width:0.75000001;stroke-miterlimit:4;stroke-dasharray:none;stroke-opacity:1"
       d="m 40.576326,51.45886 c -0.799983,-0.146614 -1.606072,-0.53571 -2.173351,-1.049068 -0.380307,-0.344158 -1.05341,-1.220682 -0.955799,-1.244656 0.0276,-0.0068 0.42828,-0.04396 0.890393,-0.08262 0.805981,-0.06743 0.879807,-0.08584 1.8125,-0.451833 0.904076,-0.354767 1.0264,-0.423007 1.743411,-0.972585 0.694858,-0.532599 0.827544,-0.667789 1.341738,-1.367062 0.516204,-0.702007 0.610355,-0.875662 0.987244,-1.820897 l 0.416622,-1.044885 1.528814,-0.96875 c 1.693785,-1.073286 1.596404,-0.999948 2.860717,-2.154407 1.120703,-1.023328 1.760228,-1.847093 2.548807,-3.283093 0.667754,-1.215977 0.90374,-1.896859 1.040016,-3.000715 0.09262,-0.750271 0.09128,-0.789635 -0.05848,-1.717577 -0.119203,-0.738586 -0.210213,-1.08734 -0.409402,-1.568832 -0.35615,-0.860917 -0.646086,-1.365092 -1.053181,-1.8314 -0.404532,-0.463371 -0.362882,-0.469299 0.46978,-0.06687 2.315756,1.119225 3.301209,4.361881 2.554043,8.40414 -0.572499,3.097286 -2.142289,6.41371 -4.319211,9.125 -2.052245,2.55601 -4.644574,4.403447 -6.975739,4.9713 -0.580133,0.141316 -1.791908,0.208565 -2.248922,0.124807 z"
       id="path914"
       inkscape:connector-curvature="0"
       transform="matrix(0.26458333,0,0,0.26458333,0,280.06666)" />
    <path
       style="opacity:1;fill:#fce94f;fill-opacity:1;fill-rule:nonzero;stroke:none;stroke-width:0.75000001;stroke-miterlimit:4;stroke-dasharray:none;stroke-opacity:1"
       d="M 18.153615,55.370311 4.8098647,47.671122 4.7941153,32.182078 c -0.012593,-12.384752 -6.68e-5,-15.482601 0.0625,-15.4569 0.043037,0.01768 6.0688747,3.492235 13.3907497,7.721236 l 13.3125,7.689092 0.01575,15.472999 c 0.0087,8.510149 -0.0054,15.470298 -0.03125,15.466996 -0.02585,-0.0033 -6.051687,-3.470636 -13.390749,-7.70519 z m 6.728745,-0.721098 c 2.33329,-0.481528 3.936908,-2.333973 4.555327,-5.262155 0.135516,-0.64166 0.169399,-1.000267 0.197793,-2.093348 0.03784,-1.456807 -0.02448,-2.299129 -0.270045,-3.649707 -0.484843,-2.666618 -1.559975,-5.53055 -3.073623,-8.1875 -2.391961,-4.198678 -5.807269,-7.694625 -9.183497,-9.400327 -2.236687,-1.129995 -4.291528,-1.457909 -6.0797,-0.970206 -3.9913238,1.088588 -5.5013247,6.378261 -3.686671,12.914748 0.7631625,2.748955 2.0534999,5.499355 3.776402,8.049535 3.127379,4.629038 7.228734,7.851382 10.939761,8.595128 0.787605,0.157848 2.069527,0.159588 2.824253,0.0038 z"
       id="path916"
       inkscape:connector-curvature="0"
       transform="matrix(0.26458333,0,0,0.26458333,0,280.06666)" />
    <path
       style="opacity:1;fill:#fce94f;fill-opacity:1;fill-rule:nonzero;stroke:none;stroke-width:0.75000001;stroke-miterlimit:4;stroke-dasharray:none;stroke-opacity:1"
       d="m 22.769505,54.078515 c -1.990062,-0.177356 -4.338753,-1.29427 -6.61589,-3.146172 -0.653062,-0.531108 -1.967282,-1.818867 -2.654282,-2.60084 C 11.136962,45.642555 9.2630902,42.389543 8.1316066,39.01322 6.6516031,34.596919 6.6861111,30.614205 8.2267071,28.037251 8.5060245,27.570037 9.2790779,26.753289 9.735076,26.443627 c 0.721896,-0.49023 1.617432,-0.795625 2.603023,-0.88768 l 0.403234,-0.03766 -0.193532,0.203485 c -0.106442,0.111916 -0.269897,0.358172 -0.363232,0.547234 -0.09333,0.189063 -0.310143,0.588831 -0.481796,0.888373 -0.227411,0.396843 -0.382018,0.786898 -0.569789,1.4375 l -0.257693,0.892877 -0.0015,1.34375 -0.0015,1.34375 0.268581,0.78125 c 0.569585,1.656806 1.46027,2.943197 2.687462,3.881425 0.367927,0.281291 0.753332,0.590286 0.856457,0.686655 0.422979,0.395272 2.54812,1.457611 3.609375,1.804296 0.232031,0.0758 0.421762,0.156616 0.421623,0.179595 -1.25e-4,0.02298 -0.0408,0.294904 -0.09036,0.604279 -0.203444,1.27003 -0.242309,2.106498 -0.163632,3.521685 0.102403,1.841949 0.253038,2.45221 0.966568,3.915815 l 0.517984,1.0625 0.824823,0.855665 c 0.695035,0.721024 0.906518,0.900197 1.344008,1.138673 1.462662,0.797298 3.654416,1.245717 5.278008,1.079848 0.286496,-0.02927 0.535657,-0.03846 0.553693,-0.02042 0.102088,0.102087 -0.905749,1.189125 -1.441019,1.554263 -1.014,0.691703 -2.296345,0.98608 -3.736435,0.857737 z"
       id="path918"
       inkscape:connector-curvature="0"
       transform="matrix(0.26458333,0,0,0.26458333,0,280.06666)" />
    <path
       style="opacity:1;fill:#fce94f;fill-opacity:1;fill-rule:nonzero;stroke:none;stroke-width:0.75000001;stroke-miterlimit:4;stroke-dasharray:none;stroke-opacity:1"
       d="m 18.372365,38.771852 c -1.287606,-0.451284 -2.820045,-1.275123 -3.72535,-2.002747 l -0.583088,-0.468648 0.372969,-0.05161 c 0.205133,-0.02839 0.851094,-0.200581 1.435469,-0.382653 1.250665,-0.389666 2.359745,-0.936302 3.28125,-1.61724 0.903138,-0.667366 2.151725,-1.770092 2.80417,-2.476584 0.321982,-0.348654 0.607062,-0.625635 0.633512,-0.615514 0.08972,0.03433 0.89471,1.014845 1.50314,1.830901 0.791381,1.061437 1.459022,2.094895 1.392938,2.156163 -0.125656,0.116501 -6.47328,3.812121 -6.540446,3.807882 -0.04101,-0.0026 -0.299564,-0.08356 -0.574564,-0.179946 z"
       id="path920"
       inkscape:connector-curvature="0"
       transform="matrix(0.26458333,0,0,0.26458333,0,280.06666)" />
    <path
       style="opacity:1;fill:#fce94f;fill-opacity:1;fill-rule:nonzero;stroke:none;stroke-width:0.75000001;stroke-miterlimit:4;stroke-dasharray:none;stroke-opacity:1"
       d="m 19.070992,44.475043 c -0.10824,-1.68659 -0.118281,-2.340252 -0.04685,-3.049885 0.09257,-0.919559 0.247157,-1.922562 0.305179,-1.980044 0.08541,-0.08461 6.444357,-3.801111 6.503725,-3.801111 0.157078,0 2.215819,4.43808 2.108517,4.545382 -0.01639,0.01639 -0.769911,0.221063 -1.674498,0.454836 -1.578197,0.407855 -1.6959,0.449043 -2.910755,1.018555 -1.152222,0.54015 -1.333154,0.647376 -2.012408,1.192615 -1.094,0.878157 -1.368984,1.135619 -1.77297,1.659987 -0.200161,0.259807 -0.385691,0.49478 -0.412289,0.522165 -0.0266,0.02738 -0.06604,-0.225742 -0.08765,-0.5625 z"
       id="path922"
       inkscape:connector-curvature="0"
       transform="matrix(0.26458333,0,0,0.26458333,0,280.06666)" />
    <path
       style="opacity:1;fill:#fce94f;fill-opacity:1;fill-rule:nonzero;stroke:none;stroke-width:0.75000001;stroke-miterlimit:4;stroke-dasharray:none;stroke-opacity:1"
       d="m 19.325736,18.244971 c -1.101234,-1.914691 -0.686986,-4.008078 1.136523,-5.743383 4.063265,-3.8667243 13.267332,-4.7669534 19.347606,-1.892346 2.39344,1.131561 3.966487,2.721557 4.410635,4.458156 0.119554,0.467453 0.158365,1.247229 0.08126,1.632734 -0.03727,0.186331 -0.06292,0.153041 -0.484375,-0.628486 -0.386476,-0.716669 -0.523139,-0.904701 -1.038774,-1.429226 -1.175675,-1.195946 -2.385207,-1.910919 -3.818529,-2.257194 -0.514879,-0.124389 -0.754266,-0.142327 -1.931471,-0.14473 -0.849463,-0.0017 -1.539167,0.02871 -1.875,0.08275 -1.8166,0.292339 -4.358542,1.231609 -6.28125,2.320979 l -0.6875,0.389524 -0.65625,-0.108163 c -1.043603,-0.172006 -1.597522,-0.184906 -2.67313,-0.06225 -0.826919,0.0943 -1.062562,0.145902 -1.48312,0.324796 -1.261836,0.536751 -1.850189,0.932017 -2.633372,1.769148 -0.369956,0.395438 -1.022878,1.289147 -1.022878,1.400096 0,0.04138 -0.03557,0.123885 -0.07905,0.183344 -0.07034,0.0962 -0.104637,0.06362 -0.311328,-0.295749 z"
       id="path924"
       inkscape:connector-curvature="0"
       transform="matrix(0.26458333,0,0,0.26458333,0,280.06666)" />
    <path
       style="opacity:1;fill:#fce94f;fill-opacity:1;fill-rule:nonzero;stroke:none;stroke-width:0.75000001;stroke-miterlimit:4;stroke-dasharray:none;stroke-opacity:1"
       d="m 30.04948,23.161682 -0.197885,-0.02482 -0.02843,-2.949556 c -0.02173,-2.254253 -0.05184,-3.106452 -0.127754,-3.61513 -0.128088,-0.858291 -0.223841,-1.245258 -0.341892,-1.381684 -0.05224,-0.06037 -0.08323,-0.121501 -0.06888,-0.135854 0.181016,-0.181016 2.760784,-1.31007 3.627889,-1.587772 0.736507,-0.235876 1.621679,-0.463101 1.65893,-0.425851 0.0156,0.01561 -0.02924,0.141302 -0.09966,0.279327 -0.299593,0.587252 -0.604543,2.509369 -0.661172,4.167408 -0.0323,0.945714 -0.01838,1.259465 0.08732,1.96875 0.184508,1.238095 0.423294,2.462467 0.591176,3.03125 l 0.147581,0.5 -0.288423,0.04254 c -0.990386,0.146068 -3.556395,0.224496 -4.298807,0.13139 z"
       id="path926"
       inkscape:connector-curvature="0"
       transform="matrix(0.26458333,0,0,0.26458333,0,280.06666)" />
    <path
       style="opacity:1;fill:#fce94f;fill-opacity:1;fill-rule:nonzero;stroke:none;stroke-width:0.75000001;stroke-miterlimit:4;stroke-dasharray:none;stroke-opacity:1"
       d="m 28.466115,23.013095 c -0.90374,-0.141431 -1.499914,-0.259445 -1.499062,-0.296743 5.15e-4,-0.0226 0.0725,-0.266099 0.159955,-0.541099 0.204287,-0.642336 0.404907,-2.402629 0.402456,-3.53125 -0.0026,-1.176192 -0.143708,-2.194505 -0.381725,-2.753837 -0.104439,-0.245428 -0.179808,-0.456312 -0.167488,-0.468632 0.01232,-0.01232 0.30532,0.02842 0.65111,0.09052 0.614552,0.110382 0.633975,0.110223 0.86251,-0.007 0.215463,-0.110539 0.242521,-0.112054 0.344996,-0.01932 0.131249,0.118779 0.22083,0.530048 0.347183,1.593918 0.06784,0.571203 0.09256,1.476873 0.09256,3.390625 v 2.611241 l -0.234375,-0.0073 c -0.128907,-0.004 -0.389063,-0.03151 -0.578125,-0.0611 z"
       id="path928"
       inkscape:connector-curvature="0"
       transform="matrix(0.26458333,0,0,0.26458333,0,280.06666)" />
    <path
       style="opacity:1;fill:#fce94f;fill-opacity:1;fill-rule:nonzero;stroke:none;stroke-width:0.75000001;stroke-miterlimit:4;stroke-dasharray:none;stroke-opacity:1"
       d="m 45.122365,40.620833 c -0.751937,-0.117048 -1.380949,-0.385133 -3.0625,-1.305238 -1.09043,-0.596658 -2.570986,-1.535792 -3.213051,-2.038078 l -0.15055,-0.117775 0.298093,-0.551319 c 0.163951,-0.303226 0.36808,-0.662188 0.453621,-0.797693 l 0.155529,-0.246373 0.821929,0.812413 c 0.452061,0.446827 1.197679,1.101228 1.65693,1.454225 0.746509,0.573792 0.951416,0.694325 1.933467,1.137328 0.885891,0.399625 1.291787,0.543166 2.097446,0.741743 0.54944,0.135425 1.25438,0.277911 1.566534,0.316635 0.312153,0.03872 0.59112,0.09187 0.619927,0.118105 0.02881,0.02623 -0.258155,0.15117 -0.637692,0.277637 -0.58588,0.195224 -0.791947,0.233434 -1.364874,0.25308 -0.371145,0.01273 -0.899809,-0.01188 -1.174809,-0.05469 z"
       id="path930"
       inkscape:connector-curvature="0"
       transform="matrix(0.26458333,0,0,0.26458333,0,280.06666)" />
    <path
       style="opacity:1;fill:#fce94f;fill-opacity:1;fill-rule:nonzero;stroke:none;stroke-width:0.75000001;stroke-miterlimit:4;stroke-dasharray:none;stroke-opacity:1"
       d="m 47.997365,39.517747 c -1.365527,-0.189953 -2.606338,-0.54057 -3.757027,-1.061626 -0.869598,-0.393771 -1.116949,-0.540482 -1.8125,-1.075045 -0.735936,-0.565601 -2.461723,-2.19234 -2.461723,-2.320438 0,-0.04675 0.502189,-0.77499 0.781643,-1.133484 0.09186,-0.117848 0.147233,-0.07207 1.297782,1.072909 l 1.201825,1.196008 1.334806,0.820613 c 1.176037,0.723005 1.462251,0.869125 2.406251,1.228456 0.83011,0.315979 1.240373,0.435276 1.821443,0.529643 0.4125,0.06699 0.773704,0.129121 0.802676,0.138069 0.06868,0.02121 -0.658279,0.732512 -0.740176,0.724235 -0.03438,-0.0035 -0.428125,-0.05718 -0.875,-0.11934 z"
       id="path932"
       inkscape:connector-curvature="0"
       transform="matrix(0.26458333,0,0,0.26458333,0,280.06666)" />
    <path
       style="opacity:1;fill:#fce94f;fill-opacity:1;fill-rule:nonzero;stroke:none;stroke-width:0.75000001;stroke-miterlimit:4;stroke-dasharray:none;stroke-opacity:1"
       d="m 42.933744,43.579647 c -0.722026,-0.724619 -0.788099,-0.773592 -1.842629,-1.365733 -0.908193,-0.50997 -1.321721,-0.696711 -2.4375,-1.100729 -0.739063,-0.267611 -1.354608,-0.495855 -1.367878,-0.50721 -0.06029,-0.05159 0.71645,-2.088021 0.795585,-2.085841 0.04794,0.0013 1.708213,0.909951 2.791043,1.527473 2.0674,1.179009 3.53125,2.244182 3.53125,2.56952 0,0.05158 -0.04883,0.168297 -0.10851,0.25938 -0.05968,0.09108 -0.221903,0.455655 -0.360495,0.810158 l -0.251986,0.644551 z"
       id="path934"
       inkscape:connector-curvature="0"
       transform="matrix(0.26458333,0,0,0.26458333,0,280.06666)" />
    <path
       style="opacity:1;fill:#fce94f;fill-opacity:1;fill-rule:nonzero;stroke:none;stroke-width:0.75000001;stroke-miterlimit:4;stroke-dasharray:none;stroke-opacity:1"
       d="m 44.875117,42.275106 c -0.06049,-0.134144 -0.212419,-0.341924 -0.337617,-0.461734 -0.344029,-0.32922 -1.707519,-1.27417 -2.498951,-1.731869 -0.386358,-0.223437 -0.961493,-0.556766 -1.278077,-0.74073 -0.316584,-0.183964 -0.941232,-0.531956 -1.388107,-0.773315 -1.159314,-0.62615 -1.103201,-0.584331 -1.022303,-0.761884 l 0.06837,-0.150062 0.496399,0.368057 c 1.239054,0.918702 4.21184,2.589156 5.238781,2.943751 0.555076,0.191663 1.634944,0.320098 2.309436,0.274674 0.324877,-0.02188 0.574504,-0.0236 0.554725,-0.0038 -0.04175,0.04176 -1.992635,1.280828 -2.016622,1.280828 -0.0088,0 -0.06555,-0.109754 -0.126037,-0.243897 z"
       id="path936"
       inkscape:connector-curvature="0"
       transform="matrix(0.26458333,0,0,0.26458333,0,280.06666)" />
    <path
       style="fill:none;stroke:#000000;stroke-width:0.1984375;stroke-linecap:butt;stroke-linejoin:miter;stroke-opacity:1;stroke-miterlimit:4;stroke-dasharray:none"
       d="m 8.4394997,296.89664 -7.2494653,-4.17841 0.00591,-8.36567 7.2439301,-4.18741 7.2325575,4.18755 0.01654,8.36745 z"
       id="path826"
       inkscape:connector-curvature="0" />
    <path
       style="fill:none;stroke:#000000;stroke-width:0.1984375;stroke-linecap:butt;stroke-linejoin:miter;stroke-opacity:1;stroke-miterlimit:4;stroke-dasharray:none"
       d="m 1.1959444,284.35256 7.2376619,4.17875 7.2388257,-4.17861"
       id="path828"
       inkscape:connector-curvature="0" />
    <path
       style="fill:none;stroke:#000000;stroke-width:0.1984375;stroke-linecap:butt;stroke-linejoin:miter;stroke-opacity:1;stroke-miterlimit:4;stroke-dasharray:none"
       d="m 8.4336061,288.53131 0.00589,8.36533"
       id="path830"
       inkscape:connector-curvature="0" />
    <ellipse
       style="opacity:1;fill:none;fill-opacity:1;fill-rule:nonzero;stroke:#000000;stroke-width:0.20795733;stroke-miterlimit:4;stroke-dasharray:none;stroke-opacity:1"
       id="path832"
       cx="94.359634"
       cy="316.91171"
       rx="2.3311324"
       ry="3.2237039"
       transform="matrix(0.98596957,-0.16692518,-0.25562848,0.96677509,0,0)" />
    <ellipse
       style="opacity:1;fill:none;fill-opacity:1;fill-rule:nonzero;stroke:#000000;stroke-width:0.2097615;stroke-miterlimit:4;stroke-dasharray:none;stroke-opacity:1"
       id="path832-8"
       cx="-232.29218"
       cy="99.472862"
       rx="2.8800542"
       ry="3.9577224"
       transform="matrix(0.29054595,-0.95686104,0.72670198,0.68695286,0,0)" />
    <ellipse
       style="opacity:1;fill:none;fill-opacity:1;fill-rule:nonzero;stroke:#000000;stroke-width:0.19968391;stroke-miterlimit:4;stroke-dasharray:none;stroke-opacity:1"
       id="path832-8-3"
       cx="-286.56339"
       cy="73.6716"
       rx="2.0011845"
       ry="3.4472835"
       transform="matrix(0.22731899,-0.97382035,0.99745249,0.07133394,0,0)" />
    <path
       style="fill:none;stroke:#000000;stroke-width:0.1984375;stroke-linecap:butt;stroke-linejoin:miter;stroke-opacity:1;stroke-miterlimit:4;stroke-dasharray:none"
       d="m 6.8433526,289.39659 -1.806575,1.06115 -0.3010958,-0.0979 -0.3054805,-0.13009 -0.1739342,-0.0994 -0.2455537,-0.12716 -0.1198539,-0.10524 -0.359561,-0.27332 -0.1300851,-0.16517 -0.13447,-0.15785 -0.1008523,-0.19002 -0.090621,-0.18562 -0.08916,-0.26456 -0.04531,-0.1637 0.00585,-0.25871 -0.011692,-0.26017 0.076005,-0.29671 0.07162,-0.25871 0.127162,-0.21778 0.122777,-0.24117 0.1432395,-0.15347"
       id="path864"
       inkscape:connector-curvature="0" />
    <path
       style="fill:none;stroke:#000000;stroke-width:0.1984375;stroke-linecap:butt;stroke-linejoin:miter;stroke-opacity:1;stroke-miterlimit:4;stroke-dasharray:none"
       d="m 5.0367776,290.45774 -0.059304,0.37932 -0.03824,0.41135 0.022738,0.43201 0.019637,0.30076 0.094051,0.3607 0.1188559,0.25942 0.1529622,0.29352 0.2418456,0.24598 0.1705322,0.18397 0.2749187,0.14366 0.3834392,0.13746 0.3607014,0.0589 0.3234944,0.0176 0.4588867,-0.0455"
       id="path866"
       inkscape:connector-curvature="0" />
    <path
       style="fill:none;stroke:#000000;stroke-width:0.1984375;stroke-linecap:butt;stroke-linejoin:miter;stroke-opacity:1;stroke-miterlimit:4;stroke-dasharray:none"
       d="m 9.8250784,293.00682 0.5203406,-0.0439 0.494031,-0.19586 0.388793,-0.29232 0.298173,-0.40341 0.225091,-0.56712 0.838976,-0.52911 0.561266,-0.50864 0.277709,-0.36541 0.28648,-0.51742 0.111084,-0.3391 0.04385,-0.38002 -0.07308,-0.46772 -0.119853,-0.29525 -0.119854,-0.23094 -0.327405,-0.37417"
       id="path886"
       inkscape:connector-curvature="0"
       sodipodi:nodetypes="cccccccccccccccc" />
    <path
       style="fill:none;stroke:#000000;stroke-width:0.1984375;stroke-linecap:butt;stroke-linejoin:miter;stroke-opacity:1;stroke-miterlimit:4;stroke-dasharray:none"
       d="m 11.751507,291.50421 0.09062,-0.15196 -0.05116,-0.1067 -0.111084,-0.11108 -0.355176,-0.25286 -0.263094,-0.1637 -0.249938,-0.1374 -0.229476,-0.13739 -0.306943,-0.16516 -0.219244,-0.11986"
       id="path888"
       inkscape:connector-curvature="0" />
    <path
       style="fill:none;stroke:#000000;stroke-width:0.1984375;stroke-linecap:butt;stroke-linejoin:miter;stroke-opacity:1;stroke-miterlimit:4;stroke-dasharray:none"
       d="m 10.165638,289.93593 0.20609,0.15786 0.238246,0.15786 0.276248,0.16955 0.396101,0.21632 0.311328,0.15785 0.209013,0.0731 0.358099,0.0468 0.276248,-0.0205 0.416565,-0.13447"
       id="path890"
       inkscape:connector-curvature="0" />
    <path
       style="fill:none;stroke:#000000;stroke-width:0.1984375;stroke-linecap:butt;stroke-linejoin:miter;stroke-opacity:1;stroke-miterlimit:4;stroke-dasharray:none"
       d="m 10.487197,289.38051 0.461875,0.4575 0.450182,0.3464 0.562728,0.25433 0.539341,0.13154 0.476492,0.0614"
       id="path892"
       inkscape:connector-curvature="0" />
    <path
       style="fill:none;stroke:#000000;stroke-width:0.1984375;stroke-linecap:butt;stroke-linejoin:miter;stroke-opacity:1;stroke-miterlimit:4;stroke-dasharray:none"
       d="m 10.823372,288.92887 0.369792,0.36541 0.305481,0.29525 0.347868,0.21486 0.336175,0.20609 0.556881,0.2134 0.52034,0.0833"
       id="path894"
       inkscape:connector-curvature="0" />
    <path
       style="fill:none;stroke:#000000;stroke-width:0.1984375;stroke-linecap:butt;stroke-linejoin:miter;stroke-opacity:1;stroke-miterlimit:4;stroke-dasharray:none"
       d="m 9.8019856,290.8691 0.3968754,0.1447 0.345198,0.12402 0.28112,0.1571 0.30179,0.16949 0.338998,0.33693 0.117822,0.12609"
       id="path896"
       inkscape:connector-curvature="0" />
    <path
       style="fill:none;stroke:#000000;stroke-width:0.1984375;stroke-linecap:butt;stroke-linejoin:miter;stroke-opacity:1;stroke-miterlimit:4;stroke-dasharray:none"
       d="m 5.0477538,292.13517 0.2852539,-0.36897 0.2139405,-0.18706 0.3245279,-0.25942 0.267684,-0.13022 0.4216797,-0.19327 0.4888589,-0.12506 0.3451987,-0.0889 0.094051,-0.009"
       id="path898"
       inkscape:connector-curvature="0" />
    <path
       style="fill:none;stroke:#000000;stroke-width:0.1984375;stroke-linecap:butt;stroke-linejoin:miter;stroke-opacity:1;stroke-miterlimit:4;stroke-dasharray:none"
       d="m 3.5312985,289.62463 0.3771008,-0.0556 0.52911,-0.16371 0.4443357,-0.23094 0.3069423,-0.22801 0.40341,-0.35079 0.3683307,-0.39464"
       id="path900"
       inkscape:connector-curvature="0" />
    <path
       style="fill:none;stroke:#000000;stroke-width:0.1984375;stroke-linecap:butt;stroke-linejoin:miter;stroke-miterlimit:4;stroke-dasharray:none;stroke-opacity:1"
       d="m 5.2172525,285.10408 0.095085,-0.20877 0.1384927,-0.19017 0.1674317,-0.18604 0.2108399,-0.17983 0.2232422,-0.11782 0.2852539,-0.11989 0.2480468,-0.0289 0.2749185,-0.031 0.2542482,0.0207 0.3162596,0.0558 0.03514,0.006 0.2129068,-0.12403 0.2273763,-0.11989 0.2645833,-0.11989 0.3658693,-0.15503 0.2852539,-0.0889 0.3389974,-0.0909 0.1922362,-0.031 0.2997234,-0.031 0.2625162,0.008 0.2459802,0.0145 0.270784,0.0641 0.204639,0.0785 0.16123,0.093 0.179834,0.11367 0.115751,0.0909 0.163298,0.15296 0.144694,0.15503 0.07648,0.12402 0.101286,0.19431 0.103353,0.19637 0.02277,0.15296"
       id="path902"
       inkscape:connector-curvature="0"
       sodipodi:nodetypes="ccccccccccccccccccccccccccccccccc" />
    <path
       style="fill:none;stroke:#000000;stroke-width:0.1984375;stroke-linecap:butt;stroke-linejoin:miter;stroke-opacity:1;stroke-miterlimit:4;stroke-dasharray:none"
       d="m 7.0341957,286.13967 0.1178224,-0.3762 0.066146,-0.63872 -0.00827,-0.32866 -0.047542,-0.38241 -0.1405599,-0.33279"
       id="path904"
       inkscape:connector-curvature="0" />
    <path
       style="fill:none;stroke:#000000;stroke-width:0.1984375;stroke-linecap:butt;stroke-linejoin:miter;stroke-opacity:1;stroke-miterlimit:4;stroke-dasharray:none"
       d="m 7.8134765,286.26163 0.01447,-1.02319 -0.016536,-0.53124 -0.053743,-0.42581 -0.039274,-0.14469 -0.1095541,-0.093"
       id="path906"
       inkscape:connector-curvature="0" />
    <path
       style="fill:none;stroke:#000000;stroke-width:0.1984375;stroke-linecap:butt;stroke-linejoin:miter;stroke-opacity:1;stroke-miterlimit:4;stroke-dasharray:none"
       d="m 9.2583494,286.20995 -0.1136881,-0.39894 -0.082682,-0.46302 -0.047543,-0.339 0.010335,-0.58704 0.049609,-0.34933 0.080615,-0.38654 0.1302247,-0.26045"
       id="path908"
       inkscape:connector-curvature="0" />
  </g>
</svg>
