<?xml version="1.0" encoding="UTF-8" standalone="no"?>
<!-- Created with Inkscape (http://www.inkscape.org/) -->

<svg
   xmlns:dc="http://purl.org/dc/elements/1.1/"
   xmlns:cc="http://creativecommons.org/ns#"
   xmlns:rdf="http://www.w3.org/1999/02/22-rdf-syntax-ns#"
   xmlns:svg="http://www.w3.org/2000/svg"
   xmlns="http://www.w3.org/2000/svg"
   xmlns:sodipodi="http://sodipodi.sourceforge.net/DTD/sodipodi-0.dtd"
   xmlns:inkscape="http://www.inkscape.org/namespaces/inkscape"
   width="64"
   height="64"
   viewBox="0 0 16.933333 16.933334"
   version="1.1"
   id="svg8"
   inkscape:version="0.92.4 (5da689c313, 2019-01-14)"
   sodipodi:docname="Lcpb1mBase_cmd.svg">
  <defs
     id="defs2" />
  <sodipodi:namedview
     id="base"
     pagecolor="#ffffff"
     bordercolor="#666666"
     borderopacity="1.0"
     inkscape:pageopacity="0.0"
     inkscape:pageshadow="2"
     inkscape:zoom="22.627417"
     inkscape:cx="30.552341"
     inkscape:cy="27.309136"
     inkscape:document-units="mm"
     inkscape:current-layer="layer1"
     showgrid="false"
     units="px"
     inkscape:window-width="3840"
     inkscape:window-height="2055"
     inkscape:window-x="-13"
     inkscape:window-y="-13"
     inkscape:window-maximized="1" />
  <metadata
     id="metadata5">
    <rdf:RDF>
      <cc:Work
         rdf:about="">
        <dc:format>image/svg+xml</dc:format>
        <dc:type
           rdf:resource="http://purl.org/dc/dcmitype/StillImage" />
        <dc:title />
      </cc:Work>
    </rdf:RDF>
  </metadata>
  <g
     inkscape:label="Capa 1"
     inkscape:groupmode="layer"
     id="layer1"
     transform="translate(0,-280.06665)">
    <path
       style="opacity:1;fill:#fce94f;fill-opacity:1;fill-rule:nonzero;stroke:none;stroke-width:0.74834647;stroke-miterlimit:4;stroke-dasharray:none;stroke-opacity:1"
       d="m 14.069531,37.001505 c -2.180332,-1.257059 -2.625611,-1.524922 -2.578125,-1.550903 0.0499,-0.0273 37.082993,-21.38899 37.293293,-21.511778 0.07677,-0.04483 0.100928,-0.03453 0.670331,0.285581 0.324881,0.182645 0.6098,0.324748 0.633159,0.315785 0.04396,-0.01687 3.976241,2.377074 3.976241,2.420709 0,0.01954 -37.325903,21.56563 -37.352234,21.561284 -0.0039,-6.48e-4 -1.193127,-0.684953 -2.642665,-1.520678 z m 7.659911,-3.492877 c 0.760581,-0.161167 1.010528,-0.773485 0.468081,-1.146699 -0.493763,-0.339717 -1.411674,-0.299616 -1.804671,0.07884 -0.602986,0.580678 0.285557,1.290571 1.33659,1.067857 z m 11.601794,-6.388129 c 0.813424,-0.167886 1.235998,-0.684289 0.984717,-1.203367 -0.238764,-0.493221 -1.215043,-0.778177 -2.058043,-0.600702 -1.037391,0.2184 -1.376035,1.048189 -0.630855,1.545802 0.423617,0.28288 1.093241,0.384361 1.704181,0.258267 z m 11.333219,-6.850718 c 0.667116,-0.140315 0.968481,-0.660731 0.601459,-1.03864 -0.216478,-0.222901 -0.5472,-0.332779 -1.001634,-0.332779 -0.897906,0 -1.433797,0.599387 -0.959731,1.073452 0.276925,0.276924 0.856347,0.403881 1.359906,0.297967 z"
       id="path881"
       inkscape:connector-curvature="0"
       transform="matrix(0.26458333,0,0,0.26458333,0,280.06665)" />
    <path
       style="opacity:1;fill:#fce94f;fill-opacity:1;fill-rule:nonzero;stroke:none;stroke-width:0.74834647;stroke-miterlimit:4;stroke-dasharray:none;stroke-opacity:1"
       d="m 14.582168,43.80196 c -0.01823,-0.532929 -0.01455,-0.66952 0.01887,-0.700212 0.02283,-0.02097 0.5652,-0.336413 1.205256,-0.700983 l 1.163739,-0.662855 0.0081,-1.377538 0.0081,-1.377538 18.68534,-10.776167 C 45.94858,22.279775 54.361621,17.435135 54.367286,17.4408 c 0.0057,0.0057 0.03282,0.592575 0.06034,1.304244 0.02752,0.711669 0.055,1.299302 0.06106,1.305851 0.0061,0.0066 0.535347,-0.296368 1.176194,-0.673151 l 1.165175,-0.685061 0.0084,0.686602 c 0.0046,0.37763 -0.0024,0.69641 -0.01563,0.708399 -0.01323,0.01199 -3.652175,2.116841 -8.08655,4.67745 -4.434375,2.560609 -13.910652,8.033719 -21.058393,12.162468 -7.147742,4.128748 -13.013265,7.513481 -13.034496,7.521628 -0.02946,0.01131 -0.04396,-0.141925 -0.06125,-0.64727 z"
       id="path883"
       inkscape:connector-curvature="0"
       transform="matrix(0.26458333,0,0,0.26458333,0,280.06665)" />
    <path
       style="opacity:1;fill:#fce94f;fill-opacity:1;fill-rule:nonzero;stroke:none;stroke-width:0.74834647;stroke-miterlimit:4;stroke-dasharray:none;stroke-opacity:1"
       d="m 58.892555,15.303186 c -0.911487,-0.528767 -1.444276,-0.818379 -1.65625,-0.900302 -0.6634,-0.256388 -1.640727,-0.341113 -2.25,-0.195055 -0.43211,0.103587 -0.756804,0.238525 -1.046704,0.434993 -0.420683,0.285102 -0.582949,0.565917 -0.602328,1.042379 l -0.0072,0.177464 -1.296875,-0.796392 c -0.713281,-0.438015 -1.315889,-0.807518 -1.339128,-0.821117 -0.02816,-0.01648 0.922565,-0.57878 2.850235,-1.68576 1.590869,-0.913569 2.90615,-1.661034 2.922846,-1.661034 0.0167,0 1.469846,0.833325 3.229221,1.851833 l 3.198864,1.851833 -1.286162,0.741917 c -0.707389,0.408054 -1.305645,0.741208 -1.329457,0.740343 -0.02381,-8.66e-4 -0.647981,-0.352362 -1.387044,-0.781102 z"
       id="path885"
       inkscape:connector-curvature="0"
       transform="matrix(0.26458333,0,0,0.26458333,0,280.06665)" />
    <path
       style="opacity:1;fill:#fce94f;fill-opacity:1;fill-rule:nonzero;stroke:none;stroke-width:0.74834647;stroke-miterlimit:4;stroke-dasharray:none;stroke-opacity:1"
       d="m 58.736305,17.269935 c -1.373726,-0.794579 -1.713389,-0.956584 -2.22314,-1.060346 -0.299681,-0.061 -0.401475,-0.06702 -0.87061,-0.05149 -0.568596,0.01882 -0.830221,0.071 -1.160573,0.231486 l -0.160573,0.078 -0.137907,-0.08082 c -0.126402,-0.07408 -0.144943,-0.101662 -0.22224,-0.330652 -0.164559,-0.487505 -0.09474,-0.729683 0.28271,-0.980561 0.235729,-0.156683 0.435698,-0.240768 0.804833,-0.338426 0.537846,-0.142292 1.478433,-0.05843 2.0625,0.183894 0.15951,0.06618 2.906073,1.621437 2.90628,1.645699 1.6e-5,0.0019 -0.007,0.323626 -0.01563,0.714872 l -0.01565,0.711356 z"
       id="path887"
       inkscape:connector-curvature="0"
       transform="matrix(0.26458333,0,0,0.26458333,0,280.06665)" />
    <path
       style="opacity:1;fill:#fce94f;fill-opacity:1;fill-rule:nonzero;stroke:none;stroke-width:0.74834647;stroke-miterlimit:4;stroke-dasharray:none;stroke-opacity:1"
       d="m 54.959806,18.749924 c -0.01083,-0.21914 -0.02902,-0.657481 -0.04044,-0.97409 l -0.02075,-0.575653 0.156664,0.09128 c 0.51513,0.300133 1.506927,0.906626 1.507945,0.922121 0.0011,0.01668 -1.542095,0.934782 -1.57123,0.934782 -0.0069,0 -0.02136,-0.179297 -0.03219,-0.398438 z"
       id="path889"
       inkscape:connector-curvature="0"
       transform="matrix(0.26458333,0,0,0.26458333,0,280.06665)" />
    <path
       style="opacity:1;fill:#fce94f;fill-opacity:1;fill-rule:nonzero;stroke:none;stroke-width:0.74834647;stroke-miterlimit:4;stroke-dasharray:none;stroke-opacity:1"
       d="m 60.540409,17.280079 0.0084,-0.709656 1.291038,-0.745513 c 0.710072,-0.410032 1.295412,-0.740543 1.300758,-0.734468 0.0053,0.0061 0.015,0.325131 0.02146,0.709013 l 0.01174,0.697968 -0.96875,0.547016 c -0.532812,0.300858 -1.127216,0.636628 -1.320896,0.746155 l -0.352146,0.199141 z"
       id="path891"
       inkscape:connector-curvature="0"
       transform="matrix(0.26458333,0,0,0.26458333,0,280.06665)" />
    <path
       style="opacity:1;fill:#fce94f;fill-opacity:1;fill-rule:nonzero;stroke:none;stroke-width:0.74834647;stroke-miterlimit:4;stroke-dasharray:none;stroke-opacity:1"
       d="m 10.603758,33.96821 c -0.141651,-0.08138 -0.257667,-0.156597 -0.257813,-0.167137 -1.84e-4,-0.01331 32.351613,-18.707154 37.145323,-21.463686 l 0.223712,-0.128641 0.245038,0.146342 c 0.134768,0.08049 0.261562,0.161823 0.281759,0.180745 0.02726,0.02554 -4.772266,2.807721 -18.631093,10.800029 -10.267299,5.921094 -18.686168,10.768931 -18.708598,10.772973 -0.02243,0.004 -0.156677,-0.05924 -0.298328,-0.140625 z"
       id="path893"
       inkscape:connector-curvature="0"
       transform="matrix(0.26458333,0,0,0.26458333,0,280.06665)" />
    <path
       style="opacity:1;fill:#fce94f;fill-opacity:1;fill-rule:nonzero;stroke:none;stroke-width:0.74834647;stroke-miterlimit:4;stroke-dasharray:none;stroke-opacity:1"
       d="M 4.7725523,44.446699 C 3.0221756,43.443058 1.5848386,42.616687 1.57847,42.610318 1.5721,42.603918 3.4018237,41.532569 5.6445195,40.229473 8.1870504,38.75216 9.7424598,37.865979 9.7761017,37.87554 c 0.029674,0.0084 1.4838473,0.844554 3.2314963,1.858045 l 3.177543,1.842711 -0.927543,0.525724 c -0.510149,0.289148 -0.936296,0.530085 -0.946995,0.535414 -0.0107,0.0053 -0.601324,-0.328877 -1.3125,-0.742681 -0.711176,-0.413804 -1.398517,-0.805448 -1.527423,-0.870319 -0.240813,-0.121187 -0.676686,-0.257951 -0.953125,-0.29906 -0.305166,-0.04538 -1.2116186,9.05e-4 -1.6562499,0.08458 -0.4112203,0.07738 -1.0038478,0.457485 -1.2527703,0.803507 -0.1323472,0.183973 -0.1487259,0.226316 -0.1736237,0.448856 -0.023718,0.211996 -0.018338,0.276581 0.039198,0.470573 0.055997,0.188799 0.094889,0.254038 0.2425675,0.40688 0.2308591,0.238933 0.4322569,0.375359 1.7615334,1.19325 0.614299,0.377972 1.116557,0.694253 1.11613,0.702847 -9.06e-4,0.01829 -2.553824,1.418571 -2.6048253,1.428757 -0.018953,0.0038 -1.4665862,-0.814279 -3.2169628,-1.81792 z"
       id="path895"
       inkscape:connector-curvature="0"
       transform="matrix(0.26458333,0,0,0.26458333,0,280.06665)" />
    <path
       style="opacity:1;fill:#fce94f;fill-opacity:1;fill-rule:nonzero;stroke:none;stroke-width:0.74834647;stroke-miterlimit:4;stroke-dasharray:none;stroke-opacity:1"
       d="m 12.768557,43.739319 c -1.319967,-0.744968 -1.571576,-0.862656 -2.079127,-0.972492 -0.439203,-0.09504 -1.2729831,-0.09187 -1.6874999,0.0064 -0.1632812,0.03872 -0.3327292,0.08864 -0.376551,0.110945 -0.071736,0.03651 -0.093535,0.03128 -0.21875,-0.05246 -0.3498161,-0.233948 -0.4895929,-0.460368 -0.4411593,-0.71462 0.044108,-0.231545 0.3010769,-0.477724 0.7083353,-0.678593 0.3953354,-0.194988 1.5166979,-0.26931 2.0312499,-0.134627 0.355945,0.09317 0.652312,0.246789 2.0625,1.069101 l 1.25,0.728903 0.02395,0.374795 c 0.01317,0.206138 0.0202,0.512132 0.01563,0.679988 l -0.0083,0.305192 z"
       id="path897"
       inkscape:connector-curvature="0"
       transform="matrix(0.26458333,0,0,0.26458333,0,280.06665)" />
    <path
       style="opacity:1;fill:#fce94f;fill-opacity:1;fill-rule:nonzero;stroke:none;stroke-width:0.74834647;stroke-miterlimit:4;stroke-dasharray:none;stroke-opacity:1"
       d="M 4.5097426,46.299374 1.2831801,44.457781 v -0.69962 -0.699619 l 2.7421875,1.570725 c 1.5082031,0.863898 2.955885,1.693408 3.2170706,1.843355 l 0.4748832,0.27263 0.00949,0.693743 c 0.00522,0.381558 0.00949,0.695594 0.00949,0.697857 0,0.0023 -1.4519531,-0.824602 -3.2265625,-1.837478 z"
       id="path899"
       inkscape:connector-curvature="0"
       transform="matrix(0.26458333,0,0,0.26458333,0,280.06665)" />
    <path
       style="opacity:1;fill:#fce94f;fill-opacity:1;fill-rule:nonzero;stroke:none;stroke-width:0.74834647;stroke-miterlimit:4;stroke-dasharray:none;stroke-opacity:1"
       d="m 8.2591559,47.438713 0.0084,-0.709649 1.296875,-0.7123 1.2968751,-0.7123 0.01935,0.226636 c 0.01064,0.12465 0.02119,0.43243 0.02344,0.683956 l 0.0041,0.457319 -1.3146143,0.737993 c -0.7230379,0.405897 -1.3209581,0.737994 -1.3287117,0.737994 -0.00775,0 -0.010318,-0.319342 -0.0057,-0.709649 z"
       id="path901"
       inkscape:connector-curvature="0"
       transform="matrix(0.26458333,0,0,0.26458333,0,280.06665)" />
    <path
       style="opacity:1;fill:#fce94f;fill-opacity:1;fill-rule:nonzero;stroke:none;stroke-width:0.74834647;stroke-miterlimit:4;stroke-dasharray:none;stroke-opacity:1"
       d="m 13.194334,39.233506 -3.1982222,-1.850769 0.018534,-0.372094 c 0.01019,-0.204652 0.01853,-0.910267 0.01853,-1.568034 v -1.195941 l 0.296875,0.172902 0.296875,0.172901 v 0.463411 c 0,0.254876 0.01259,0.495967 0.02798,0.535758 0.02061,0.05331 0.785247,0.508163 2.905869,1.728597 l 2.877894,1.65625 3.81e-4,1.054687 c 2.19e-4,0.580078 -0.01017,1.054331 -0.02306,1.053895 -0.01289,-4.35e-4 -1.462637,-0.833639 -3.221659,-1.851563 z"
       id="path903"
       inkscape:connector-curvature="0"
       transform="matrix(0.26458333,0,0,0.26458333,0,280.06665)" />
    <path
       style="opacity:1;fill:#fce94f;fill-opacity:1;fill-rule:nonzero;stroke:none;stroke-width:0.74834647;stroke-miterlimit:4;stroke-dasharray:none;stroke-opacity:1"
       d="m 21.092607,33.211655 c -0.252948,-0.04431 -0.462395,-0.148219 -0.542667,-0.269221 -0.144038,-0.217125 0.206961,-0.46181 0.707846,-0.493448 0.392724,-0.02481 0.808051,0.125539 0.897348,0.324832 0.07262,0.162077 -0.134138,0.341347 -0.488552,0.423598 -0.127828,0.02967 -0.441494,0.03745 -0.573975,0.01424 z"
       id="path907"
       inkscape:connector-curvature="0"
       transform="matrix(0.26458333,0,0,0.26458333,0,280.06665)" />
    <path
       style="opacity:1;fill:#fce94f;fill-opacity:1;fill-rule:nonzero;stroke:none;stroke-width:0.74834647;stroke-miterlimit:4;stroke-dasharray:none;stroke-opacity:1"
       d="m 32.516252,26.842345 c -0.375814,-0.05129 -0.693457,-0.187625 -0.858887,-0.368632 -0.07479,-0.08183 -0.106249,-0.149279 -0.111304,-0.238613 -0.006,-0.10557 0.02563,-0.180982 0.115963,-0.276745 0.197315,-0.209164 0.547509,-0.342503 0.986098,-0.375464 0.53068,-0.03988 1.071766,0.116951 1.312589,0.38045 0.07539,0.08249 0.106215,0.149083 0.111538,0.240984 0.0038,0.06518 7.7e-5,0.08321 -0.03048,0.148511 -0.100569,0.214911 -0.423267,0.396762 -0.840504,0.473651 -0.120171,0.02215 -0.563712,0.03241 -0.685009,0.01586 z"
       id="path909"
       inkscape:connector-curvature="0"
       transform="matrix(0.26458333,0,0,0.26458333,0,280.06665)" />
    <path
       style="opacity:1;fill:#fce94f;fill-opacity:1;fill-rule:nonzero;stroke:none;stroke-width:0.74834647;stroke-miterlimit:4;stroke-dasharray:none;stroke-opacity:1"
       d="m 44.133795,19.984943 c -0.15619,-0.01419 -0.366475,-0.07459 -0.476037,-0.136725 -0.125212,-0.07101 -0.203448,-0.166262 -0.203448,-0.247683 0,-0.168304 0.267672,-0.33101 0.628758,-0.382194 0.126185,-0.01789 0.397687,-0.0067 0.52029,0.02151 0.240508,0.05527 0.428551,0.164302 0.485211,0.281345 0.0283,0.05845 0.02859,0.08801 0.0015,0.147724 -0.09346,0.205857 -0.540967,0.353749 -0.956257,0.316021 z"
       id="path911"
       inkscape:connector-curvature="0"
       transform="matrix(0.26458333,0,0,0.26458333,0,280.06665)" />
    <path
       style="opacity:1;fill:#fce94f;fill-opacity:1;fill-rule:nonzero;stroke:none;stroke-width:0.74834647;stroke-miterlimit:4;stroke-dasharray:none;stroke-opacity:1"
       d="m 11.160316,34.803655 0.0063,-0.223818 18.705184,-10.788272 18.705185,-10.788272 0.0063,0.220541 c 0.0035,0.121297 0.0035,0.222451 0,0.224786 -0.04868,0.03265 -37.410262,21.578853 -37.418194,21.578853 -0.0061,0 -0.0083,-0.100718 -0.0048,-0.223818 z"
       id="path913"
       inkscape:connector-curvature="0"
       transform="matrix(0.26458333,0,0,0.26458333,0,280.06665)" />
    <path
       style="fill:none;stroke:#000000;stroke-width:0.198;stroke-linecap:butt;stroke-linejoin:miter;stroke-opacity:1;stroke-miterlimit:4;stroke-dasharray:none"
       d="m 2.9483169,291.9323 0.00835,0.5241 -0.8373055,0.46981 -1.8541823,-1.05864 0.006264,-0.52827 2.3072877,-1.34053 0.01044,-0.98973 10.0346412,-5.79338 0.293817,0.17423 0.01034,0.27167 0.315964,0.17717 1.696464,-0.97447 1.841157,1.06602 0.0044,0.54186 -0.84454,0.4769 -0.772194,-0.44589 -0.148976,-0.0626 -0.139526,-0.0279 -0.09198,-0.007 -0.111621,0.005 -0.08992,0.009 -0.07338,0.0196 -0.06615,0.0227 -0.01654,0.0145 0.677995,0.41134 0.0031,0.53124 -11.3164027,6.5366 -0.7878188,-0.44434 -0.1182888,-0.044 -0.1095539,-0.0248 -0.077515,-0.009 -0.1023193,-0.001 -0.07028,0.001 -0.072347,0.006 -0.075448,0.0155 -0.059945,0.0165 -0.044442,0.0196 -0.00723,0.0238 z"
       id="path826"
       inkscape:connector-curvature="0" />
    <path
       style="fill:none;stroke:#000000;stroke-width:0.198;stroke-linecap:butt;stroke-linejoin:miter;stroke-opacity:1;stroke-miterlimit:4;stroke-dasharray:none"
       d="m 0.2714431,291.3393 1.8390224,1.05321 0.8378514,-0.46021"
       id="path828"
       inkscape:connector-curvature="0" />
    <path
       style="fill:none;stroke:#000000;stroke-width:0.198;stroke-linecap:butt;stroke-linejoin:miter;stroke-opacity:1;stroke-miterlimit:4;stroke-dasharray:none"
       d="m 2.1104655,292.39251 0.0089,0.5337"
       id="path830"
       inkscape:connector-curvature="0" />
    <path
       style="fill:none;stroke:#000000;stroke-width:0.198;stroke-linecap:butt;stroke-linejoin:miter;stroke-opacity:1;stroke-miterlimit:4;stroke-dasharray:none"
       d="m 2.2706315,291.51489 -0.1363949,-0.0918 -0.07338,-0.0723 -0.028939,-0.0951 0.0093,-0.0982 0.065112,-0.0879 0.107487,-0.0786 0.109554,-0.0517 0.1002523,-0.0176 0.1550293,-0.0124 0.1219564,-0.006 0.1105876,0.0134 0.1271241,0.0362 0.089917,0.0413 0.7544758,0.43821 0.6401781,-0.36513 v -0.72643 l 10.0299708,-5.7845 0.02687,0.70176 0.629386,-0.37027"
       id="path832"
       inkscape:connector-curvature="0" />
    <path
       style="fill:none;stroke:#000000;stroke-width:0.198;stroke-linecap:butt;stroke-linejoin:miter;stroke-opacity:1;stroke-miterlimit:4;stroke-dasharray:none"
       d="m 2.5787308,289.99877 1.8441603,1.0685"
       id="path834"
       inkscape:connector-curvature="0" />
    <path
       style="fill:none;stroke:#000000;stroke-width:0.198;stroke-linecap:butt;stroke-linejoin:miter;stroke-opacity:1;stroke-miterlimit:4;stroke-dasharray:none"
       d="m 2.5891708,289.00904 0.292307,0.1692 0.00414,0.27698 1.5372791,0.88562"
       id="path836"
       inkscape:connector-curvature="0" />
    <path
       style="fill:none;stroke:#000000;stroke-width:0.198;stroke-linecap:butt;stroke-linejoin:miter;stroke-opacity:1;stroke-miterlimit:4;stroke-dasharray:none"
       d="m 14.452862,284.55634 -1.159335,-0.71103"
       id="path838"
       inkscape:connector-curvature="0" />
    <path
       style="fill:none;stroke:#000000;stroke-width:0.198;stroke-linecap:butt;stroke-linejoin:miter;stroke-miterlimit:4;stroke-dasharray:none;stroke-opacity:1"
       d="m 16.781554,283.93028 -0.830784,0.47922 -0.764432,-0.44141 -0.139195,-0.0526 -0.162263,-0.031 -0.14056,-0.0114 -0.133326,0.0103 -0.116788,0.0279 -0.106454,0.0393 -0.07751,0.0455 -0.06615,0.0517 -0.04548,0.0672 -0.0155,0.0589 4.27e-4,0.052 0.01063,0.0668 0.04163,0.1127"
       id="path840"
       inkscape:connector-curvature="0"
       sodipodi:nodetypes="cccccccccccccccc" />
    <path
       style="fill:none;stroke:#000000;stroke-width:0.198;stroke-linecap:butt;stroke-linejoin:miter;stroke-opacity:1;stroke-miterlimit:4;stroke-dasharray:none"
       d="m 15.941414,284.94904 0.0094,-0.53954"
       id="path844"
       inkscape:connector-curvature="0" />
    <path
       style="fill:none;stroke:#000000;stroke-width:0.198;stroke-linecap:butt;stroke-linejoin:miter;stroke-opacity:1;stroke-miterlimit:4;stroke-dasharray:none"
       d="M 12.917629,283.38989 2.8814778,289.17824"
       id="path846"
       inkscape:connector-curvature="0" />
    <path
       style="fill:none;stroke:#000000;stroke-width:0.198;stroke-linecap:butt;stroke-linejoin:miter;stroke-opacity:1;stroke-miterlimit:4;stroke-dasharray:none"
       d="M 2.8856178,289.45522 12.927969,283.66156"
       id="path848"
       inkscape:connector-curvature="0" />
    <path
       style="fill:none;stroke:#000000;stroke-width:0.198;stroke-linecap:butt;stroke-linejoin:miter;stroke-opacity:1;stroke-miterlimit:4;stroke-dasharray:none"
       d="M 3.7958193,291.95563 3.7827119,291.4324"
       id="path850"
       inkscape:connector-curvature="0" />
    <path
       style="opacity:1;fill:none;fill-opacity:1;fill-rule:nonzero;stroke:#000000;stroke-width:0.198;stroke-miterlimit:4;stroke-dasharray:none;stroke-opacity:1"
       id="path858"
       sodipodi:type="arc"
       sodipodi:cx="5.6469154"
       sodipodi:cy="288.75528"
       sodipodi:rx="0.26050827"
       sodipodi:ry="0.14493765"
       sodipodi:start="0"
       sodipodi:end="6.2801199"
       d="m 5.9074237,288.75528 a 0.26050827,0.14493765 0 0 1 -0.2603086,0.14494 0.26050827,0.14493765 0 0 1 -0.2607076,-0.14472 0.26050827,0.14493765 0 0 1 0.259909,-0.14516 0.26050827,0.14493765 0 0 1 0.261106,0.1445"
       inkscape:transform-center-x="0.17625616"
       inkscape:transform-center-y="-0.0058942353"
       sodipodi:open="true" />
    <path
       style="opacity:1;fill:none;fill-opacity:1;fill-rule:nonzero;stroke:#000000;stroke-width:0.198;stroke-miterlimit:4;stroke-dasharray:none;stroke-opacity:1"
       id="path858-0"
       sodipodi:type="arc"
       sodipodi:cx="11.715842"
       sodipodi:cy="285.25201"
       sodipodi:rx="0.26050827"
       sodipodi:ry="0.14493765"
       sodipodi:start="0"
       sodipodi:end="6.2801199"
       d="m 11.976351,285.25201 a 0.26050827,0.14493765 0 0 1 -0.260309,0.14494 0.26050827,0.14493765 0 0 1 -0.260708,-0.14471 0.26050827,0.14493765 0 0 1 0.259909,-0.14516 0.26050827,0.14493765 0 0 1 0.261106,0.14449"
       inkscape:transform-center-x="0.17625616"
       inkscape:transform-center-y="-0.0058942353"
       sodipodi:open="true" />
    <path
       style="opacity:1;fill:none;fill-opacity:1;fill-rule:nonzero;stroke:#000000;stroke-width:0.198;stroke-miterlimit:4;stroke-dasharray:none;stroke-opacity:1"
       id="path858-6"
       sodipodi:type="arc"
       sodipodi:cx="8.6805658"
       sodipodi:cy="287.00339"
       sodipodi:rx="0.3766275"
       sodipodi:ry="0.21078089"
       sodipodi:start="0"
       sodipodi:end="6.2801199"
       d="m 9.0571933,287.00339 a 0.3766275,0.21078089 0 0 1 -0.3763388,0.21078 0.3766275,0.21078089 0 0 1 -0.3769157,-0.21046 0.3766275,0.21078089 0 0 1 0.3757611,-0.2111 0.3766275,0.21078089 0 0 1 0.3774917,0.21013"
       inkscape:transform-center-x="0.25482025"
       inkscape:transform-center-y="-0.0085730132"
       sodipodi:open="true" />
  </g>
</svg>
