<?xml version="1.0" encoding="UTF-8" standalone="no"?>
<!-- Created with Inkscape (http://www.inkscape.org/) -->

<svg
   xmlns:dc="http://purl.org/dc/elements/1.1/"
   xmlns:cc="http://creativecommons.org/ns#"
   xmlns:rdf="http://www.w3.org/1999/02/22-rdf-syntax-ns#"
   xmlns:svg="http://www.w3.org/2000/svg"
   xmlns="http://www.w3.org/2000/svg"
   xmlns:sodipodi="http://sodipodi.sourceforge.net/DTD/sodipodi-0.dtd"
   xmlns:inkscape="http://www.inkscape.org/namespaces/inkscape"
   width="64"
   height="64"
   viewBox="0 0 16.933333 16.933334"
   version="1.1"
   id="svg8"
   inkscape:version="0.92.4 (5da689c313, 2019-01-14)"
   sodipodi:docname="NemaMotor_cmd.svg">
  <defs
     id="defs2" />
  <sodipodi:namedview
     id="base"
     pagecolor="#ffffff"
     bordercolor="#666666"
     borderopacity="1.0"
     inkscape:pageopacity="0.0"
     inkscape:pageshadow="2"
     inkscape:zoom="16"
     inkscape:cx="9.919894"
     inkscape:cy="33.856913"
     inkscape:document-units="mm"
     inkscape:current-layer="layer1"
     showgrid="false"
     units="px"
     inkscape:window-width="3840"
     inkscape:window-height="2055"
     inkscape:window-x="-13"
     inkscape:window-y="-13"
     inkscape:window-maximized="1" />
  <metadata
     id="metadata5">
    <rdf:RDF>
      <cc:Work
         rdf:about="">
        <dc:format>image/svg+xml</dc:format>
        <dc:type
           rdf:resource="http://purl.org/dc/dcmitype/StillImage" />
        <dc:title />
      </cc:Work>
    </rdf:RDF>
  </metadata>
  <g
     inkscape:label="Capa 1"
     inkscape:groupmode="layer"
     id="layer1"
     transform="translate(0,-280.06665)">
    <path
       style="fill:none;stroke:#000000;stroke-width:0.1984375;stroke-linecap:butt;stroke-linejoin:miter;stroke-opacity:1;stroke-miterlimit:4;stroke-dasharray:none"
       d="m 1.3317755,286.39893 6.9890765,4.01745 0.3299108,0.008 7.0012092,-4.03619 -0.0042,-0.21298 -5.316158,-3.0736"
       id="path4533"
       inkscape:connector-curvature="0" />
    <path
       style="fill:none;stroke:#000000;stroke-width:0.1984375;stroke-linecap:butt;stroke-linejoin:miter;stroke-opacity:1;stroke-miterlimit:4;stroke-dasharray:none"
       d="m 8.3208518,290.41638 -0.014616,6.39986"
       id="path4537"
       inkscape:connector-curvature="0" />
    <path
       style="fill:none;stroke:#000000;stroke-width:0.1984375;stroke-linecap:butt;stroke-linejoin:miter;stroke-opacity:1;stroke-miterlimit:4;stroke-dasharray:none"
       d="m 8.6570269,296.82424 -0.00626,-6.39986"
       id="path4539"
       inkscape:connector-curvature="0" />
    <path
       style="fill:none;stroke:#000000;stroke-width:0.1984375;stroke-linecap:butt;stroke-linejoin:miter;stroke-opacity:1;stroke-miterlimit:4;stroke-dasharray:none"
       d="m 15.651972,286.38819 0.003,6.40238 -6.9979791,4.03367 -0.3507912,-0.008 -6.9715073,-4.02124 -0.00295,-6.39607 -0.00169,-0.21919 5.3289415,-3.07452"
       id="path4543"
       inkscape:connector-curvature="0" />
    <path
       style="fill:none;stroke:#000000;stroke-width:0.1984375;stroke-linecap:butt;stroke-linejoin:miter;stroke-opacity:1;stroke-miterlimit:4;stroke-dasharray:none"
       d="m 6.6538575,284.75887 -0.08475,0.0351 -0.3906737,0.25838 -0.1411071,0.17959 -0.1193421,0.18215 -0.06916,0.14972 -0.046595,0.21201 0.00573,0.19435 0.027345,0.16325 c 0.061244,0.12646 0.083264,0.21726 0.1984375,0.39274 l 0.3389974,0.30179 0.4134114,0.26459 0.4940266,0.18397 0.7338055,0.14469 0.6366536,0.0124 0.6573242,-0.0599 0.5973794,-0.1633 0.496094,-0.22944 0.396875,-0.27699 0.279053,-0.35347 0.117822,-0.33899 -0.03101,-0.39688 -0.210839,-0.38654 -0.324529,-0.30799 -0.285253,-0.16536"
       id="path825"
       inkscape:connector-curvature="0"
       sodipodi:nodetypes="ccccccccccccccccccccccccc" />
    <path
       style="fill:none;stroke:#000000;stroke-width:0.1984375;stroke-linecap:butt;stroke-linejoin:miter;stroke-opacity:1;stroke-miterlimit:4;stroke-dasharray:none"
       d="m 5.8439686,286.63347 -0.00866,-0.50005"
       id="path827"
       inkscape:connector-curvature="0"
       sodipodi:nodetypes="cc" />
    <path
       style="fill:none;stroke:#000000;stroke-width:0.1984375;stroke-linecap:butt;stroke-linejoin:miter;stroke-opacity:1;stroke-miterlimit:4;stroke-dasharray:none"
       d="m 5.8249674,286.55308 0.2108398,0.37 0.3265951,0.31626 0.4609539,0.27492 0.5436359,0.1943 0.6056479,0.10542 0.6986654,0.006 0.6573242,-0.0579 0.5519041,-0.13642 0.5250323,-0.23565 0.388607,-0.28112 0.185976,-0.17856 0.09928,-0.16457 0.05561,-0.21174 -0.01427,-0.32982"
       id="path829"
       inkscape:connector-curvature="0"
       sodipodi:nodetypes="ccccccccccccccc" />
    <path
       style="fill:none;stroke:#000000;stroke-width:0.1984375;stroke-linecap:butt;stroke-linejoin:miter;stroke-opacity:1;stroke-miterlimit:4;stroke-dasharray:none"
       d="m 8.2578939,285.72109 -0.015502,0.15916 0.016536,0.0506 0.048576,0.0465 0.047542,0.0217 0.079582,0.0176 0.093018,10e-4 0.094051,-0.0145 0.056844,-0.031 0.051677,-0.0424 0.022738,-0.0579 -0.00723,-0.1447 z"
       id="path831"
       inkscape:connector-curvature="0" />
    <path
       style="fill:none;stroke:#000000;stroke-width:0.1984375;stroke-linecap:butt;stroke-linejoin:miter;stroke-opacity:1;stroke-miterlimit:4;stroke-dasharray:none"
       d="m 6.6589959,283.10522 -0.00514,1.65365 0.067179,0.20567 0.088883,0.13229 0.1436605,0.17467 0.107487,0.0703 0.1560629,0.10542 0.1529622,0.063 0.2253091,0.10128 0.1570964,0.0372 0.2242759,0.0486 0.1436603,0.0196 0.1374595,0.004 0.5715412,-0.007 0.3451985,-0.0517 0.2780194,-0.0785 0.2201415,-0.0992 0.181901,-0.10232 0.1622647,-0.11472 0.134359,-0.13126 0.100252,-0.15503 0.05891,-0.12919 0.02113,-1.75028"
       id="path833"
       inkscape:connector-curvature="0" />
    <path
       style="fill:none;stroke:#000000;stroke-width:0.1984375;stroke-linecap:butt;stroke-linejoin:miter;stroke-opacity:1;stroke-miterlimit:4;stroke-dasharray:none"
       d="m 6.9939005,282.29891 -0.00731,0.86528 0.024865,0.17048 0.073381,0.13022 0.080615,0.11782 0.1498619,0.13126 0.1581298,0.0961 0.1705322,0.0765 0.2408121,0.0837 0.2728515,0.0465 0.3296957,0.0196 0.2852539,-0.007 0.3255616,-0.0558 0.2325439,-0.0765 0.2304769,-0.11162 0.1343586,-0.0951 0.1477947,-0.13746 0.1147217,-0.17363 0.03204,-0.14573 0.0031,-0.13952 -0.013435,-0.79995"
       id="path835"
       inkscape:connector-curvature="0" />
    <path
       style="fill:none;stroke:#000000;stroke-width:0.1984375;stroke-linecap:butt;stroke-linejoin:miter;stroke-opacity:1;stroke-miterlimit:4;stroke-dasharray:none"
       d="m 6.9690836,282.65667 -0.094561,0.0515 -0.067703,0.0581 -0.046509,0.094 -0.058911,0.10128 -0.021704,0.0982 0.00103,0.0786 -0.00723,0.1726 0.056844,0.17466 c 0,0 0.094051,0.10956 0.094051,0.12196 0,0.0124 0.197404,0.20774 0.197404,0.20774 l 0.1870686,0.12712 0.267684,0.11162 0.2645833,0.0858 0.2769857,0.0506 0.1839682,0.03 0.1829345,0.0134 0.2697512,-0.003 0.236678,-0.0165 0.1984375,-0.0331 0.1612305,-0.0362 0.2532144,-0.0806 0.230477,-0.10129 0.1901692,-0.12092 0.1457272,-0.11886 0.129191,-0.15089 c 0,0 0.07441,-0.13953 0.07855,-0.13953 0.0041,0 0.04031,-0.20464 0.04031,-0.20464 l 0.01286,-0.12651 -0.02526,-0.136 -0.05994,-0.10646 -0.06615,-0.11265 -0.0682,-0.0686 -0.1395369,-0.0761"
       id="path837"
       inkscape:connector-curvature="0"
       sodipodi:nodetypes="cccccccccsccccccccccccccccsccccccc" />
    <path
       style="fill:none;stroke:#000000;stroke-width:0.1984375;stroke-linecap:butt;stroke-linejoin:miter;stroke-opacity:1;stroke-miterlimit:4;stroke-dasharray:none"
       d="m 8.5100749,280.42012 -0.3389974,0.009 -0.1498618,0.031 -0.183968,0.0351 -0.1798341,0.0372 -0.1560627,0.0558 -0.1405598,0.0641 c 0,0 -0.1581301,0.0703 -0.1632977,0.0744 -0.00517,0.004 -0.1539957,0.10439 -0.1539957,0.10439 0,0 -0.1054201,0.0899 -0.1116211,0.0951 -0.0062,0.005 -0.083716,0.10128 -0.083716,0.10128 l -0.08475,0.10335 -0.058911,0.11163 -0.036174,0.11368 -0.011369,0.11369 0.022738,0.10749 c 0,0 0.041341,0.15193 0.042375,0.15916 0.00103,0.007 0.062012,0.11059 0.065112,0.11472 0.0031,0.004 0.1054198,0.1323 0.1054198,0.1323 l 0.1508953,0.14262 0.1788004,0.12093 0.2170411,0.0992 0.2356445,0.0786 0.289388,0.061 0.2129068,0.03 0.1467612,0.006 0.1798339,0.002 0.2253093,-0.003 c 0,0 0.2098061,-0.0134 0.2160074,-0.0134 0.0062,0 0.2170409,-0.0382 0.2222088,-0.0413 0.00517,-0.003 0.2077392,-0.0568 0.2077392,-0.0568 l 0.2284095,-0.0909 0.1943033,-0.0941 0.1519288,-0.10852 0.1043871,-0.0796 0.08888,-0.0951 0.07545,-0.10439 0.06615,-0.13022 0.02584,-0.10542 0.0155,-0.14573 -0.01137,-0.12092 -0.04548,-0.12609 -0.06925,-0.10439 -0.08578,-0.10438 -0.09612,-0.10646 -0.1281579,-0.0971 -0.1384927,-0.0889 -0.1240234,-0.0579 -0.1705322,-0.0693 -0.160197,-0.0537 -0.2015381,-0.0455 -0.1539957,-0.031 -0.1653646,-0.0165 z"
       id="path839"
       inkscape:connector-curvature="0" />
    <path
       style="fill:none;stroke:#000000;stroke-width:0.1984375;stroke-linecap:butt;stroke-linejoin:miter;stroke-miterlimit:4;stroke-dasharray:none;stroke-opacity:1"
       d="m 6.7324056,281.73993 0.028939,0.29146 0.054777,0.0889 0.096118,0.10232 0.1240234,0.10335 0.1850017,0.10542 0.1901693,0.10336 0.2025716,0.063 0.2191081,0.0682 0.2129067,0.0331 0.2253094,0.031 0.2408121,0.006 0.1870686,-0.0103 0.2222088,-0.0186 0.1963705,-0.0372 0.1984375,-0.0517 0.1612305,-0.0475 0.2005044,-0.0879 0.1550294,-0.0786 0.1860354,-0.13436 0.119889,-0.11885 0.06925,-0.10749 0.01033,-0.20679"
       id="path841"
       inkscape:connector-curvature="0"
       sodipodi:nodetypes="ccccccccccccccccccccccc" />
    <path
       style="fill:none;stroke:#000000;stroke-width:0.1984375;stroke-linecap:butt;stroke-linejoin:miter;stroke-miterlimit:4;stroke-dasharray:none;stroke-opacity:1"
       d="m 3.1491618,286.06422 c -0.034451,-0.007 -0.068902,-0.005 -0.1033529,0.002 -0.062721,0.007 -0.09427,0.0173 -0.1302245,0.0351 -0.059454,0.0204 -0.085952,0.0598 -0.1198895,0.0879 -0.030408,0.0253 -0.034641,0.0624 -0.03514,0.10129 7.141e-4,0.0327 0.020646,0.071 0.059945,0.11472 0.045555,0.0311 0.063834,0.039 0.099219,0.0506 0.076062,0.025 0.1353757,0.0237 0.1963705,0.0362 0.1553985,-0.008 0.106109,-0.0114 0.1891358,-0.0341 0.063743,-0.0281 0.1037949,-0.0518 0.1374592,-0.0744 0.044394,-0.0559 0.049219,-0.0854 0.044442,-0.10852 0.00271,-0.0397 -0.017535,-0.0621 -0.036173,-0.0858 -0.051096,-0.0547 -0.076176,-0.0573 -0.1095542,-0.0765 -0.06801,-0.0338 -0.129442,-0.0381 -0.1922372,-0.0485 z"
       id="path843"
       inkscape:connector-curvature="0"
       sodipodi:nodetypes="ccccccccccccccc" />
    <path
       style="fill:none;stroke:#000000;stroke-width:0.1984375;stroke-linecap:butt;stroke-linejoin:miter;stroke-miterlimit:4;stroke-dasharray:none;stroke-opacity:1"
       d="m 8.5284293,289.17084 c -0.034451,-0.007 -0.068902,-0.005 -0.1033529,0.002 -0.062721,0.007 -0.09427,0.0173 -0.1302245,0.0351 -0.059454,0.0204 -0.085952,0.0598 -0.1198895,0.0879 -0.030408,0.0253 -0.034641,0.0624 -0.03514,0.10129 7.141e-4,0.0327 0.020646,0.071 0.059945,0.11472 0.045555,0.0311 0.063834,0.039 0.099219,0.0506 0.076062,0.025 0.1353757,0.0237 0.1963705,0.0362 0.1553985,-0.008 0.106109,-0.0114 0.1891358,-0.0341 0.063743,-0.0281 0.1037949,-0.0518 0.1374592,-0.0744 0.044394,-0.0559 0.049219,-0.0854 0.044442,-0.10852 0.00271,-0.0397 -0.017535,-0.0621 -0.036173,-0.0858 -0.051096,-0.0547 -0.076176,-0.0573 -0.1095542,-0.0765 -0.06801,-0.0338 -0.129442,-0.0381 -0.1922372,-0.0485 z"
       id="path843-1"
       inkscape:connector-curvature="0"
       sodipodi:nodetypes="ccccccccccccccc" />
    <path
       style="fill:none;stroke:#000000;stroke-width:0.1984375;stroke-linecap:butt;stroke-linejoin:miter;stroke-miterlimit:4;stroke-dasharray:none;stroke-opacity:1"
       d="m 13.904305,286.07803 c -0.03445,-0.007 -0.0689,-0.005 -0.103353,0.002 -0.06272,0.007 -0.09427,0.0173 -0.130224,0.0351 -0.05945,0.0204 -0.08595,0.0598 -0.11989,0.0879 -0.03041,0.0253 -0.03464,0.0624 -0.03514,0.10129 7.14e-4,0.0327 0.02065,0.071 0.05995,0.11472 0.04555,0.0311 0.06383,0.039 0.09922,0.0506 0.07606,0.025 0.135376,0.0237 0.196371,0.0362 0.155398,-0.008 0.106109,-0.0114 0.189135,-0.0341 0.06374,-0.0281 0.103795,-0.0518 0.13746,-0.0744 0.04439,-0.0559 0.04922,-0.0854 0.04444,-0.10852 0.0027,-0.0397 -0.01754,-0.0621 -0.03617,-0.0858 -0.0511,-0.0547 -0.07618,-0.0573 -0.109555,-0.0765 -0.06801,-0.0338 -0.129442,-0.0381 -0.192237,-0.0485 z"
       id="path843-3"
       inkscape:connector-curvature="0"
       sodipodi:nodetypes="ccccccccccccccc" />
    <path
       style="opacity:1;fill:#00cd64;fill-opacity:1;fill-rule:nonzero;stroke:#000000;stroke-width:0.75000001;stroke-miterlimit:4;stroke-dasharray:none;stroke-opacity:1"
       d="m 18.203252,55.458213 -12.9267958,-7.461446 -0.01113,-11.851175 -0.01113,-11.851175 0.1437123,0.08784 c 0.079042,0.04831 5.9110525,3.402387 12.9600235,7.4535 7.04897,4.051114 12.832108,7.381047 12.851417,7.399851 0.0399,0.03885 -0.01337,23.693925 -0.05334,23.68794 -0.01428,-0.0021 -5.84302,-3.361538 -12.952758,-7.465334 z"
       id="path866"
       inkscape:connector-curvature="0"
       transform="matrix(0.26458333,0,0,0.26458333,0,280.06665)" />
    <path
       style="opacity:1;fill:#00cd64;fill-opacity:1;fill-rule:nonzero;stroke:#000000;stroke-width:0.75000001;stroke-miterlimit:4;stroke-dasharray:none;stroke-opacity:1"
       d="M 30.157776,62.321026 C 29.623026,62.013962 24.412533,59.008839 18.578902,55.642975 12.745272,52.27711 7.3707076,49.176117 6.635427,48.75188 L 5.2985532,47.980538 V 36.165675 24.350811 l 0.364602,0.212985 c 0.200531,0.117143 5.4657148,3.146472 11.7004078,6.731843 6.234693,3.585371 11.897624,6.843697 12.584291,7.240723 l 1.248485,0.721868 -0.0064,7.337845 c -0.0035,4.035815 -0.01846,9.350561 -0.03315,11.810547 l -0.0267,4.472703 z"
       id="path868"
       inkscape:connector-curvature="0"
       transform="matrix(0.26458333,0,0,0.26458333,0,280.06665)" />
    <path
       style="opacity:1;fill:#fce94f;fill-opacity:1;fill-rule:nonzero;stroke:#000000;stroke-width:0.75000001;stroke-miterlimit:4;stroke-dasharray:none;stroke-opacity:1"
       d="M 30.842786,62.6875 C 30.709098,62.607184 24.916899,59.264388 17.971233,55.259065 L 5.3427474,47.976659 V 36.201801 c 0,-7.470504 0.015447,-11.769473 0.042255,-11.760126 0.02324,0.0081 5.8303556,3.345368 12.9046996,7.416146 l 12.862443,7.401416 -0.0063,9.348176 c -0.0035,5.141497 -0.01837,10.445713 -0.03315,11.787146 l -0.02685,2.43897 z"
       id="path870"
       inkscape:connector-curvature="0"
       transform="matrix(0.26458333,0,0,0.26458333,0,280.06665)" />
    <path
       style="opacity:1;fill:#fce94f;fill-opacity:1;fill-rule:nonzero;stroke:#000000;stroke-width:0.75000001;stroke-miterlimit:4;stroke-dasharray:none;stroke-opacity:1"
       d="m 32.919997,51.117953 8.5e-5,-11.856499 12.801759,-7.380427 c 7.040968,-4.059235 12.897763,-7.435519 13.0151,-7.502855 l 0.213339,-0.122428 v 11.858482 11.858482 l -12.911428,7.444218 c -7.101286,4.094319 -12.958119,7.469711 -13.015185,7.500871 l -0.103755,0.05665 z"
       id="path872"
       inkscape:connector-curvature="0"
       transform="matrix(0.26458333,0,0,0.26458333,0,280.06665)" />
    <path
       style="opacity:1;fill:#fce94f;fill-opacity:1;fill-rule:nonzero;stroke:#000000;stroke-width:0.75000001;stroke-miterlimit:4;stroke-dasharray:none;stroke-opacity:1"
       d="m 31.608895,58.920548 c 0.01616,-2.301014 0.02939,-7.650719 0.02939,-11.888232 v -7.70457 l 0.364602,6.76e-4 c 0.200531,3.72e-4 0.386613,0.01529 0.413516,0.03315 0.03542,0.02351 0.05763,3.302355 0.08051,11.887556 l 0.0316,11.855087 H 32.054012 31.57951 Z"
       id="path874"
       inkscape:connector-curvature="0"
       transform="matrix(0.26458333,0,0,0.26458333,0,280.06665)" />
    <path
       style="opacity:1;fill:#fce94f;fill-opacity:1;fill-rule:nonzero;stroke:#000000;stroke-width:0.75000001;stroke-miterlimit:4;stroke-dasharray:none;stroke-opacity:1"
       d="M 18.402126,31.376966 5.2764562,23.82882 5.2637452,23.523894 5.2510342,23.218969 15.09695,17.538697 l 9.845914,-5.680272 0.01388,1.680699 c 0.0076,0.924385 4.46e-4,2.220891 -0.01597,2.881125 -0.02634,1.059098 -0.03838,1.202699 -0.102269,1.219747 -0.03983,0.01063 -0.422852,0.249114 -0.851164,0.529972 -0.722381,0.473687 -0.799449,0.537346 -1.064732,0.879476 -0.674968,0.870496 -0.952622,1.385643 -1.097733,2.036688 -0.09493,0.425895 -0.113152,1.156607 -0.03721,1.492022 0.02476,0.10938 0.05434,0.654535 0.06572,1.211456 0.016,0.782758 0.03437,1.023494 0.08096,1.06066 0.03315,0.02644 0.194447,0.286726 0.358445,0.578408 0.268699,0.477899 0.359823,0.592856 0.921702,1.162761 0.618845,0.627685 0.630406,0.636576 1.540603,1.184777 0.889258,0.53559 0.948919,0.563764 1.966641,0.928709 1.002939,0.359644 1.099623,0.385228 2.176513,0.575938 l 1.126951,0.199575 1.347923,0.02244 c 1.213976,0.02021 1.475281,0.01088 2.629553,-0.0938 1.197182,-0.108578 1.348608,-0.132403 2.298097,-0.361577 0.970666,-0.234284 1.064258,-0.266513 2.077126,-0.715246 1.018705,-0.45132 1.090142,-0.491266 1.805947,-1.009853 1.298196,-0.940515 1.768201,-1.490225 1.996682,-2.33528 0.112888,-0.417528 0.11773,-0.47526 0.08895,-1.06066 -0.03038,-0.617971 -0.03018,-0.61982 0.109944,-1.016067 l 0.140375,-0.39697 -0.05569,-0.796273 -0.05569,-0.796273 -0.424272,-0.776505 -0.424272,-0.776505 -0.638727,-0.603642 C 40.377543,18.250481 40.201485,18.11399 39.738953,17.847708 l -0.543467,-0.312876 0.0062,-1.179598 c 0.0034,-0.648778 0.01834,-1.930623 0.03314,-2.848544 l 0.02691,-1.668946 9.845416,5.690616 9.845417,5.690616 -0.01222,0.28117 -0.01221,0.28117 -13.13889,7.574345 -13.138891,7.574344 -0.561303,-0.0024 -0.561304,-0.0024 z m 14.228212,4.789642 c 0.431792,-0.112468 0.850886,-0.358209 0.976527,-0.5726 0.351315,-0.599473 -0.153501,-1.189179 -1.166242,-1.362358 -0.592545,-0.101326 -1.139667,0.02629 -1.541929,0.359654 -0.252278,0.20907 -0.321073,0.345924 -0.321073,0.638709 0,0.486145 0.370329,0.81104 1.068678,0.937564 0.437902,0.07934 0.676622,0.0791 0.984039,-9.69e-4 z M 53.416136,24.300622 c 0.272103,-0.134734 0.394225,-0.224106 0.476859,-0.348977 0.230596,-0.348457 0.18372,-0.676749 -0.139128,-0.974339 -0.241622,-0.222723 -0.48256,-0.329885 -0.958523,-0.426327 -0.634668,-0.1286 -1.202337,0.0134 -1.621692,0.405653 -0.348723,0.32619 -0.390031,0.670999 -0.12719,1.061702 0.223145,0.331707 1.026763,0.567477 1.692539,0.496568 0.230398,-0.02454 0.406467,-0.08026 0.677135,-0.21428 z m -40.995928,0.09092 c 0.4037,-0.12499 0.744632,-0.34277 0.867054,-0.553854 0.145495,-0.250866 0.11999,-0.57916 -0.06251,-0.804649 -0.407506,-0.503488 -1.479647,-0.721749 -2.207555,-0.449404 -0.352049,0.131719 -0.721738,0.487022 -0.767463,0.737599 -0.102523,0.561847 0.308084,0.979464 1.092968,1.111625 0.384069,0.06467 0.78482,0.0493 1.07751,-0.04132 z"
       id="path876"
       inkscape:connector-curvature="0"
       transform="matrix(0.26458333,0,0,0.26458333,0,280.06665)" />
    <path
       style="opacity:1;fill:#fce94f;fill-opacity:1;fill-rule:nonzero;stroke:#000000;stroke-width:0.75000001;stroke-miterlimit:4;stroke-dasharray:none;stroke-opacity:1"
       d="m 30.35665,27.570041 c -0.182301,-0.01864 -0.883572,-0.143852 -1.55838,-0.278254 -1.135795,-0.226219 -1.294995,-0.269878 -2.143417,-0.587815 -0.861301,-0.322762 -0.96307,-0.373344 -1.689892,-0.839913 -0.565115,-0.362765 -0.937787,-0.643284 -1.383807,-1.041628 -0.670106,-0.598476 -0.774965,-0.73816 -1.103983,-1.470629 -0.341608,-0.760497 -0.417012,-1.40398 -0.25156,-2.146761 0.127069,-0.570465 0.408646,-1.096853 0.981453,-1.834752 0.249703,-0.321671 0.349769,-0.405487 1.00248,-0.839689 0.398798,-0.265292 0.744984,-0.482349 0.769303,-0.482349 0.02432,0 0.08828,0.13063 0.142137,0.290289 0.09796,0.290412 0.372061,0.712909 0.786497,1.212313 0.264912,0.319224 1.121902,0.909255 1.620742,1.115868 0.182301,0.07551 0.504108,0.216732 0.715126,0.313836 0.513034,0.23608 2.024201,0.581131 2.54509,0.581131 h 0.199241 l -0.02612,0.220507 c -0.04579,0.386637 0.09428,0.61336 0.49994,0.809206 0.293207,0.141555 0.99727,0.137992 1.281631,-0.0065 0.406796,-0.206685 0.53033,-0.388898 0.53033,-0.782239 0,-0.132543 0.01778,-0.240988 0.03952,-0.240988 0.02173,0 0.360011,-0.04942 0.751727,-0.10983 1.155291,-0.178156 2.037424,-0.472539 2.932097,-0.978491 1.071987,-0.606224 1.672413,-1.214616 2.071571,-2.099052 l 0.152024,-0.336848 0.411147,0.237654 c 0.304991,0.176294 0.564919,0.383078 1.006713,0.800887 l 0.595566,0.563233 0.378356,0.698083 0.378357,0.698083 0.0556,0.694033 0.0556,0.694034 -0.194646,0.571988 c -0.223395,0.656475 -0.204438,0.623656 -0.789167,1.366221 -0.433938,0.551073 -0.455548,0.570694 -1.193243,1.083461 -0.647729,0.450232 -0.879241,0.581003 -1.679378,0.948605 -0.832742,0.382582 -1.037033,0.456205 -1.988738,0.71671 -1.035782,0.28352 -1.087094,0.292844 -2.187612,0.397538 -1.166641,0.110984 -2.943171,0.140675 -3.71231,0.06204 z"
       id="path878"
       inkscape:connector-curvature="0"
       transform="matrix(0.26458333,0,0,0.26458333,0,280.06665)" />
    <path
       style="opacity:1;fill:#fce94f;fill-opacity:1;fill-rule:nonzero;stroke:#000000;stroke-width:0.75000001;stroke-miterlimit:4;stroke-dasharray:none;stroke-opacity:1"
       d="M 28.98663,28.875295 C 27.978811,28.693345 27.833741,28.654738 26.890542,28.317473 25.938058,27.976888 25.827163,27.925219 25.043719,27.456994 24.282777,27.002216 24.157484,26.908958 23.604274,26.385575 23.020881,25.833636 22.985302,25.789519 22.648677,25.20064 22.312052,24.611761 22.298329,24.576648 22.28007,24.257532 l -0.01896,-0.331456 0.19183,0.316762 c 0.297729,0.491629 1.252308,1.317745 2.290205,1.982 0.772638,0.494489 0.85039,0.533033 1.749501,0.867282 0.892799,0.331903 1.012863,0.364134 2.347226,0.630119 l 1.406296,0.280323 1.193243,0.02838 c 1.065968,0.02535 1.327588,0.01639 2.452777,-0.08403 l 1.259534,-0.112403 1.171145,-0.315504 c 1.101954,-0.296863 1.228598,-0.341993 2.143585,-0.763869 0.857549,-0.395393 1.062325,-0.511332 1.733247,-0.981324 0.742901,-0.520413 0.771115,-0.546018 1.198717,-1.087844 l 0.437908,-0.554886 0.02331,0.173773 c 0.03361,0.250543 -0.151258,0.877919 -0.364406,1.2367 -0.229751,0.386729 -0.674876,0.796303 -1.569839,1.444457 -0.651621,0.471921 -0.781878,0.54556 -1.679378,0.949416 -0.911085,0.409968 -1.036211,0.453412 -1.967336,0.683064 -1.407522,0.34715 -2.090434,0.414502 -4.419417,0.435864 l -1.789864,0.01642 z"
       id="path880"
       inkscape:connector-curvature="0"
       transform="matrix(0.26458333,0,0,0.26458333,0,280.06665)" />
    <path
       style="opacity:1;fill:#fce94f;fill-opacity:1;fill-rule:nonzero;stroke:#000000;stroke-width:0.75000001;stroke-miterlimit:4;stroke-dasharray:none;stroke-opacity:1"
       d="m 30.246164,21.080347 c -1.034128,-0.194548 -1.434561,-0.310783 -2.154289,-0.625332 -0.947091,-0.413916 -1.566999,-0.817964 -1.92595,-1.25531 -0.410165,-0.499745 -0.580439,-0.783039 -0.696258,-1.158399 l -0.106947,-0.346608 0.0024,-2.253903 0.0024,-2.253903 0.119167,0.152976 c 0.28212,0.362163 0.941679,1.000718 1.268215,1.227827 0.407611,0.283498 0.890492,0.502829 1.776088,0.806725 0.571205,0.196011 0.829783,0.254598 2.17929,0.493767 0.226955,0.04022 0.714629,0.05746 1.546796,0.05466 1.045538,-0.0035 1.292523,-0.01773 1.767767,-0.101741 2.124064,-0.375505 3.645706,-1.152696 4.638308,-2.369053 l 0.144258,-0.176777 -0.02415,2.393593 -0.02415,2.393593 -0.115688,0.228299 c -0.4601,0.907964 -1.029513,1.411246 -2.298378,2.031448 -1.27585,0.623616 -2.136861,0.789312 -4.264737,0.820725 -1.232945,0.0182 -1.442648,0.01104 -1.834059,-0.06259 z"
       id="path882"
       inkscape:connector-curvature="0"
       transform="matrix(0.26458333,0,0,0.26458333,0,280.06665)" />
    <path
       style="opacity:1;fill:#fce94f;fill-opacity:1;fill-rule:nonzero;stroke:#000000;stroke-width:0.75000001;stroke-miterlimit:4;stroke-dasharray:none;stroke-opacity:1"
       d="m 31.328922,14.755761 c -0.804447,-0.05996 -1.468155,-0.192508 -2.062329,-0.41185 -1.224664,-0.452092 -1.888277,-0.925663 -2.333127,-1.66498 -0.313346,-0.520763 -0.332584,-0.675435 -0.30099,-2.419903 0.0142,-0.7838943 0.03123,-1.4252623 0.03785,-1.4252623 0.0066,0 0.296819,0.1573433 0.644889,0.3496517 0.541472,0.2991619 0.750363,0.3857768 1.446616,0.5998258 2.175572,0.6688368 4.325869,0.6762898 6.63227,0.02299 0.625009,-0.1770374 1.612254,-0.6055887 1.958825,-0.8503032 0.06824,-0.048187 0.131216,-0.080471 0.139939,-0.071742 0.0087,0.00873 0.03031,0.6640218 0.04798,1.456208 0.03908,1.752638 0.02133,1.896625 -0.293887,2.383756 -0.346276,0.535126 -0.872784,0.967254 -1.653293,1.35693 -1.111074,0.554712 -2.63657,0.796046 -4.264737,0.67468 z"
       id="path884"
       inkscape:connector-curvature="0"
       transform="matrix(0.26458333,0,0,0.26458333,0,280.06665)" />
    <path
       style="opacity:1;fill:#fce94f;fill-opacity:1;fill-rule:nonzero;stroke:#000000;stroke-width:0.75000001;stroke-miterlimit:4;stroke-dasharray:none;stroke-opacity:1"
       d="M 31.373116,9.0505607 C 30.972054,9.036111 30.509005,9.0008197 30.344119,8.9721363 28.376369,8.6298268 27.153725,8.0849383 26.288128,7.1645257 25.789927,6.6347754 25.61657,6.3316176 25.476243,5.7447469 c -0.0938,-0.3922677 -0.105606,-0.5097157 -0.07162,-0.7122368 0.0814,-0.485068 0.238661,-0.7837836 0.709279,-1.347235 0.409163,-0.4898743 0.906488,-0.8580687 1.613196,-1.1943303 0.844269,-0.4017146 1.223578,-0.5249242 2.253903,-0.7321264 l 0.928078,-0.1866399 1.06066,-5.913e-4 c 1.182702,-6.593e-4 1.656363,0.043377 2.510421,0.2333952 1.257668,0.2798163 2.348317,0.7606079 3.096298,1.3649432 0.415384,0.3356115 0.977257,1.0665404 1.131188,1.4715391 0.168743,0.4439711 0.09717,1.2233566 -0.158815,1.7293226 -0.467922,0.9248784 -1.620917,1.7467451 -3.184519,2.269959 -0.796341,0.2664723 -1.358602,0.3680871 -2.179233,0.3938417 -0.401062,0.012587 -0.808753,0.027242 -0.905981,0.032566 -0.09723,0.00532 -0.504918,-0.00214 -0.90598,-0.016593 z"
       id="path886"
       inkscape:connector-curvature="0"
       transform="matrix(0.26458333,0,0,0.26458333,0,280.06665)" />
    <path
       style="opacity:1;fill:#f7e44a;fill-opacity:1;fill-rule:nonzero;stroke:#000000;stroke-width:0.75000001;stroke-miterlimit:4;stroke-dasharray:none;stroke-opacity:1"
       d="m 31.663971,9.8843363 c -0.36616,-0.010187 -0.386788,-0.011987 -0.816466,-0.071254 -0.242448,-0.033442 -0.61285,-0.087804 -0.823116,-0.1208038 l -0.382302,-0.06 L 28.863165,9.3895663 28.084243,9.1468546 27.680971,8.9265214 C 27.459171,8.8053382 27.147808,8.6316704 26.989053,8.5405929 26.710413,8.3807387 26.69241,8.3682994 26.469771,8.1817953 26.168519,7.929438 25.950987,7.6981478 25.828753,7.5002368 c -0.0811,-0.1313123 -0.0845,-0.1395795 -0.0944,-0.2296604 -0.0056,-0.051395 -0.0086,-0.098406 -0.0066,-0.104469 0.002,-0.00606 0.04227,0.037812 0.08945,0.0975 0.0539,0.06819 0.195462,0.2124868 0.380908,0.3882517 l 0.295135,0.279728 0.353554,0.2392449 0.353553,0.239245 0.425369,0.1946284 c 0.407667,0.1865287 0.444221,0.2009022 0.878359,0.34538 l 0.452991,0.1507516 0.552427,0.1163344 c 0.452375,0.095265 0.629467,0.127142 0.977796,0.1760078 0.398356,0.055884 0.448522,0.06053 0.789971,0.073159 0.241735,0.00894 0.610335,0.011392 1.093805,0.00727 0.876033,-0.00746 1.372118,-0.035332 1.701476,-0.095584 0.370505,-0.067779 0.595506,-0.1126539 0.61372,-0.1224017 0.01019,-0.00545 0.03289,-0.012458 0.05043,-0.015566 0.01755,-0.00311 0.197416,-0.050223 0.399708,-0.1047003 0.346807,-0.093396 0.3919,-0.1086343 0.789971,-0.2669555 0.305551,-0.1215246 0.530691,-0.2203402 0.815037,-0.3577254 L 37.13429,8.3208591 37.426431,8.1122517 c 0.499895,-0.3569564 0.68024,-0.4998359 0.835049,-0.6615713 l 0.138638,-0.1448409 -0.0065,0.053994 c -0.0053,0.043753 -0.02766,0.086975 -0.117815,0.2278799 -0.105735,0.165244 -0.121796,0.1842788 -0.323173,0.3830107 -0.200403,0.1977689 -0.230379,0.2224504 -0.552024,0.4545154 -0.340071,0.2453587 -0.340155,0.2454102 -0.64634,0.3984754 -0.168425,0.084197 -0.465325,0.2226768 -0.659779,0.3077337 -0.320226,0.1400711 -0.382194,0.1630386 -0.657389,0.2436501 -0.505703,0.1481338 -1.004775,0.2721892 -1.386539,0.3446556 -0.333951,0.06339 -0.378862,0.069196 -0.812068,0.1049796 -0.783645,0.06473 -1.040556,0.074456 -1.57447,0.059602 z"
       id="path892"
       inkscape:connector-curvature="0"
       transform="matrix(0.26458333,0,0,0.26458333,0,280.06665)" />
    <path
       style="opacity:1;fill:#e8d54f;fill-opacity:1;fill-rule:nonzero;stroke:#000000;stroke-width:0.75000001;stroke-miterlimit:4;stroke-dasharray:none;stroke-opacity:1"
       d="m 31.920791,22.268927 c -0.26214,-0.02412 -0.392546,-0.07101 -0.486613,-0.174952 -0.0601,-0.06641 -0.06743,-0.108418 -0.06029,-0.345285 l 0.005,-0.164063 h 0.731031 c 0.810543,0 0.769412,-0.01143 0.768508,0.213494 -0.0014,0.349407 -0.360153,0.525788 -0.957592,0.470806 z"
       id="path910"
       inkscape:connector-curvature="0"
       transform="matrix(0.26458333,0,0,0.26458333,0,280.06665)" />
    <path
       style="opacity:1;fill:#e8d54f;fill-opacity:1;fill-rule:nonzero;stroke:#000000;stroke-width:0.75000001;stroke-miterlimit:4;stroke-dasharray:none;stroke-opacity:1"
       d="m 31.456969,15.532584 c -0.405802,-0.03339 -0.789693,-0.08927 -1.462266,-0.21285 -0.82637,-0.151835 -1.361763,-0.312567 -2.193984,-0.658664 -0.751232,-0.312415 -1.376138,-0.797477 -1.875212,-1.455569 -0.083,-0.109449 -0.18916,-0.248217 -0.235906,-0.308374 -0.04675,-0.06016 -0.121727,-0.221923 -0.166625,-0.359481 -0.0734,-0.224877 -0.08158,-0.297382 -0.08114,-0.71875 5.7e-4,-0.547866 0.03866,-0.744908 0.193866,-1.0028 0.0611,-0.101526 0.14723,-0.256761 0.1914,-0.344966 0.04417,-0.08821 0.133648,-0.201861 0.19884,-0.252569 0.224579,-0.174683 0.208991,-0.2287497 0.18744,0.650115 -0.01638,0.668153 -0.01074,0.853543 0.03558,1.169076 0.04918,0.334966 0.07055,0.403358 0.200194,0.640625 0.24855,0.45488 0.467674,0.739712 0.778778,1.012309 0.518593,0.454403 1.108104,0.769175 2.057161,1.09843 1.202098,0.417043 3.064565,0.530547 4.548488,0.277197 1.702093,-0.290599 3.076576,-1.061168 3.757742,-2.106686 0.213572,-0.327809 0.240848,-0.388196 0.310541,-0.6875 0.07477,-0.321099 0.07606,-0.34936 0.06031,-1.319891 l -0.0161,-0.9917658 0.08357,0.043878 c 0.147346,0.07736 0.304009,0.274177 0.518346,0.651191 0.320214,0.563251 0.344868,0.787741 0.180967,1.647838 -0.210034,1.102193 -1.520081,2.184512 -3.34798,2.765995 -0.545627,0.173572 -0.817252,0.238346 -1.42681,0.340246 -0.639446,0.106896 -1.923896,0.170145 -2.497202,0.122966 z"
       id="path912"
       inkscape:connector-curvature="0"
       transform="matrix(0.26458333,0,0,0.26458333,0,280.06665)" />
    <path
       style="opacity:1;fill:#e8d54f;fill-opacity:1;fill-rule:nonzero;stroke:#000000;stroke-width:0.75000001;stroke-miterlimit:4;stroke-dasharray:none;stroke-opacity:1"
       d="m 52.009513,24.068801 c -0.440433,-0.0798 -0.724419,-0.291095 -0.724419,-0.539001 0,-0.07697 0.03227,-0.137828 0.128348,-0.24206 0.158513,-0.171967 0.39566,-0.287146 0.715368,-0.347446 0.217763,-0.04107 0.274944,-0.04077 0.526058,0.0028 0.462571,0.08026 0.74599,0.207902 0.894792,0.40299 0.151081,0.198079 0.07286,0.385328 -0.227929,0.545648 -0.428014,0.228129 -0.773252,0.274715 -1.312218,0.177067 z"
       id="path914"
       inkscape:connector-curvature="0"
       transform="matrix(0.26458333,0,0,0.26458333,0,280.06665)" />
    <path
       style="opacity:1;fill:#e8d54f;fill-opacity:1;fill-rule:nonzero;stroke:#000000;stroke-width:0.75000001;stroke-miterlimit:4;stroke-dasharray:none;stroke-opacity:1"
       d="m 31.768846,35.766405 c -0.528441,-0.08898 -0.796252,-0.27636 -0.796252,-0.557123 0,-0.09897 0.02301,-0.137625 0.15597,-0.261994 0.08578,-0.08024 0.222893,-0.174977 0.304687,-0.210526 0.22409,-0.09739 0.604996,-0.156921 0.782476,-0.122287 0.08112,0.01583 0.214421,0.03757 0.296225,0.0483 0.0818,0.01074 0.26123,0.07583 0.398728,0.144646 0.494706,0.247608 0.535937,0.523865 0.113449,0.760134 -0.431298,0.241196 -0.726273,0.287923 -1.255283,0.19885 z"
       id="path916"
       inkscape:connector-curvature="0"
       transform="matrix(0.26458333,0,0,0.26458333,0,280.06665)" />
    <path
       style="opacity:1;fill:#e8d54f;fill-opacity:1;fill-rule:nonzero;stroke:#000000;stroke-width:0.75000001;stroke-miterlimit:4;stroke-dasharray:none;stroke-opacity:1"
       d="m 11.457678,24.035449 c -0.49405,-0.07983 -0.775779,-0.260984 -0.818875,-0.526556 -0.01574,-0.09698 -0.0015,-0.124485 0.144779,-0.27912 0.20239,-0.213998 0.460979,-0.32681 0.809633,-0.353211 0.633624,-0.04798 1.379379,0.274687 1.379379,0.596818 0,0.138467 -0.0885,0.250185 -0.282817,0.357011 -0.407507,0.224028 -0.755865,0.282005 -1.232099,0.205058 z"
       id="path918"
       inkscape:connector-curvature="0"
       transform="matrix(0.26458333,0,0,0.26458333,0,280.06665)" />
  </g>
</svg>
