<?xml version="1.0" encoding="UTF-8" standalone="no"?>
<!-- Created with Inkscape (http://www.inkscape.org/) -->

<svg
   xmlns:dc="http://purl.org/dc/elements/1.1/"
   xmlns:cc="http://creativecommons.org/ns#"
   xmlns:rdf="http://www.w3.org/1999/02/22-rdf-syntax-ns#"
   xmlns:svg="http://www.w3.org/2000/svg"
   xmlns="http://www.w3.org/2000/svg"
   xmlns:sodipodi="http://sodipodi.sourceforge.net/DTD/sodipodi-0.dtd"
   xmlns:inkscape="http://www.inkscape.org/namespaces/inkscape"
   width="64"
   height="64"
   viewBox="0 0 16.933333 16.933334"
   version="1.1"
   id="svg8"
   inkscape:version="0.92.4 (5da689c313, 2019-01-14)"
   sodipodi:docname="Plate_cmd.svg">
  <defs
     id="defs2" />
  <sodipodi:namedview
     id="base"
     pagecolor="#ffffff"
     bordercolor="#666666"
     borderopacity="1.0"
     inkscape:pageopacity="0.0"
     inkscape:pageshadow="2"
     inkscape:zoom="32"
     inkscape:cx="38.225571"
     inkscape:cy="36.392679"
     inkscape:document-units="mm"
     inkscape:current-layer="layer1"
     showgrid="false"
     units="px"
     inkscape:window-width="3840"
     inkscape:window-height="2055"
     inkscape:window-x="-13"
     inkscape:window-y="-13"
     inkscape:window-maximized="1" />
  <metadata
     id="metadata5">
    <rdf:RDF>
      <cc:Work
         rdf:about="">
        <dc:format>image/svg+xml</dc:format>
        <dc:type
           rdf:resource="http://purl.org/dc/dcmitype/StillImage" />
        <dc:title />
      </cc:Work>
    </rdf:RDF>
  </metadata>
  <g
     inkscape:label="Capa 1"
     inkscape:groupmode="layer"
     id="layer1"
     transform="translate(0,-280.06665)">
    <path
       style="opacity:1;fill:#fce94f;fill-opacity:1;fill-rule:nonzero;stroke:none;stroke-width:0.74834646;stroke-miterlimit:4;stroke-dasharray:none;stroke-opacity:1"
       d="m 36.125144,50.742427 -0.277966,-0.161221 0.02362,-1.414213 c 0.01299,-0.777818 0.03522,-7.420202 0.04939,-14.760854 l 0.02577,-13.346641 0.349403,-0.599473 0.349404,-0.599474 12.814568,-7.435907 12.814569,-7.4359069 0.262916,0.1456455 0.262916,0.1456456 0.01688,14.8061238 0.01688,14.806123 -0.336693,0.596621 -0.336692,0.596621 -12.834272,7.413573 c -7.058849,4.077465 -12.854174,7.411544 -12.878499,7.409065 -0.02432,-0.0025 -0.169312,-0.07706 -0.322193,-0.165728 z m 1.868236,-1.19296 c 0.994515,-0.465389 1.602321,-1.819587 1.188334,-2.647618 -0.0865,-0.17301 -0.188071,-0.296172 -0.31875,-0.386507 -0.1774,-0.12263 -0.220525,-0.132506 -0.574524,-0.131561 -0.329189,8.8e-4 -0.41879,0.01857 -0.640515,0.12648 -0.336889,0.163955 -0.760699,0.564579 -0.97002,0.91695 -0.55342,0.93163 -0.412018,1.962892 0.305795,2.230182 0.26163,0.09743 0.662402,0.05459 1.00968,-0.107926 z m 8.176642,-8.514998 c 1.810018,-0.272626 3.703224,-1.192026 5.634757,-2.736413 0.669176,-0.535049 2.128262,-1.979212 2.704237,-2.676578 1.2615,-1.527369 2.178011,-2.943649 3.060113,-4.728776 2.24351,-4.540234 2.733185,-9.2947 1.278682,-12.415281 -0.404778,-0.868436 -1.108409,-1.743621 -1.790545,-2.227103 -0.936648,-0.663874 -1.985216,-0.975316 -3.263749,-0.969386 -1.309774,0.0061 -2.523086,0.321917 -3.933281,1.02389 -2.08519,1.037974 -4.040002,2.688664 -5.808958,4.905226 -2.578344,3.230751 -4.318389,7.263421 -4.730946,10.964285 -0.08342,0.74836 -0.09496,2.165214 -0.02307,2.833586 0.188985,1.75707 0.76823,3.243098 1.683628,4.319275 0.760072,0.893569 1.964165,1.551051 3.159951,1.725456 0.437479,0.06381 1.551103,0.05383 2.029186,-0.01818 z M 61.19452,36.111661 c 0.742434,-0.365499 1.278839,-1.233818 1.271997,-2.059076 -0.0039,-0.475656 -0.171665,-0.804557 -0.508733,-0.99762 -0.153671,-0.08802 -0.247191,-0.107031 -0.521903,-0.106102 -0.289302,9.76e-4 -0.376194,0.02142 -0.640815,0.150769 -1.013529,0.495418 -1.597772,1.887518 -1.135817,2.706358 0.282447,0.500651 0.892491,0.62211 1.535271,0.305671 z M 38.082488,22.871039 c 0.353075,-0.166247 0.883421,-0.697738 1.057955,-1.06024 0.188574,-0.39166 0.245774,-0.618283 0.245774,-0.973739 0,-0.549613 -0.171797,-0.874904 -0.563202,-1.0664 -0.965186,-0.472221 -2.397808,0.785772 -2.397808,2.105529 0,0.521913 0.174121,0.8522 0.54991,1.043118 0.301177,0.153011 0.718532,0.13482 1.107371,-0.04827 z M 61.192679,9.4192858 C 62.096655,8.9742602 62.684186,7.8174207 62.437389,6.9684705 62.170734,6.05121 61.07724,5.9804143 60.231968,6.8256858 c -0.930897,0.9308973 -0.958854,2.3795248 -0.05239,2.714795 0.239639,0.088635 0.698345,0.033761 1.013104,-0.121195 z"
       id="path922"
       inkscape:connector-curvature="0"
       transform="matrix(0.26458333,0,0,0.26458333,0,280.06665)" />
    <path
       style="opacity:1;fill:#fce94f;fill-opacity:1;fill-rule:nonzero;stroke:none;stroke-width:0.74834646;stroke-miterlimit:4;stroke-dasharray:none;stroke-opacity:1"
       d="m 18.547743,51.70293 c 0.01477,-2.780254 0.0461,-10.274007 0.06963,-16.652787 0.02352,-6.378781 0.04752,-11.601273 0.05332,-11.605538 0.07164,-0.05264 28.624102,-16.5493395 28.643576,-16.5493395 0.01479,0 0.0269,0.1065406 0.0269,0.2367569 v 0.236757 l -1.172017,0.6760372 c -0.644609,0.3718205 -1.205982,0.700873 -1.247495,0.7312278 -0.06836,0.049989 -0.05579,0.076241 0.133454,0.2785552 0.114912,0.1228506 0.208932,0.2526042 0.208932,0.2883416 0,0.1020186 -0.201186,0.2346067 -0.444589,0.292998 -0.243128,0.058326 -0.657508,0.031132 -0.976508,-0.064084 l -0.191991,-0.057306 -6.137517,3.5627648 -6.137518,3.562766 -0.436194,0.744492 -0.436193,0.744492 -0.01122,5.485318 -0.01122,5.485318 -3.683138,2.100792 -3.683136,2.100791 0.0307,2.43068 c 0.01688,1.336874 0.03737,2.437778 0.04553,2.446455 0.0082,0.0087 1.651752,-0.919678 3.652437,-2.063008 l 3.637611,-2.078783 0.01118,7.063501 0.01118,7.063501 0.74802,0.434853 c 0.411412,0.239169 0.744465,0.437963 0.740118,0.441765 -0.03188,0.02788 -13.355665,7.673536 -13.406111,7.692893 -0.05653,0.02169 -0.06124,-0.60637 -0.03774,-5.030211 z"
       id="path908"
       inkscape:connector-curvature="0"
       transform="matrix(0.26458333,0,0,0.26458333,0,280.06665)" />
    <path
       style="opacity:1;fill:#fce94f;fill-opacity:1;fill-rule:nonzero;stroke:none;stroke-width:0.74834646;stroke-miterlimit:4;stroke-dasharray:none;stroke-opacity:1"
       d="m 34.332082,18.117315 c -1.163372,-0.674514 -2.131022,-1.243054 -2.150334,-1.263423 -0.01931,-0.02037 2.553359,-1.538532 5.717047,-3.373695 l 5.752159,-3.33666 0.243068,0.02182 c 0.133688,0.012 0.431998,0.0216 0.662913,0.02134 0.368643,-4.42e-4 0.453755,-0.01605 0.697905,-0.128118 0.316914,-0.1454716 0.448766,-0.2808286 0.538544,-0.5528561 0.05514,-0.1670663 0.05443,-0.2135569 -0.0058,-0.3809586 l -0.06856,-0.1906709 1.24195,-0.7180126 C 47.644077,7.821167 50.277323,6.3095053 52.812663,4.8568255 l 4.609708,-2.641236 2.107806,1.2129075 c 1.159293,0.6670991 2.107806,1.2324447 2.107806,1.2563235 0,0.029384 -23.843637,13.9053425 -25.146485,14.6341595 -0.02431,0.0136 -0.996044,-0.527152 -2.159416,-1.201665 z"
       id="path928"
       inkscape:connector-curvature="0"
       transform="matrix(0.26458333,0,0,0.26458333,0,280.06665)" />
    <path
       style="opacity:1;fill:#fce94f;fill-opacity:1;fill-rule:nonzero;stroke:none;stroke-width:0.74834646;stroke-miterlimit:4;stroke-dasharray:none;stroke-opacity:1"
       d="m 33.399667,19.35269 c -1.190065,-0.678151 -2.177688,-1.247716 -2.194718,-1.265699 -0.01703,-0.01798 0.08226,-0.223138 0.220653,-0.4559 l 0.251615,-0.423204 2.15805,1.248031 c 1.186927,0.686417 2.174322,1.264663 2.194212,1.28499 0.03014,0.0308 -0.341553,0.726339 -0.436351,0.816522 -0.01634,0.01554 -1.003397,-0.526589 -2.193461,-1.20474 z"
       id="path930"
       inkscape:connector-curvature="0"
       transform="matrix(0.26458333,0,0,0.26458333,0,280.06665)" />
    <path
       style="opacity:1;fill:#decb4f;fill-opacity:1;fill-rule:nonzero;stroke:none;stroke-width:0.74834646;stroke-miterlimit:4;stroke-dasharray:none;stroke-opacity:1"
       d="m 37.283389,49.146272 c -0.141065,-0.05707 -0.321029,-0.295716 -0.353493,-0.468765 -0.05062,-0.269797 0.0034,-0.607947 0.14462,-0.905246 0.177673,-0.374061 0.402991,-0.626202 0.685298,-0.766882 1.003384,-0.500007 1.366244,0.820708 0.491503,1.788941 -0.272167,0.301257 -0.70458,0.458488 -0.967928,0.351952 z"
       id="path934"
       inkscape:connector-curvature="0"
       transform="matrix(0.26458333,0,0,0.26458333,0,280.06665)" />
    <path
       style="opacity:1;fill:#decb4f;fill-opacity:1;fill-rule:nonzero;stroke:none;stroke-width:0.74834646;stroke-miterlimit:4;stroke-dasharray:none;stroke-opacity:1"
       d="m 37.283456,22.412473 c -0.21611,-0.131784 -0.297887,-0.35597 -0.274336,-0.752076 0.02459,-0.413549 0.182556,-0.762569 0.48644,-1.074753 0.434613,-0.446485 0.960792,-0.512358 1.198213,-0.150007 0.354979,0.541766 -0.04386,1.603592 -0.730939,1.945979 -0.271017,0.135053 -0.492045,0.145092 -0.679378,0.03086 z"
       id="path936"
       inkscape:connector-curvature="0"
       transform="matrix(0.26458333,0,0,0.26458333,0,280.06665)" />
    <path
       style="opacity:1;fill:#decb4f;fill-opacity:1;fill-rule:nonzero;stroke:none;stroke-width:0.74834646;stroke-miterlimit:4;stroke-dasharray:none;stroke-opacity:1"
       d="M 60.391643,8.9741808 C 60.177243,8.8434535 60.092895,8.6489486 60.09381,8.287382 c 6.41e-4,-0.2534882 0.0259,-0.363022 0.139837,-0.6064912 0.352695,-0.7536381 1.048409,-1.1310082 1.444294,-0.7834163 0.196877,0.1728605 0.26417,0.3803806 0.236227,0.7284901 -0.02923,0.3641022 -0.193901,0.7135545 -0.477614,1.01354 -0.377189,0.3988211 -0.745983,0.516943 -1.044911,0.3346762 z"
       id="path938"
       inkscape:connector-curvature="0"
       transform="matrix(0.26458333,0,0,0.26458333,0,280.06665)" />
    <path
       style="opacity:1;fill:#decb4f;fill-opacity:1;fill-rule:nonzero;stroke:none;stroke-width:0.74834646;stroke-miterlimit:4;stroke-dasharray:none;stroke-opacity:1"
       d="m 60.367644,35.684716 c -0.33608,-0.182338 -0.395645,-0.817361 -0.127718,-1.361597 0.238546,-0.484555 0.731562,-0.867593 1.115922,-0.86699 0.155302,2.44e-4 0.377494,0.15222 0.465343,0.318288 0.130448,0.246595 0.103101,0.7118 -0.06267,1.066036 -0.323968,0.692304 -0.959706,1.078196 -1.390881,0.844263 z"
       id="path940"
       inkscape:connector-curvature="0"
       transform="matrix(0.26458333,0,0,0.26458333,0,280.06665)" />
    <path
       style="opacity:1;fill:#fce94f;fill-opacity:1;fill-rule:nonzero;stroke:none;stroke-width:0.74834646;stroke-miterlimit:4;stroke-dasharray:none;stroke-opacity:1"
       d="M 34.038721,49.562195 C 33.370285,49.187106 32.42064,48.647099 31.9284,48.36218 l -0.894981,-0.518036 0.0061,-11.44778 c 0.0034,-6.296278 0.01832,-12.86059 0.03319,-14.58736 l 0.02705,-3.139581 2.143417,1.21895 2.143418,1.218951 -0.01175,9.787193 c -0.01345,11.204876 -0.05266,19.356507 -0.09309,19.352445 -0.01526,-0.0015 -0.574652,-0.309679 -1.243089,-0.684767 z"
       id="path920"
       inkscape:connector-curvature="0"
       transform="matrix(0.26458333,0,0,0.26458333,0,280.06665)" />
    <path
       style="opacity:1;fill:#fce94f;fill-opacity:1;fill-rule:nonzero;stroke:none;stroke-width:0.74834646;stroke-miterlimit:4;stroke-dasharray:none;stroke-opacity:1"
       d="m 44.569555,40.52264 c -1.329932,-0.154829 -2.479104,-0.820076 -3.307168,-1.914495 -0.129475,-0.171121 -0.230677,-0.315862 -0.224894,-0.321646 0.0058,-0.0058 0.307811,-0.07151 0.671173,-0.146063 0.661186,-0.135657 1.020618,-0.2571 1.765512,-0.596523 0.824785,-0.375826 1.219307,-0.605698 2.119169,-1.234754 0.775462,-0.542093 1.089647,-0.798332 1.933417,-1.576837 0.554119,-0.511258 1.131745,-1.082168 1.283612,-1.268688 0.151867,-0.186519 0.513019,-0.61755 0.80256,-0.957845 0.356683,-0.419208 0.786467,-1.011561 1.332838,-1.836995 0.706079,-1.066714 0.887163,-1.379727 1.455579,-2.516036 0.528332,-1.056177 0.715217,-1.483429 1.00393,-2.29516 0.494281,-1.389694 0.493371,-1.386597 0.805797,-2.743071 0.266957,-1.159056 0.284645,-1.272103 0.381961,-2.441037 0.0915,-1.09905 0.09644,-1.28399 0.04785,-1.789864 -0.101155,-1.053 -0.191134,-1.579114 -0.393313,-2.299723 -0.110964,-0.3955 -0.192652,-0.728191 -0.181529,-0.739314 0.04574,-0.04574 0.909564,0.11849 1.287681,0.24481 1.742429,0.582105 2.975405,2.142528 3.473186,4.395575 0.300889,1.361875 0.292518,3.242682 -0.02213,4.971844 -0.642763,3.53234 -2.507744,7.304555 -5.058178,10.230952 -0.514759,0.59064 -1.551046,1.611052 -2.096504,2.064387 -2.449378,2.035702 -4.95861,3.017516 -7.080545,2.770483 z"
       id="path932"
       inkscape:connector-curvature="0"
       transform="matrix(0.26458333,0,0,0.26458333,0,280.06665)" />
    <path
       style="opacity:1;fill:#fce94f;fill-opacity:1;fill-rule:nonzero;stroke:none;stroke-width:0.74834646;stroke-miterlimit:4;stroke-dasharray:none;stroke-opacity:1"
       d="m 40.562098,37.387866 c -0.20828,-0.455643 -0.433858,-1.242008 -0.55742,-1.943164 -0.124199,-0.704769 -0.168238,-2.196513 -0.09023,-3.056521 0.108234,-1.193305 0.402412,-2.610347 0.768334,-3.701027 l 0.183943,-0.548267 0.883884,-0.521242 c 0.486136,-0.286683 0.900403,-0.527739 0.920595,-0.535679 0.02019,-0.0079 0.01613,-0.640352 -0.009,-1.40536 l -0.04575,-1.390922 0.136411,-0.243074 c 0.445994,-0.794728 1.394366,-2.133324 2.161749,-3.051235 0.658543,-0.787722 2.335512,-2.450324 2.400508,-2.379942 0.0088,0.0096 0.028,3.50762 0.0426,7.773463 l 0.02654,7.756078 -0.571976,0.52193 c -0.555392,0.506797 -0.777135,0.676341 -1.952582,1.492941 -0.996386,0.692205 -2.22759,1.242116 -3.249837,1.451523 -0.363615,0.07449 -0.711601,0.135431 -0.773302,0.135431 -0.09734,0 -0.133658,-0.04698 -0.274427,-0.354933 z"
       id="path926"
       inkscape:connector-curvature="0"
       transform="matrix(0.26458333,0,0,0.26458333,0,280.06665)" />
    <path
       style="opacity:1;fill:#fce94f;fill-opacity:1;fill-rule:nonzero;stroke:none;stroke-width:0.74834646;stroke-miterlimit:4;stroke-dasharray:none;stroke-opacity:1"
       d="m 41.245522,27.08401 c 0.148445,-0.376606 0.69111,-1.559764 0.789182,-1.72063 l 0.09122,-0.149629 0.0068,0.718155 c 0.0037,0.394985 0.0088,0.742024 0.01121,0.771197 0.0039,0.04644 -0.870967,0.602599 -0.956159,0.607863 -0.01787,0.0011 0.0081,-0.101026 0.05775,-0.226956 z"
       id="path924"
       inkscape:connector-curvature="0"
       transform="matrix(0.26458333,0,0,0.26458333,0,280.06665)" />
    <path
       style="opacity:1;fill:#decb4f;fill-opacity:1;fill-rule:nonzero;stroke:none;stroke-width:0.74834646;stroke-miterlimit:4;stroke-dasharray:none;stroke-opacity:1"
       d="m 23.660962,33.760665 c 0.01409,-0.145976 0.04607,-0.165576 3.39508,-2.080872 1.85947,-1.063429 3.39703,-1.9341 3.4168,-1.934824 0.01977,-7.23e-4 0.02971,0.06012 0.0221,0.1352 -0.01334,0.131473 -0.130573,0.202936 -3.173732,1.934602 -1.737936,0.988948 -3.275666,1.8645 -3.417177,1.945672 l -0.257294,0.147586 z"
       id="path942"
       inkscape:connector-curvature="0"
       transform="matrix(0.26458333,0,0,0.26458333,0,280.06665)" />
    <path
       style="opacity:1;fill:#fce94f;fill-opacity:1;fill-rule:nonzero;stroke:none;stroke-width:0.74834646;stroke-miterlimit:4;stroke-dasharray:none;stroke-opacity:1"
       d="m 23.698585,35.875595 0.0013,-1.381068 3.169632,-1.800903 c 1.743298,-0.990497 3.274041,-1.860972 3.401651,-1.934389 l 0.23202,-0.133486 v 1.387231 1.387232 l -3.382586,1.928225 c -1.860422,1.060525 -3.39175,1.928226 -3.402951,1.928226 -0.0112,0 -0.01978,-0.621481 -0.01907,-1.381068 z"
       id="path918"
       inkscape:connector-curvature="0"
       transform="matrix(0.26458333,0,0,0.26458333,0,280.06665)" />
    <path
       style="opacity:1;fill:#decb4f;fill-opacity:1;fill-rule:nonzero;stroke:none;stroke-width:0.74834646;stroke-miterlimit:4;stroke-dasharray:none;stroke-opacity:1"
       d="m 5.6650333,44.437979 c -6.6e-6,-0.177246 -0.0022,-0.445313 -0.00486,-0.595703 l -0.00485,-0.273438 0.1186338,-0.06136 c 0.065249,-0.03375 0.1197179,-0.06012 0.1210429,-0.05859 0.00132,0.0015 0.00421,0.266845 0.00642,0.589606 l 0.00401,0.586838 -0.1149077,0.06746 c -0.063199,0.0371 -0.1172849,0.06746 -0.1201904,0.06746 -0.00291,0 -0.00529,-0.14502 -0.00529,-0.322266 z"
       id="path946"
       inkscape:connector-curvature="0"
       transform="matrix(0.26458333,0,0,0.26458333,0,280.06665)" />
    <path
       style="opacity:1;fill:#fce94f;fill-opacity:1;fill-rule:nonzero;stroke:none;stroke-width:0.74834646;stroke-miterlimit:4;stroke-dasharray:none;stroke-opacity:1"
       d="M 4.055391,46.562866 C 4.0385527,38.223804 4.0311206,30.738507 4.0388752,29.928872 l 0.014099,-1.472063 5.4740159,-3.159655 c 3.0107089,-1.737811 5.4792319,-3.153614 5.4856059,-3.146229 0.0064,0.0074 0.02487,7.501025 0.04111,16.652534 l 0.02952,16.639106 -1.60394,0.911899 c -0.882168,0.501544 -3.356541,1.915046 -5.4986096,3.141115 l -3.8946686,2.229217 z m 1.7502395,-1.266948 0.6117324,-0.357637 v -1.167062 c 0,-0.641884 -0.011901,-1.167061 -0.026446,-1.167061 -0.014545,0 -0.302576,0.144183 -0.6400685,0.320408 l -0.6136227,0.320407 -7.469e-4,1.204292 c -4.11e-4,0.66236 0.01234,1.204291 0.028336,1.204291 0.015996,0 0.3043627,-0.160937 0.6408157,-0.357638 z"
       id="path906"
       inkscape:connector-curvature="0"
       transform="matrix(0.26458333,0,0,0.26458333,0,280.06665)" />
    <path
       style="opacity:1;fill:#fce94f;fill-opacity:1;fill-rule:nonzero;stroke:none;stroke-width:0.74834646;stroke-miterlimit:4;stroke-dasharray:none;stroke-opacity:1"
       d="m 16.780897,56.08621 -1.149049,-0.657105 -0.03231,-14.267988 c -0.01777,-7.847393 -0.02771,-15.305996 -0.0221,-16.574672 l 0.01021,-2.306685 1.250833,0.589143 c 0.687959,0.324028 1.256868,0.596372 1.264243,0.605209 0.0074,0.0088 -0.01238,6.608732 -0.04391,14.666434 -0.03152,8.057703 -0.0585,15.540329 -0.05995,16.628058 -0.0014,1.087729 -0.01755,1.977019 -0.03578,1.9762 -0.01823,-8.19e-4 -0.550218,-0.297186 -1.182194,-0.658594 z"
       id="path910"
       inkscape:connector-curvature="0"
       transform="matrix(0.26458333,0,0,0.26458333,0,280.06665)" />
    <path
       style="opacity:1;fill:#fce94f;fill-opacity:1;fill-rule:nonzero;stroke:none;stroke-width:0.74834646;stroke-miterlimit:4;stroke-dasharray:none;stroke-opacity:1"
       d="m 17.068159,22.379356 c -0.692744,-0.328185 -1.275588,-0.612387 -1.295208,-0.631561 -0.03845,-0.03757 13.383051,-7.799128 23.013053,-13.3082878 l 5.918429,-3.3858317 1.163745,0.6650434 c 0.89528,0.5116245 1.150987,0.6766379 1.108444,0.7153038 C 46.900976,6.502776 18.394066,22.982688 18.357162,22.979 c -0.01621,-0.0016 -0.59626,-0.27146 -1.289003,-0.599644 z"
       id="path912"
       inkscape:connector-curvature="0"
       transform="matrix(0.26458333,0,0,0.26458333,0,280.06665)" />
    <path
       style="opacity:1;fill:#fce94f;fill-opacity:1;fill-rule:nonzero;stroke:none;stroke-width:0.74834646;stroke-miterlimit:4;stroke-dasharray:none;stroke-opacity:1"
       d="M 2.5660945,27.319512 1.4327677,26.668389 15.787523,18.344378 c 7.895116,-4.578206 14.366758,-8.326128 14.381428,-8.328717 0.0374,-0.0066 2.364113,1.361003 2.346113,1.379003 -0.05699,0.05699 -28.7286352,16.580662 -28.7669473,16.578597 -0.026783,-0.0014 -0.5586925,-0.295631 -1.1820222,-0.653749 z"
       id="path914"
       inkscape:connector-curvature="0"
       transform="matrix(0.26458333,0,0,0.26458333,0,280.06665)" />
    <path
       style="opacity:1;fill:#fce94f;fill-opacity:1;fill-rule:nonzero;stroke:none;stroke-width:0.74834646;stroke-miterlimit:4;stroke-dasharray:none;stroke-opacity:1"
       d="m 2.3507053,61.091576 c -0.6436936,-0.353583 -1.1869,-0.658193 -1.2071254,-0.676909 -0.020225,-0.01872 -0.022175,-7.510942 -0.00433,-16.64939 l 0.032442,-16.615362 1.1579015,0.661705 1.1579015,0.661704 0.023586,16.622407 c 0.012972,9.142324 0.020524,16.626079 0.016782,16.630566 -0.00374,0.0045 -0.5334618,-0.281136 -1.1771554,-0.634721 z"
       id="path916"
       inkscape:connector-curvature="0"
       transform="matrix(0.26458333,0,0,0.26458333,0,280.06665)" />
    <path
       style="fill:none;stroke:#000000;stroke-width:0.198;stroke-linecap:butt;stroke-linejoin:miter;stroke-opacity:1;stroke-miterlimit:4;stroke-dasharray:none"
       d="m 8.6110899,293.04105 -3.779358,2.17157 -0.7684,-0.43849 -3.0568951,1.74978 -0.78092814,-0.43014 0.008352,-8.97023 7.75081614,-4.49451 0.767834,0.4508 3.0762542,-1.75896 0.766311,0.43849 0.0042,0.2965 2.593618,-1.48603 1.275374,0.73395 0.221175,0.11473 0.0072,7.90029 -0.198437,0.34933 -6.8502285,3.95635 -0.2025716,-0.11782 z"
       id="path826"
       inkscape:connector-curvature="0" />
    <path
       style="fill:none;stroke:#000000;stroke-width:0.198;stroke-linecap:butt;stroke-linejoin:miter;stroke-opacity:1;stroke-miterlimit:4;stroke-dasharray:none"
       d="M 1.0064368,296.52391 0.9942545,287.55767 0.23386062,287.12354"
       id="path828"
       inkscape:connector-curvature="0" />
    <path
       style="fill:none;stroke:#000000;stroke-width:0.198;stroke-linecap:butt;stroke-linejoin:miter;stroke-opacity:1;stroke-miterlimit:4;stroke-dasharray:none"
       d="M 0.99425449,287.55767 8.7525107,283.07983"
       id="path830"
       inkscape:connector-curvature="0" />
    <path
       style="fill:none;stroke:#000000;stroke-width:0.198;stroke-linecap:butt;stroke-linejoin:miter;stroke-opacity:1;stroke-miterlimit:4;stroke-dasharray:none"
       d="m 4.0633319,294.77413 -0.017539,-8.92931"
       id="path836"
       inkscape:connector-curvature="0" />
    <path
       style="fill:none;stroke:#000000;stroke-width:0.198;stroke-linecap:butt;stroke-linejoin:miter;stroke-opacity:1;stroke-miterlimit:4;stroke-dasharray:none"
       d="m 12.595076,281.75936 -7.7307707,4.47133 -0.8185124,-0.38587"
       id="path838"
       inkscape:connector-curvature="0" />
    <path
       style="fill:none;stroke:#000000;stroke-width:0.198;stroke-linecap:butt;stroke-linejoin:miter;stroke-opacity:1;stroke-miterlimit:4;stroke-dasharray:none"
       d="m 4.8643053,286.23069 -0.032573,8.98193"
       id="path840"
       inkscape:connector-curvature="0" />
    <path
       style="fill:none;stroke:#000000;stroke-width:0.198;stroke-linecap:butt;stroke-linejoin:miter;stroke-opacity:1;stroke-miterlimit:4;stroke-dasharray:none"
       d="m 8.6110899,293.04105 -0.4698095,-0.27395 0.00499,-7.89041 0.2087729,-0.35553 3.2049877,-1.85977 0.08331,0.0249 0.102706,0.01 0.10232,-0.003 0.06718,-0.0165 0.07235,-0.0341 0.03824,-0.0331 0.01654,-0.0351 0.0155,-0.0455 -0.01343,-0.0362 -0.03927,-0.0455 -0.02791,-0.031 0.621713,-0.36"
       id="path842"
       inkscape:connector-curvature="0" />
    <path
       style="fill:none;stroke:#000000;stroke-width:0.198;stroke-linecap:butt;stroke-linejoin:miter;stroke-opacity:1;stroke-miterlimit:4;stroke-dasharray:none"
       d="m 9.4187451,293.50669 0.021505,-7.89413 0.2046388,-0.34519 6.8262221,-3.96091"
       id="path844"
       inkscape:connector-curvature="0" />
    <path
       style="fill:none;stroke:#000000;stroke-width:0.198;stroke-linecap:butt;stroke-linejoin:miter;stroke-opacity:1;stroke-miterlimit:4;stroke-dasharray:none"
       d="M 9.4402499,285.61256 8.1462702,284.87669"
       id="path846"
       inkscape:connector-curvature="0" />
    <path
       style="fill:none;stroke:#000000;stroke-width:0.198;stroke-linecap:butt;stroke-linejoin:miter;stroke-opacity:1;stroke-miterlimit:4;stroke-dasharray:none"
       d="m 8.3550431,284.52116 1.2898456,0.74621"
       id="path848"
       inkscape:connector-curvature="0" />
    <path
       style="fill:none;stroke:#000000;stroke-width:0.198;stroke-linecap:butt;stroke-linejoin:miter;stroke-opacity:1;stroke-miterlimit:4;stroke-dasharray:none"
       d="m 1.4338592,292.02752 -0.00438,-0.47357 0.1973201,-0.10378 0.00292,0.46188 z"
       id="path850"
       inkscape:connector-curvature="0" />
    <path
       style="fill:none;stroke:#000000;stroke-width:0.198;stroke-linecap:butt;stroke-linejoin:miter;stroke-opacity:1;stroke-miterlimit:4;stroke-dasharray:none"
       d="m 8.1462726,288.94259 -1.947168,1.11208 -0.00827,-1.13481 1.9678385,-1.12448"
       id="path852"
       inkscape:connector-curvature="0" />
    <path
       style="fill:none;stroke:#000000;stroke-width:0.198;stroke-linecap:butt;stroke-linejoin:miter;stroke-opacity:1;stroke-miterlimit:4;stroke-dasharray:none"
       d="m 6.1763671,289.16584 2.0050456,-1.14102"
       id="path854"
       inkscape:connector-curvature="0" />
    <path
       style="opacity:1;fill:none;fill-opacity:1;fill-rule:nonzero;stroke:#000000;stroke-width:0.20189112;stroke-miterlimit:4;stroke-dasharray:none;stroke-opacity:1"
       id="path856"
       sodipodi:type="arc"
       sodipodi:cx="93.310745"
       sodipodi:cy="304.39627"
       sodipodi:rx="0.30255747"
       sodipodi:ry="0.39054823"
       sodipodi:start="0"
       sodipodi:end="6.2801135"
       sodipodi:open="true"
       d="m 93.613303,304.39627 a 0.30255747,0.39054823 0 0 1 -0.302325,0.39055 0.30255747,0.39054823 0 0 1 -0.30279,-0.38995 0.30255747,0.39054823 0 0 1 0.30186,-0.39115 0.30255747,0.39054823 0 0 1 0.303253,0.38935"
       transform="matrix(1,0,-0.27366616,0.96182474,0,0)" />
    <path
       style="opacity:1;fill:none;fill-opacity:1;fill-rule:nonzero;stroke:#000000;stroke-width:0.20189112;stroke-miterlimit:4;stroke-dasharray:none;stroke-opacity:1"
       id="path856-8"
       sodipodi:type="arc"
       sodipodi:cx="91.323715"
       sodipodi:cy="297.05542"
       sodipodi:rx="0.30255747"
       sodipodi:ry="0.39054823"
       sodipodi:start="0"
       sodipodi:end="6.2801135"
       sodipodi:open="true"
       d="m 91.626273,297.05542 a 0.30255747,0.39054823 0 0 1 -0.302325,0.39055 0.30255747,0.39054823 0 0 1 -0.30279,-0.38995 0.30255747,0.39054823 0 0 1 0.30186,-0.39115 0.30255747,0.39054823 0 0 1 0.303253,0.38935"
       transform="matrix(1,0,-0.27366616,0.96182474,0,0)" />
    <path
       style="opacity:1;fill:none;fill-opacity:1;fill-rule:nonzero;stroke:#000000;stroke-width:0.20189112;stroke-miterlimit:4;stroke-dasharray:none;stroke-opacity:1"
       id="path856-4"
       sodipodi:type="arc"
       sodipodi:cx="96.422935"
       sodipodi:cy="293.35858"
       sodipodi:rx="0.30255747"
       sodipodi:ry="0.39054823"
       sodipodi:start="0"
       sodipodi:end="6.2801135"
       sodipodi:open="true"
       d="m 96.725493,293.35858 a 0.30255747,0.39054823 0 0 1 -0.302325,0.39055 0.30255747,0.39054823 0 0 1 -0.30279,-0.38995 0.30255747,0.39054823 0 0 1 0.30186,-0.39115 0.30255747,0.39054823 0 0 1 0.303254,0.38935"
       transform="matrix(1,0,-0.27366616,0.96182474,0,0)" />
    <path
       style="opacity:1;fill:none;fill-opacity:1;fill-rule:nonzero;stroke:#000000;stroke-width:0.20189112;stroke-miterlimit:4;stroke-dasharray:none;stroke-opacity:1"
       id="path856-44"
       sodipodi:type="arc"
       sodipodi:cx="98.428017"
       sodipodi:cy="300.70419"
       sodipodi:rx="0.30255747"
       sodipodi:ry="0.39054823"
       sodipodi:start="0"
       sodipodi:end="6.2801135"
       sodipodi:open="true"
       d="m 98.730574,300.70419 a 0.30255747,0.39054823 0 0 1 -0.302325,0.39055 0.30255747,0.39054823 0 0 1 -0.302789,-0.38995 0.30255747,0.39054823 0 0 1 0.30186,-0.39114 0.30255747,0.39054823 0 0 1 0.303253,0.38934"
       transform="matrix(1,0,-0.27366616,0.96182474,0,0)" />
    <path
       style="opacity:1;fill:none;fill-opacity:1;fill-rule:nonzero;stroke:#000000;stroke-width:0.20190026;stroke-miterlimit:4;stroke-dasharray:none;stroke-opacity:1"
       id="path856-44-4"
       sodipodi:type="arc"
       sodipodi:cx="119.60094"
       sodipodi:cy="296.60779"
       sodipodi:rx="2.299058"
       sodipodi:ry="3.5770221"
       sodipodi:start="0"
       sodipodi:end="6.2801135"
       sodipodi:open="true"
       d="m 121.89999,296.60779 a 2.299058,3.5770221 0 0 1 -2.29729,3.57702 2.299058,3.5770221 0 0 1 -2.30082,-3.57153 2.299058,3.5770221 0 0 1 2.29376,-3.5825 2.299058,3.5770221 0 0 1 2.30434,3.56602"
       transform="matrix(0.99612009,0.08800437,-0.35754632,0.93389541,0,0)" />
    <path
       style="fill:none;stroke:#000000;stroke-width:0.198;stroke-linecap:butt;stroke-linejoin:miter;stroke-miterlimit:4;stroke-dasharray:none;stroke-opacity:1"
       d="m 10.772215,287.45262 0.453105,-0.26602 -0.02042,-0.71328"
       id="path900"
       inkscape:connector-curvature="0"
       sodipodi:nodetypes="ccc" />
    <path
       style="fill:none;stroke:#000000;stroke-width:0.198;stroke-linecap:butt;stroke-linejoin:miter;stroke-opacity:1;stroke-miterlimit:4;stroke-dasharray:none"
       d="m 10.756966,290.13632 0.204639,-0.0351 0.239778,-0.0517 0.139527,-0.0558 0.232544,-0.10335 0.187068,-0.0961 0.243913,-0.1664 0.181901,-0.13125 0.07131,-0.0455 0.10542,-0.0971 0.311092,-0.28732 0.12609,-0.11886 0.116789,-0.14573 0.195337,-0.23047 0.09922,-0.11783 0.254247,-0.3824 0.152963,-0.23048 0.104386,-0.20774 0.183968,-0.36483 0.05994,-0.11886 0.21084,-0.59118 0.0279,-0.0982 0.136426,-0.58601 0.04961,-0.55914 0.0072,-0.13023 -0.03617,-0.33073 -0.03101,-0.21497 -0.126091,-0.44442"
       id="path902"
       inkscape:connector-curvature="0" />
    <path
       style="fill:none;stroke:#000000;stroke-width:0.198;stroke-linecap:butt;stroke-linejoin:miter;stroke-opacity:1;stroke-miterlimit:4;stroke-dasharray:none"
       d="m 12.609049,289.15757 -0.0124,-4.31188"
       id="path904"
       inkscape:connector-curvature="0" />
  </g>
</svg>
