<?xml version="1.0" encoding="UTF-8" standalone="no"?>
<!-- Created with Inkscape (http://www.inkscape.org/) -->

<svg
   xmlns:dc="http://purl.org/dc/elements/1.1/"
   xmlns:cc="http://creativecommons.org/ns#"
   xmlns:rdf="http://www.w3.org/1999/02/22-rdf-syntax-ns#"
   xmlns:svg="http://www.w3.org/2000/svg"
   xmlns="http://www.w3.org/2000/svg"
   xmlns:sodipodi="http://sodipodi.sourceforge.net/DTD/sodipodi-0.dtd"
   xmlns:inkscape="http://www.inkscape.org/namespaces/inkscape"
   width="16.933331mm"
   height="16.933332mm"
   viewBox="0 0 16.933331 16.933334"
   version="1.1"
   id="svg8"
   inkscape:version="0.92.4 (5da689c313, 2019-01-14)"
   sodipodi:docname="SimpleEndStopHolder_cmd.svg">
  <defs
     id="defs2" />
  <sodipodi:namedview
     id="base"
     pagecolor="#ffffff"
     bordercolor="#666666"
     borderopacity="1.0"
     inkscape:pageopacity="0.0"
     inkscape:pageshadow="2"
     inkscape:zoom="22.4"
     inkscape:cx="17.774394"
     inkscape:cy="29.745583"
     inkscape:document-units="mm"
     inkscape:current-layer="layer1"
     showgrid="false"
     units="mm"
     inkscape:window-width="3840"
     inkscape:window-height="2055"
     inkscape:window-x="-13"
     inkscape:window-y="-13"
     inkscape:window-maximized="1" />
  <metadata
     id="metadata5">
    <rdf:RDF>
      <cc:Work
         rdf:about="">
        <dc:format>image/svg+xml</dc:format>
        <dc:type
           rdf:resource="http://purl.org/dc/dcmitype/StillImage" />
        <dc:title />
      </cc:Work>
    </rdf:RDF>
  </metadata>
  <g
     inkscape:label="Capa 1"
     inkscape:groupmode="layer"
     id="layer1"
     transform="translate(0,-280.06665)">
    <path
       style="opacity:1;fill:#fce94f;fill-opacity:1;fill-rule:nonzero;stroke:none;stroke-width:0.74834647;stroke-miterlimit:4;stroke-dasharray:none;stroke-opacity:1"
       d="M 44.82179,61.557408 44.329008,61.477857 24.075984,50.794877 3.8229608,40.111898 3.3564924,39.568454 2.890024,39.025009 2.6169308,32.606028 c -0.1502013,-3.53044 -0.2657454,-6.426329 -0.2567646,-6.43531 0.00898,-0.009 0.050549,0.05921 0.092374,0.151537 0.05528,0.122028 0.1821394,0.24246 0.4645746,0.441039 0.2597639,0.182638 6.9455895,3.706867 20.1734292,10.633806 l 19.7849,10.360634 0.916521,0.289647 0.916521,0.289647 0.871076,-0.146115 0.871075,-0.146116 0.748931,-0.347591 0.748933,-0.347591 6.294643,-8.814488 c 6.096897,-8.537582 6.306139,-8.837183 6.660589,-9.53689 0.286206,-0.56499 0.366764,-0.693219 0.369715,-0.588473 0.0021,0.07366 -0.0899,2.976562 -0.204389,6.450893 l -0.208156,6.316964 -3.47083,4.933036 c -1.908956,2.713169 -5.040558,7.162946 -6.959116,9.888393 l -3.488286,4.955357 -0.456905,0.344856 -0.456908,0.344855 -0.357142,-0.0036 c -0.196429,-0.002 -0.578896,-0.03938 -0.849926,-0.08313 z"
       id="path827"
       inkscape:connector-curvature="0"
       transform="matrix(0.26458333,0,0,0.26458333,0,280.06665)" />
    <path
       style="opacity:1;fill:#fce94f;fill-opacity:1;fill-rule:nonzero;stroke:none;stroke-width:0.74834647;stroke-miterlimit:4;stroke-dasharray:none;stroke-opacity:1"
       d="M 43.970015,47.270831 43.171716,47.018382 23.417251,36.671555 C 12.552296,30.9808 3.5494733,26.241406 3.4109787,26.139568 3.1834838,25.972285 3.1213842,25.885759 2.7678285,25.243437 2.4026698,24.580036 2.3806879,24.525575 2.4392797,24.42945 2.4738157,24.37279 5.9473852,20.411242 10.158323,15.62601 l 7.65625,-8.700421 0.542899,-0.249643 c 0.367229,-0.1688641 0.749602,-0.3016969 1.181703,-0.4105131 l 0.638805,-0.1608703 0.469412,0.1176236 c 0.425387,0.1065917 2.301582,0.9857258 20.004456,9.3735418 l 19.535042,9.255918 0.269151,0.283523 c 0.681527,0.717918 0.707215,0.754419 0.766402,1.089008 l 0.05494,0.310587 -0.726942,1.410056 -0.726942,1.410056 -6.204428,8.684702 -6.204429,8.684702 -0.603607,0.278116 c -0.560849,0.258414 -0.654579,0.286714 -1.323165,0.3995 l -0.719557,0.121384 z m 1.414506,-7.302862 0.752106,-0.428402 0.06568,-0.23008 c 0.233948,-0.819491 0.384412,-1.465366 0.353329,-1.516693 -0.01964,-0.03243 -0.242155,-0.311138 -0.494476,-0.619343 l -0.458766,-0.560373 -0.56802,-0.20673 -0.56802,-0.20673 -0.714285,-7.99e-4 -0.714286,-7.99e-4 -0.701596,0.31999 -0.701596,0.319991 -0.223196,0.674273 -0.223195,0.674273 0.171417,0.615673 c 0.09428,0.33862 0.178962,0.622389 0.188184,0.630598 0.0092,0.0082 0.325543,0.228366 0.702935,0.489238 l 0.686167,0.474315 h 0.847754 0.847754 z m -13.84227,-3.034715 0.647322,-0.02938 1.049107,-0.422689 1.049107,-0.422688 0.675446,-0.671154 0.675446,-0.671154 0.1444,-0.720175 c 0.134491,-0.670753 0.142397,-0.760001 0.115211,-1.300532 -0.0499,-0.992123 -0.03143,-0.933203 -0.48884,-1.559535 -0.395663,-0.541785 -0.429925,-0.575071 -1.19153,-1.157593 l -0.784152,-0.599769 -9.606865,-4.668382 -9.606864,-4.668382 -0.915577,-0.09629 -0.915576,-0.09629 -0.903228,0.189281 -0.903228,0.189281 -0.7251421,0.385625 -0.7251416,0.385624 -0.6915272,0.691964 -0.6915272,0.691964 -0.1053973,0.887827 -0.1053974,0.887826 0.2497451,0.55589 0.2497447,0.555891 0.6919643,0.737636 0.6919642,0.737637 9.5535715,4.824424 9.553571,4.824425 1.071429,0.301404 c 0.589286,0.165772 1.121652,0.293595 1.183036,0.284051 0.06138,-0.0095 0.402901,-0.03057 0.758928,-0.04674 z m 20.838496,-6.792454 0.759692,-0.434142 0.208719,-0.783883 c 0.114799,-0.431135 0.212241,-0.816663 0.216535,-0.856728 0.0043,-0.04007 -0.213174,-0.344499 -0.483263,-0.676521 l -0.491072,-0.603675 -0.564723,-0.203669 -0.564727,-0.203668 h -0.722527 -0.722527 l -0.686179,0.317571 -0.686178,0.317572 -0.226339,0.679097 -0.226335,0.679097 0.166044,0.61334 0.166045,0.613339 0.694437,0.485833 0.694438,0.485833 0.854134,0.0024 0.854134,0.0024 0.759692,-0.434143 z m -11.041952,-4.682238 1.179285,-0.294952 0.790014,-0.698351 0.790014,-0.698352 0.258289,-0.675698 0.258289,-0.675697 -0.253962,-0.955161 -0.253962,-0.955162 -0.444814,-0.547227 -0.444814,-0.547228 -0.747327,-0.466282 C 41.780161,18.514159 40.998724,18.138814 32.345374,14.081425 L 22.968269,9.6846798 21.957658,9.6330882 20.947047,9.5814966 20.273667,9.7703543 C 19.698923,9.9315484 19.469838,10.02556 18.709718,10.412167 l -0.890569,0.452954 -0.347991,0.650199 -0.347992,0.650199 -0.153953,1.068416 c -0.146891,1.019412 -0.150385,1.072517 -0.07618,1.157837 0.55369,0.636666 0.933835,1.00672 1.584509,1.542445 l 0.774647,0.6378 9.146239,4.303948 9.146239,4.303948 1.29567,0.282599 c 0.712618,0.155429 1.300959,0.284489 1.307424,0.2868 0.0065,0.0023 0.542433,-0.128526 1.191039,-0.29075 z"
       id="path829"
       inkscape:connector-curvature="0"
       transform="matrix(0.26458333,0,0,0.26458333,0,280.06665)" />
    <path
       style="opacity:1;fill:#fce94f;fill-opacity:1;fill-rule:nonzero;stroke:none;stroke-width:0.74834647;stroke-miterlimit:4;stroke-dasharray:none;stroke-opacity:1"
       d="M 29.80118,35.936409 28.886001,35.679049 19.384809,30.883693 9.8836163,26.088335 9.2985776,25.456564 C 8.7816294,24.898322 8.6927897,24.778818 8.5352598,24.429778 l -0.1782791,-0.395014 0.072317,-0.64421 0.072317,-0.644209 0.5411341,-0.542437 C 9.557925,21.687492 9.614257,21.645244 10.217085,21.32317 c 0.616316,-0.32928 0.654036,-0.34275 1.414452,-0.505084 l 0.78125,-0.166782 0.78125,0.07803 0.78125,0.07803 9.519079,4.625059 9.519079,4.625059 0.715277,0.551264 c 0.561023,0.43238 0.766475,0.620555 0.952685,0.872573 0.403581,0.546209 0.382811,0.487245 0.412548,1.171183 0.02416,0.555572 0.01508,0.68105 -0.08349,1.154129 l -0.110596,0.530786 -0.529254,0.522936 -0.529254,0.522936 -0.892857,0.360141 c -0.798733,0.322174 -0.93286,0.362985 -1.272321,0.387126 -1.000618,0.07116 -0.89136,0.08248 -1.875,-0.194138 z"
       id="path831"
       inkscape:connector-curvature="0"
       transform="matrix(0.26458333,0,0,0.26458333,0,280.06665)" />
    <path
       style="opacity:1;fill:#fce94f;fill-opacity:1;fill-rule:nonzero;stroke:none;stroke-width:0.74834647;stroke-miterlimit:4;stroke-dasharray:none;stroke-opacity:1"
       d="m 38.996454,24.681217 -1.181881,-0.252923 -9.054976,-4.259265 -9.054975,-4.259265 -0.766453,-0.63188 c -0.42155,-0.347534 -0.884118,-0.765395 -1.027931,-0.928581 l -0.261477,-0.296702 0.11604,-0.805694 0.116041,-0.805695 0.257044,-0.490259 0.257044,-0.490259 0.74388,-0.374213 c 0.542973,-0.273146 0.89676,-0.418055 1.309931,-0.53654 l 0.566052,-0.162326 0.855247,0.03155 0.855247,0.03155 9.285714,4.351203 c 10.657892,4.994194 10.351756,4.837362 11.018591,5.644756 l 0.365508,0.44255 0.192006,0.746876 0.192005,0.746876 -0.192091,0.478206 -0.19209,0.478206 -0.636805,0.554337 -0.636804,0.554337 -0.971493,0.243037 -0.971492,0.243038 z"
       id="path833"
       inkscape:connector-curvature="0"
       transform="matrix(0.26458333,0,0,0.26458333,0,280.06665)" />
    <path
       style="opacity:1;fill:#fce94f;fill-opacity:1;fill-rule:nonzero;stroke:none;stroke-width:0.74834647;stroke-miterlimit:4;stroke-dasharray:none;stroke-opacity:1"
       d="m 42.714027,39.277169 c -0.251728,-0.173585 -0.474774,-0.349361 -0.495657,-0.390614 -0.02088,-0.04125 -0.07252,-0.21563 -0.114756,-0.387505 l -0.07679,-0.3125 0.128214,-0.379465 0.128215,-0.379464 0.399586,-0.199813 0.399587,-0.199813 0.625221,-0.01535 c 0.608771,-0.01495 0.635523,-0.01163 1.01679,0.126332 0.384412,0.139097 0.397216,0.148538 0.70055,0.516597 0.27857,0.338009 0.305058,0.386985 0.269118,0.497588 -0.02192,0.06747 -0.08299,0.287129 -0.135694,0.488125 l -0.09583,0.365446 -0.515104,0.293036 -0.515105,0.293036 -0.630329,-1.2e-5 -0.630329,-1.1e-5 z"
       id="path835"
       inkscape:connector-curvature="0"
       transform="matrix(0.26458333,0,0,0.26458333,0,280.06665)" />
    <path
       style="opacity:1;fill:#fce94f;fill-opacity:1;fill-rule:nonzero;stroke:none;stroke-width:0.74834647;stroke-miterlimit:4;stroke-dasharray:none;stroke-opacity:1"
       d="m 49.70805,29.452701 c -0.255698,-0.175268 -0.47693,-0.337267 -0.491627,-0.359998 -0.0147,-0.02273 -0.06381,-0.190284 -0.109148,-0.372341 l -0.08243,-0.331013 0.127415,-0.398692 0.127414,-0.398692 0.450484,-0.205457 0.450485,-0.205456 0.588473,5.16e-4 c 0.543425,4.78e-4 0.616898,0.01089 0.959821,0.136064 0.385695,0.140782 0.414415,0.164343 0.801399,0.657453 l 0.184395,0.234964 -0.126716,0.487295 -0.126716,0.487296 -0.518134,0.293366 -0.518134,0.293365 h -0.626038 -0.626039 z"
       id="path837"
       inkscape:connector-curvature="0"
       transform="matrix(0.26458333,0,0,0.26458333,0,280.06665)" />
    <path
       style="fill:none;stroke:#000000;stroke-width:0.198;stroke-linecap:butt;stroke-linejoin:miter;stroke-opacity:1;stroke-miterlimit:4;stroke-dasharray:none"
       d="m 16.323847,287.45608 -0.118118,3.54353 -3.708891,5.26804 -0.283483,0.21262 h -0.212611 l -0.307106,-0.0473 -10.74869753,-5.66964 -0.28348215,-0.33073 -0.16536458,-3.89788 4.15773816,-4.7247 0.3071055,-0.14175 0.3779761,-0.0945 0.2834823,0.0709 10.3707212,4.91369 0.283482,0.30711 0.04725,0.23623 z"
       id="path1132"
       inkscape:connector-curvature="0" />
    <path
       style="fill:none;stroke:#000000;stroke-width:0.198;stroke-linecap:butt;stroke-linejoin:miter;stroke-opacity:1;stroke-miterlimit:4;stroke-dasharray:none"
       d="m 0.49609374,286.53472 v 0 l 0.25985864,0.47252 0.16536458,0.11812 10.46521604,5.48065 0.448846,0.14174 0.425224,-0.0709 0.354352,-0.16536 3.307292,-4.63021 0.401602,-0.77961"
       id="path1134"
       inkscape:connector-curvature="0" />
    <path
       style="fill:none;stroke:#000000;stroke-width:0.198;stroke-linecap:butt;stroke-linejoin:miter;stroke-opacity:1;stroke-miterlimit:4;stroke-dasharray:none"
       d="m 11.740885,289.74757 h -0.330729 l -0.307105,0.14174 -0.0945,0.28348 0.07087,0.25986 0.307106,0.21261 h 0.401599 l 0.33073,-0.18899 0.09449,-0.35435 -0.212611,-0.25986 z"
       id="path1136"
       inkscape:connector-curvature="0" />
    <path
       style="fill:none;stroke:#000000;stroke-width:0.198;stroke-linecap:butt;stroke-linejoin:miter;stroke-opacity:1;stroke-miterlimit:4;stroke-dasharray:none"
       d="m 13.591785,287.14898 h -0.330729 l -0.307105,0.14174 -0.0945,0.28348 0.07087,0.25986 0.307106,0.21261 h 0.401599 l 0.33073,-0.18899 0.09449,-0.35435 -0.212611,-0.25986 z"
       id="path1136-1"
       inkscape:connector-curvature="0" />
    <path
       style="fill:none;stroke:#000000;stroke-width:0.198;stroke-linecap:butt;stroke-linejoin:miter;stroke-opacity:1;stroke-miterlimit:4;stroke-dasharray:none"
       d="m 2.5513393,287.05448 5.0554314,2.55134 0.5197174,0.14175 0.377976,-0.0236 0.5197174,-0.21261 0.3071055,-0.30711 0.07087,-0.35435 -0.023623,-0.35435 -0.1889881,-0.25986 -0.4015997,-0.30711 -5.0554315,-2.45684 -0.4488469,-0.0472 -0.4488465,0.0945 -0.3543528,0.18898 -0.3307291,0.33073 -0.047247,0.4016 0.1181176,0.25986 z"
       id="path1155"
       inkscape:connector-curvature="0" />
    <path
       style="fill:none;stroke:#000000;stroke-width:0.198;stroke-linecap:butt;stroke-linejoin:miter;stroke-opacity:1;stroke-miterlimit:4;stroke-dasharray:none"
       d="m 5.1499256,284.3614 4.8191964,2.26786 0.661458,0.14174 0.566965,-0.14174 0.377976,-0.33073 0.118117,-0.3071 -0.118117,-0.44885 -0.212612,-0.25986 -0.377976,-0.23623 -4.937314,-2.31511 -0.4960937,-0.0236 -0.3307292,0.0945 -0.4252232,0.21261 -0.1653646,0.30711 -0.07087,0.49609 0.1889881,0.21262 z"
       id="path1157"
       inkscape:connector-curvature="0" />
    <path
       style="fill:#666666;fill-opacity:1;stroke-width:0.08928572"
       d=""
       id="path1169"
       inkscape:connector-curvature="0"
       transform="matrix(0.26458333,0,0,0.26458333,0,280.06665)" />
  </g>
</svg>
