<?xml version="1.0" encoding="UTF-8" standalone="no"?>
<!-- Created with Inkscape (http://www.inkscape.org/) -->

<svg
   xmlns:dc="http://purl.org/dc/elements/1.1/"
   xmlns:cc="http://creativecommons.org/ns#"
   xmlns:rdf="http://www.w3.org/1999/02/22-rdf-syntax-ns#"
   xmlns:svg="http://www.w3.org/2000/svg"
   xmlns="http://www.w3.org/2000/svg"
   xmlns:sodipodi="http://sodipodi.sourceforge.net/DTD/sodipodi-0.dtd"
   xmlns:inkscape="http://www.inkscape.org/namespaces/inkscape"
   width="16.933331mm"
   height="16.933332mm"
   viewBox="0 0 16.933331 16.933333"
   version="1.1"
   id="svg8"
   inkscape:version="0.92.4 (5da689c313, 2019-01-14)"
   sodipodi:docname="Sk_cmd.svg">
  <defs
     id="defs2">
    <inkscape:path-effect
       effect="spiro"
       id="path-effect1460"
       is_visible="true" />
    <inkscape:path-effect
       effect="spiro"
       id="path-effect1412"
       is_visible="true" />
    <inkscape:path-effect
       effect="bspline"
       id="path-effect1249"
       is_visible="true"
       weight="33.333333"
       steps="2"
       helper_size="0"
       apply_no_weight="true"
       apply_with_weight="true"
       only_selected="false" />
  </defs>
  <sodipodi:namedview
     id="base"
     pagecolor="#ffffff"
     bordercolor="#666666"
     borderopacity="1.0"
     inkscape:pageopacity="0.0"
     inkscape:pageshadow="2"
     inkscape:zoom="15.839192"
     inkscape:cx="-1.3500814"
     inkscape:cy="23.992699"
     inkscape:document-units="mm"
     inkscape:current-layer="layer1"
     showgrid="true"
     units="mm"
     inkscape:window-width="3840"
     inkscape:window-height="2055"
     inkscape:window-x="-13"
     inkscape:window-y="-13"
     inkscape:window-maximized="1" />
  <metadata
     id="metadata5">
    <rdf:RDF>
      <cc:Work
         rdf:about="">
        <dc:format>image/svg+xml</dc:format>
        <dc:type
           rdf:resource="http://purl.org/dc/dcmitype/StillImage" />
        <dc:title />
      </cc:Work>
    </rdf:RDF>
  </metadata>
  <g
     inkscape:label="Capa 1"
     inkscape:groupmode="layer"
     id="layer1"
     transform="translate(0,-280.06665)">
    <path
       style="opacity:1;fill:#fce94f;fill-opacity:1;fill-rule:nonzero;stroke:none;stroke-width:0.74834647;stroke-miterlimit:4;stroke-dasharray:none;stroke-opacity:1"
       d="m 28.948182,39.563637 -11.237947,-12.340714 -0.03157,0.459056 -0.03157,0.459056 -5.650541,4.338664 C 8.888762,34.865964 6.3287823,36.812825 6.3077157,36.806057 6.286649,36.799288 5.3582245,35.74256 4.2445499,34.457772 2.6773115,32.649731 2.236508,32.104558 2.2941151,32.045529 2.3350504,32.003583 11.146151,25.297641 21.874339,17.143437 L 41.380135,2.3176095 43.428643,4.5199739 c 1.126679,1.2113004 2.020865,2.2209286 1.987079,2.2436183 -0.03379,0.02269 -2.467517,1.9116607 -5.408291,4.1977138 l -5.346861,4.156459 2.340829,2.377965 c 1.287456,1.30788 5.979527,6.170772 10.426824,10.806425 4.447299,4.635653 8.382619,8.729597 8.745158,9.097652 l 0.659162,0.669193 -3.544034,3.055745 c -1.949219,1.68066 -3.566854,3.063842 -3.594745,3.073738 -0.05096,0.01808 -7.596624,-7.827317 -7.632873,-7.936063 -0.01065,-0.03195 0.07895,-0.186885 0.1991,-0.344297 0.482351,-0.631915 0.735624,-1.406421 0.735624,-2.249533 0,-1.647348 -0.94586,-3.027116 -2.623875,-3.82756 -0.785502,-0.3747 -1.527669,-0.543778 -2.363753,-0.538502 -0.805084,0.0051 -1.237142,0.109431 -1.988738,0.480322 -0.956065,0.471791 -1.734311,1.290364 -2.203289,2.317461 -0.288074,0.630901 -0.379484,1.05515 -0.371913,1.726116 0.02043,1.810434 1.408354,3.401106 3.535063,4.051453 0.514355,0.15729 0.632298,0.16919 1.597088,0.16114 0.572946,-0.0048 1.129909,-0.01702 1.237697,-0.0272 0.184327,-0.01741 0.417952,0.215769 3.930125,3.922626 2.053781,2.167625 3.734147,3.962391 3.734147,3.98837 0,0.04626 -7.168679,5.949713 -7.250472,5.970815 -0.02286,0.0059 -5.098643,-5.542598 -11.279513,-12.32999 z"
       id="path832"
       inkscape:connector-curvature="0"
       transform="matrix(0.26458333,0,0,0.26458333,0,280.06665)" />
    <path
       style="opacity:1;fill:#fce94f;fill-opacity:1;fill-rule:nonzero;stroke:none;stroke-width:0.74834647;stroke-miterlimit:4;stroke-dasharray:none;stroke-opacity:1"
       d="m 38.315584,17.679382 -2.434233,-2.478418 4.858805,-3.775008 c 2.672342,-2.0762551 4.86587,-3.7665079 4.874505,-3.7561176 0.04646,0.055908 -0.392136,9.4015826 -0.443413,9.4482536 -0.07349,0.06688 -4.381464,3.039708 -4.404902,3.039708 -0.0091,0 -1.111935,-1.115288 -2.450762,-2.478418 z"
       id="path834"
       inkscape:connector-curvature="0"
       transform="matrix(0.26458333,0,0,0.26458333,0,280.06665)" />
    <path
       style="opacity:1;fill:#fce94f;fill-opacity:1;fill-rule:nonzero;stroke:none;stroke-width:0.74834647;stroke-miterlimit:4;stroke-dasharray:none;stroke-opacity:1"
       d="m 48.456753,52.977849 c -0.21044,-0.158417 -0.250347,-0.223428 -0.23939,-0.389989 0.0072,-0.109934 0.0758,-1.591997 0.152377,-3.293473 0.114011,-2.533286 0.156631,-3.113987 0.235312,-3.2062 0.0884,-0.103605 0.06816,-0.141464 -0.253197,-0.473509 -0.192106,-0.198495 -1.905673,-2.008712 -3.807927,-4.022704 -4.585263,-4.854597 -4.16636,-4.43783 -4.320433,-4.298396 -0.12277,0.111105 -0.127213,0.10971 -0.167982,-0.05273 -0.02911,-0.115994 -0.07332,-0.157358 -0.145034,-0.135702 -0.623961,0.188414 -1.723533,0.21669 -2.426672,0.0624 -0.249923,-0.05484 -0.744782,-0.239606 -1.099687,-0.410593 -0.523481,-0.252202 -0.732997,-0.397468 -1.109981,-0.76959 -0.546853,-0.5398 -0.894464,-1.173246 -1.008199,-1.837224 -0.241682,-1.410931 0.940987,-3.24006 2.474402,-3.826939 1.275882,-0.488314 2.94292,-0.171927 4.168827,0.7912 1.479984,1.162741 1.720791,3.242091 0.523675,4.521904 -0.269606,0.288231 -0.28042,0.31317 -0.18265,0.421205 0.129213,0.142779 0.132299,0.23833 0.0092,0.285559 -0.05209,0.01999 -0.0947,0.07343 -0.0947,0.118771 0,0.04534 1.816032,1.977566 4.035627,4.293841 l 4.035627,4.211409 -0.03314,0.585284 c -0.01823,0.321906 -0.10832,2.159701 -0.200205,4.083989 -0.102021,2.136552 -0.191644,3.505108 -0.230198,3.515149 -0.03472,0.009 -0.176775,-0.06911 -0.315671,-0.173666 z"
       id="path836"
       inkscape:connector-curvature="0"
       transform="matrix(0.26458333,0,0,0.26458333,0,280.06665)" />
    <path
       style="opacity:1;fill:#fce94f;fill-opacity:1;fill-rule:nonzero;stroke:none;stroke-width:0.74834647;stroke-miterlimit:4;stroke-dasharray:none;stroke-opacity:1"
       d="m 49.670623,52.560384 c 0.01644,-0.303166 0.105231,-2.126771 0.197315,-4.052454 l 0.167425,-3.501242 3.409141,-2.943235 c 1.875028,-1.618779 3.418965,-2.918728 3.430971,-2.888776 0.0176,0.0439 -0.811637,8.965351 -0.835659,8.990547 -0.03508,0.03679 -6.274814,4.872447 -6.328161,4.904182 -0.05116,0.03043 -0.06259,-0.11139 -0.04103,-0.509022 z"
       id="path838"
       inkscape:connector-curvature="0"
       transform="matrix(0.26458333,0,0,0.26458333,0,280.06665)" />
    <path
       style="opacity:1;fill:#fce94f;fill-opacity:1;fill-rule:nonzero;stroke:none;stroke-width:0.74834647;stroke-miterlimit:4;stroke-dasharray:none;stroke-opacity:1"
       d="m 40.284237,60.55462 c 0.0019,-0.255325 0.06742,-2.119975 0.14566,-4.143668 0.133838,-3.46176 0.149551,-3.686737 0.265594,-3.802781 0.193745,-0.193744 6.938154,-5.725743 6.96035,-5.709121 0.03923,0.02937 -0.375542,8.078305 -0.418158,8.1147 -0.57583,0.491789 -6.229032,5.366175 -6.530694,5.630992 l -0.426159,0.374105 z"
       id="path840"
       inkscape:connector-curvature="0"
       transform="matrix(0.26458333,0,0,0.26458333,0,280.06665)" />
    <path
       style="opacity:1;fill:#fce94f;fill-opacity:1;fill-rule:nonzero;stroke:none;stroke-width:0.74834647;stroke-miterlimit:4;stroke-dasharray:none;stroke-opacity:1"
       d="M 29.415559,49.698265 C 23.915178,43.547589 19.353918,38.439731 19.279425,38.347472 19.15053,38.187838 19.131224,37.974568 18.880088,33.936027 18.734946,31.601991 18.625614,29.64341 18.637127,29.583625 c 0.01393,-0.07234 3.492444,3.702136 10.399833,11.284692 5.708394,6.266367 10.458919,11.478992 10.556722,11.583611 l 0.177824,0.190219 -0.157619,4.099575 c -0.08669,2.254767 -0.166622,4.108579 -0.177627,4.119584 -0.011,0.01101 -4.520321,-5.012363 -10.020701,-11.163041 z"
       id="path842"
       inkscape:connector-curvature="0"
       transform="matrix(0.26458333,0,0,0.26458333,0,280.06665)" />
    <path
       style="opacity:1;fill:#fce94f;fill-opacity:1;fill-rule:nonzero;stroke:none;stroke-width:0.74834647;stroke-miterlimit:4;stroke-dasharray:none;stroke-opacity:1"
       d="M 7.8018236,46.279843 C 7.759141,46.139219 6.6803228,37.574694 6.7029419,37.556037 6.9960664,37.314264 17.659858,29.165067 17.706561,29.147145 c 0.04598,-0.01764 0.156115,1.415153 0.345384,4.49317 0.273174,4.442512 0.275842,4.520994 0.157489,4.63245 -0.455023,0.428506 -10.3883102,8.070664 -10.4076104,8.007078 z"
       id="path844"
       inkscape:connector-curvature="0"
       transform="matrix(0.26458333,0,0,0.26458333,0,280.06665)" />
    <path
       style="opacity:1;fill:#fce94f;fill-opacity:1;fill-rule:nonzero;stroke:none;stroke-width:0.74834647;stroke-miterlimit:4;stroke-dasharray:none;stroke-opacity:1"
       d="M 5.2031269,44.145682 3.5055881,42.371634 2.8617998,37.911235 C 2.5077163,35.458016 2.227541,33.441307 2.2391881,33.42966 c 0.011647,-0.01165 0.8320818,0.914172 1.8231884,2.057376 l 1.8020119,2.078551 0.5350959,4.159768 c 0.2943027,2.287872 0.5274651,4.167555 0.5181387,4.177072 -0.00933,0.0095 -0.7808498,-0.781018 -1.7144961,-1.756745 z"
       id="path846"
       inkscape:connector-curvature="0"
       transform="matrix(0.26458333,0,0,0.26458333,0,280.06665)" />
    <path
       style="fill:none;stroke:#000000;stroke-width:0.198;stroke-linecap:butt;stroke-linejoin:miter;stroke-opacity:1;stroke-miterlimit:4;stroke-dasharray:none"
       d="m 1.984375,292.53514 -1.15755209,-1.2048 -0.40159969,-2.78757 10.53608678,-8.00837 1.228422,1.32291 -0.118118,2.78758 -1.299293,0.89769 4.417597,4.60658 -0.259859,2.71671 -1.913504,1.48828 0.118117,-2.43322 -2.173362,-2.26786"
       id="path1231"
       inkscape:connector-curvature="0" />
    <path
       style="fill:none;stroke:#000000;stroke-width:0.198;stroke-linecap:butt;stroke-linejoin:miter;stroke-opacity:1;stroke-miterlimit:4;stroke-dasharray:none"
       d="m 13.134672,291.92093 2.055246,-1.77177"
       id="path1233"
       inkscape:connector-curvature="0" />
    <path
       style="fill:none;stroke:#000000;stroke-width:0.198;stroke-linecap:butt;stroke-linejoin:miter;stroke-opacity:1;stroke-miterlimit:4;stroke-dasharray:none"
       d="m 10.772321,285.54258 -1.441034,-1.46466 2.858445,-2.22061"
       id="path1235"
       inkscape:connector-curvature="0" />
    <path
       style="fill:none;stroke:#000000;stroke-width:0.198;stroke-linecap:butt;stroke-linejoin:miter;stroke-opacity:1;stroke-miterlimit:4;stroke-dasharray:none"
       d="m 0.42522322,288.54277 1.22842258,1.41741 0.3307292,2.57496 2.9765624,-2.3151 -0.1653645,-2.66946 5.8350071,6.40197 2.102493,-1.72452 -2.126116,-2.24423"
       id="path1237"
       inkscape:connector-curvature="0" />
    <path
       style="fill:none;stroke:#000000;stroke-width:0.198;stroke-linecap:butt;stroke-linejoin:miter;stroke-opacity:1;stroke-miterlimit:4;stroke-dasharray:none"
       d="m 1.6536458,289.96018 3.1419271,-2.4096"
       id="path1239"
       inkscape:connector-curvature="0" />
    <path
       style="fill:none;stroke:#000000;stroke-width:0.198;stroke-linecap:butt;stroke-linejoin:miter;stroke-opacity:1;stroke-miterlimit:4;stroke-dasharray:none"
       d="m 4.9609374,290.22004 5.5751486,6.2366 2.078869,-1.79538 0.118118,-2.43323"
       id="path1243"
       inkscape:connector-curvature="0" />
    <path
       style="fill:none;stroke:#000000;stroke-width:0.198;stroke-linecap:butt;stroke-linejoin:miter;stroke-opacity:1;stroke-miterlimit:4;stroke-dasharray:none"
       d="m 10.63058,293.95255 -0.09449,2.50409"
       id="path1245"
       inkscape:connector-curvature="0" />
    <path
       style="fill:none;stroke:#000000;stroke-width:0.198;stroke-linecap:butt;stroke-linejoin:miter;stroke-opacity:1;stroke-miterlimit:4;stroke-dasharray:none"
       d="m 10.96131,289.65307 c 0.194117,-0.16496 0.311811,-0.41644 0.314123,-0.67117 0.0019,-0.20986 -0.07249,-0.41831 -0.200452,-0.58465 -0.135474,-0.1761 -0.327375,-0.30391 -0.534539,-0.3842 -0.227561,-0.0882 -0.480392,-0.12128 -0.718287,-0.0668 -0.2790807,0.0639 -0.5243815,0.24733 -0.6848782,0.48442 -0.1290788,0.19068 -0.2068676,0.42237 -0.1837478,0.65147 0.024056,0.23838 0.1561233,0.45765 0.334087,0.61806 0.2149581,0.19376 0.4968616,0.30831 0.785104,0.33409 0.179165,0.016 0.361249,-0.001 0.534237,-0.0505"
       id="path1410"
       inkscape:connector-curvature="0"
       inkscape:path-effect="#path-effect1412"
       inkscape:original-d="m 10.96131,289.65307 c 0.104972,-0.22399 0.20968,-0.44771 0.314123,-0.67117 0.104443,-0.22346 -0.13337,-0.39004 -0.200452,-0.58465 -0.06708,-0.19462 -0.356095,-0.2564 -0.534539,-0.3842 -0.178444,-0.12781 -0.478594,-0.0448 -0.718287,-0.0668 -0.2396934,-0.022 -0.4563208,0.32268 -0.6848782,0.48442 -0.2285571,0.16174 -0.1222338,0.43405 -0.1837478,0.65147 -0.061514,0.21742 0.2229892,0.41178 0.334087,0.61806 0.1110977,0.20629 0.5236673,0.22246 0.785104,0.33409 0.261437,0.11163 0.356423,-0.0339 0.534237,-0.0505" />
    <path
       style="fill:#4d4d4d;stroke:#000000;stroke-width:0.198;stroke-linecap:butt;stroke-linejoin:miter;stroke-opacity:1;stroke-miterlimit:4;stroke-dasharray:none"
       d="m 13.016555,294.35415 -0.37207,-0.26576"
       id="path1458"
       inkscape:connector-curvature="0"
       inkscape:path-effect="#path-effect1460"
       inkscape:original-d="m 13.016555,294.35415 c -0.123759,-0.0888 -0.247782,-0.17744 -0.37207,-0.26576" />
  </g>
</svg>
