<?xml version="1.0" encoding="UTF-8" standalone="no"?>
<!-- Created with Inkscape (http://www.inkscape.org/) -->

<svg
   xmlns:dc="http://purl.org/dc/elements/1.1/"
   xmlns:cc="http://creativecommons.org/ns#"
   xmlns:rdf="http://www.w3.org/1999/02/22-rdf-syntax-ns#"
   xmlns:svg="http://www.w3.org/2000/svg"
   xmlns="http://www.w3.org/2000/svg"
   xmlns:sodipodi="http://sodipodi.sourceforge.net/DTD/sodipodi-0.dtd"
   xmlns:inkscape="http://www.inkscape.org/namespaces/inkscape"
   width="64"
   height="64"
   viewBox="0 0 16.933333 16.933334"
   version="1.1"
   id="svg8"
   inkscape:version="0.92.4 (5da689c313, 2019-01-14)"
   sodipodi:docname="Stop_Holder.svg">
  <defs
     id="defs2" />
  <sodipodi:namedview
     id="base"
     pagecolor="#ffffff"
     bordercolor="#666666"
     borderopacity="1.0"
     inkscape:pageopacity="0.0"
     inkscape:pageshadow="2"
     inkscape:zoom="15.839192"
     inkscape:cx="3.9067656"
     inkscape:cy="30.67451"
     inkscape:document-units="mm"
     inkscape:current-layer="layer1"
     showgrid="false"
     units="px"
     inkscape:window-width="3840"
     inkscape:window-height="2055"
     inkscape:window-x="-13"
     inkscape:window-y="-13"
     inkscape:window-maximized="1" />
  <metadata
     id="metadata5">
    <rdf:RDF>
      <cc:Work
         rdf:about="">
        <dc:format>image/svg+xml</dc:format>
        <dc:type
           rdf:resource="http://purl.org/dc/dcmitype/StillImage" />
        <dc:title />
      </cc:Work>
    </rdf:RDF>
  </metadata>
  <g
     inkscape:label="Capa 1"
     inkscape:groupmode="layer"
     id="layer1"
     transform="translate(0,-280.06665)">
    <path
       style="opacity:1;fill:#fce94f;fill-opacity:1;fill-rule:nonzero;stroke:none;stroke-width:0.74834646;stroke-miterlimit:4;stroke-dasharray:none;stroke-opacity:1"
       d="m 36.965773,52.86798 c 0.06188,-0.338376 -0.0067,-1.285131 -0.09844,-1.359595 -0.559004,-0.453602 -11.403048,-6.607999 -11.670931,-6.623688 -0.16849,-0.0099 -0.38819,-0.327435 -1.231245,-1.779712 -0.564388,-0.972236 -1.014511,-1.776131 -1.000273,-1.786433 0.01424,-0.0103 4.634699,-2.616357 10.267691,-5.791233 l 10.241805,-5.772501 8.108354,4.983136 c 4.459595,2.740724 8.18171,5.024188 8.271367,5.074362 0.136524,0.0764 -0.181419,0.289698 -1.956643,1.31263 -1.16581,0.671772 -2.134601,1.206458 -2.152867,1.188191 -0.01827,-0.01827 0.06306,-0.21008 0.180723,-0.426253 0.1349,-0.247839 0.232178,-0.607446 0.263318,-0.973399 l 0.04938,-0.580357 -0.532101,-0.477013 c -0.407894,-0.365664 -1.797717,-1.177118 -5.953979,-3.476251 -2.982033,-1.649582 -5.690999,-3.109839 -6.019925,-3.245017 -0.488113,-0.200598 -0.791747,-0.256237 -1.651786,-0.302678 -1.001755,-0.05409 -1.089451,-0.04446 -1.777651,0.195243 -0.611566,0.213013 -0.78065,0.318041 -1.089484,0.676753 -0.352078,0.408936 -0.363607,0.44189 -0.312375,0.892857 0.02926,0.257536 0.178851,0.719994 0.332431,1.027684 l 0.279235,0.559436 6.017195,3.392059 6.017196,3.392059 0.722,0.05463 c 0.487622,0.0369 1.022738,0.0065 1.648419,-0.09353 0.509529,-0.08149 0.94208,-0.132502 0.961224,-0.113359 0.02829,0.02829 -17.685992,10.312938 -17.913391,10.400253 -0.03723,0.01429 -0.03689,-0.142432 7.14e-4,-0.34828 z"
       id="path843"
       inkscape:connector-curvature="0"
       transform="matrix(0.26458333,0,0,0.26458333,0,280.06665)" />
    <path
       style="opacity:1;fill:#fce94f;fill-opacity:1;fill-rule:nonzero;stroke:none;stroke-width:0.74834646;stroke-miterlimit:4;stroke-dasharray:none;stroke-opacity:1"
       d="m 22.374923,40.355449 c -0.658298,-1.026039 -2.54686,-4.393349 -2.49129,-4.441974 0.08042,-0.07037 10.747184,-6.160705 10.790011,-6.160705 0.01511,0 0.243245,0.277693 0.506961,0.617095 0.962007,1.238102 2.33156,2.039567 4.330602,2.534277 l 0.466867,0.115537 -6.680182,3.768332 c -3.6741,2.072582 -6.705809,3.768331 -6.73713,3.768331 -0.03132,0 -0.114949,-0.0904 -0.185839,-0.200893 z"
       id="path845"
       inkscape:connector-curvature="0"
       transform="matrix(0.26458333,0,0,0.26458333,0,280.06665)" />
    <path
       style="opacity:1;fill:#fce94f;fill-opacity:1;fill-rule:nonzero;stroke:none;stroke-width:0.74834646;stroke-miterlimit:4;stroke-dasharray:none;stroke-opacity:1"
       d="M 21.316662,42.306302 C 16.565545,34.087574 12.678269,27.342141 12.678269,27.31645 c 0,-0.05961 0.809346,-0.536053 0.841988,-0.495658 0.02007,0.02483 17.230605,29.622169 17.343563,29.826102 0.03271,0.05905 -0.565692,0.479576 -0.803954,0.564979 -0.06172,0.02212 -3.656649,-6.106584 -8.743204,-14.905571 z"
       id="path855"
       inkscape:connector-curvature="0"
       transform="matrix(0.26458333,0,0,0.26458333,0,280.06665)" />
    <path
       style="opacity:1;fill:#fce94f;fill-opacity:1;fill-rule:nonzero;stroke:none;stroke-width:0.74834646;stroke-miterlimit:4;stroke-dasharray:none;stroke-opacity:1"
       d="m 32.990769,53.418899 c -0.738217,-0.06496 -1.45063,-0.401033 -2.872808,-1.35521 -0.925825,-0.621161 -1.100407,-0.701652 -1.100407,-0.507347 0,0.06757 -0.03113,0.07581 -0.08427,0.02232 -0.118485,-0.119261 -3.210267,-5.436118 -3.1792,-5.467185 0.0274,-0.0274 9.561305,5.372019 10.087494,5.712938 0.27901,0.180771 0.316753,0.249495 0.317727,0.578525 9.38e-4,0.316911 -0.0411,0.403438 -0.277953,0.572092 -0.313949,0.22355 -1.477663,0.527576 -1.953084,0.510251 -0.171875,-0.0063 -0.59375,-0.03614 -0.9375,-0.06638 z"
       id="path857"
       inkscape:connector-curvature="0"
       transform="matrix(0.26458333,0,0,0.26458333,0,280.06665)" />
    <path
       style="opacity:1;fill:#fce94f;fill-opacity:1;fill-rule:nonzero;stroke:none;stroke-width:0.74834646;stroke-miterlimit:4;stroke-dasharray:none;stroke-opacity:1"
       d="m 30.184887,60.536313 c 0.0036,-0.946573 0.03377,-1.895347 0.06696,-2.108385 l 0.06035,-0.387343 15.803572,-9.135326 15.803571,-9.135326 0.02395,2.150509 c 0.01317,1.18278 -0.007,2.181472 -0.04486,2.219316 -0.06311,0.06311 -30.914537,17.696045 -31.47462,17.989118 l -0.245535,0.12848 z"
       id="path861"
       inkscape:connector-curvature="0"
       transform="matrix(0.26458333,0,0,0.26458333,0,280.06665)" />
    <path
       style="opacity:1;fill:#fce94f;fill-opacity:1;fill-rule:nonzero;stroke:none;stroke-width:0.74834646;stroke-miterlimit:4;stroke-dasharray:none;stroke-opacity:1"
       d="m 52.1353,42.188627 c -0.214757,-0.02292 -2.23537,-1.113957 -6.15349,-3.322601 -5.675411,-3.199229 -5.839274,-3.299062 -6.037818,-3.678544 -0.39941,-0.763403 -0.222733,-1.084694 0.769991,-1.400246 0.508907,-0.161764 0.690281,-0.175561 1.473214,-0.112069 0.491072,0.03982 1.053572,0.141634 1.25,0.226245 0.798715,0.344045 11.21214,6.152534 11.552439,6.443817 0.432278,0.370014 0.475006,0.664636 0.174048,1.200118 -0.208125,0.370308 -0.280654,0.396852 -1.681844,0.615509 -0.576575,0.08997 -0.733379,0.09321 -1.34654,0.02777 z"
       id="path863"
       inkscape:connector-curvature="0"
       transform="matrix(0.26458333,0,0,0.26458333,0,280.06665)" />
    <path
       style="opacity:1;fill:#fce94f;fill-opacity:1;fill-rule:nonzero;stroke:none;stroke-width:0.74834646;stroke-miterlimit:4;stroke-dasharray:none;stroke-opacity:1"
       d="m 39.183701,30.935806 c 0.09338,-0.184152 0.198592,-0.555803 0.233812,-0.825893 0.03522,-0.270089 0.116494,-0.747191 0.18061,-1.060226 0.09725,-0.474814 0.09592,-0.696807 -0.008,-1.339285 -0.204131,-1.26184 -0.500605,-2.723675 -0.58571,-2.887983 -0.06429,-0.124117 -0.0094,-0.189325 0.285975,-0.340039 0.201035,-0.10256 0.400669,-0.17408 0.44363,-0.158934 0.153147,0.05399 3.120081,4.753506 3.047097,4.82649 -0.07744,0.07744 -3.674751,2.120692 -3.733647,2.120692 -0.01844,0 0.04287,-0.15067 0.136245,-0.334822 z"
       id="path865"
       inkscape:connector-curvature="0"
       transform="matrix(0.26458333,0,0,0.26458333,0,280.06665)" />
    <path
       style="opacity:1;fill:#fce94f;fill-opacity:1;fill-rule:nonzero;stroke:none;stroke-width:0.74834646;stroke-miterlimit:4;stroke-dasharray:none;stroke-opacity:1"
       d="M 33.186431,28.650253 C 33.047867,28.438778 33.035412,27.847331 33.035412,21.47927 v -6.940499 l 0.220579,-0.723167 c 0.208257,-0.682767 0.259582,-0.761123 0.918733,-1.402573 0.60497,-0.588723 0.752922,-0.687618 1.108495,-0.740939 0.235486,-0.03531 0.482779,-0.02277 0.580336,0.02944 0.425133,0.227524 0.419138,0.08674 0.313232,7.35568 -0.06774,4.649477 -0.133524,6.967502 -0.207243,7.302697 -0.06607,0.300425 -0.297106,0.795953 -0.595102,1.276391 -0.53972,0.870157 -0.856539,1.104627 -1.61376,1.194308 -0.38346,0.04542 -0.437422,0.02847 -0.574251,-0.180359 z"
       id="path849"
       inkscape:connector-curvature="0"
       transform="matrix(0.26458333,0,0,0.26458333,0,280.06665)" />
    <path
       style="opacity:1;fill:#fce94f;fill-opacity:1;fill-rule:nonzero;stroke:none;stroke-width:0.74834646;stroke-miterlimit:4;stroke-dasharray:none;stroke-opacity:1"
       d="m 15.345872,28.299783 -1.30561,-2.25237 -0.06114,-0.758928 -0.06114,-0.758929 0.389645,-0.580357 c 0.440365,-0.655903 0.958923,-1.006494 1.488704,-1.006494 0.66559,0 0.696378,0.05641 0.755437,1.384153 0.07381,1.659353 0.170532,6.22992 0.131785,6.227389 -0.01764,-0.0012 -0.619597,-1.015661 -1.337683,-2.254464 z"
       id="path853"
       inkscape:connector-curvature="0"
       transform="matrix(0.26458333,0,0,0.26458333,0,280.06665)" />
    <path
       style="opacity:1;fill:#fce94f;fill-opacity:1;fill-rule:nonzero;stroke:none;stroke-width:0.74834646;stroke-miterlimit:4;stroke-dasharray:none;stroke-opacity:1"
       d="M 51.517554,33.726192 43.79434,28.967491 42.081262,26.318392 c -1.541674,-2.38404 -1.717746,-2.695398 -1.759736,-3.111825 -0.05429,-0.538439 -0.516831,-15.2561831 -0.480289,-15.2825581 0.01349,-0.00974 0.667417,0.3752248 1.453166,0.8554747 l 1.428634,0.8731817 8.035651,13.9055687 c 9.433036,16.323718 8.644405,14.946774 8.554216,14.935598 -0.03968,-0.0049 -3.547582,-2.150354 -7.79535,-4.76764 z"
       id="path867"
       inkscape:connector-curvature="0"
       transform="matrix(0.26458333,0,0,0.26458333,0,280.06665)" />
    <path
       style="opacity:1;fill:#fce94f;fill-opacity:1;fill-rule:nonzero;stroke:none;stroke-width:0.74834646;stroke-miterlimit:4;stroke-dasharray:none;stroke-opacity:1"
       d="M 60.770638,39.199012 C 60.40478,38.628793 43.717362,9.6880725 43.685503,9.5685398 43.661221,9.4774339 43.81321,9.3197256 44.123105,9.1144708 L 44.597912,8.7999897 53.202254,23.79385 c 7.146556,12.453534 8.583637,15.01277 8.482142,15.105479 -0.06721,0.06139 -0.270681,0.200098 -0.452159,0.308237 l -0.32996,0.196617 z"
       id="path869"
       inkscape:connector-curvature="0"
       transform="matrix(0.26458333,0,0,0.26458333,0,280.06665)" />
    <path
       style="opacity:1;fill:#fce94f;fill-opacity:1;fill-rule:nonzero;stroke:none;stroke-width:0.74834646;stroke-miterlimit:4;stroke-dasharray:none;stroke-opacity:1"
       d="M 16.777858,55.118226 4.3300544,47.991396 4.2645982,45.144405 C 4.2285973,43.57856 4.208508,37.972236 4.2199553,32.68591 l 0.020813,-9.611503 3.75,2.175599 3.7500007,2.175598 8.816964,15.238581 8.816964,15.23858 v 2.12509 c 0,1.1688 -0.03353,2.145815 -0.07452,2.171146 -0.04098,0.02533 -5.67603,-3.161019 -12.522321,-7.080775 z"
       id="path841"
       inkscape:connector-curvature="0"
       transform="matrix(0.26458333,0,0,0.26458333,0,280.06665)" />
    <path
       style="opacity:1;fill:#fce94f;fill-opacity:1;fill-rule:nonzero;stroke:none;stroke-width:0.74834646;stroke-miterlimit:4;stroke-dasharray:none;stroke-opacity:1"
       d="M 8.3925544,24.519617 C 6.4037151,23.363158 4.7446838,22.386391 4.7058181,22.349024 4.6669524,22.311656 11.869011,18.156534 20.710392,13.115417 L 36.785631,3.94975 40.334629,6.060839 c 1.951948,1.1610989 3.56093,2.1204526 3.575515,2.131897 0.01458,0.011444 -0.174865,0.1686359 -0.420999,0.3493145 L 43.04163,8.8705571 41.211564,7.7531823 39.381498,6.6358074 24.71292,15.159029 l -14.66858,8.523222 -0.01095,0.400068 -0.01095,0.400068 1.260951,0.772696 c 1.639267,1.004524 1.592957,0.956413 1.142047,1.186451 -0.200779,0.10243 -0.376699,0.184999 -0.390932,0.183486 -0.01423,-0.0015 -1.65311,-0.948943 -3.6419496,-2.105403 z"
       id="path851"
       inkscape:connector-curvature="0"
       transform="matrix(0.26458333,0,0,0.26458333,0,280.06665)" />
    <path
       style="fill:none;stroke:#000000;stroke-width:0.198;stroke-linecap:butt;stroke-linejoin:miter;stroke-opacity:1;stroke-miterlimit:4;stroke-dasharray:none"
       d="m 0.99218749,285.9678 0.0236235,6.85082 6.8508184,3.9215 0.023624,-1.37016 -4.7010788,-8.12649 z"
       id="path1005"
       inkscape:connector-curvature="0" />
    <path
       style="fill:none;stroke:#000000;stroke-width:0.198;stroke-linecap:butt;stroke-linejoin:miter;stroke-opacity:1;stroke-miterlimit:4;stroke-dasharray:none"
       d="m 0.99218749,285.9678 8.74069951,-4.98456 2.102492,1.25205 4.677456,8.15011 v 1.41741 l -8.6462056,4.93731"
       id="path1007"
       inkscape:connector-curvature="0" />
    <path
       style="fill:none;stroke:#000000;stroke-width:0.198;stroke-linecap:butt;stroke-linejoin:miter;stroke-opacity:1;stroke-miterlimit:4;stroke-dasharray:none"
       d="M 7.8902533,295.36996 16.512835,290.3854"
       id="path1009"
       inkscape:connector-curvature="0" />
    <path
       style="fill:none;stroke:#000000;stroke-width:0.198;stroke-linecap:butt;stroke-linejoin:miter;stroke-opacity:1;stroke-miterlimit:4;stroke-dasharray:none"
       d="m 3.1891745,287.24347 v 0 l 0.4252227,-0.23623"
       id="path1011"
       inkscape:connector-curvature="0" />
    <path
       style="fill:none;stroke:#000000;stroke-width:0.198;stroke-linecap:butt;stroke-linejoin:miter;stroke-opacity:1;stroke-miterlimit:4;stroke-dasharray:none"
       d="m 8.3154762,295.08648 -4.701079,-8.07924 -0.9213168,-0.56697"
       id="path1013"
       inkscape:connector-curvature="0" />
    <path
       style="fill:none;stroke:#000000;stroke-width:0.198;stroke-linecap:butt;stroke-linejoin:miter;stroke-opacity:1;stroke-miterlimit:4;stroke-dasharray:none"
       d="m 11.835379,282.23529 -0.448846,0.3071 4.653831,8.05562"
       id="path1015"
       inkscape:connector-curvature="0" />
    <path
       style="fill:none;stroke:#000000;stroke-width:0.198;stroke-linecap:butt;stroke-linejoin:miter;stroke-opacity:1;stroke-miterlimit:4;stroke-dasharray:none"
       d="m 11.386533,282.54239 -0.968564,-0.59058 -7.7248885,4.48846"
       id="path1017"
       inkscape:connector-curvature="0" />
    <path
       style="fill:none;stroke:#000000;stroke-width:0.198;stroke-linecap:butt;stroke-linejoin:miter;stroke-opacity:1;stroke-miterlimit:4;stroke-dasharray:none"
       d="m 8.6225818,287.62145 v -3.70889 l 0.141741,-0.44885 0.2126118,-0.21261 0.1653645,-0.16537 0.1889879,-0.0472 0.1181177,-0.0236 0.1653646,0.0945 0.094494,0.16536 -0.047247,3.56715 -0.07087,0.37798 -0.1181174,0.18899 -0.1653646,0.25986 -0.2362351,0.11811 -0.1653645,0.0236 H 8.7643228 Z"
       id="path1019"
       inkscape:connector-curvature="0" />
    <path
       style="fill:none;stroke:#000000;stroke-width:0.198;stroke-linecap:butt;stroke-linejoin:miter;stroke-opacity:1;stroke-miterlimit:4;stroke-dasharray:none"
       d="m 4.5357142,288.35378 -0.047247,-2.03162 -0.023625,-0.18899 -0.094494,-0.0709 -0.1653646,-0.0473 -0.1653646,0.0236 -0.1889879,0.0945 -0.1181177,0.14174 -0.1653646,0.25986 0.047247,0.47247 v 0"
       id="path1021"
       inkscape:connector-curvature="0" />
    <path
       style="fill:none;stroke:#000000;stroke-width:0.198;stroke-linecap:butt;stroke-linejoin:miter;stroke-opacity:1;stroke-miterlimit:4;stroke-dasharray:none"
       d="m 5.1735492,289.48771 2.9765625,-1.7009 0.3071055,0.4016 0.2126115,0.16537 0.2362354,0.14174 0.2598584,0.0945 0.3071058,0.0945 0.1653646,0.0236 h 0.1889879 l 0.1653646,-0.11812 0.1181176,-0.11811 0.118118,-0.18899 0.07087,-0.14174 0.04725,-0.30711 0.04725,-0.23623 -0.04725,-0.30711 -0.07087,-0.37798 -0.04725,-0.21261 -0.07087,-0.16536 0.4016,-0.18899 -0.141741,-4.39397"
       id="path1023"
       inkscape:connector-curvature="0" />
    <path
       style="fill:none;stroke:#000000;stroke-width:0.198;stroke-linecap:butt;stroke-linejoin:miter;stroke-opacity:1;stroke-miterlimit:4;stroke-dasharray:none"
       d="m 10.559711,286.34577 0.944939,1.46467 -5.5279015,3.1183"
       id="path1025"
       inkscape:connector-curvature="0" />
    <path
       style="fill:none;stroke:#000000;stroke-width:0.198;stroke-linecap:butt;stroke-linejoin:miter;stroke-opacity:1;stroke-miterlimit:4;stroke-dasharray:none"
       d="m 11.50465,287.81044 4.535714,2.78757"
       id="path1027"
       inkscape:connector-curvature="0" />
    <path
       style="fill:none;stroke:#000000;stroke-width:0.198;stroke-linecap:butt;stroke-linejoin:miter;stroke-opacity:1;stroke-miterlimit:4;stroke-dasharray:none"
       d="m 6.6145832,292.01542 2.7875746,1.58278 0.2598584,0.16536 0.023625,0.18899 -0.023625,0.14174 -0.1889879,0.14174 -0.4015997,0.0945 -0.496094,-0.0236 -0.4252229,-0.21261 -0.4960938,-0.33073"
       id="path1029"
       inkscape:connector-curvature="0" />
    <path
       style="fill:none;stroke:#000000;stroke-width:0.198;stroke-linecap:butt;stroke-linejoin:miter;stroke-opacity:1;stroke-miterlimit:4;stroke-dasharray:none"
       d="m 10.536086,289.55858 3.141927,1.77176 0.330729,0.0236 0.448847,-0.0709 0.165365,-0.0472 0.118117,-0.21261 0.02363,-0.23624 -0.236235,-0.21261 -2.905692,-1.6064 -0.259859,-0.0945 -0.47247,-0.0236 -0.354353,0.11812 -0.141741,0.16536 0.02362,0.18899 z"
       id="path1031"
       inkscape:connector-curvature="0" />
    <path
       style="opacity:1;fill:#fce94f;fill-opacity:1;fill-rule:nonzero;stroke:none;stroke-width:0.74834646;stroke-miterlimit:4;stroke-dasharray:none;stroke-opacity:1"
       d="m 19.31322,35.087264 c -0.03939,-0.0612 -0.541998,-0.914851 -1.116915,-1.896994 -1.016756,-1.736946 -1.039119,-1.786505 -0.818852,-1.814686 0.226344,-0.02896 0.226428,-0.02932 0.176243,-0.758929 -0.02762,-0.401476 -0.07209,-2.03576 -0.09884,-3.631742 -0.06438,-3.841535 -0.09152,-4.150067 -0.389359,-4.426237 -0.572666,-0.531006 -1.50404,-0.592374 -2.365459,-0.15586 -0.494609,0.250637 -0.742212,0.513247 -1.275288,1.352579 -0.3526,0.555174 -0.367367,0.606475 -0.321178,1.115853 0.0278,0.306587 0.01409,0.514737 -0.03219,0.488859 -0.471971,-0.263868 -1.921462,-1.177087 -1.955355,-1.231929 -0.04189,-0.06777 27.800425,-16.2985463 27.850758,-16.2356983 0.03787,0.047282 0.519686,15.5286233 0.484291,15.5607403 -0.01745,0.01584 -0.373248,0.198848 -0.790658,0.406693 -0.417411,0.207846 -0.769494,0.387144 -0.782407,0.39844 -0.01291,0.0113 0.0772,0.248197 0.200258,0.526446 0.125711,0.284254 0.346032,1.160654 0.50287,2.000331 l 0.279135,1.494426 -0.155697,1.026786 c -0.187088,1.233803 -0.508539,1.901622 -1.225703,2.546414 l -0.468293,0.421036 -0.536689,-0.04559 c -0.692519,-0.05883 -2.163227,-0.530046 -2.896335,-0.927988 -0.836056,-0.453822 -1.267731,-0.841513 -1.983556,-1.781448 -0.350766,-0.460582 -0.667395,-0.837421 -0.703623,-0.837421 -0.03623,0 -2.531584,1.409849 -5.545235,3.132999 -6.514927,3.725112 -5.941241,3.413829 -6.031917,3.272923 z m 15.627318,-5.747238 c 0.488399,-0.240731 0.559455,-0.318706 1.129099,-1.239041 0.891603,-1.440505 0.873018,-1.260027 0.970003,-9.419643 L 37.1187,12.029556 36.886364,11.608183 C 36.719227,11.305054 36.531543,11.120145 36.217535,10.94924 l -0.436497,-0.237571 -0.736272,0.154512 -0.736273,0.154511 -0.768148,0.772289 -0.768148,0.772289 -0.313178,0.982143 -0.313179,0.982143 -0.0016,7.057086 -0.0016,7.057086 0.379465,0.519929 0.379464,0.519929 0.758929,-0.04333 c 0.597759,-0.03413 0.869611,-0.09789 1.280126,-0.300229 z"
       id="path847"
       inkscape:connector-curvature="0"
       transform="matrix(0.26458333,0,0,0.26458333,0,280.06665)" />
    <path
       style="opacity:1;fill:#fce94f;fill-opacity:1;fill-rule:nonzero;stroke:none;stroke-width:0.74834646;stroke-miterlimit:4;stroke-dasharray:none;stroke-opacity:1"
       d="m 30.634354,54.566919 c -0.548621,-0.94227 -0.984405,-1.726305 -0.968409,-1.742301 0.016,-0.016 0.208126,0.09217 0.426954,0.240368 0.218828,0.148199 0.798492,0.472865 1.288141,0.72148 l 0.890272,0.452026 1.207943,0.0116 c 0.664368,0.0064 1.368657,-0.02214 1.565085,-0.06338 0.263032,-0.05522 -0.113411,0.200281 -1.428571,0.969623 -0.982143,0.574533 -1.830311,1.062424 -1.884818,1.084202 -0.05451,0.02178 -0.547976,-0.731351 -1.096597,-1.673621 z"
       id="path859"
       inkscape:connector-curvature="0"
       transform="matrix(0.26458333,0,0,0.26458333,0,280.06665)" />
  </g>
</svg>
